G04 #@! TF.GenerationSoftware,KiCad,Pcbnew,(5.1.10)-1*
G04 #@! TF.CreationDate,2021-05-18T23:44:27-07:00*
G04 #@! TF.ProjectId,mkbd-guide,6d6b6264-2d67-4756-9964-652e6b696361,rev?*
G04 #@! TF.SameCoordinates,Original*
G04 #@! TF.FileFunction,Legend,Bot*
G04 #@! TF.FilePolarity,Positive*
%FSLAX46Y46*%
G04 Gerber Fmt 4.6, Leading zero omitted, Abs format (unit mm)*
G04 Created by KiCad (PCBNEW (5.1.10)-1) date 2021-05-18 23:44:27*
%MOMM*%
%LPD*%
G01*
G04 APERTURE LIST*
%ADD10C,0.010000*%
%ADD11C,0.150000*%
%ADD12C,4.000000*%
%ADD13C,1.900000*%
%ADD14O,2.500000X2.000000*%
%ADD15C,1.524000*%
%ADD16C,2.000000*%
G04 APERTURE END LIST*
D10*
G36*
X194246876Y-77338443D02*
G01*
X193976115Y-77501604D01*
X193744444Y-77686332D01*
X193894737Y-78001499D01*
X194050147Y-78234488D01*
X194230773Y-78308999D01*
X194456207Y-78227822D01*
X194621774Y-78105000D01*
X194867501Y-77941298D01*
X195086743Y-77912827D01*
X195323616Y-78022692D01*
X195504999Y-78167177D01*
X195733384Y-78397912D01*
X195889196Y-78643705D01*
X195984880Y-78943016D01*
X196032885Y-79334311D01*
X196045667Y-79837947D01*
X196045667Y-80687334D01*
X195664667Y-80687334D01*
X195430564Y-80693660D01*
X195319709Y-80736533D01*
X195286017Y-80851797D01*
X195283667Y-80983667D01*
X195283667Y-81280000D01*
X197485000Y-81280000D01*
X197485000Y-80983667D01*
X197472058Y-80785529D01*
X197398714Y-80703906D01*
X197213190Y-80687385D01*
X197186570Y-80687334D01*
X196888139Y-80687334D01*
X196911403Y-79311500D01*
X196934667Y-77935667D01*
X197209834Y-77909136D01*
X197396434Y-77873775D01*
X197471644Y-77779528D01*
X197485000Y-77591636D01*
X197485000Y-77300667D01*
X196765334Y-77300667D01*
X196414220Y-77304264D01*
X196199636Y-77319840D01*
X196088846Y-77354574D01*
X196049115Y-77415644D01*
X196045667Y-77458485D01*
X196034125Y-77544365D01*
X195974706Y-77561246D01*
X195830222Y-77505146D01*
X195650318Y-77416151D01*
X195170268Y-77250444D01*
X194689871Y-77225183D01*
X194246876Y-77338443D01*
G37*
X194246876Y-77338443D02*
X193976115Y-77501604D01*
X193744444Y-77686332D01*
X193894737Y-78001499D01*
X194050147Y-78234488D01*
X194230773Y-78308999D01*
X194456207Y-78227822D01*
X194621774Y-78105000D01*
X194867501Y-77941298D01*
X195086743Y-77912827D01*
X195323616Y-78022692D01*
X195504999Y-78167177D01*
X195733384Y-78397912D01*
X195889196Y-78643705D01*
X195984880Y-78943016D01*
X196032885Y-79334311D01*
X196045667Y-79837947D01*
X196045667Y-80687334D01*
X195664667Y-80687334D01*
X195430564Y-80693660D01*
X195319709Y-80736533D01*
X195286017Y-80851797D01*
X195283667Y-80983667D01*
X195283667Y-81280000D01*
X197485000Y-81280000D01*
X197485000Y-80983667D01*
X197472058Y-80785529D01*
X197398714Y-80703906D01*
X197213190Y-80687385D01*
X197186570Y-80687334D01*
X196888139Y-80687334D01*
X196911403Y-79311500D01*
X196934667Y-77935667D01*
X197209834Y-77909136D01*
X197396434Y-77873775D01*
X197471644Y-77779528D01*
X197485000Y-77591636D01*
X197485000Y-77300667D01*
X196765334Y-77300667D01*
X196414220Y-77304264D01*
X196199636Y-77319840D01*
X196088846Y-77354574D01*
X196049115Y-77415644D01*
X196045667Y-77458485D01*
X196034125Y-77544365D01*
X195974706Y-77561246D01*
X195830222Y-77505146D01*
X195650318Y-77416151D01*
X195170268Y-77250444D01*
X194689871Y-77225183D01*
X194246876Y-77338443D01*
G36*
X213601571Y-75948856D02*
G01*
X213232408Y-75959831D01*
X212965298Y-75982536D01*
X212766633Y-76020583D01*
X212602802Y-76077582D01*
X212518898Y-76116564D01*
X212200277Y-76312096D01*
X211991051Y-76547661D01*
X211869205Y-76862544D01*
X211812729Y-77296033D01*
X211808001Y-77385334D01*
X211799763Y-77732465D01*
X211819848Y-77967342D01*
X211878508Y-78146077D01*
X211977339Y-78312089D01*
X212192374Y-78576837D01*
X212441460Y-78762400D01*
X212759423Y-78882835D01*
X213181093Y-78952203D01*
X213634538Y-78981058D01*
X214503000Y-79013206D01*
X214503000Y-81280000D01*
X215349667Y-81280000D01*
X215349667Y-78316667D01*
X214503000Y-78316667D01*
X213906129Y-78316667D01*
X213493809Y-78294228D01*
X213172223Y-78232055D01*
X213061973Y-78188790D01*
X212859807Y-78048962D01*
X212727510Y-77898023D01*
X212640692Y-77574156D01*
X212678970Y-77221930D01*
X212833485Y-76916569D01*
X212844668Y-76903223D01*
X212957616Y-76786602D01*
X213080447Y-76713465D01*
X213257022Y-76671218D01*
X213531202Y-76647267D01*
X213776002Y-76635814D01*
X214503000Y-76605957D01*
X214503000Y-78316667D01*
X215349667Y-78316667D01*
X215349667Y-75946000D01*
X214106398Y-75946000D01*
X213601571Y-75948856D01*
G37*
X213601571Y-75948856D02*
X213232408Y-75959831D01*
X212965298Y-75982536D01*
X212766633Y-76020583D01*
X212602802Y-76077582D01*
X212518898Y-76116564D01*
X212200277Y-76312096D01*
X211991051Y-76547661D01*
X211869205Y-76862544D01*
X211812729Y-77296033D01*
X211808001Y-77385334D01*
X211799763Y-77732465D01*
X211819848Y-77967342D01*
X211878508Y-78146077D01*
X211977339Y-78312089D01*
X212192374Y-78576837D01*
X212441460Y-78762400D01*
X212759423Y-78882835D01*
X213181093Y-78952203D01*
X213634538Y-78981058D01*
X214503000Y-79013206D01*
X214503000Y-81280000D01*
X215349667Y-81280000D01*
X215349667Y-78316667D01*
X214503000Y-78316667D01*
X213906129Y-78316667D01*
X213493809Y-78294228D01*
X213172223Y-78232055D01*
X213061973Y-78188790D01*
X212859807Y-78048962D01*
X212727510Y-77898023D01*
X212640692Y-77574156D01*
X212678970Y-77221930D01*
X212833485Y-76916569D01*
X212844668Y-76903223D01*
X212957616Y-76786602D01*
X213080447Y-76713465D01*
X213257022Y-76671218D01*
X213531202Y-76647267D01*
X213776002Y-76635814D01*
X214503000Y-76605957D01*
X214503000Y-78316667D01*
X215349667Y-78316667D01*
X215349667Y-75946000D01*
X214106398Y-75946000D01*
X213601571Y-75948856D01*
G36*
X158703854Y-75539409D02*
G01*
X158276707Y-75565000D01*
X158259354Y-78422502D01*
X158242000Y-81280004D01*
X158686500Y-81280002D01*
X158960869Y-81267357D01*
X159098435Y-81223569D01*
X159131000Y-81154245D01*
X159156592Y-81087145D01*
X159256551Y-81111619D01*
X159406167Y-81196261D01*
X159772929Y-81334218D01*
X160211501Y-81371384D01*
X160658931Y-81309503D01*
X161051690Y-81150667D01*
X161419661Y-80833220D01*
X161682684Y-80390659D01*
X161835346Y-79834857D01*
X161874216Y-79345769D01*
X161870974Y-79248241D01*
X161021597Y-79248241D01*
X160978028Y-79693333D01*
X160863506Y-80096963D01*
X160694595Y-80415728D01*
X160507429Y-80595552D01*
X160225604Y-80682237D01*
X159912895Y-80666752D01*
X159644982Y-80557107D01*
X159574732Y-80496834D01*
X159373437Y-80211379D01*
X159258728Y-79858189D01*
X159218009Y-79395274D01*
X159217527Y-79305988D01*
X159268740Y-78773392D01*
X159412721Y-78353172D01*
X159641206Y-78057697D01*
X159945935Y-77899335D01*
X160173086Y-77875528D01*
X160488918Y-77962826D01*
X160741838Y-78192471D01*
X160920046Y-78545373D01*
X161011743Y-79002443D01*
X161021597Y-79248241D01*
X161870974Y-79248241D01*
X161862015Y-78978825D01*
X161824151Y-78632071D01*
X161768717Y-78378759D01*
X161766705Y-78372905D01*
X161580574Y-78006886D01*
X161307225Y-77666472D01*
X160996358Y-77408158D01*
X160849543Y-77330389D01*
X160525148Y-77247250D01*
X160135677Y-77220829D01*
X159754514Y-77250443D01*
X159455043Y-77335408D01*
X159438823Y-77343522D01*
X159262616Y-77430700D01*
X159165619Y-77469839D01*
X159163656Y-77470000D01*
X159150826Y-77390894D01*
X159140366Y-77175808D01*
X159133388Y-76858091D01*
X159131000Y-76491909D01*
X159131000Y-75513818D01*
X158703854Y-75539409D01*
G37*
X158703854Y-75539409D02*
X158276707Y-75565000D01*
X158259354Y-78422502D01*
X158242000Y-81280004D01*
X158686500Y-81280002D01*
X158960869Y-81267357D01*
X159098435Y-81223569D01*
X159131000Y-81154245D01*
X159156592Y-81087145D01*
X159256551Y-81111619D01*
X159406167Y-81196261D01*
X159772929Y-81334218D01*
X160211501Y-81371384D01*
X160658931Y-81309503D01*
X161051690Y-81150667D01*
X161419661Y-80833220D01*
X161682684Y-80390659D01*
X161835346Y-79834857D01*
X161874216Y-79345769D01*
X161870974Y-79248241D01*
X161021597Y-79248241D01*
X160978028Y-79693333D01*
X160863506Y-80096963D01*
X160694595Y-80415728D01*
X160507429Y-80595552D01*
X160225604Y-80682237D01*
X159912895Y-80666752D01*
X159644982Y-80557107D01*
X159574732Y-80496834D01*
X159373437Y-80211379D01*
X159258728Y-79858189D01*
X159218009Y-79395274D01*
X159217527Y-79305988D01*
X159268740Y-78773392D01*
X159412721Y-78353172D01*
X159641206Y-78057697D01*
X159945935Y-77899335D01*
X160173086Y-77875528D01*
X160488918Y-77962826D01*
X160741838Y-78192471D01*
X160920046Y-78545373D01*
X161011743Y-79002443D01*
X161021597Y-79248241D01*
X161870974Y-79248241D01*
X161862015Y-78978825D01*
X161824151Y-78632071D01*
X161768717Y-78378759D01*
X161766705Y-78372905D01*
X161580574Y-78006886D01*
X161307225Y-77666472D01*
X160996358Y-77408158D01*
X160849543Y-77330389D01*
X160525148Y-77247250D01*
X160135677Y-77220829D01*
X159754514Y-77250443D01*
X159455043Y-77335408D01*
X159438823Y-77343522D01*
X159262616Y-77430700D01*
X159165619Y-77469839D01*
X159163656Y-77470000D01*
X159150826Y-77390894D01*
X159140366Y-77175808D01*
X159133388Y-76858091D01*
X159131000Y-76491909D01*
X159131000Y-75513818D01*
X158703854Y-75539409D01*
G36*
X163892389Y-77294787D02*
G01*
X163500165Y-77465355D01*
X163162543Y-77730986D01*
X162925368Y-78050734D01*
X162858863Y-78217799D01*
X162829218Y-78408494D01*
X162803909Y-78731279D01*
X162784852Y-79148927D01*
X162773960Y-79624214D01*
X162772139Y-79904167D01*
X162771667Y-81280000D01*
X163187945Y-81280000D01*
X163440939Y-81261973D01*
X163604273Y-81215373D01*
X163636175Y-81184143D01*
X163718203Y-81143802D01*
X163910697Y-81213939D01*
X163935360Y-81226476D01*
X164165953Y-81296099D01*
X164505102Y-81341815D01*
X164893466Y-81361733D01*
X165271703Y-81353965D01*
X165580474Y-81316622D01*
X165699573Y-81282637D01*
X165996858Y-81077919D01*
X166214963Y-80761908D01*
X166321764Y-80385975D01*
X166324766Y-80328308D01*
X165472008Y-80328308D01*
X165337216Y-80575846D01*
X165311667Y-80602667D01*
X165073111Y-80733616D01*
X164751468Y-80771289D01*
X164404909Y-80715788D01*
X164142578Y-80600601D01*
X163944592Y-80421811D01*
X163750539Y-80156398D01*
X163600812Y-79869699D01*
X163535804Y-79627054D01*
X163535527Y-79618655D01*
X163610267Y-79536302D01*
X163809347Y-79482077D01*
X164089473Y-79460156D01*
X164407355Y-79474717D01*
X164643104Y-79511791D01*
X165027480Y-79644088D01*
X165303109Y-79839536D01*
X165455962Y-80075240D01*
X165472008Y-80328308D01*
X166324766Y-80328308D01*
X166327351Y-80278671D01*
X166270498Y-79859891D01*
X166089225Y-79525765D01*
X165766335Y-79251303D01*
X165530479Y-79120787D01*
X165261689Y-79002340D01*
X165010969Y-78930945D01*
X164716782Y-78894636D01*
X164317594Y-78881446D01*
X164298594Y-78881230D01*
X163539556Y-78873016D01*
X163590657Y-78658341D01*
X163699427Y-78340180D01*
X163866052Y-78132464D01*
X164039973Y-78021210D01*
X164446527Y-77902967D01*
X164885112Y-77942156D01*
X165292944Y-78114360D01*
X165670098Y-78335387D01*
X165883765Y-78121720D01*
X166027502Y-77929636D01*
X166028041Y-77764367D01*
X165877308Y-77604451D01*
X165635783Y-77462577D01*
X165222339Y-77317081D01*
X164728326Y-77239975D01*
X164231164Y-77238710D01*
X163892389Y-77294787D01*
G37*
X163892389Y-77294787D02*
X163500165Y-77465355D01*
X163162543Y-77730986D01*
X162925368Y-78050734D01*
X162858863Y-78217799D01*
X162829218Y-78408494D01*
X162803909Y-78731279D01*
X162784852Y-79148927D01*
X162773960Y-79624214D01*
X162772139Y-79904167D01*
X162771667Y-81280000D01*
X163187945Y-81280000D01*
X163440939Y-81261973D01*
X163604273Y-81215373D01*
X163636175Y-81184143D01*
X163718203Y-81143802D01*
X163910697Y-81213939D01*
X163935360Y-81226476D01*
X164165953Y-81296099D01*
X164505102Y-81341815D01*
X164893466Y-81361733D01*
X165271703Y-81353965D01*
X165580474Y-81316622D01*
X165699573Y-81282637D01*
X165996858Y-81077919D01*
X166214963Y-80761908D01*
X166321764Y-80385975D01*
X166324766Y-80328308D01*
X165472008Y-80328308D01*
X165337216Y-80575846D01*
X165311667Y-80602667D01*
X165073111Y-80733616D01*
X164751468Y-80771289D01*
X164404909Y-80715788D01*
X164142578Y-80600601D01*
X163944592Y-80421811D01*
X163750539Y-80156398D01*
X163600812Y-79869699D01*
X163535804Y-79627054D01*
X163535527Y-79618655D01*
X163610267Y-79536302D01*
X163809347Y-79482077D01*
X164089473Y-79460156D01*
X164407355Y-79474717D01*
X164643104Y-79511791D01*
X165027480Y-79644088D01*
X165303109Y-79839536D01*
X165455962Y-80075240D01*
X165472008Y-80328308D01*
X166324766Y-80328308D01*
X166327351Y-80278671D01*
X166270498Y-79859891D01*
X166089225Y-79525765D01*
X165766335Y-79251303D01*
X165530479Y-79120787D01*
X165261689Y-79002340D01*
X165010969Y-78930945D01*
X164716782Y-78894636D01*
X164317594Y-78881446D01*
X164298594Y-78881230D01*
X163539556Y-78873016D01*
X163590657Y-78658341D01*
X163699427Y-78340180D01*
X163866052Y-78132464D01*
X164039973Y-78021210D01*
X164446527Y-77902967D01*
X164885112Y-77942156D01*
X165292944Y-78114360D01*
X165670098Y-78335387D01*
X165883765Y-78121720D01*
X166027502Y-77929636D01*
X166028041Y-77764367D01*
X165877308Y-77604451D01*
X165635783Y-77462577D01*
X165222339Y-77317081D01*
X164728326Y-77239975D01*
X164231164Y-77238710D01*
X163892389Y-77294787D01*
G36*
X168705666Y-77245196D02*
G01*
X168216620Y-77385682D01*
X167785368Y-77648402D01*
X167442840Y-78027198D01*
X167348303Y-78188653D01*
X167202049Y-78602033D01*
X167127771Y-79094163D01*
X167126346Y-79604964D01*
X167198655Y-80074354D01*
X167316118Y-80391000D01*
X167610797Y-80820566D01*
X167979833Y-81119619D01*
X168209937Y-81233626D01*
X168550000Y-81323139D01*
X168965844Y-81358695D01*
X169388399Y-81340731D01*
X169748599Y-81269686D01*
X169866693Y-81223133D01*
X170167960Y-81013305D01*
X170462447Y-80707678D01*
X170699028Y-80366801D01*
X170814865Y-80100200D01*
X170903385Y-79558091D01*
X170899890Y-79455550D01*
X170001644Y-79455550D01*
X169908285Y-79928703D01*
X169683665Y-80315028D01*
X169334247Y-80597857D01*
X169296274Y-80617984D01*
X168966865Y-80703697D01*
X168643961Y-80620579D01*
X168462087Y-80497600D01*
X168267310Y-80250309D01*
X168116529Y-79896703D01*
X168032656Y-79498487D01*
X168022860Y-79314873D01*
X168082540Y-78816868D01*
X168247016Y-78406262D01*
X168501104Y-78103401D01*
X168829621Y-77928634D01*
X169083596Y-77893334D01*
X169351094Y-77971973D01*
X169604204Y-78185102D01*
X169813614Y-78498534D01*
X169950009Y-78878085D01*
X169957284Y-78912240D01*
X170001644Y-79455550D01*
X170899890Y-79455550D01*
X170884531Y-79005042D01*
X170767934Y-78480577D01*
X170563222Y-78024221D01*
X170280027Y-77675499D01*
X170210278Y-77618737D01*
X169733424Y-77355565D01*
X169221577Y-77233104D01*
X168705666Y-77245196D01*
G37*
X168705666Y-77245196D02*
X168216620Y-77385682D01*
X167785368Y-77648402D01*
X167442840Y-78027198D01*
X167348303Y-78188653D01*
X167202049Y-78602033D01*
X167127771Y-79094163D01*
X167126346Y-79604964D01*
X167198655Y-80074354D01*
X167316118Y-80391000D01*
X167610797Y-80820566D01*
X167979833Y-81119619D01*
X168209937Y-81233626D01*
X168550000Y-81323139D01*
X168965844Y-81358695D01*
X169388399Y-81340731D01*
X169748599Y-81269686D01*
X169866693Y-81223133D01*
X170167960Y-81013305D01*
X170462447Y-80707678D01*
X170699028Y-80366801D01*
X170814865Y-80100200D01*
X170903385Y-79558091D01*
X170899890Y-79455550D01*
X170001644Y-79455550D01*
X169908285Y-79928703D01*
X169683665Y-80315028D01*
X169334247Y-80597857D01*
X169296274Y-80617984D01*
X168966865Y-80703697D01*
X168643961Y-80620579D01*
X168462087Y-80497600D01*
X168267310Y-80250309D01*
X168116529Y-79896703D01*
X168032656Y-79498487D01*
X168022860Y-79314873D01*
X168082540Y-78816868D01*
X168247016Y-78406262D01*
X168501104Y-78103401D01*
X168829621Y-77928634D01*
X169083596Y-77893334D01*
X169351094Y-77971973D01*
X169604204Y-78185102D01*
X169813614Y-78498534D01*
X169950009Y-78878085D01*
X169957284Y-78912240D01*
X170001644Y-79455550D01*
X170899890Y-79455550D01*
X170884531Y-79005042D01*
X170767934Y-78480577D01*
X170563222Y-78024221D01*
X170280027Y-77675499D01*
X170210278Y-77618737D01*
X169733424Y-77355565D01*
X169221577Y-77233104D01*
X168705666Y-77245196D01*
G36*
X174274273Y-76545030D02*
G01*
X174304545Y-77567399D01*
X173960146Y-77391700D01*
X173502305Y-77246294D01*
X172998872Y-77233958D01*
X172509530Y-77355133D01*
X172450434Y-77380546D01*
X172094304Y-77629617D01*
X171823263Y-77994125D01*
X171637945Y-78442737D01*
X171538986Y-78944122D01*
X171527022Y-79466944D01*
X171602688Y-79979872D01*
X171766621Y-80451571D01*
X172019456Y-80850710D01*
X172361830Y-81145955D01*
X172373888Y-81153113D01*
X172763448Y-81307485D01*
X173212579Y-81372427D01*
X173658527Y-81346425D01*
X174038537Y-81227965D01*
X174098375Y-81194716D01*
X174284249Y-81093167D01*
X174379289Y-81085334D01*
X174424934Y-81152699D01*
X174550851Y-81249307D01*
X174803392Y-81280000D01*
X175133000Y-81280000D01*
X175133000Y-79230663D01*
X174261287Y-79230663D01*
X174241289Y-79653909D01*
X174152889Y-80051673D01*
X174006499Y-80378254D01*
X173812535Y-80587953D01*
X173799502Y-80595884D01*
X173506298Y-80679396D01*
X173176066Y-80644653D01*
X172890492Y-80503785D01*
X172690025Y-80290258D01*
X172540407Y-80040837D01*
X172455941Y-79704634D01*
X172427924Y-79288755D01*
X172456356Y-78873170D01*
X172540407Y-78539830D01*
X172721748Y-78248995D01*
X172973363Y-78022718D01*
X173244282Y-77902600D01*
X173332552Y-77893334D01*
X173561963Y-77967222D01*
X173804692Y-78161688D01*
X174022755Y-78435938D01*
X174178166Y-78749174D01*
X174202466Y-78827633D01*
X174261287Y-79230663D01*
X175133000Y-79230663D01*
X175133000Y-75522667D01*
X174688500Y-75522664D01*
X174244000Y-75522662D01*
X174274273Y-76545030D01*
G37*
X174274273Y-76545030D02*
X174304545Y-77567399D01*
X173960146Y-77391700D01*
X173502305Y-77246294D01*
X172998872Y-77233958D01*
X172509530Y-77355133D01*
X172450434Y-77380546D01*
X172094304Y-77629617D01*
X171823263Y-77994125D01*
X171637945Y-78442737D01*
X171538986Y-78944122D01*
X171527022Y-79466944D01*
X171602688Y-79979872D01*
X171766621Y-80451571D01*
X172019456Y-80850710D01*
X172361830Y-81145955D01*
X172373888Y-81153113D01*
X172763448Y-81307485D01*
X173212579Y-81372427D01*
X173658527Y-81346425D01*
X174038537Y-81227965D01*
X174098375Y-81194716D01*
X174284249Y-81093167D01*
X174379289Y-81085334D01*
X174424934Y-81152699D01*
X174550851Y-81249307D01*
X174803392Y-81280000D01*
X175133000Y-81280000D01*
X175133000Y-79230663D01*
X174261287Y-79230663D01*
X174241289Y-79653909D01*
X174152889Y-80051673D01*
X174006499Y-80378254D01*
X173812535Y-80587953D01*
X173799502Y-80595884D01*
X173506298Y-80679396D01*
X173176066Y-80644653D01*
X172890492Y-80503785D01*
X172690025Y-80290258D01*
X172540407Y-80040837D01*
X172455941Y-79704634D01*
X172427924Y-79288755D01*
X172456356Y-78873170D01*
X172540407Y-78539830D01*
X172721748Y-78248995D01*
X172973363Y-78022718D01*
X173244282Y-77902600D01*
X173332552Y-77893334D01*
X173561963Y-77967222D01*
X173804692Y-78161688D01*
X174022755Y-78435938D01*
X174178166Y-78749174D01*
X174202466Y-78827633D01*
X174261287Y-79230663D01*
X175133000Y-79230663D01*
X175133000Y-75522667D01*
X174688500Y-75522664D01*
X174244000Y-75522662D01*
X174274273Y-76545030D01*
G36*
X181782183Y-77281843D02*
G01*
X181323780Y-77475427D01*
X180978032Y-77793350D01*
X180750064Y-78230352D01*
X180645001Y-78781172D01*
X180638193Y-78972834D01*
X180636334Y-79502000D01*
X183366834Y-79502000D01*
X183314609Y-79763126D01*
X183161656Y-80149387D01*
X182892271Y-80468445D01*
X182545453Y-80686785D01*
X182160199Y-80770892D01*
X182141887Y-80770980D01*
X181955337Y-80729164D01*
X181703342Y-80624354D01*
X181580192Y-80559314D01*
X181301801Y-80412952D01*
X181115820Y-80361175D01*
X180975777Y-80401689D01*
X180843515Y-80522956D01*
X180747105Y-80693519D01*
X180788711Y-80858695D01*
X180978007Y-81036380D01*
X181194785Y-81172774D01*
X181410130Y-81275236D01*
X181645451Y-81332824D01*
X181958023Y-81356058D01*
X182202667Y-81357907D01*
X182551368Y-81346198D01*
X182855742Y-81318857D01*
X183058398Y-81281372D01*
X183079377Y-81274078D01*
X183534974Y-81006340D01*
X183875301Y-80618954D01*
X184094924Y-80121151D01*
X184188410Y-79522159D01*
X184191507Y-79384823D01*
X184159633Y-78824975D01*
X184159560Y-78824667D01*
X183341476Y-78824667D01*
X182412238Y-78824667D01*
X181974382Y-78816963D01*
X181666678Y-78794824D01*
X181504600Y-78759703D01*
X181483000Y-78737281D01*
X181513475Y-78606378D01*
X181588327Y-78398493D01*
X181603331Y-78361904D01*
X181794906Y-78085201D01*
X182073002Y-77899767D01*
X182383771Y-77836590D01*
X182493281Y-77849744D01*
X182761011Y-77977975D01*
X183020813Y-78215848D01*
X183218218Y-78510197D01*
X183253519Y-78591834D01*
X183341476Y-78824667D01*
X184159560Y-78824667D01*
X184053674Y-78379093D01*
X183860814Y-78003280D01*
X183741849Y-77844829D01*
X183350035Y-77498583D01*
X182865430Y-77286179D01*
X182348114Y-77217860D01*
X181782183Y-77281843D01*
G37*
X181782183Y-77281843D02*
X181323780Y-77475427D01*
X180978032Y-77793350D01*
X180750064Y-78230352D01*
X180645001Y-78781172D01*
X180638193Y-78972834D01*
X180636334Y-79502000D01*
X183366834Y-79502000D01*
X183314609Y-79763126D01*
X183161656Y-80149387D01*
X182892271Y-80468445D01*
X182545453Y-80686785D01*
X182160199Y-80770892D01*
X182141887Y-80770980D01*
X181955337Y-80729164D01*
X181703342Y-80624354D01*
X181580192Y-80559314D01*
X181301801Y-80412952D01*
X181115820Y-80361175D01*
X180975777Y-80401689D01*
X180843515Y-80522956D01*
X180747105Y-80693519D01*
X180788711Y-80858695D01*
X180978007Y-81036380D01*
X181194785Y-81172774D01*
X181410130Y-81275236D01*
X181645451Y-81332824D01*
X181958023Y-81356058D01*
X182202667Y-81357907D01*
X182551368Y-81346198D01*
X182855742Y-81318857D01*
X183058398Y-81281372D01*
X183079377Y-81274078D01*
X183534974Y-81006340D01*
X183875301Y-80618954D01*
X184094924Y-80121151D01*
X184188410Y-79522159D01*
X184191507Y-79384823D01*
X184159633Y-78824975D01*
X184159560Y-78824667D01*
X183341476Y-78824667D01*
X182412238Y-78824667D01*
X181974382Y-78816963D01*
X181666678Y-78794824D01*
X181504600Y-78759703D01*
X181483000Y-78737281D01*
X181513475Y-78606378D01*
X181588327Y-78398493D01*
X181603331Y-78361904D01*
X181794906Y-78085201D01*
X182073002Y-77899767D01*
X182383771Y-77836590D01*
X182493281Y-77849744D01*
X182761011Y-77977975D01*
X183020813Y-78215848D01*
X183218218Y-78510197D01*
X183253519Y-78591834D01*
X183341476Y-78824667D01*
X184159560Y-78824667D01*
X184053674Y-78379093D01*
X183860814Y-78003280D01*
X183741849Y-77844829D01*
X183350035Y-77498583D01*
X182865430Y-77286179D01*
X182348114Y-77217860D01*
X181782183Y-77281843D01*
G36*
X185522816Y-75878022D02*
G01*
X185290382Y-75918596D01*
X185109955Y-75970769D01*
X185040602Y-76020084D01*
X185094236Y-76098236D01*
X185241659Y-76280941D01*
X185464331Y-76546039D01*
X185743713Y-76871372D01*
X185970334Y-77131334D01*
X186279533Y-77488123D01*
X186545274Y-77802805D01*
X186748944Y-78052685D01*
X186871929Y-78215066D01*
X186900066Y-78264957D01*
X186853397Y-78353514D01*
X186722114Y-78557777D01*
X186520801Y-78856218D01*
X186264042Y-79227309D01*
X185966423Y-79649521D01*
X185877746Y-79773980D01*
X185574427Y-80204231D01*
X185311617Y-80587684D01*
X185103075Y-80903364D01*
X184962564Y-81130293D01*
X184903844Y-81247494D01*
X184904177Y-81258066D01*
X185010613Y-81292795D01*
X185229550Y-81327706D01*
X185405670Y-81345830D01*
X185856810Y-81383242D01*
X186732855Y-80093899D01*
X187080102Y-79588041D01*
X187345388Y-79224722D01*
X187539731Y-79004961D01*
X187674149Y-78929776D01*
X187759662Y-79000184D01*
X187807287Y-79217203D01*
X187828044Y-79581850D01*
X187832950Y-80095144D01*
X187833000Y-80195516D01*
X187833000Y-81280000D01*
X188764334Y-81280000D01*
X188764334Y-75946000D01*
X187838212Y-75946000D01*
X187814440Y-76965051D01*
X187790667Y-77984101D01*
X186859334Y-76923631D01*
X186449535Y-76468095D01*
X186134513Y-76143347D01*
X185908526Y-75943904D01*
X185765833Y-75864282D01*
X185748084Y-75862248D01*
X185522816Y-75878022D01*
G37*
X185522816Y-75878022D02*
X185290382Y-75918596D01*
X185109955Y-75970769D01*
X185040602Y-76020084D01*
X185094236Y-76098236D01*
X185241659Y-76280941D01*
X185464331Y-76546039D01*
X185743713Y-76871372D01*
X185970334Y-77131334D01*
X186279533Y-77488123D01*
X186545274Y-77802805D01*
X186748944Y-78052685D01*
X186871929Y-78215066D01*
X186900066Y-78264957D01*
X186853397Y-78353514D01*
X186722114Y-78557777D01*
X186520801Y-78856218D01*
X186264042Y-79227309D01*
X185966423Y-79649521D01*
X185877746Y-79773980D01*
X185574427Y-80204231D01*
X185311617Y-80587684D01*
X185103075Y-80903364D01*
X184962564Y-81130293D01*
X184903844Y-81247494D01*
X184904177Y-81258066D01*
X185010613Y-81292795D01*
X185229550Y-81327706D01*
X185405670Y-81345830D01*
X185856810Y-81383242D01*
X186732855Y-80093899D01*
X187080102Y-79588041D01*
X187345388Y-79224722D01*
X187539731Y-79004961D01*
X187674149Y-78929776D01*
X187759662Y-79000184D01*
X187807287Y-79217203D01*
X187828044Y-79581850D01*
X187832950Y-80095144D01*
X187833000Y-80195516D01*
X187833000Y-81280000D01*
X188764334Y-81280000D01*
X188764334Y-75946000D01*
X187838212Y-75946000D01*
X187814440Y-76965051D01*
X187790667Y-77984101D01*
X186859334Y-76923631D01*
X186449535Y-76468095D01*
X186134513Y-76143347D01*
X185908526Y-75943904D01*
X185765833Y-75864282D01*
X185748084Y-75862248D01*
X185522816Y-75878022D01*
G36*
X200037061Y-76214767D02*
G01*
X199961825Y-76266942D01*
X199970556Y-76325969D01*
X200009562Y-76480484D01*
X200054208Y-76731200D01*
X200075189Y-76876302D01*
X200131482Y-77300667D01*
X198839667Y-77300667D01*
X198839667Y-77978000D01*
X200177629Y-77978000D01*
X200237169Y-78930904D01*
X200257057Y-79583705D01*
X200222384Y-80081045D01*
X200128969Y-80429130D01*
X199972631Y-80634164D01*
X199749189Y-80702353D01*
X199454462Y-80639900D01*
X199175602Y-80506291D01*
X198894712Y-80385058D01*
X198703843Y-80398799D01*
X198583582Y-80553267D01*
X198541845Y-80694112D01*
X198521183Y-80872048D01*
X198572179Y-81000241D01*
X198723721Y-81110347D01*
X199004697Y-81234021D01*
X199051334Y-81252392D01*
X199326776Y-81318945D01*
X199681006Y-81350734D01*
X200048806Y-81347539D01*
X200364956Y-81309140D01*
X200528366Y-81257396D01*
X200707488Y-81115197D01*
X200882553Y-80899611D01*
X200909366Y-80856477D01*
X200977174Y-80724560D01*
X201024861Y-80576869D01*
X201055873Y-80381965D01*
X201073655Y-80108410D01*
X201081653Y-79724763D01*
X201083334Y-79269164D01*
X201083334Y-77977995D01*
X201485500Y-77977997D01*
X201887667Y-77978000D01*
X201887667Y-77300667D01*
X201473392Y-77300667D01*
X201208814Y-77285299D01*
X201053608Y-77215917D01*
X200979212Y-77057608D01*
X200957063Y-76775455D01*
X200956334Y-76668617D01*
X200936622Y-76439575D01*
X200856019Y-76299782D01*
X200682321Y-76227961D01*
X200383325Y-76202836D01*
X200248775Y-76201156D01*
X200037061Y-76214767D01*
G37*
X200037061Y-76214767D02*
X199961825Y-76266942D01*
X199970556Y-76325969D01*
X200009562Y-76480484D01*
X200054208Y-76731200D01*
X200075189Y-76876302D01*
X200131482Y-77300667D01*
X198839667Y-77300667D01*
X198839667Y-77978000D01*
X200177629Y-77978000D01*
X200237169Y-78930904D01*
X200257057Y-79583705D01*
X200222384Y-80081045D01*
X200128969Y-80429130D01*
X199972631Y-80634164D01*
X199749189Y-80702353D01*
X199454462Y-80639900D01*
X199175602Y-80506291D01*
X198894712Y-80385058D01*
X198703843Y-80398799D01*
X198583582Y-80553267D01*
X198541845Y-80694112D01*
X198521183Y-80872048D01*
X198572179Y-81000241D01*
X198723721Y-81110347D01*
X199004697Y-81234021D01*
X199051334Y-81252392D01*
X199326776Y-81318945D01*
X199681006Y-81350734D01*
X200048806Y-81347539D01*
X200364956Y-81309140D01*
X200528366Y-81257396D01*
X200707488Y-81115197D01*
X200882553Y-80899611D01*
X200909366Y-80856477D01*
X200977174Y-80724560D01*
X201024861Y-80576869D01*
X201055873Y-80381965D01*
X201073655Y-80108410D01*
X201081653Y-79724763D01*
X201083334Y-79269164D01*
X201083334Y-77977995D01*
X201485500Y-77977997D01*
X201887667Y-77978000D01*
X201887667Y-77300667D01*
X201473392Y-77300667D01*
X201208814Y-77285299D01*
X201053608Y-77215917D01*
X200979212Y-77057608D01*
X200957063Y-76775455D01*
X200956334Y-76668617D01*
X200936622Y-76439575D01*
X200856019Y-76299782D01*
X200682321Y-76227961D01*
X200383325Y-76202836D01*
X200248775Y-76201156D01*
X200037061Y-76214767D01*
G36*
X204162505Y-77249280D02*
G01*
X203877334Y-77309453D01*
X203628476Y-77404317D01*
X203370001Y-77543698D01*
X203148667Y-77697004D01*
X203011228Y-77833641D01*
X202988334Y-77891146D01*
X203044662Y-78017713D01*
X203180296Y-78192744D01*
X203345206Y-78361933D01*
X203489366Y-78470972D01*
X203536319Y-78486000D01*
X203643634Y-78415089D01*
X203690570Y-78315248D01*
X203798365Y-78172023D01*
X204025345Y-78020665D01*
X204132447Y-77968785D01*
X204547577Y-77847584D01*
X204909235Y-77867363D01*
X205196096Y-78026257D01*
X205234302Y-78065210D01*
X205329750Y-78188299D01*
X205322379Y-78285822D01*
X205204206Y-78428170D01*
X205191620Y-78441588D01*
X205011525Y-78572486D01*
X204720197Y-78719969D01*
X204370223Y-78857756D01*
X204335384Y-78869537D01*
X203778264Y-79080051D01*
X203374461Y-79296310D01*
X203108241Y-79533833D01*
X202963871Y-79808137D01*
X202925617Y-80134740D01*
X202933185Y-80252506D01*
X203031305Y-80668226D01*
X203239575Y-80980748D01*
X203568103Y-81196622D01*
X204026996Y-81322396D01*
X204626364Y-81364622D01*
X204649511Y-81364667D01*
X205043205Y-81358492D01*
X205324776Y-81332635D01*
X205551211Y-81276102D01*
X205779498Y-81177894D01*
X205878158Y-81127585D01*
X206125211Y-80978201D01*
X206301169Y-80833603D01*
X206359866Y-80745725D01*
X206333617Y-80560382D01*
X206224222Y-80339148D01*
X206071214Y-80140220D01*
X205914128Y-80021797D01*
X205860095Y-80010000D01*
X205726596Y-80061625D01*
X205697667Y-80129474D01*
X205625059Y-80287257D01*
X205439855Y-80460567D01*
X205190984Y-80614104D01*
X204927376Y-80712571D01*
X204875105Y-80722887D01*
X204445756Y-80729241D01*
X204097809Y-80604243D01*
X203895597Y-80418182D01*
X203796587Y-80247692D01*
X203785590Y-80098261D01*
X203876930Y-79957471D01*
X204084930Y-79812900D01*
X204423915Y-79652127D01*
X204908209Y-79462732D01*
X205062667Y-79406191D01*
X205506215Y-79197611D01*
X205860752Y-78935771D01*
X206101264Y-78644787D01*
X206202736Y-78348775D01*
X206204419Y-78305461D01*
X206143632Y-77927543D01*
X205952882Y-77636839D01*
X205615939Y-77406500D01*
X205196120Y-77268076D01*
X204690677Y-77214498D01*
X204162505Y-77249280D01*
G37*
X204162505Y-77249280D02*
X203877334Y-77309453D01*
X203628476Y-77404317D01*
X203370001Y-77543698D01*
X203148667Y-77697004D01*
X203011228Y-77833641D01*
X202988334Y-77891146D01*
X203044662Y-78017713D01*
X203180296Y-78192744D01*
X203345206Y-78361933D01*
X203489366Y-78470972D01*
X203536319Y-78486000D01*
X203643634Y-78415089D01*
X203690570Y-78315248D01*
X203798365Y-78172023D01*
X204025345Y-78020665D01*
X204132447Y-77968785D01*
X204547577Y-77847584D01*
X204909235Y-77867363D01*
X205196096Y-78026257D01*
X205234302Y-78065210D01*
X205329750Y-78188299D01*
X205322379Y-78285822D01*
X205204206Y-78428170D01*
X205191620Y-78441588D01*
X205011525Y-78572486D01*
X204720197Y-78719969D01*
X204370223Y-78857756D01*
X204335384Y-78869537D01*
X203778264Y-79080051D01*
X203374461Y-79296310D01*
X203108241Y-79533833D01*
X202963871Y-79808137D01*
X202925617Y-80134740D01*
X202933185Y-80252506D01*
X203031305Y-80668226D01*
X203239575Y-80980748D01*
X203568103Y-81196622D01*
X204026996Y-81322396D01*
X204626364Y-81364622D01*
X204649511Y-81364667D01*
X205043205Y-81358492D01*
X205324776Y-81332635D01*
X205551211Y-81276102D01*
X205779498Y-81177894D01*
X205878158Y-81127585D01*
X206125211Y-80978201D01*
X206301169Y-80833603D01*
X206359866Y-80745725D01*
X206333617Y-80560382D01*
X206224222Y-80339148D01*
X206071214Y-80140220D01*
X205914128Y-80021797D01*
X205860095Y-80010000D01*
X205726596Y-80061625D01*
X205697667Y-80129474D01*
X205625059Y-80287257D01*
X205439855Y-80460567D01*
X205190984Y-80614104D01*
X204927376Y-80712571D01*
X204875105Y-80722887D01*
X204445756Y-80729241D01*
X204097809Y-80604243D01*
X203895597Y-80418182D01*
X203796587Y-80247692D01*
X203785590Y-80098261D01*
X203876930Y-79957471D01*
X204084930Y-79812900D01*
X204423915Y-79652127D01*
X204908209Y-79462732D01*
X205062667Y-79406191D01*
X205506215Y-79197611D01*
X205860752Y-78935771D01*
X206101264Y-78644787D01*
X206202736Y-78348775D01*
X206204419Y-78305461D01*
X206143632Y-77927543D01*
X205952882Y-77636839D01*
X205615939Y-77406500D01*
X205196120Y-77268076D01*
X204690677Y-77214498D01*
X204162505Y-77249280D01*
G36*
X208511722Y-77294787D02*
G01*
X208119499Y-77465355D01*
X207781876Y-77730986D01*
X207544702Y-78050734D01*
X207478196Y-78217799D01*
X207448551Y-78408494D01*
X207423243Y-78731279D01*
X207404185Y-79148927D01*
X207393293Y-79624214D01*
X207391473Y-79904167D01*
X207391000Y-81280000D01*
X207807278Y-81280000D01*
X208060272Y-81261973D01*
X208223607Y-81215373D01*
X208255509Y-81184143D01*
X208337537Y-81143802D01*
X208530030Y-81213939D01*
X208554693Y-81226476D01*
X208785287Y-81296099D01*
X209124436Y-81341815D01*
X209512799Y-81361733D01*
X209891036Y-81353965D01*
X210199807Y-81316622D01*
X210318906Y-81282637D01*
X210616192Y-81077919D01*
X210834296Y-80761908D01*
X210941097Y-80385975D01*
X210944099Y-80328308D01*
X210091341Y-80328308D01*
X209956549Y-80575846D01*
X209931000Y-80602667D01*
X209692444Y-80733616D01*
X209370801Y-80771289D01*
X209024242Y-80715788D01*
X208761911Y-80600601D01*
X208563926Y-80421811D01*
X208369873Y-80156398D01*
X208220146Y-79869699D01*
X208155138Y-79627054D01*
X208154860Y-79618655D01*
X208229600Y-79536302D01*
X208428680Y-79482077D01*
X208708807Y-79460156D01*
X209026688Y-79474717D01*
X209262438Y-79511791D01*
X209646813Y-79644088D01*
X209922443Y-79839536D01*
X210075295Y-80075240D01*
X210091341Y-80328308D01*
X210944099Y-80328308D01*
X210946684Y-80278671D01*
X210889831Y-79859891D01*
X210708559Y-79525765D01*
X210385668Y-79251303D01*
X210149812Y-79120787D01*
X209881022Y-79002340D01*
X209630302Y-78930945D01*
X209336116Y-78894636D01*
X208936927Y-78881446D01*
X208917927Y-78881230D01*
X208158890Y-78873016D01*
X208209991Y-78658341D01*
X208318760Y-78340180D01*
X208485385Y-78132464D01*
X208659306Y-78021210D01*
X209065860Y-77902967D01*
X209504446Y-77942156D01*
X209912277Y-78114360D01*
X210289431Y-78335387D01*
X210503099Y-78121720D01*
X210646835Y-77929636D01*
X210647374Y-77764367D01*
X210496641Y-77604451D01*
X210255116Y-77462577D01*
X209841672Y-77317081D01*
X209347659Y-77239975D01*
X208850497Y-77238710D01*
X208511722Y-77294787D01*
G37*
X208511722Y-77294787D02*
X208119499Y-77465355D01*
X207781876Y-77730986D01*
X207544702Y-78050734D01*
X207478196Y-78217799D01*
X207448551Y-78408494D01*
X207423243Y-78731279D01*
X207404185Y-79148927D01*
X207393293Y-79624214D01*
X207391473Y-79904167D01*
X207391000Y-81280000D01*
X207807278Y-81280000D01*
X208060272Y-81261973D01*
X208223607Y-81215373D01*
X208255509Y-81184143D01*
X208337537Y-81143802D01*
X208530030Y-81213939D01*
X208554693Y-81226476D01*
X208785287Y-81296099D01*
X209124436Y-81341815D01*
X209512799Y-81361733D01*
X209891036Y-81353965D01*
X210199807Y-81316622D01*
X210318906Y-81282637D01*
X210616192Y-81077919D01*
X210834296Y-80761908D01*
X210941097Y-80385975D01*
X210944099Y-80328308D01*
X210091341Y-80328308D01*
X209956549Y-80575846D01*
X209931000Y-80602667D01*
X209692444Y-80733616D01*
X209370801Y-80771289D01*
X209024242Y-80715788D01*
X208761911Y-80600601D01*
X208563926Y-80421811D01*
X208369873Y-80156398D01*
X208220146Y-79869699D01*
X208155138Y-79627054D01*
X208154860Y-79618655D01*
X208229600Y-79536302D01*
X208428680Y-79482077D01*
X208708807Y-79460156D01*
X209026688Y-79474717D01*
X209262438Y-79511791D01*
X209646813Y-79644088D01*
X209922443Y-79839536D01*
X210075295Y-80075240D01*
X210091341Y-80328308D01*
X210944099Y-80328308D01*
X210946684Y-80278671D01*
X210889831Y-79859891D01*
X210708559Y-79525765D01*
X210385668Y-79251303D01*
X210149812Y-79120787D01*
X209881022Y-79002340D01*
X209630302Y-78930945D01*
X209336116Y-78894636D01*
X208936927Y-78881446D01*
X208917927Y-78881230D01*
X208158890Y-78873016D01*
X208209991Y-78658341D01*
X208318760Y-78340180D01*
X208485385Y-78132464D01*
X208659306Y-78021210D01*
X209065860Y-77902967D01*
X209504446Y-77942156D01*
X209912277Y-78114360D01*
X210289431Y-78335387D01*
X210503099Y-78121720D01*
X210646835Y-77929636D01*
X210647374Y-77764367D01*
X210496641Y-77604451D01*
X210255116Y-77462577D01*
X209841672Y-77317081D01*
X209347659Y-77239975D01*
X208850497Y-77238710D01*
X208511722Y-77294787D01*
G36*
X178350416Y-78633342D02*
G01*
X178177052Y-79074693D01*
X178024754Y-79457709D01*
X177904191Y-79755933D01*
X177826034Y-79942909D01*
X177801534Y-79994356D01*
X177768004Y-79930033D01*
X177697131Y-79736431D01*
X177599370Y-79446719D01*
X177485177Y-79094065D01*
X177365010Y-78711638D01*
X177249324Y-78332604D01*
X177148575Y-77990133D01*
X177073221Y-77717393D01*
X177039094Y-77575833D01*
X176995365Y-77413203D01*
X176919084Y-77331900D01*
X176760716Y-77303782D01*
X176554786Y-77300667D01*
X176127358Y-77300667D01*
X176182113Y-77643086D01*
X176232286Y-77854978D01*
X176331335Y-78191418D01*
X176469354Y-78624374D01*
X176636432Y-79125813D01*
X176822661Y-79667703D01*
X177018134Y-80222013D01*
X177212940Y-80760711D01*
X177397172Y-81255763D01*
X177560920Y-81679138D01*
X177694276Y-82002805D01*
X177787332Y-82198730D01*
X177799682Y-82219268D01*
X178093517Y-82526684D01*
X178483551Y-82725448D01*
X178927733Y-82804681D01*
X179384010Y-82753509D01*
X179589003Y-82682047D01*
X179828537Y-82550997D01*
X179917243Y-82410925D01*
X179871044Y-82223335D01*
X179818635Y-82126841D01*
X179642712Y-81926019D01*
X179456559Y-81882847D01*
X179281667Y-81999667D01*
X179097482Y-82105628D01*
X178856348Y-82113764D01*
X178637789Y-82026494D01*
X178585333Y-81978500D01*
X178455670Y-81798215D01*
X178322986Y-81568702D01*
X178320135Y-81563093D01*
X178279145Y-81475318D01*
X178256235Y-81387365D01*
X178257594Y-81278029D01*
X178289409Y-81126104D01*
X178357867Y-80910384D01*
X178469157Y-80609664D01*
X178629466Y-80202739D01*
X178844982Y-79668402D01*
X178944925Y-79421903D01*
X179158544Y-78890229D01*
X179348954Y-78406735D01*
X179507271Y-77994771D01*
X179624610Y-77677688D01*
X179692086Y-77478836D01*
X179705000Y-77424309D01*
X179655418Y-77345355D01*
X179487395Y-77307414D01*
X179287980Y-77300667D01*
X178870959Y-77300667D01*
X178350416Y-78633342D01*
G37*
X178350416Y-78633342D02*
X178177052Y-79074693D01*
X178024754Y-79457709D01*
X177904191Y-79755933D01*
X177826034Y-79942909D01*
X177801534Y-79994356D01*
X177768004Y-79930033D01*
X177697131Y-79736431D01*
X177599370Y-79446719D01*
X177485177Y-79094065D01*
X177365010Y-78711638D01*
X177249324Y-78332604D01*
X177148575Y-77990133D01*
X177073221Y-77717393D01*
X177039094Y-77575833D01*
X176995365Y-77413203D01*
X176919084Y-77331900D01*
X176760716Y-77303782D01*
X176554786Y-77300667D01*
X176127358Y-77300667D01*
X176182113Y-77643086D01*
X176232286Y-77854978D01*
X176331335Y-78191418D01*
X176469354Y-78624374D01*
X176636432Y-79125813D01*
X176822661Y-79667703D01*
X177018134Y-80222013D01*
X177212940Y-80760711D01*
X177397172Y-81255763D01*
X177560920Y-81679138D01*
X177694276Y-82002805D01*
X177787332Y-82198730D01*
X177799682Y-82219268D01*
X178093517Y-82526684D01*
X178483551Y-82725448D01*
X178927733Y-82804681D01*
X179384010Y-82753509D01*
X179589003Y-82682047D01*
X179828537Y-82550997D01*
X179917243Y-82410925D01*
X179871044Y-82223335D01*
X179818635Y-82126841D01*
X179642712Y-81926019D01*
X179456559Y-81882847D01*
X179281667Y-81999667D01*
X179097482Y-82105628D01*
X178856348Y-82113764D01*
X178637789Y-82026494D01*
X178585333Y-81978500D01*
X178455670Y-81798215D01*
X178322986Y-81568702D01*
X178320135Y-81563093D01*
X178279145Y-81475318D01*
X178256235Y-81387365D01*
X178257594Y-81278029D01*
X178289409Y-81126104D01*
X178357867Y-80910384D01*
X178469157Y-80609664D01*
X178629466Y-80202739D01*
X178844982Y-79668402D01*
X178944925Y-79421903D01*
X179158544Y-78890229D01*
X179348954Y-78406735D01*
X179507271Y-77994771D01*
X179624610Y-77677688D01*
X179692086Y-77478836D01*
X179705000Y-77424309D01*
X179655418Y-77345355D01*
X179487395Y-77307414D01*
X179287980Y-77300667D01*
X178870959Y-77300667D01*
X178350416Y-78633342D01*
G36*
X191727749Y-78633342D02*
G01*
X191554385Y-79074693D01*
X191402087Y-79457709D01*
X191281525Y-79755933D01*
X191203367Y-79942909D01*
X191178867Y-79994356D01*
X191145338Y-79930033D01*
X191074464Y-79736431D01*
X190976703Y-79446719D01*
X190862511Y-79094065D01*
X190742343Y-78711638D01*
X190626657Y-78332604D01*
X190525909Y-77990133D01*
X190450554Y-77717393D01*
X190416427Y-77575833D01*
X190372699Y-77413203D01*
X190296417Y-77331900D01*
X190138050Y-77303782D01*
X189932119Y-77300667D01*
X189504692Y-77300667D01*
X189559447Y-77643086D01*
X189609619Y-77854978D01*
X189708669Y-78191418D01*
X189846687Y-78624374D01*
X190013765Y-79125813D01*
X190199995Y-79667703D01*
X190395467Y-80222013D01*
X190590273Y-80760711D01*
X190774505Y-81255763D01*
X190938253Y-81679138D01*
X191071610Y-82002805D01*
X191164665Y-82198730D01*
X191177015Y-82219268D01*
X191470850Y-82526684D01*
X191860884Y-82725448D01*
X192305066Y-82804681D01*
X192761343Y-82753509D01*
X192966336Y-82682047D01*
X193205870Y-82550997D01*
X193294577Y-82410925D01*
X193248378Y-82223335D01*
X193195968Y-82126841D01*
X193020045Y-81926019D01*
X192833893Y-81882847D01*
X192659000Y-81999667D01*
X192474816Y-82105628D01*
X192233681Y-82113764D01*
X192015122Y-82026494D01*
X191962666Y-81978500D01*
X191833003Y-81798215D01*
X191700319Y-81568702D01*
X191697468Y-81563093D01*
X191656478Y-81475318D01*
X191633568Y-81387365D01*
X191634927Y-81278029D01*
X191666742Y-81126104D01*
X191735200Y-80910384D01*
X191846490Y-80609664D01*
X192006799Y-80202739D01*
X192222315Y-79668402D01*
X192322259Y-79421903D01*
X192535877Y-78890229D01*
X192726287Y-78406735D01*
X192884604Y-77994771D01*
X193001943Y-77677688D01*
X193069420Y-77478836D01*
X193082334Y-77424309D01*
X193032751Y-77345355D01*
X192864729Y-77307414D01*
X192665313Y-77300667D01*
X192248293Y-77300667D01*
X191727749Y-78633342D01*
G37*
X191727749Y-78633342D02*
X191554385Y-79074693D01*
X191402087Y-79457709D01*
X191281525Y-79755933D01*
X191203367Y-79942909D01*
X191178867Y-79994356D01*
X191145338Y-79930033D01*
X191074464Y-79736431D01*
X190976703Y-79446719D01*
X190862511Y-79094065D01*
X190742343Y-78711638D01*
X190626657Y-78332604D01*
X190525909Y-77990133D01*
X190450554Y-77717393D01*
X190416427Y-77575833D01*
X190372699Y-77413203D01*
X190296417Y-77331900D01*
X190138050Y-77303782D01*
X189932119Y-77300667D01*
X189504692Y-77300667D01*
X189559447Y-77643086D01*
X189609619Y-77854978D01*
X189708669Y-78191418D01*
X189846687Y-78624374D01*
X190013765Y-79125813D01*
X190199995Y-79667703D01*
X190395467Y-80222013D01*
X190590273Y-80760711D01*
X190774505Y-81255763D01*
X190938253Y-81679138D01*
X191071610Y-82002805D01*
X191164665Y-82198730D01*
X191177015Y-82219268D01*
X191470850Y-82526684D01*
X191860884Y-82725448D01*
X192305066Y-82804681D01*
X192761343Y-82753509D01*
X192966336Y-82682047D01*
X193205870Y-82550997D01*
X193294577Y-82410925D01*
X193248378Y-82223335D01*
X193195968Y-82126841D01*
X193020045Y-81926019D01*
X192833893Y-81882847D01*
X192659000Y-81999667D01*
X192474816Y-82105628D01*
X192233681Y-82113764D01*
X192015122Y-82026494D01*
X191962666Y-81978500D01*
X191833003Y-81798215D01*
X191700319Y-81568702D01*
X191697468Y-81563093D01*
X191656478Y-81475318D01*
X191633568Y-81387365D01*
X191634927Y-81278029D01*
X191666742Y-81126104D01*
X191735200Y-80910384D01*
X191846490Y-80609664D01*
X192006799Y-80202739D01*
X192222315Y-79668402D01*
X192322259Y-79421903D01*
X192535877Y-78890229D01*
X192726287Y-78406735D01*
X192884604Y-77994771D01*
X193001943Y-77677688D01*
X193069420Y-77478836D01*
X193082334Y-77424309D01*
X193032751Y-77345355D01*
X192864729Y-77307414D01*
X192665313Y-77300667D01*
X192248293Y-77300667D01*
X191727749Y-78633342D01*
G36*
X171815461Y-83285499D02*
G01*
X171758631Y-83339516D01*
X171691200Y-83515087D01*
X171767171Y-83659377D01*
X171960823Y-83732676D01*
X172015016Y-83735334D01*
X172190281Y-83716402D01*
X172245316Y-83626477D01*
X172238791Y-83502500D01*
X172153913Y-83313717D01*
X171993141Y-83234710D01*
X171815461Y-83285499D01*
G37*
X171815461Y-83285499D02*
X171758631Y-83339516D01*
X171691200Y-83515087D01*
X171767171Y-83659377D01*
X171960823Y-83732676D01*
X172015016Y-83735334D01*
X172190281Y-83716402D01*
X172245316Y-83626477D01*
X172238791Y-83502500D01*
X172153913Y-83313717D01*
X171993141Y-83234710D01*
X171815461Y-83285499D01*
G36*
X203442029Y-83998459D02*
G01*
X203291156Y-84087715D01*
X203268535Y-84127842D01*
X203267418Y-84318788D01*
X203384156Y-84472115D01*
X203567628Y-84561199D01*
X203766713Y-84559416D01*
X203912743Y-84463344D01*
X203975735Y-84284055D01*
X203963290Y-84162730D01*
X203848851Y-84039520D01*
X203651512Y-83983578D01*
X203442029Y-83998459D01*
G37*
X203442029Y-83998459D02*
X203291156Y-84087715D01*
X203268535Y-84127842D01*
X203267418Y-84318788D01*
X203384156Y-84472115D01*
X203567628Y-84561199D01*
X203766713Y-84559416D01*
X203912743Y-84463344D01*
X203975735Y-84284055D01*
X203963290Y-84162730D01*
X203848851Y-84039520D01*
X203651512Y-83983578D01*
X203442029Y-83998459D01*
G36*
X176311609Y-84086663D02*
G01*
X176153249Y-84198172D01*
X176051354Y-84415114D01*
X175996608Y-84757740D01*
X175979689Y-85246299D01*
X175979667Y-85268713D01*
X175980993Y-85650391D01*
X175990210Y-85893823D01*
X176015178Y-86030100D01*
X176063755Y-86090308D01*
X176143801Y-86105538D01*
X176191334Y-86106000D01*
X176295975Y-86098867D01*
X176358796Y-86054528D01*
X176390464Y-85938574D01*
X176401642Y-85716595D01*
X176403000Y-85423101D01*
X176419679Y-84963366D01*
X176473382Y-84653082D01*
X176569613Y-84475326D01*
X176713872Y-84413175D01*
X176731524Y-84412667D01*
X176928186Y-84462761D01*
X177061052Y-84624322D01*
X177137444Y-84914270D01*
X177164686Y-85349524D01*
X177165000Y-85414167D01*
X177165000Y-86106000D01*
X177673000Y-86106000D01*
X177673000Y-84073986D01*
X177228500Y-84071701D01*
X176917309Y-84068581D01*
X176635163Y-84063276D01*
X176535755Y-84060337D01*
X176311609Y-84086663D01*
G37*
X176311609Y-84086663D02*
X176153249Y-84198172D01*
X176051354Y-84415114D01*
X175996608Y-84757740D01*
X175979689Y-85246299D01*
X175979667Y-85268713D01*
X175980993Y-85650391D01*
X175990210Y-85893823D01*
X176015178Y-86030100D01*
X176063755Y-86090308D01*
X176143801Y-86105538D01*
X176191334Y-86106000D01*
X176295975Y-86098867D01*
X176358796Y-86054528D01*
X176390464Y-85938574D01*
X176401642Y-85716595D01*
X176403000Y-85423101D01*
X176419679Y-84963366D01*
X176473382Y-84653082D01*
X176569613Y-84475326D01*
X176713872Y-84413175D01*
X176731524Y-84412667D01*
X176928186Y-84462761D01*
X177061052Y-84624322D01*
X177137444Y-84914270D01*
X177164686Y-85349524D01*
X177165000Y-85414167D01*
X177165000Y-86106000D01*
X177673000Y-86106000D01*
X177673000Y-84073986D01*
X177228500Y-84071701D01*
X176917309Y-84068581D01*
X176635163Y-84063276D01*
X176535755Y-84060337D01*
X176311609Y-84086663D01*
G36*
X178877675Y-83535328D02*
G01*
X178880745Y-83696120D01*
X178895081Y-83777667D01*
X178950674Y-84074000D01*
X178608170Y-84074000D01*
X178385073Y-84087864D01*
X178285790Y-84144050D01*
X178265667Y-84243334D01*
X178294658Y-84354904D01*
X178411318Y-84403657D01*
X178598242Y-84412667D01*
X178930816Y-84412667D01*
X178989822Y-84884939D01*
X179005755Y-85289632D01*
X178943224Y-85580364D01*
X178807727Y-85740640D01*
X178695812Y-85767334D01*
X178532976Y-85728861D01*
X178477334Y-85682667D01*
X178351203Y-85601084D01*
X178209163Y-85648442D01*
X178143118Y-85743933D01*
X178152328Y-85909374D01*
X178308720Y-86030508D01*
X178593531Y-86096756D01*
X178785049Y-86106000D01*
X179060264Y-86087233D01*
X179228062Y-86017046D01*
X179319200Y-85917828D01*
X179400426Y-85716942D01*
X179442672Y-85389752D01*
X179451000Y-85071161D01*
X179453416Y-84740943D01*
X179468172Y-84545020D01*
X179506528Y-84448357D01*
X179579747Y-84415921D01*
X179662667Y-84412667D01*
X179828648Y-84372980D01*
X179874334Y-84243334D01*
X179834418Y-84119387D01*
X179685901Y-84075747D01*
X179620334Y-84074000D01*
X179440167Y-84052698D01*
X179373818Y-83954452D01*
X179366334Y-83829875D01*
X179325680Y-83630722D01*
X179182727Y-83536596D01*
X179175834Y-83534698D01*
X178964411Y-83491583D01*
X178877675Y-83535328D01*
G37*
X178877675Y-83535328D02*
X178880745Y-83696120D01*
X178895081Y-83777667D01*
X178950674Y-84074000D01*
X178608170Y-84074000D01*
X178385073Y-84087864D01*
X178285790Y-84144050D01*
X178265667Y-84243334D01*
X178294658Y-84354904D01*
X178411318Y-84403657D01*
X178598242Y-84412667D01*
X178930816Y-84412667D01*
X178989822Y-84884939D01*
X179005755Y-85289632D01*
X178943224Y-85580364D01*
X178807727Y-85740640D01*
X178695812Y-85767334D01*
X178532976Y-85728861D01*
X178477334Y-85682667D01*
X178351203Y-85601084D01*
X178209163Y-85648442D01*
X178143118Y-85743933D01*
X178152328Y-85909374D01*
X178308720Y-86030508D01*
X178593531Y-86096756D01*
X178785049Y-86106000D01*
X179060264Y-86087233D01*
X179228062Y-86017046D01*
X179319200Y-85917828D01*
X179400426Y-85716942D01*
X179442672Y-85389752D01*
X179451000Y-85071161D01*
X179453416Y-84740943D01*
X179468172Y-84545020D01*
X179506528Y-84448357D01*
X179579747Y-84415921D01*
X179662667Y-84412667D01*
X179828648Y-84372980D01*
X179874334Y-84243334D01*
X179834418Y-84119387D01*
X179685901Y-84075747D01*
X179620334Y-84074000D01*
X179440167Y-84052698D01*
X179373818Y-83954452D01*
X179366334Y-83829875D01*
X179325680Y-83630722D01*
X179182727Y-83536596D01*
X179175834Y-83534698D01*
X178964411Y-83491583D01*
X178877675Y-83535328D01*
G36*
X180867411Y-84073309D02*
G01*
X180594976Y-84158912D01*
X180432194Y-84283224D01*
X180399365Y-84431222D01*
X180504343Y-84577858D01*
X180617931Y-84625146D01*
X180766041Y-84569506D01*
X180883391Y-84489079D01*
X181075276Y-84368560D01*
X181224654Y-84351344D01*
X181362665Y-84400298D01*
X181506114Y-84509002D01*
X181480834Y-84627629D01*
X181286722Y-84756301D01*
X180968530Y-84880483D01*
X180599593Y-85052616D01*
X180376928Y-85267241D01*
X180307052Y-85510030D01*
X180396487Y-85766651D01*
X180505485Y-85898182D01*
X180657845Y-86020775D01*
X180838863Y-86083818D01*
X181109337Y-86105100D01*
X181215772Y-86106000D01*
X181582755Y-86082408D01*
X181827982Y-86005449D01*
X181908225Y-85952161D01*
X182035760Y-85819095D01*
X182035269Y-85689939D01*
X181999292Y-85613494D01*
X181886866Y-85459500D01*
X181769230Y-85455976D01*
X181610000Y-85598000D01*
X181430430Y-85714485D01*
X181201266Y-85766301D01*
X180985850Y-85750074D01*
X180847523Y-85662427D01*
X180835871Y-85639255D01*
X180845351Y-85457965D01*
X181022159Y-85301298D01*
X181317514Y-85183517D01*
X181678572Y-85020888D01*
X181903684Y-84809931D01*
X181995100Y-84579744D01*
X181955069Y-84359426D01*
X181785842Y-84178075D01*
X181489670Y-84064789D01*
X181229200Y-84041436D01*
X180867411Y-84073309D01*
G37*
X180867411Y-84073309D02*
X180594976Y-84158912D01*
X180432194Y-84283224D01*
X180399365Y-84431222D01*
X180504343Y-84577858D01*
X180617931Y-84625146D01*
X180766041Y-84569506D01*
X180883391Y-84489079D01*
X181075276Y-84368560D01*
X181224654Y-84351344D01*
X181362665Y-84400298D01*
X181506114Y-84509002D01*
X181480834Y-84627629D01*
X181286722Y-84756301D01*
X180968530Y-84880483D01*
X180599593Y-85052616D01*
X180376928Y-85267241D01*
X180307052Y-85510030D01*
X180396487Y-85766651D01*
X180505485Y-85898182D01*
X180657845Y-86020775D01*
X180838863Y-86083818D01*
X181109337Y-86105100D01*
X181215772Y-86106000D01*
X181582755Y-86082408D01*
X181827982Y-86005449D01*
X181908225Y-85952161D01*
X182035760Y-85819095D01*
X182035269Y-85689939D01*
X181999292Y-85613494D01*
X181886866Y-85459500D01*
X181769230Y-85455976D01*
X181610000Y-85598000D01*
X181430430Y-85714485D01*
X181201266Y-85766301D01*
X180985850Y-85750074D01*
X180847523Y-85662427D01*
X180835871Y-85639255D01*
X180845351Y-85457965D01*
X181022159Y-85301298D01*
X181317514Y-85183517D01*
X181678572Y-85020888D01*
X181903684Y-84809931D01*
X181995100Y-84579744D01*
X181955069Y-84359426D01*
X181785842Y-84178075D01*
X181489670Y-84064789D01*
X181229200Y-84041436D01*
X180867411Y-84073309D01*
G36*
X182965814Y-83179199D02*
G01*
X182688650Y-83275881D01*
X182546499Y-83427217D01*
X182548931Y-83597602D01*
X182628559Y-83713175D01*
X182758081Y-83712452D01*
X182973245Y-83594920D01*
X182978580Y-83591432D01*
X183139344Y-83500377D01*
X183242081Y-83518211D01*
X183356601Y-83643145D01*
X183497409Y-83861776D01*
X183491550Y-83998927D01*
X183334817Y-84064647D01*
X183176334Y-84074000D01*
X182954766Y-84088200D01*
X182856841Y-84145595D01*
X182837667Y-84243334D01*
X182866067Y-84354118D01*
X182980856Y-84403080D01*
X183176334Y-84412667D01*
X183515000Y-84412667D01*
X183515000Y-86106000D01*
X183938334Y-86106000D01*
X183938334Y-84412667D01*
X184150000Y-84412667D01*
X184315982Y-84372980D01*
X184361667Y-84243334D01*
X184312058Y-84110549D01*
X184150000Y-84074000D01*
X183995224Y-84044122D01*
X183941640Y-83920336D01*
X183938334Y-83835965D01*
X183863116Y-83537666D01*
X183659973Y-83312472D01*
X183362664Y-83183183D01*
X183004955Y-83172599D01*
X182965814Y-83179199D01*
G37*
X182965814Y-83179199D02*
X182688650Y-83275881D01*
X182546499Y-83427217D01*
X182548931Y-83597602D01*
X182628559Y-83713175D01*
X182758081Y-83712452D01*
X182973245Y-83594920D01*
X182978580Y-83591432D01*
X183139344Y-83500377D01*
X183242081Y-83518211D01*
X183356601Y-83643145D01*
X183497409Y-83861776D01*
X183491550Y-83998927D01*
X183334817Y-84064647D01*
X183176334Y-84074000D01*
X182954766Y-84088200D01*
X182856841Y-84145595D01*
X182837667Y-84243334D01*
X182866067Y-84354118D01*
X182980856Y-84403080D01*
X183176334Y-84412667D01*
X183515000Y-84412667D01*
X183515000Y-86106000D01*
X183938334Y-86106000D01*
X183938334Y-84412667D01*
X184150000Y-84412667D01*
X184315982Y-84372980D01*
X184361667Y-84243334D01*
X184312058Y-84110549D01*
X184150000Y-84074000D01*
X183995224Y-84044122D01*
X183941640Y-83920336D01*
X183938334Y-83835965D01*
X183863116Y-83537666D01*
X183659973Y-83312472D01*
X183362664Y-83183183D01*
X183004955Y-83172599D01*
X182965814Y-83179199D01*
G36*
X187071000Y-86084094D02*
G01*
X187750491Y-86092890D01*
X188107404Y-86091007D01*
X188339250Y-86068560D01*
X188489854Y-86017209D01*
X188600538Y-85931129D01*
X188824475Y-85595708D01*
X188926854Y-85191572D01*
X188912167Y-84949895D01*
X188465640Y-84949895D01*
X188444870Y-85274477D01*
X188314127Y-85568618D01*
X188274173Y-85619167D01*
X188072815Y-85752240D01*
X187864370Y-85723192D01*
X187710801Y-85579161D01*
X187589908Y-85274717D01*
X187592965Y-84934316D01*
X187714522Y-84626333D01*
X187794561Y-84528076D01*
X187949911Y-84390825D01*
X188062830Y-84366487D01*
X188192679Y-84433730D01*
X188380291Y-84650952D01*
X188465640Y-84949895D01*
X188912167Y-84949895D01*
X188901475Y-84773971D01*
X188768066Y-84438445D01*
X188555000Y-84211007D01*
X188271449Y-84062491D01*
X187975781Y-84014402D01*
X187760819Y-84067318D01*
X187657335Y-84112887D01*
X187603147Y-84085098D01*
X187582341Y-83951450D01*
X187579000Y-83695979D01*
X187574811Y-83428691D01*
X187547231Y-83289186D01*
X187473741Y-83235917D01*
X187331823Y-83227335D01*
X187325000Y-83227334D01*
X187071000Y-83227334D01*
X187071000Y-86084094D01*
G37*
X187071000Y-86084094D02*
X187750491Y-86092890D01*
X188107404Y-86091007D01*
X188339250Y-86068560D01*
X188489854Y-86017209D01*
X188600538Y-85931129D01*
X188824475Y-85595708D01*
X188926854Y-85191572D01*
X188912167Y-84949895D01*
X188465640Y-84949895D01*
X188444870Y-85274477D01*
X188314127Y-85568618D01*
X188274173Y-85619167D01*
X188072815Y-85752240D01*
X187864370Y-85723192D01*
X187710801Y-85579161D01*
X187589908Y-85274717D01*
X187592965Y-84934316D01*
X187714522Y-84626333D01*
X187794561Y-84528076D01*
X187949911Y-84390825D01*
X188062830Y-84366487D01*
X188192679Y-84433730D01*
X188380291Y-84650952D01*
X188465640Y-84949895D01*
X188912167Y-84949895D01*
X188901475Y-84773971D01*
X188768066Y-84438445D01*
X188555000Y-84211007D01*
X188271449Y-84062491D01*
X187975781Y-84014402D01*
X187760819Y-84067318D01*
X187657335Y-84112887D01*
X187603147Y-84085098D01*
X187582341Y-83951450D01*
X187579000Y-83695979D01*
X187574811Y-83428691D01*
X187547231Y-83289186D01*
X187473741Y-83235917D01*
X187331823Y-83227335D01*
X187325000Y-83227334D01*
X187071000Y-83227334D01*
X187071000Y-86084094D01*
G36*
X190685027Y-83235389D02*
G01*
X190618989Y-83287740D01*
X190601220Y-83425775D01*
X190613552Y-83690998D01*
X190613670Y-83692885D01*
X190627817Y-83970711D01*
X190610175Y-84109970D01*
X190537361Y-84141219D01*
X190385994Y-84095014D01*
X190323983Y-84071459D01*
X190022705Y-84036103D01*
X189705210Y-84118112D01*
X189447804Y-84294219D01*
X189399596Y-84353318D01*
X189315499Y-84577389D01*
X189274966Y-84928120D01*
X189272334Y-85060010D01*
X189284671Y-85381135D01*
X189333769Y-85598951D01*
X189437759Y-85778455D01*
X189491413Y-85845369D01*
X189609451Y-85975422D01*
X189723511Y-86051949D01*
X189880313Y-86087966D01*
X190126579Y-86096487D01*
X190380413Y-86092999D01*
X191050334Y-86080268D01*
X191050334Y-85240795D01*
X190594910Y-85240795D01*
X190530871Y-85513827D01*
X190446797Y-85653431D01*
X190265598Y-85756436D01*
X190043786Y-85738890D01*
X189850608Y-85609097D01*
X189827468Y-85579161D01*
X189712462Y-85309471D01*
X189697072Y-85013504D01*
X189768101Y-84736153D01*
X189912348Y-84522309D01*
X190116614Y-84416866D01*
X190170455Y-84412667D01*
X190358050Y-84487560D01*
X190498194Y-84681392D01*
X190580583Y-84947893D01*
X190594910Y-85240795D01*
X191050334Y-85240795D01*
X191050334Y-83227334D01*
X190817500Y-83227218D01*
X190685027Y-83235389D01*
G37*
X190685027Y-83235389D02*
X190618989Y-83287740D01*
X190601220Y-83425775D01*
X190613552Y-83690998D01*
X190613670Y-83692885D01*
X190627817Y-83970711D01*
X190610175Y-84109970D01*
X190537361Y-84141219D01*
X190385994Y-84095014D01*
X190323983Y-84071459D01*
X190022705Y-84036103D01*
X189705210Y-84118112D01*
X189447804Y-84294219D01*
X189399596Y-84353318D01*
X189315499Y-84577389D01*
X189274966Y-84928120D01*
X189272334Y-85060010D01*
X189284671Y-85381135D01*
X189333769Y-85598951D01*
X189437759Y-85778455D01*
X189491413Y-85845369D01*
X189609451Y-85975422D01*
X189723511Y-86051949D01*
X189880313Y-86087966D01*
X190126579Y-86096487D01*
X190380413Y-86092999D01*
X191050334Y-86080268D01*
X191050334Y-85240795D01*
X190594910Y-85240795D01*
X190530871Y-85513827D01*
X190446797Y-85653431D01*
X190265598Y-85756436D01*
X190043786Y-85738890D01*
X189850608Y-85609097D01*
X189827468Y-85579161D01*
X189712462Y-85309471D01*
X189697072Y-85013504D01*
X189768101Y-84736153D01*
X189912348Y-84522309D01*
X190116614Y-84416866D01*
X190170455Y-84412667D01*
X190358050Y-84487560D01*
X190498194Y-84681392D01*
X190580583Y-84947893D01*
X190594910Y-85240795D01*
X191050334Y-85240795D01*
X191050334Y-83227334D01*
X190817500Y-83227218D01*
X190685027Y-83235389D01*
G36*
X192743667Y-84761413D02*
G01*
X192336052Y-84417707D01*
X192029187Y-84195240D01*
X191775791Y-84083550D01*
X191701052Y-84074000D01*
X191534428Y-84089985D01*
X191473667Y-84123750D01*
X191531630Y-84201976D01*
X191682831Y-84356843D01*
X191872464Y-84534553D01*
X192271262Y-84895608D01*
X191830131Y-85423541D01*
X191624920Y-85678059D01*
X191470547Y-85886525D01*
X191393255Y-86012934D01*
X191389000Y-86028737D01*
X191462462Y-86083511D01*
X191636815Y-86106000D01*
X191805938Y-86075448D01*
X191968678Y-85963588D01*
X192166299Y-85740115D01*
X192208315Y-85686273D01*
X192436853Y-85412513D01*
X192593591Y-85286429D01*
X192689459Y-85307946D01*
X192735383Y-85476993D01*
X192743667Y-85682667D01*
X192749216Y-85933270D01*
X192783337Y-86058236D01*
X192872236Y-86101247D01*
X192997667Y-86106000D01*
X193251667Y-86106000D01*
X193251667Y-83227334D01*
X192743667Y-83227334D01*
X192743667Y-84761413D01*
G37*
X192743667Y-84761413D02*
X192336052Y-84417707D01*
X192029187Y-84195240D01*
X191775791Y-84083550D01*
X191701052Y-84074000D01*
X191534428Y-84089985D01*
X191473667Y-84123750D01*
X191531630Y-84201976D01*
X191682831Y-84356843D01*
X191872464Y-84534553D01*
X192271262Y-84895608D01*
X191830131Y-85423541D01*
X191624920Y-85678059D01*
X191470547Y-85886525D01*
X191393255Y-86012934D01*
X191389000Y-86028737D01*
X191462462Y-86083511D01*
X191636815Y-86106000D01*
X191805938Y-86075448D01*
X191968678Y-85963588D01*
X192166299Y-85740115D01*
X192208315Y-85686273D01*
X192436853Y-85412513D01*
X192593591Y-85286429D01*
X192689459Y-85307946D01*
X192735383Y-85476993D01*
X192743667Y-85682667D01*
X192749216Y-85933270D01*
X192783337Y-86058236D01*
X192872236Y-86101247D01*
X192997667Y-86106000D01*
X193251667Y-86106000D01*
X193251667Y-83227334D01*
X192743667Y-83227334D01*
X192743667Y-84761413D01*
G36*
X194329411Y-84073309D02*
G01*
X194056976Y-84158912D01*
X193894194Y-84283224D01*
X193861365Y-84431222D01*
X193966343Y-84577858D01*
X194079931Y-84625146D01*
X194228041Y-84569506D01*
X194345391Y-84489079D01*
X194537276Y-84368560D01*
X194686654Y-84351344D01*
X194824665Y-84400298D01*
X194968114Y-84509002D01*
X194942834Y-84627629D01*
X194748722Y-84756301D01*
X194430530Y-84880483D01*
X194061593Y-85052616D01*
X193838928Y-85267241D01*
X193769052Y-85510030D01*
X193858487Y-85766651D01*
X193967485Y-85898182D01*
X194119845Y-86020775D01*
X194300863Y-86083818D01*
X194571337Y-86105100D01*
X194677772Y-86106000D01*
X195044755Y-86082408D01*
X195289982Y-86005449D01*
X195370225Y-85952161D01*
X195497760Y-85819095D01*
X195497269Y-85689939D01*
X195461292Y-85613494D01*
X195348866Y-85459500D01*
X195231230Y-85455976D01*
X195072000Y-85598000D01*
X194892430Y-85714485D01*
X194663266Y-85766301D01*
X194447850Y-85750074D01*
X194309523Y-85662427D01*
X194297871Y-85639255D01*
X194307351Y-85457965D01*
X194484159Y-85301298D01*
X194779514Y-85183517D01*
X195140572Y-85020888D01*
X195365684Y-84809931D01*
X195457100Y-84579744D01*
X195417069Y-84359426D01*
X195247842Y-84178075D01*
X194951670Y-84064789D01*
X194691200Y-84041436D01*
X194329411Y-84073309D01*
G37*
X194329411Y-84073309D02*
X194056976Y-84158912D01*
X193894194Y-84283224D01*
X193861365Y-84431222D01*
X193966343Y-84577858D01*
X194079931Y-84625146D01*
X194228041Y-84569506D01*
X194345391Y-84489079D01*
X194537276Y-84368560D01*
X194686654Y-84351344D01*
X194824665Y-84400298D01*
X194968114Y-84509002D01*
X194942834Y-84627629D01*
X194748722Y-84756301D01*
X194430530Y-84880483D01*
X194061593Y-85052616D01*
X193838928Y-85267241D01*
X193769052Y-85510030D01*
X193858487Y-85766651D01*
X193967485Y-85898182D01*
X194119845Y-86020775D01*
X194300863Y-86083818D01*
X194571337Y-86105100D01*
X194677772Y-86106000D01*
X195044755Y-86082408D01*
X195289982Y-86005449D01*
X195370225Y-85952161D01*
X195497760Y-85819095D01*
X195497269Y-85689939D01*
X195461292Y-85613494D01*
X195348866Y-85459500D01*
X195231230Y-85455976D01*
X195072000Y-85598000D01*
X194892430Y-85714485D01*
X194663266Y-85766301D01*
X194447850Y-85750074D01*
X194309523Y-85662427D01*
X194297871Y-85639255D01*
X194307351Y-85457965D01*
X194484159Y-85301298D01*
X194779514Y-85183517D01*
X195140572Y-85020888D01*
X195365684Y-84809931D01*
X195457100Y-84579744D01*
X195417069Y-84359426D01*
X195247842Y-84178075D01*
X194951670Y-84064789D01*
X194691200Y-84041436D01*
X194329411Y-84073309D01*
G36*
X205420744Y-84073309D02*
G01*
X205148309Y-84158912D01*
X204985528Y-84283224D01*
X204952699Y-84431222D01*
X205057676Y-84577858D01*
X205171265Y-84625146D01*
X205319374Y-84569506D01*
X205436725Y-84489079D01*
X205628609Y-84368560D01*
X205777987Y-84351344D01*
X205915998Y-84400298D01*
X206059447Y-84509002D01*
X206034167Y-84627629D01*
X205840056Y-84756301D01*
X205521863Y-84880483D01*
X205152927Y-85052616D01*
X204930261Y-85267241D01*
X204860386Y-85510030D01*
X204949821Y-85766651D01*
X205058819Y-85898182D01*
X205211179Y-86020775D01*
X205392196Y-86083818D01*
X205662670Y-86105100D01*
X205769106Y-86106000D01*
X206136088Y-86082408D01*
X206381315Y-86005449D01*
X206461558Y-85952161D01*
X206589093Y-85819095D01*
X206588602Y-85689939D01*
X206552626Y-85613494D01*
X206440199Y-85459500D01*
X206322563Y-85455976D01*
X206163334Y-85598000D01*
X205983763Y-85714485D01*
X205754599Y-85766301D01*
X205539183Y-85750074D01*
X205400857Y-85662427D01*
X205389204Y-85639255D01*
X205398685Y-85457965D01*
X205575493Y-85301298D01*
X205870848Y-85183517D01*
X206231906Y-85020888D01*
X206457017Y-84809931D01*
X206548433Y-84579744D01*
X206508402Y-84359426D01*
X206339176Y-84178075D01*
X206043003Y-84064789D01*
X205782533Y-84041436D01*
X205420744Y-84073309D01*
G37*
X205420744Y-84073309D02*
X205148309Y-84158912D01*
X204985528Y-84283224D01*
X204952699Y-84431222D01*
X205057676Y-84577858D01*
X205171265Y-84625146D01*
X205319374Y-84569506D01*
X205436725Y-84489079D01*
X205628609Y-84368560D01*
X205777987Y-84351344D01*
X205915998Y-84400298D01*
X206059447Y-84509002D01*
X206034167Y-84627629D01*
X205840056Y-84756301D01*
X205521863Y-84880483D01*
X205152927Y-85052616D01*
X204930261Y-85267241D01*
X204860386Y-85510030D01*
X204949821Y-85766651D01*
X205058819Y-85898182D01*
X205211179Y-86020775D01*
X205392196Y-86083818D01*
X205662670Y-86105100D01*
X205769106Y-86106000D01*
X206136088Y-86082408D01*
X206381315Y-86005449D01*
X206461558Y-85952161D01*
X206589093Y-85819095D01*
X206588602Y-85689939D01*
X206552626Y-85613494D01*
X206440199Y-85459500D01*
X206322563Y-85455976D01*
X206163334Y-85598000D01*
X205983763Y-85714485D01*
X205754599Y-85766301D01*
X205539183Y-85750074D01*
X205400857Y-85662427D01*
X205389204Y-85639255D01*
X205398685Y-85457965D01*
X205575493Y-85301298D01*
X205870848Y-85183517D01*
X206231906Y-85020888D01*
X206457017Y-84809931D01*
X206548433Y-84579744D01*
X206508402Y-84359426D01*
X206339176Y-84178075D01*
X206043003Y-84064789D01*
X205782533Y-84041436D01*
X205420744Y-84073309D01*
G36*
X210119675Y-83535328D02*
G01*
X210122745Y-83696120D01*
X210137081Y-83777667D01*
X210192674Y-84074000D01*
X209850170Y-84074000D01*
X209627073Y-84087864D01*
X209527790Y-84144050D01*
X209507667Y-84243334D01*
X209536658Y-84354904D01*
X209653318Y-84403657D01*
X209840242Y-84412667D01*
X210172816Y-84412667D01*
X210231822Y-84884939D01*
X210247755Y-85289632D01*
X210185224Y-85580364D01*
X210049727Y-85740640D01*
X209937812Y-85767334D01*
X209774976Y-85728861D01*
X209719334Y-85682667D01*
X209593203Y-85601084D01*
X209451163Y-85648442D01*
X209385118Y-85743933D01*
X209394328Y-85909374D01*
X209550720Y-86030508D01*
X209835531Y-86096756D01*
X210027049Y-86106000D01*
X210302264Y-86087233D01*
X210470062Y-86017046D01*
X210561200Y-85917828D01*
X210642426Y-85716942D01*
X210684672Y-85389752D01*
X210693000Y-85071161D01*
X210695416Y-84740943D01*
X210710172Y-84545020D01*
X210748528Y-84448357D01*
X210821747Y-84415921D01*
X210904667Y-84412667D01*
X211070648Y-84372980D01*
X211116334Y-84243334D01*
X211076418Y-84119387D01*
X210927901Y-84075747D01*
X210862334Y-84074000D01*
X210682167Y-84052698D01*
X210615818Y-83954452D01*
X210608334Y-83829875D01*
X210567680Y-83630722D01*
X210424727Y-83536596D01*
X210417834Y-83534698D01*
X210206411Y-83491583D01*
X210119675Y-83535328D01*
G37*
X210119675Y-83535328D02*
X210122745Y-83696120D01*
X210137081Y-83777667D01*
X210192674Y-84074000D01*
X209850170Y-84074000D01*
X209627073Y-84087864D01*
X209527790Y-84144050D01*
X209507667Y-84243334D01*
X209536658Y-84354904D01*
X209653318Y-84403657D01*
X209840242Y-84412667D01*
X210172816Y-84412667D01*
X210231822Y-84884939D01*
X210247755Y-85289632D01*
X210185224Y-85580364D01*
X210049727Y-85740640D01*
X209937812Y-85767334D01*
X209774976Y-85728861D01*
X209719334Y-85682667D01*
X209593203Y-85601084D01*
X209451163Y-85648442D01*
X209385118Y-85743933D01*
X209394328Y-85909374D01*
X209550720Y-86030508D01*
X209835531Y-86096756D01*
X210027049Y-86106000D01*
X210302264Y-86087233D01*
X210470062Y-86017046D01*
X210561200Y-85917828D01*
X210642426Y-85716942D01*
X210684672Y-85389752D01*
X210693000Y-85071161D01*
X210695416Y-84740943D01*
X210710172Y-84545020D01*
X210748528Y-84448357D01*
X210821747Y-84415921D01*
X210904667Y-84412667D01*
X211070648Y-84372980D01*
X211116334Y-84243334D01*
X211076418Y-84119387D01*
X210927901Y-84075747D01*
X210862334Y-84074000D01*
X210682167Y-84052698D01*
X210615818Y-83954452D01*
X210608334Y-83829875D01*
X210567680Y-83630722D01*
X210424727Y-83536596D01*
X210417834Y-83534698D01*
X210206411Y-83491583D01*
X210119675Y-83535328D01*
G36*
X212321008Y-83535328D02*
G01*
X212324079Y-83696120D01*
X212338414Y-83777667D01*
X212394007Y-84074000D01*
X212051504Y-84074000D01*
X211828407Y-84087864D01*
X211729123Y-84144050D01*
X211709000Y-84243334D01*
X211737992Y-84354904D01*
X211854651Y-84403657D01*
X212041575Y-84412667D01*
X212374149Y-84412667D01*
X212433156Y-84884939D01*
X212449088Y-85289632D01*
X212386558Y-85580364D01*
X212251060Y-85740640D01*
X212139146Y-85767334D01*
X211976309Y-85728861D01*
X211920667Y-85682667D01*
X211794537Y-85601084D01*
X211652497Y-85648442D01*
X211586451Y-85743933D01*
X211595662Y-85909374D01*
X211752053Y-86030508D01*
X212036865Y-86096756D01*
X212228382Y-86106000D01*
X212503598Y-86087233D01*
X212671396Y-86017046D01*
X212762533Y-85917828D01*
X212843760Y-85716942D01*
X212886006Y-85389752D01*
X212894334Y-85071161D01*
X212896750Y-84740943D01*
X212911505Y-84545020D01*
X212949862Y-84448357D01*
X213023081Y-84415921D01*
X213106000Y-84412667D01*
X213271982Y-84372980D01*
X213317667Y-84243334D01*
X213277751Y-84119387D01*
X213129234Y-84075747D01*
X213063667Y-84074000D01*
X212883500Y-84052698D01*
X212817151Y-83954452D01*
X212809667Y-83829875D01*
X212769013Y-83630722D01*
X212626060Y-83536596D01*
X212619167Y-83534698D01*
X212407744Y-83491583D01*
X212321008Y-83535328D01*
G37*
X212321008Y-83535328D02*
X212324079Y-83696120D01*
X212338414Y-83777667D01*
X212394007Y-84074000D01*
X212051504Y-84074000D01*
X211828407Y-84087864D01*
X211729123Y-84144050D01*
X211709000Y-84243334D01*
X211737992Y-84354904D01*
X211854651Y-84403657D01*
X212041575Y-84412667D01*
X212374149Y-84412667D01*
X212433156Y-84884939D01*
X212449088Y-85289632D01*
X212386558Y-85580364D01*
X212251060Y-85740640D01*
X212139146Y-85767334D01*
X211976309Y-85728861D01*
X211920667Y-85682667D01*
X211794537Y-85601084D01*
X211652497Y-85648442D01*
X211586451Y-85743933D01*
X211595662Y-85909374D01*
X211752053Y-86030508D01*
X212036865Y-86096756D01*
X212228382Y-86106000D01*
X212503598Y-86087233D01*
X212671396Y-86017046D01*
X212762533Y-85917828D01*
X212843760Y-85716942D01*
X212886006Y-85389752D01*
X212894334Y-85071161D01*
X212896750Y-84740943D01*
X212911505Y-84545020D01*
X212949862Y-84448357D01*
X213023081Y-84415921D01*
X213106000Y-84412667D01*
X213271982Y-84372980D01*
X213317667Y-84243334D01*
X213277751Y-84119387D01*
X213129234Y-84075747D01*
X213063667Y-84074000D01*
X212883500Y-84052698D01*
X212817151Y-83954452D01*
X212809667Y-83829875D01*
X212769013Y-83630722D01*
X212626060Y-83536596D01*
X212619167Y-83534698D01*
X212407744Y-83491583D01*
X212321008Y-83535328D01*
G36*
X215186662Y-83239226D02*
G01*
X215123499Y-83302372D01*
X215099346Y-83457971D01*
X215095667Y-83698706D01*
X215091396Y-83965133D01*
X215067558Y-84097400D01*
X215007618Y-84130654D01*
X214905167Y-84103593D01*
X214557096Y-84042471D01*
X214253358Y-84101315D01*
X214064255Y-84241342D01*
X213989982Y-84364533D01*
X213943355Y-84536943D01*
X213918742Y-84796166D01*
X213910511Y-85179796D01*
X213910334Y-85268713D01*
X213911660Y-85650391D01*
X213920877Y-85893823D01*
X213945844Y-86030100D01*
X213994422Y-86090308D01*
X214074468Y-86105538D01*
X214122000Y-86106000D01*
X214226641Y-86098867D01*
X214289463Y-86054528D01*
X214321130Y-85938574D01*
X214332309Y-85716595D01*
X214333667Y-85423101D01*
X214349965Y-84965887D01*
X214402853Y-84657254D01*
X214498318Y-84479237D01*
X214642349Y-84413872D01*
X214670512Y-84412667D01*
X214867971Y-84480278D01*
X215002528Y-84687911D01*
X215077141Y-85042760D01*
X215095667Y-85447506D01*
X215098083Y-85777724D01*
X215112839Y-85973647D01*
X215151195Y-86070310D01*
X215224414Y-86102746D01*
X215307334Y-86106000D01*
X215519000Y-86106000D01*
X215519000Y-83227334D01*
X215307334Y-83227334D01*
X215186662Y-83239226D01*
G37*
X215186662Y-83239226D02*
X215123499Y-83302372D01*
X215099346Y-83457971D01*
X215095667Y-83698706D01*
X215091396Y-83965133D01*
X215067558Y-84097400D01*
X215007618Y-84130654D01*
X214905167Y-84103593D01*
X214557096Y-84042471D01*
X214253358Y-84101315D01*
X214064255Y-84241342D01*
X213989982Y-84364533D01*
X213943355Y-84536943D01*
X213918742Y-84796166D01*
X213910511Y-85179796D01*
X213910334Y-85268713D01*
X213911660Y-85650391D01*
X213920877Y-85893823D01*
X213945844Y-86030100D01*
X213994422Y-86090308D01*
X214074468Y-86105538D01*
X214122000Y-86106000D01*
X214226641Y-86098867D01*
X214289463Y-86054528D01*
X214321130Y-85938574D01*
X214332309Y-85716595D01*
X214333667Y-85423101D01*
X214349965Y-84965887D01*
X214402853Y-84657254D01*
X214498318Y-84479237D01*
X214642349Y-84413872D01*
X214670512Y-84412667D01*
X214867971Y-84480278D01*
X215002528Y-84687911D01*
X215077141Y-85042760D01*
X215095667Y-85447506D01*
X215098083Y-85777724D01*
X215112839Y-85973647D01*
X215151195Y-86070310D01*
X215224414Y-86102746D01*
X215307334Y-86106000D01*
X215519000Y-86106000D01*
X215519000Y-83227334D01*
X215307334Y-83227334D01*
X215186662Y-83239226D01*
G36*
X174463318Y-85535600D02*
G01*
X174284871Y-85635567D01*
X174202297Y-85803117D01*
X174201667Y-85820553D01*
X174268415Y-85978126D01*
X174419684Y-86125285D01*
X174582011Y-86190665D01*
X174582667Y-86190667D01*
X174731415Y-86135151D01*
X174830620Y-86057619D01*
X174953799Y-85857313D01*
X174908542Y-85669404D01*
X174862067Y-85614934D01*
X174676197Y-85522345D01*
X174463318Y-85535600D01*
G37*
X174463318Y-85535600D02*
X174284871Y-85635567D01*
X174202297Y-85803117D01*
X174201667Y-85820553D01*
X174268415Y-85978126D01*
X174419684Y-86125285D01*
X174582011Y-86190665D01*
X174582667Y-86190667D01*
X174731415Y-86135151D01*
X174830620Y-86057619D01*
X174953799Y-85857313D01*
X174908542Y-85669404D01*
X174862067Y-85614934D01*
X174676197Y-85522345D01*
X174463318Y-85535600D01*
G36*
X185639318Y-85535600D02*
G01*
X185460871Y-85635567D01*
X185378297Y-85803117D01*
X185377667Y-85820553D01*
X185444415Y-85978126D01*
X185595684Y-86125285D01*
X185758011Y-86190665D01*
X185758667Y-86190667D01*
X185907415Y-86135151D01*
X186006620Y-86057619D01*
X186129799Y-85857313D01*
X186084542Y-85669404D01*
X186038067Y-85614934D01*
X185852197Y-85522345D01*
X185639318Y-85535600D01*
G37*
X185639318Y-85535600D02*
X185460871Y-85635567D01*
X185378297Y-85803117D01*
X185377667Y-85820553D01*
X185444415Y-85978126D01*
X185595684Y-86125285D01*
X185758011Y-86190665D01*
X185758667Y-86190667D01*
X185907415Y-86135151D01*
X186006620Y-86057619D01*
X186129799Y-85857313D01*
X186084542Y-85669404D01*
X186038067Y-85614934D01*
X185852197Y-85522345D01*
X185639318Y-85535600D01*
G36*
X203407025Y-85572768D02*
G01*
X203275714Y-85717378D01*
X203248019Y-85896622D01*
X203342558Y-86059959D01*
X203406101Y-86103021D01*
X203616260Y-86182917D01*
X203775550Y-86139818D01*
X203871286Y-86057619D01*
X203985890Y-85855868D01*
X203953848Y-85669480D01*
X203795355Y-85542781D01*
X203623334Y-85513334D01*
X203407025Y-85572768D01*
G37*
X203407025Y-85572768D02*
X203275714Y-85717378D01*
X203248019Y-85896622D01*
X203342558Y-86059959D01*
X203406101Y-86103021D01*
X203616260Y-86182917D01*
X203775550Y-86139818D01*
X203871286Y-86057619D01*
X203985890Y-85855868D01*
X203953848Y-85669480D01*
X203795355Y-85542781D01*
X203623334Y-85513334D01*
X203407025Y-85572768D01*
G36*
X198325473Y-83286061D02*
G01*
X198280076Y-83347928D01*
X198298754Y-83460775D01*
X198379402Y-83691874D01*
X198508389Y-84011793D01*
X198672083Y-84391101D01*
X198856854Y-84800366D01*
X199049070Y-85210158D01*
X199235100Y-85591045D01*
X199401313Y-85913597D01*
X199534078Y-86148381D01*
X199619764Y-86265968D01*
X199635315Y-86274037D01*
X199786165Y-86230773D01*
X199844390Y-86199428D01*
X199854740Y-86099100D01*
X199797993Y-85878567D01*
X199687410Y-85566679D01*
X199536251Y-85192284D01*
X199357776Y-84784229D01*
X199165246Y-84371364D01*
X198971920Y-83982536D01*
X198791060Y-83646593D01*
X198635925Y-83392385D01*
X198519776Y-83248758D01*
X198478247Y-83227334D01*
X198325473Y-83286061D01*
G37*
X198325473Y-83286061D02*
X198280076Y-83347928D01*
X198298754Y-83460775D01*
X198379402Y-83691874D01*
X198508389Y-84011793D01*
X198672083Y-84391101D01*
X198856854Y-84800366D01*
X199049070Y-85210158D01*
X199235100Y-85591045D01*
X199401313Y-85913597D01*
X199534078Y-86148381D01*
X199619764Y-86265968D01*
X199635315Y-86274037D01*
X199786165Y-86230773D01*
X199844390Y-86199428D01*
X199854740Y-86099100D01*
X199797993Y-85878567D01*
X199687410Y-85566679D01*
X199536251Y-85192284D01*
X199357776Y-84784229D01*
X199165246Y-84371364D01*
X198971920Y-83982536D01*
X198791060Y-83646593D01*
X198635925Y-83392385D01*
X198519776Y-83248758D01*
X198478247Y-83227334D01*
X198325473Y-83286061D01*
G36*
X200611473Y-83286061D02*
G01*
X200566076Y-83347928D01*
X200584754Y-83460775D01*
X200665402Y-83691874D01*
X200794389Y-84011793D01*
X200958083Y-84391101D01*
X201142854Y-84800366D01*
X201335070Y-85210158D01*
X201521100Y-85591045D01*
X201687313Y-85913597D01*
X201820078Y-86148381D01*
X201905764Y-86265968D01*
X201921315Y-86274037D01*
X202072165Y-86230773D01*
X202130390Y-86199428D01*
X202140740Y-86099100D01*
X202083993Y-85878567D01*
X201973410Y-85566679D01*
X201822251Y-85192284D01*
X201643776Y-84784229D01*
X201451246Y-84371364D01*
X201257920Y-83982536D01*
X201077060Y-83646593D01*
X200921925Y-83392385D01*
X200805776Y-83248758D01*
X200764247Y-83227334D01*
X200611473Y-83286061D01*
G37*
X200611473Y-83286061D02*
X200566076Y-83347928D01*
X200584754Y-83460775D01*
X200665402Y-83691874D01*
X200794389Y-84011793D01*
X200958083Y-84391101D01*
X201142854Y-84800366D01*
X201335070Y-85210158D01*
X201521100Y-85591045D01*
X201687313Y-85913597D01*
X201820078Y-86148381D01*
X201905764Y-86265968D01*
X201921315Y-86274037D01*
X202072165Y-86230773D01*
X202130390Y-86199428D01*
X202140740Y-86099100D01*
X202083993Y-85878567D01*
X201973410Y-85566679D01*
X201822251Y-85192284D01*
X201643776Y-84784229D01*
X201451246Y-84371364D01*
X201257920Y-83982536D01*
X201077060Y-83646593D01*
X200921925Y-83392385D01*
X200805776Y-83248758D01*
X200764247Y-83227334D01*
X200611473Y-83286061D01*
G36*
X169866525Y-84103671D02*
G01*
X169565771Y-84164144D01*
X169490708Y-84201051D01*
X169291201Y-84424722D01*
X169176265Y-84746768D01*
X169147748Y-85117812D01*
X169207498Y-85488477D01*
X169357365Y-85809383D01*
X169427247Y-85896309D01*
X169570090Y-86029822D01*
X169716163Y-86091517D01*
X169929784Y-86099698D01*
X170100603Y-86087915D01*
X170561000Y-86049735D01*
X170561000Y-86416534D01*
X170570587Y-86646060D01*
X170617083Y-86752672D01*
X170727094Y-86782474D01*
X170772667Y-86783334D01*
X170984334Y-86783334D01*
X170984334Y-85240231D01*
X170527483Y-85240231D01*
X170465040Y-85512167D01*
X170380797Y-85653431D01*
X170199598Y-85756436D01*
X169977786Y-85738890D01*
X169784608Y-85609097D01*
X169761468Y-85579161D01*
X169661040Y-85329609D01*
X169634182Y-85023294D01*
X169680278Y-84735152D01*
X169769789Y-84567500D01*
X169961312Y-84444424D01*
X170112776Y-84412667D01*
X170296055Y-84487618D01*
X170432955Y-84681500D01*
X170513443Y-84947856D01*
X170527483Y-85240231D01*
X170984334Y-85240231D01*
X170984334Y-84095340D01*
X170329818Y-84087720D01*
X169866525Y-84103671D01*
G37*
X169866525Y-84103671D02*
X169565771Y-84164144D01*
X169490708Y-84201051D01*
X169291201Y-84424722D01*
X169176265Y-84746768D01*
X169147748Y-85117812D01*
X169207498Y-85488477D01*
X169357365Y-85809383D01*
X169427247Y-85896309D01*
X169570090Y-86029822D01*
X169716163Y-86091517D01*
X169929784Y-86099698D01*
X170100603Y-86087915D01*
X170561000Y-86049735D01*
X170561000Y-86416534D01*
X170570587Y-86646060D01*
X170617083Y-86752672D01*
X170727094Y-86782474D01*
X170772667Y-86783334D01*
X170984334Y-86783334D01*
X170984334Y-85240231D01*
X170527483Y-85240231D01*
X170465040Y-85512167D01*
X170380797Y-85653431D01*
X170199598Y-85756436D01*
X169977786Y-85738890D01*
X169784608Y-85609097D01*
X169761468Y-85579161D01*
X169661040Y-85329609D01*
X169634182Y-85023294D01*
X169680278Y-84735152D01*
X169769789Y-84567500D01*
X169961312Y-84444424D01*
X170112776Y-84412667D01*
X170296055Y-84487618D01*
X170432955Y-84681500D01*
X170513443Y-84947856D01*
X170527483Y-85240231D01*
X170984334Y-85240231D01*
X170984334Y-84095340D01*
X170329818Y-84087720D01*
X169866525Y-84103671D01*
G36*
X196621192Y-84103671D02*
G01*
X196320438Y-84164144D01*
X196245374Y-84201051D01*
X196045867Y-84424722D01*
X195930931Y-84746768D01*
X195902414Y-85117812D01*
X195962165Y-85488477D01*
X196112031Y-85809383D01*
X196181913Y-85896309D01*
X196324757Y-86029822D01*
X196470830Y-86091517D01*
X196684451Y-86099698D01*
X196855269Y-86087915D01*
X197315667Y-86049735D01*
X197315667Y-86416534D01*
X197325254Y-86646060D01*
X197371750Y-86752672D01*
X197481761Y-86782474D01*
X197527334Y-86783334D01*
X197739000Y-86783334D01*
X197739000Y-85240231D01*
X197282150Y-85240231D01*
X197219706Y-85512167D01*
X197135464Y-85653431D01*
X196954265Y-85756436D01*
X196732452Y-85738890D01*
X196539275Y-85609097D01*
X196516135Y-85579161D01*
X196415707Y-85329609D01*
X196388849Y-85023294D01*
X196434944Y-84735152D01*
X196524456Y-84567500D01*
X196715979Y-84444424D01*
X196867443Y-84412667D01*
X197050721Y-84487618D01*
X197187622Y-84681500D01*
X197268110Y-84947856D01*
X197282150Y-85240231D01*
X197739000Y-85240231D01*
X197739000Y-84095340D01*
X197084485Y-84087720D01*
X196621192Y-84103671D01*
G37*
X196621192Y-84103671D02*
X196320438Y-84164144D01*
X196245374Y-84201051D01*
X196045867Y-84424722D01*
X195930931Y-84746768D01*
X195902414Y-85117812D01*
X195962165Y-85488477D01*
X196112031Y-85809383D01*
X196181913Y-85896309D01*
X196324757Y-86029822D01*
X196470830Y-86091517D01*
X196684451Y-86099698D01*
X196855269Y-86087915D01*
X197315667Y-86049735D01*
X197315667Y-86416534D01*
X197325254Y-86646060D01*
X197371750Y-86752672D01*
X197481761Y-86782474D01*
X197527334Y-86783334D01*
X197739000Y-86783334D01*
X197739000Y-85240231D01*
X197282150Y-85240231D01*
X197219706Y-85512167D01*
X197135464Y-85653431D01*
X196954265Y-85756436D01*
X196732452Y-85738890D01*
X196539275Y-85609097D01*
X196516135Y-85579161D01*
X196415707Y-85329609D01*
X196388849Y-85023294D01*
X196434944Y-84735152D01*
X196524456Y-84567500D01*
X196715979Y-84444424D01*
X196867443Y-84412667D01*
X197050721Y-84487618D01*
X197187622Y-84681500D01*
X197268110Y-84947856D01*
X197282150Y-85240231D01*
X197739000Y-85240231D01*
X197739000Y-84095340D01*
X197084485Y-84087720D01*
X196621192Y-84103671D01*
G36*
X207797192Y-84103671D02*
G01*
X207496438Y-84164144D01*
X207421374Y-84201051D01*
X207221867Y-84424722D01*
X207106931Y-84746768D01*
X207078414Y-85117812D01*
X207138165Y-85488477D01*
X207288031Y-85809383D01*
X207357913Y-85896309D01*
X207500757Y-86029822D01*
X207646830Y-86091517D01*
X207860451Y-86099698D01*
X208031269Y-86087915D01*
X208491667Y-86049735D01*
X208491667Y-86416534D01*
X208501254Y-86646060D01*
X208547750Y-86752672D01*
X208657761Y-86782474D01*
X208703334Y-86783334D01*
X208915000Y-86783334D01*
X208915000Y-85240231D01*
X208458150Y-85240231D01*
X208395706Y-85512167D01*
X208311464Y-85653431D01*
X208130265Y-85756436D01*
X207908452Y-85738890D01*
X207715275Y-85609097D01*
X207692135Y-85579161D01*
X207591707Y-85329609D01*
X207564849Y-85023294D01*
X207610944Y-84735152D01*
X207700456Y-84567500D01*
X207891979Y-84444424D01*
X208043443Y-84412667D01*
X208226721Y-84487618D01*
X208363622Y-84681500D01*
X208444110Y-84947856D01*
X208458150Y-85240231D01*
X208915000Y-85240231D01*
X208915000Y-84095340D01*
X208260485Y-84087720D01*
X207797192Y-84103671D01*
G37*
X207797192Y-84103671D02*
X207496438Y-84164144D01*
X207421374Y-84201051D01*
X207221867Y-84424722D01*
X207106931Y-84746768D01*
X207078414Y-85117812D01*
X207138165Y-85488477D01*
X207288031Y-85809383D01*
X207357913Y-85896309D01*
X207500757Y-86029822D01*
X207646830Y-86091517D01*
X207860451Y-86099698D01*
X208031269Y-86087915D01*
X208491667Y-86049735D01*
X208491667Y-86416534D01*
X208501254Y-86646060D01*
X208547750Y-86752672D01*
X208657761Y-86782474D01*
X208703334Y-86783334D01*
X208915000Y-86783334D01*
X208915000Y-85240231D01*
X208458150Y-85240231D01*
X208395706Y-85512167D01*
X208311464Y-85653431D01*
X208130265Y-85756436D01*
X207908452Y-85738890D01*
X207715275Y-85609097D01*
X207692135Y-85579161D01*
X207591707Y-85329609D01*
X207564849Y-85023294D01*
X207610944Y-84735152D01*
X207700456Y-84567500D01*
X207891979Y-84444424D01*
X208043443Y-84412667D01*
X208226721Y-84487618D01*
X208363622Y-84681500D01*
X208444110Y-84947856D01*
X208458150Y-85240231D01*
X208915000Y-85240231D01*
X208915000Y-84095340D01*
X208260485Y-84087720D01*
X207797192Y-84103671D01*
G36*
X171746334Y-85212279D02*
G01*
X171748252Y-85676432D01*
X171757024Y-86003517D01*
X171777175Y-86225782D01*
X171813231Y-86375475D01*
X171869716Y-86484845D01*
X171936834Y-86569804D01*
X172202786Y-86757520D01*
X172544825Y-86835870D01*
X172899877Y-86791969D01*
X172945551Y-86775903D01*
X173160379Y-86646109D01*
X173214415Y-86490071D01*
X173107430Y-86323486D01*
X172981691Y-86233302D01*
X172891901Y-86267421D01*
X172848773Y-86315531D01*
X172683334Y-86418145D01*
X172538205Y-86444667D01*
X172388096Y-86406663D01*
X172282204Y-86279247D01*
X172214521Y-86042313D01*
X172179038Y-85675757D01*
X172169667Y-85211488D01*
X172169667Y-84412667D01*
X172550667Y-84412667D01*
X172788762Y-84401587D01*
X172901350Y-84355582D01*
X172931522Y-84255498D01*
X172931667Y-84243334D01*
X172915678Y-84154344D01*
X172843571Y-84103363D01*
X172679139Y-84080045D01*
X172386177Y-84074047D01*
X172339000Y-84074000D01*
X171746334Y-84074000D01*
X171746334Y-85212279D01*
G37*
X171746334Y-85212279D02*
X171748252Y-85676432D01*
X171757024Y-86003517D01*
X171777175Y-86225782D01*
X171813231Y-86375475D01*
X171869716Y-86484845D01*
X171936834Y-86569804D01*
X172202786Y-86757520D01*
X172544825Y-86835870D01*
X172899877Y-86791969D01*
X172945551Y-86775903D01*
X173160379Y-86646109D01*
X173214415Y-86490071D01*
X173107430Y-86323486D01*
X172981691Y-86233302D01*
X172891901Y-86267421D01*
X172848773Y-86315531D01*
X172683334Y-86418145D01*
X172538205Y-86444667D01*
X172388096Y-86406663D01*
X172282204Y-86279247D01*
X172214521Y-86042313D01*
X172179038Y-85675757D01*
X172169667Y-85211488D01*
X172169667Y-84412667D01*
X172550667Y-84412667D01*
X172788762Y-84401587D01*
X172901350Y-84355582D01*
X172931522Y-84255498D01*
X172931667Y-84243334D01*
X172915678Y-84154344D01*
X172843571Y-84103363D01*
X172679139Y-84080045D01*
X172386177Y-84074047D01*
X172339000Y-84074000D01*
X171746334Y-84074000D01*
X171746334Y-85212279D01*
G36*
X173238436Y-98922815D02*
G01*
X172932764Y-99070611D01*
X172631089Y-99337459D01*
X172379999Y-99678520D01*
X172307105Y-99819203D01*
X172248230Y-99962966D01*
X172203138Y-100120213D01*
X172169435Y-100316690D01*
X172144726Y-100578141D01*
X172126620Y-100930312D01*
X172112722Y-101398948D01*
X172100639Y-102009793D01*
X172099998Y-102046958D01*
X172091474Y-102708409D01*
X172091807Y-103216492D01*
X172101571Y-103586971D01*
X172121340Y-103835611D01*
X172151688Y-103978174D01*
X172171707Y-104015458D01*
X172327834Y-104098010D01*
X172573866Y-104135895D01*
X172835871Y-104127256D01*
X173039923Y-104070233D01*
X173084067Y-104038400D01*
X173122488Y-103938357D01*
X173151187Y-103717204D01*
X173170836Y-103362894D01*
X173182106Y-102863375D01*
X173185667Y-102213862D01*
X173189076Y-101555347D01*
X173202018Y-101044320D01*
X173228569Y-100659024D01*
X173272804Y-100377701D01*
X173338798Y-100178594D01*
X173430627Y-100039947D01*
X173552366Y-99940001D01*
X173618792Y-99901427D01*
X173887993Y-99843801D01*
X174211306Y-99901219D01*
X174532008Y-100060702D01*
X174625549Y-100131788D01*
X174794113Y-100283855D01*
X174920690Y-100435355D01*
X175011246Y-100612761D01*
X175071749Y-100842547D01*
X175108166Y-101151186D01*
X175126463Y-101565153D01*
X175132608Y-102110920D01*
X175133000Y-102383196D01*
X175137289Y-103008527D01*
X175150623Y-103476183D01*
X175173706Y-103797618D01*
X175207240Y-103984283D01*
X175234600Y-104038400D01*
X175396310Y-104110335D01*
X175642645Y-104137004D01*
X175900291Y-104119581D01*
X176095935Y-104059239D01*
X176139950Y-104023906D01*
X176170610Y-103923816D01*
X176193523Y-103700720D01*
X176208962Y-103345224D01*
X176217196Y-102847932D01*
X176218497Y-102199451D01*
X176213817Y-101462739D01*
X176191334Y-99017667D01*
X175782589Y-98991593D01*
X175425787Y-99007340D01*
X175210824Y-99110803D01*
X175133385Y-99304179D01*
X175133000Y-99322622D01*
X175116158Y-99400935D01*
X175044874Y-99398178D01*
X174888010Y-99305368D01*
X174755373Y-99213667D01*
X174349827Y-99010777D01*
X173874889Y-98898880D01*
X173406628Y-98892564D01*
X173238436Y-98922815D01*
G37*
X173238436Y-98922815D02*
X172932764Y-99070611D01*
X172631089Y-99337459D01*
X172379999Y-99678520D01*
X172307105Y-99819203D01*
X172248230Y-99962966D01*
X172203138Y-100120213D01*
X172169435Y-100316690D01*
X172144726Y-100578141D01*
X172126620Y-100930312D01*
X172112722Y-101398948D01*
X172100639Y-102009793D01*
X172099998Y-102046958D01*
X172091474Y-102708409D01*
X172091807Y-103216492D01*
X172101571Y-103586971D01*
X172121340Y-103835611D01*
X172151688Y-103978174D01*
X172171707Y-104015458D01*
X172327834Y-104098010D01*
X172573866Y-104135895D01*
X172835871Y-104127256D01*
X173039923Y-104070233D01*
X173084067Y-104038400D01*
X173122488Y-103938357D01*
X173151187Y-103717204D01*
X173170836Y-103362894D01*
X173182106Y-102863375D01*
X173185667Y-102213862D01*
X173189076Y-101555347D01*
X173202018Y-101044320D01*
X173228569Y-100659024D01*
X173272804Y-100377701D01*
X173338798Y-100178594D01*
X173430627Y-100039947D01*
X173552366Y-99940001D01*
X173618792Y-99901427D01*
X173887993Y-99843801D01*
X174211306Y-99901219D01*
X174532008Y-100060702D01*
X174625549Y-100131788D01*
X174794113Y-100283855D01*
X174920690Y-100435355D01*
X175011246Y-100612761D01*
X175071749Y-100842547D01*
X175108166Y-101151186D01*
X175126463Y-101565153D01*
X175132608Y-102110920D01*
X175133000Y-102383196D01*
X175137289Y-103008527D01*
X175150623Y-103476183D01*
X175173706Y-103797618D01*
X175207240Y-103984283D01*
X175234600Y-104038400D01*
X175396310Y-104110335D01*
X175642645Y-104137004D01*
X175900291Y-104119581D01*
X176095935Y-104059239D01*
X176139950Y-104023906D01*
X176170610Y-103923816D01*
X176193523Y-103700720D01*
X176208962Y-103345224D01*
X176217196Y-102847932D01*
X176218497Y-102199451D01*
X176213817Y-101462739D01*
X176191334Y-99017667D01*
X175782589Y-98991593D01*
X175425787Y-99007340D01*
X175210824Y-99110803D01*
X175133385Y-99304179D01*
X175133000Y-99322622D01*
X175116158Y-99400935D01*
X175044874Y-99398178D01*
X174888010Y-99305368D01*
X174755373Y-99213667D01*
X174349827Y-99010777D01*
X173874889Y-98898880D01*
X173406628Y-98892564D01*
X173238436Y-98922815D01*
G36*
X206228680Y-96779571D02*
G01*
X205738810Y-96965853D01*
X205322367Y-97272936D01*
X205283189Y-97313489D01*
X205080378Y-97530790D01*
X205367856Y-97954367D01*
X205531987Y-98174332D01*
X205668143Y-98318117D01*
X205736347Y-98353301D01*
X205829681Y-98268406D01*
X205946351Y-98095729D01*
X205954273Y-98081633D01*
X206187421Y-97823808D01*
X206514574Y-97678185D01*
X206890485Y-97660618D01*
X207054653Y-97696025D01*
X207371093Y-97866483D01*
X207566858Y-98153540D01*
X207643640Y-98559884D01*
X207645000Y-98632462D01*
X207645000Y-98975334D01*
X206942267Y-98975334D01*
X206537043Y-98985989D01*
X206272115Y-99027629D01*
X206119247Y-99114769D01*
X206050205Y-99261920D01*
X206036334Y-99441000D01*
X206057063Y-99649293D01*
X206138073Y-99785471D01*
X206307598Y-99864048D01*
X206593875Y-99899537D01*
X206942267Y-99906667D01*
X207645000Y-99906667D01*
X207645000Y-101921734D01*
X207647863Y-102626875D01*
X207656848Y-103175124D01*
X207672546Y-103578830D01*
X207695551Y-103850344D01*
X207726455Y-104002016D01*
X207746600Y-104038400D01*
X207891374Y-104103118D01*
X208125315Y-104138027D01*
X208195334Y-104140000D01*
X208439885Y-104116569D01*
X208617409Y-104058316D01*
X208644067Y-104038400D01*
X208679514Y-103946113D01*
X208706724Y-103740546D01*
X208726291Y-103409350D01*
X208738807Y-102940175D01*
X208744869Y-102320672D01*
X208745667Y-101925959D01*
X208745667Y-99915117D01*
X209232500Y-99889725D01*
X209719334Y-99864334D01*
X209719334Y-99017667D01*
X209241763Y-98992551D01*
X208764192Y-98967436D01*
X208704547Y-98490060D01*
X208637141Y-98072412D01*
X208541001Y-97765335D01*
X208390641Y-97510099D01*
X208169524Y-97257161D01*
X207762401Y-96952887D01*
X207278123Y-96772354D01*
X206754334Y-96714827D01*
X206228680Y-96779571D01*
G37*
X206228680Y-96779571D02*
X205738810Y-96965853D01*
X205322367Y-97272936D01*
X205283189Y-97313489D01*
X205080378Y-97530790D01*
X205367856Y-97954367D01*
X205531987Y-98174332D01*
X205668143Y-98318117D01*
X205736347Y-98353301D01*
X205829681Y-98268406D01*
X205946351Y-98095729D01*
X205954273Y-98081633D01*
X206187421Y-97823808D01*
X206514574Y-97678185D01*
X206890485Y-97660618D01*
X207054653Y-97696025D01*
X207371093Y-97866483D01*
X207566858Y-98153540D01*
X207643640Y-98559884D01*
X207645000Y-98632462D01*
X207645000Y-98975334D01*
X206942267Y-98975334D01*
X206537043Y-98985989D01*
X206272115Y-99027629D01*
X206119247Y-99114769D01*
X206050205Y-99261920D01*
X206036334Y-99441000D01*
X206057063Y-99649293D01*
X206138073Y-99785471D01*
X206307598Y-99864048D01*
X206593875Y-99899537D01*
X206942267Y-99906667D01*
X207645000Y-99906667D01*
X207645000Y-101921734D01*
X207647863Y-102626875D01*
X207656848Y-103175124D01*
X207672546Y-103578830D01*
X207695551Y-103850344D01*
X207726455Y-104002016D01*
X207746600Y-104038400D01*
X207891374Y-104103118D01*
X208125315Y-104138027D01*
X208195334Y-104140000D01*
X208439885Y-104116569D01*
X208617409Y-104058316D01*
X208644067Y-104038400D01*
X208679514Y-103946113D01*
X208706724Y-103740546D01*
X208726291Y-103409350D01*
X208738807Y-102940175D01*
X208744869Y-102320672D01*
X208745667Y-101925959D01*
X208745667Y-99915117D01*
X209232500Y-99889725D01*
X209719334Y-99864334D01*
X209719334Y-99017667D01*
X209241763Y-98992551D01*
X208764192Y-98967436D01*
X208704547Y-98490060D01*
X208637141Y-98072412D01*
X208541001Y-97765335D01*
X208390641Y-97510099D01*
X208169524Y-97257161D01*
X207762401Y-96952887D01*
X207278123Y-96772354D01*
X206754334Y-96714827D01*
X206228680Y-96779571D01*
G36*
X179106300Y-98948273D02*
G01*
X178559847Y-99123976D01*
X178121955Y-99422106D01*
X177784193Y-99846992D01*
X177734043Y-99936023D01*
X177673012Y-100058580D01*
X177626818Y-100184140D01*
X177593404Y-100337394D01*
X177570713Y-100543032D01*
X177556688Y-100825746D01*
X177549270Y-101210226D01*
X177546403Y-101721164D01*
X177546000Y-102192667D01*
X177546000Y-104097667D01*
X177876596Y-104124725D01*
X178265908Y-104126209D01*
X178506390Y-104053575D01*
X178602149Y-103905390D01*
X178604334Y-103871265D01*
X178616334Y-103747535D01*
X178681028Y-103763083D01*
X178755599Y-103827316D01*
X179120041Y-104051639D01*
X179607044Y-104186286D01*
X180110432Y-104224667D01*
X180499105Y-104206466D01*
X180809936Y-104138599D01*
X181131782Y-104001172D01*
X181150318Y-103991834D01*
X181557539Y-103705720D01*
X181826559Y-103346818D01*
X181957028Y-102940679D01*
X181950880Y-102628664D01*
X180879850Y-102628664D01*
X180848742Y-102905947D01*
X180691417Y-103137601D01*
X180465184Y-103267388D01*
X180194326Y-103347549D01*
X179976375Y-103365261D01*
X179724873Y-103322068D01*
X179578000Y-103283253D01*
X179130345Y-103097231D01*
X178803941Y-102810751D01*
X178580386Y-102403748D01*
X178488374Y-102095093D01*
X178467927Y-101968064D01*
X178506081Y-101894999D01*
X178638764Y-101852796D01*
X178901904Y-101818352D01*
X178922294Y-101816065D01*
X179371619Y-101801682D01*
X179827235Y-101847834D01*
X180233102Y-101944882D01*
X180533179Y-102083189D01*
X180551667Y-102096286D01*
X180781804Y-102345521D01*
X180879850Y-102628664D01*
X181950880Y-102628664D01*
X181948597Y-102512855D01*
X181800916Y-102088897D01*
X181513635Y-101694358D01*
X181185530Y-101418759D01*
X180644151Y-101146438D01*
X179978138Y-100980345D01*
X179196485Y-100922699D01*
X179176190Y-100922667D01*
X178446821Y-100922667D01*
X178516283Y-100680468D01*
X178692535Y-100278939D01*
X178961050Y-100009314D01*
X179336595Y-99861423D01*
X179760129Y-99823860D01*
X180067382Y-99857558D01*
X180395049Y-99942916D01*
X180687068Y-100060112D01*
X180887380Y-100189324D01*
X180927219Y-100236517D01*
X181042833Y-100323970D01*
X181199494Y-100264088D01*
X181407844Y-100052310D01*
X181434849Y-100018952D01*
X181683031Y-99707910D01*
X181363262Y-99431492D01*
X180872062Y-99117104D01*
X180287454Y-98935684D01*
X179769744Y-98890667D01*
X179106300Y-98948273D01*
G37*
X179106300Y-98948273D02*
X178559847Y-99123976D01*
X178121955Y-99422106D01*
X177784193Y-99846992D01*
X177734043Y-99936023D01*
X177673012Y-100058580D01*
X177626818Y-100184140D01*
X177593404Y-100337394D01*
X177570713Y-100543032D01*
X177556688Y-100825746D01*
X177549270Y-101210226D01*
X177546403Y-101721164D01*
X177546000Y-102192667D01*
X177546000Y-104097667D01*
X177876596Y-104124725D01*
X178265908Y-104126209D01*
X178506390Y-104053575D01*
X178602149Y-103905390D01*
X178604334Y-103871265D01*
X178616334Y-103747535D01*
X178681028Y-103763083D01*
X178755599Y-103827316D01*
X179120041Y-104051639D01*
X179607044Y-104186286D01*
X180110432Y-104224667D01*
X180499105Y-104206466D01*
X180809936Y-104138599D01*
X181131782Y-104001172D01*
X181150318Y-103991834D01*
X181557539Y-103705720D01*
X181826559Y-103346818D01*
X181957028Y-102940679D01*
X181950880Y-102628664D01*
X180879850Y-102628664D01*
X180848742Y-102905947D01*
X180691417Y-103137601D01*
X180465184Y-103267388D01*
X180194326Y-103347549D01*
X179976375Y-103365261D01*
X179724873Y-103322068D01*
X179578000Y-103283253D01*
X179130345Y-103097231D01*
X178803941Y-102810751D01*
X178580386Y-102403748D01*
X178488374Y-102095093D01*
X178467927Y-101968064D01*
X178506081Y-101894999D01*
X178638764Y-101852796D01*
X178901904Y-101818352D01*
X178922294Y-101816065D01*
X179371619Y-101801682D01*
X179827235Y-101847834D01*
X180233102Y-101944882D01*
X180533179Y-102083189D01*
X180551667Y-102096286D01*
X180781804Y-102345521D01*
X180879850Y-102628664D01*
X181950880Y-102628664D01*
X181948597Y-102512855D01*
X181800916Y-102088897D01*
X181513635Y-101694358D01*
X181185530Y-101418759D01*
X180644151Y-101146438D01*
X179978138Y-100980345D01*
X179196485Y-100922699D01*
X179176190Y-100922667D01*
X178446821Y-100922667D01*
X178516283Y-100680468D01*
X178692535Y-100278939D01*
X178961050Y-100009314D01*
X179336595Y-99861423D01*
X179760129Y-99823860D01*
X180067382Y-99857558D01*
X180395049Y-99942916D01*
X180687068Y-100060112D01*
X180887380Y-100189324D01*
X180927219Y-100236517D01*
X181042833Y-100323970D01*
X181199494Y-100264088D01*
X181407844Y-100052310D01*
X181434849Y-100018952D01*
X181683031Y-99707910D01*
X181363262Y-99431492D01*
X180872062Y-99117104D01*
X180287454Y-98935684D01*
X179769744Y-98890667D01*
X179106300Y-98948273D01*
G36*
X184877061Y-97609966D02*
G01*
X184862946Y-97749931D01*
X184942988Y-97943733D01*
X184995585Y-98107410D01*
X185048593Y-98367129D01*
X185072905Y-98530834D01*
X185129499Y-98975334D01*
X184423850Y-98975334D01*
X184016348Y-98986330D01*
X183749543Y-99028130D01*
X183595717Y-99113951D01*
X183527150Y-99257009D01*
X183515000Y-99408675D01*
X183524118Y-99630848D01*
X183571543Y-99774760D01*
X183687386Y-99857344D01*
X183901757Y-99895535D01*
X184244768Y-99906265D01*
X184400510Y-99906667D01*
X185183236Y-99906667D01*
X185237611Y-100605167D01*
X185285633Y-101386588D01*
X185294561Y-102013104D01*
X185263054Y-102494881D01*
X185189771Y-102842085D01*
X185073372Y-103064881D01*
X184912515Y-103173437D01*
X184898426Y-103177306D01*
X184534874Y-103202087D01*
X184138161Y-103129106D01*
X183799231Y-102975802D01*
X183780651Y-102962963D01*
X183547120Y-102840664D01*
X183373898Y-102865325D01*
X183239529Y-103045721D01*
X183175782Y-103210339D01*
X183118114Y-103448328D01*
X183146604Y-103620664D01*
X183284092Y-103761480D01*
X183553420Y-103904909D01*
X183677106Y-103959485D01*
X184155875Y-104111858D01*
X184658693Y-104181781D01*
X185121049Y-104163078D01*
X185321789Y-104117007D01*
X185605920Y-103982897D01*
X185863540Y-103795144D01*
X185883494Y-103775851D01*
X186044406Y-103582233D01*
X186164944Y-103351027D01*
X186249615Y-103057585D01*
X186302926Y-102677259D01*
X186329382Y-102185404D01*
X186333492Y-101557372D01*
X186330903Y-101329037D01*
X186310471Y-99915073D01*
X186796569Y-99889703D01*
X187282667Y-99864334D01*
X187282667Y-99017667D01*
X186760362Y-98992638D01*
X186238058Y-98967610D01*
X186179556Y-98343314D01*
X186148990Y-98035834D01*
X186104827Y-97837824D01*
X186013765Y-97719609D01*
X185842502Y-97651511D01*
X185557735Y-97603856D01*
X185314167Y-97572160D01*
X185022895Y-97555287D01*
X184877061Y-97609966D01*
G37*
X184877061Y-97609966D02*
X184862946Y-97749931D01*
X184942988Y-97943733D01*
X184995585Y-98107410D01*
X185048593Y-98367129D01*
X185072905Y-98530834D01*
X185129499Y-98975334D01*
X184423850Y-98975334D01*
X184016348Y-98986330D01*
X183749543Y-99028130D01*
X183595717Y-99113951D01*
X183527150Y-99257009D01*
X183515000Y-99408675D01*
X183524118Y-99630848D01*
X183571543Y-99774760D01*
X183687386Y-99857344D01*
X183901757Y-99895535D01*
X184244768Y-99906265D01*
X184400510Y-99906667D01*
X185183236Y-99906667D01*
X185237611Y-100605167D01*
X185285633Y-101386588D01*
X185294561Y-102013104D01*
X185263054Y-102494881D01*
X185189771Y-102842085D01*
X185073372Y-103064881D01*
X184912515Y-103173437D01*
X184898426Y-103177306D01*
X184534874Y-103202087D01*
X184138161Y-103129106D01*
X183799231Y-102975802D01*
X183780651Y-102962963D01*
X183547120Y-102840664D01*
X183373898Y-102865325D01*
X183239529Y-103045721D01*
X183175782Y-103210339D01*
X183118114Y-103448328D01*
X183146604Y-103620664D01*
X183284092Y-103761480D01*
X183553420Y-103904909D01*
X183677106Y-103959485D01*
X184155875Y-104111858D01*
X184658693Y-104181781D01*
X185121049Y-104163078D01*
X185321789Y-104117007D01*
X185605920Y-103982897D01*
X185863540Y-103795144D01*
X185883494Y-103775851D01*
X186044406Y-103582233D01*
X186164944Y-103351027D01*
X186249615Y-103057585D01*
X186302926Y-102677259D01*
X186329382Y-102185404D01*
X186333492Y-101557372D01*
X186330903Y-101329037D01*
X186310471Y-99915073D01*
X186796569Y-99889703D01*
X187282667Y-99864334D01*
X187282667Y-99017667D01*
X186760362Y-98992638D01*
X186238058Y-98967610D01*
X186179556Y-98343314D01*
X186148990Y-98035834D01*
X186104827Y-97837824D01*
X186013765Y-97719609D01*
X185842502Y-97651511D01*
X185557735Y-97603856D01*
X185314167Y-97572160D01*
X185022895Y-97555287D01*
X184877061Y-97609966D01*
G36*
X190796334Y-98894855D02*
G01*
X190237458Y-98930667D01*
X189775581Y-99043616D01*
X189349071Y-99251601D01*
X189173624Y-99366065D01*
X188916666Y-99564382D01*
X188801779Y-99722793D01*
X188818758Y-99875461D01*
X188957401Y-100056548D01*
X188965003Y-100064521D01*
X189110199Y-100238988D01*
X189184956Y-100373598D01*
X189187667Y-100391077D01*
X189254682Y-100502655D01*
X189293500Y-100523170D01*
X189437639Y-100523525D01*
X189582755Y-100461688D01*
X189660938Y-100373481D01*
X189654898Y-100332532D01*
X189679152Y-100229293D01*
X189822336Y-100094997D01*
X190044549Y-99957290D01*
X190305889Y-99843821D01*
X190403599Y-99813761D01*
X190763707Y-99760098D01*
X191114445Y-99781189D01*
X191417444Y-99865802D01*
X191634335Y-100002706D01*
X191726747Y-100180667D01*
X191727667Y-100201364D01*
X191646980Y-100372757D01*
X191416800Y-100558796D01*
X191054947Y-100748056D01*
X190606589Y-100920054D01*
X190082427Y-101104709D01*
X189688773Y-101268717D01*
X189391028Y-101429025D01*
X189154593Y-101602581D01*
X189083791Y-101665965D01*
X188826417Y-102009904D01*
X188709018Y-102403682D01*
X188721864Y-102817996D01*
X188855230Y-103223546D01*
X189099386Y-103591029D01*
X189444606Y-103891144D01*
X189881160Y-104094590D01*
X189891052Y-104097560D01*
X190393440Y-104191444D01*
X190965304Y-104212092D01*
X191523678Y-104159991D01*
X191844170Y-104086097D01*
X192229936Y-103936979D01*
X192596325Y-103742665D01*
X192885138Y-103536269D01*
X192982825Y-103438217D01*
X193037318Y-103329888D01*
X193008425Y-103192735D01*
X192890730Y-102982201D01*
X192753747Y-102749212D01*
X192653303Y-102555145D01*
X192634306Y-102510167D01*
X192520496Y-102381831D01*
X192366800Y-102371150D01*
X192245195Y-102471379D01*
X192220389Y-102548966D01*
X192135753Y-102708001D01*
X191948327Y-102899039D01*
X191826207Y-102993466D01*
X191608675Y-103132192D01*
X191411544Y-103210005D01*
X191170218Y-103243926D01*
X190848817Y-103251000D01*
X190367651Y-103219029D01*
X190035064Y-103120111D01*
X189842233Y-102949735D01*
X189780334Y-102704860D01*
X189826217Y-102496789D01*
X189976373Y-102314384D01*
X190249560Y-102143808D01*
X190664537Y-101971220D01*
X190872403Y-101899197D01*
X191534509Y-101645383D01*
X192041103Y-101373820D01*
X192405775Y-101075610D01*
X192642116Y-100741855D01*
X192643112Y-100739853D01*
X192784076Y-100321058D01*
X192764034Y-99940467D01*
X192579801Y-99579460D01*
X192411611Y-99386797D01*
X192121201Y-99152308D01*
X191780912Y-98999754D01*
X191353295Y-98917731D01*
X190800903Y-98894833D01*
X190796334Y-98894855D01*
G37*
X190796334Y-98894855D02*
X190237458Y-98930667D01*
X189775581Y-99043616D01*
X189349071Y-99251601D01*
X189173624Y-99366065D01*
X188916666Y-99564382D01*
X188801779Y-99722793D01*
X188818758Y-99875461D01*
X188957401Y-100056548D01*
X188965003Y-100064521D01*
X189110199Y-100238988D01*
X189184956Y-100373598D01*
X189187667Y-100391077D01*
X189254682Y-100502655D01*
X189293500Y-100523170D01*
X189437639Y-100523525D01*
X189582755Y-100461688D01*
X189660938Y-100373481D01*
X189654898Y-100332532D01*
X189679152Y-100229293D01*
X189822336Y-100094997D01*
X190044549Y-99957290D01*
X190305889Y-99843821D01*
X190403599Y-99813761D01*
X190763707Y-99760098D01*
X191114445Y-99781189D01*
X191417444Y-99865802D01*
X191634335Y-100002706D01*
X191726747Y-100180667D01*
X191727667Y-100201364D01*
X191646980Y-100372757D01*
X191416800Y-100558796D01*
X191054947Y-100748056D01*
X190606589Y-100920054D01*
X190082427Y-101104709D01*
X189688773Y-101268717D01*
X189391028Y-101429025D01*
X189154593Y-101602581D01*
X189083791Y-101665965D01*
X188826417Y-102009904D01*
X188709018Y-102403682D01*
X188721864Y-102817996D01*
X188855230Y-103223546D01*
X189099386Y-103591029D01*
X189444606Y-103891144D01*
X189881160Y-104094590D01*
X189891052Y-104097560D01*
X190393440Y-104191444D01*
X190965304Y-104212092D01*
X191523678Y-104159991D01*
X191844170Y-104086097D01*
X192229936Y-103936979D01*
X192596325Y-103742665D01*
X192885138Y-103536269D01*
X192982825Y-103438217D01*
X193037318Y-103329888D01*
X193008425Y-103192735D01*
X192890730Y-102982201D01*
X192753747Y-102749212D01*
X192653303Y-102555145D01*
X192634306Y-102510167D01*
X192520496Y-102381831D01*
X192366800Y-102371150D01*
X192245195Y-102471379D01*
X192220389Y-102548966D01*
X192135753Y-102708001D01*
X191948327Y-102899039D01*
X191826207Y-102993466D01*
X191608675Y-103132192D01*
X191411544Y-103210005D01*
X191170218Y-103243926D01*
X190848817Y-103251000D01*
X190367651Y-103219029D01*
X190035064Y-103120111D01*
X189842233Y-102949735D01*
X189780334Y-102704860D01*
X189826217Y-102496789D01*
X189976373Y-102314384D01*
X190249560Y-102143808D01*
X190664537Y-101971220D01*
X190872403Y-101899197D01*
X191534509Y-101645383D01*
X192041103Y-101373820D01*
X192405775Y-101075610D01*
X192642116Y-100741855D01*
X192643112Y-100739853D01*
X192784076Y-100321058D01*
X192764034Y-99940467D01*
X192579801Y-99579460D01*
X192411611Y-99386797D01*
X192121201Y-99152308D01*
X191780912Y-98999754D01*
X191353295Y-98917731D01*
X190800903Y-98894833D01*
X190796334Y-98894855D01*
G36*
X195663021Y-99030877D02*
G01*
X195149000Y-99299897D01*
X194713510Y-99689522D01*
X194416822Y-100087872D01*
X194225669Y-100507554D01*
X194127626Y-100990642D01*
X194110267Y-101579208D01*
X194115446Y-101714598D01*
X194145863Y-102143345D01*
X194198070Y-102462016D01*
X194284768Y-102729625D01*
X194375776Y-102924005D01*
X194729961Y-103438659D01*
X195187686Y-103831426D01*
X195724212Y-104090955D01*
X196314802Y-104205897D01*
X196934716Y-104164899D01*
X197033559Y-104143447D01*
X197557642Y-103936659D01*
X198004583Y-103599155D01*
X198364954Y-103155422D01*
X198629331Y-102629948D01*
X198788287Y-102047220D01*
X198812442Y-101710162D01*
X197705997Y-101710162D01*
X197627381Y-102177870D01*
X197450650Y-102603768D01*
X197307696Y-102810569D01*
X196974128Y-103107833D01*
X196602364Y-103240606D01*
X196198122Y-103207934D01*
X195842258Y-103054617D01*
X195561496Y-102797967D01*
X195355633Y-102407909D01*
X195235241Y-101907675D01*
X195212758Y-101671231D01*
X195235519Y-101095995D01*
X195365386Y-100612356D01*
X195589789Y-100234151D01*
X195896163Y-99975218D01*
X196271939Y-99849398D01*
X196704549Y-99870527D01*
X196820797Y-99900598D01*
X197149852Y-100081876D01*
X197408426Y-100386503D01*
X197590993Y-100781448D01*
X197692025Y-101233678D01*
X197705997Y-101710162D01*
X198812442Y-101710162D01*
X198832397Y-101431725D01*
X198752236Y-100807952D01*
X198545546Y-100215430D01*
X198218284Y-99702555D01*
X197795316Y-99311132D01*
X197302474Y-99044708D01*
X196765589Y-98906828D01*
X196210494Y-98901036D01*
X195663021Y-99030877D01*
G37*
X195663021Y-99030877D02*
X195149000Y-99299897D01*
X194713510Y-99689522D01*
X194416822Y-100087872D01*
X194225669Y-100507554D01*
X194127626Y-100990642D01*
X194110267Y-101579208D01*
X194115446Y-101714598D01*
X194145863Y-102143345D01*
X194198070Y-102462016D01*
X194284768Y-102729625D01*
X194375776Y-102924005D01*
X194729961Y-103438659D01*
X195187686Y-103831426D01*
X195724212Y-104090955D01*
X196314802Y-104205897D01*
X196934716Y-104164899D01*
X197033559Y-104143447D01*
X197557642Y-103936659D01*
X198004583Y-103599155D01*
X198364954Y-103155422D01*
X198629331Y-102629948D01*
X198788287Y-102047220D01*
X198812442Y-101710162D01*
X197705997Y-101710162D01*
X197627381Y-102177870D01*
X197450650Y-102603768D01*
X197307696Y-102810569D01*
X196974128Y-103107833D01*
X196602364Y-103240606D01*
X196198122Y-103207934D01*
X195842258Y-103054617D01*
X195561496Y-102797967D01*
X195355633Y-102407909D01*
X195235241Y-101907675D01*
X195212758Y-101671231D01*
X195235519Y-101095995D01*
X195365386Y-100612356D01*
X195589789Y-100234151D01*
X195896163Y-99975218D01*
X196271939Y-99849398D01*
X196704549Y-99870527D01*
X196820797Y-99900598D01*
X197149852Y-100081876D01*
X197408426Y-100386503D01*
X197590993Y-100781448D01*
X197692025Y-101233678D01*
X197705997Y-101710162D01*
X198812442Y-101710162D01*
X198832397Y-101431725D01*
X198752236Y-100807952D01*
X198545546Y-100215430D01*
X198218284Y-99702555D01*
X197795316Y-99311132D01*
X197302474Y-99044708D01*
X196765589Y-98906828D01*
X196210494Y-98901036D01*
X195663021Y-99030877D01*
G36*
X201251021Y-99030877D02*
G01*
X200737000Y-99299897D01*
X200301510Y-99689522D01*
X200004822Y-100087872D01*
X199813669Y-100507554D01*
X199715626Y-100990642D01*
X199698267Y-101579208D01*
X199703446Y-101714598D01*
X199733863Y-102143345D01*
X199786070Y-102462016D01*
X199872768Y-102729625D01*
X199963776Y-102924005D01*
X200317961Y-103438659D01*
X200775686Y-103831426D01*
X201312212Y-104090955D01*
X201902802Y-104205897D01*
X202522716Y-104164899D01*
X202621559Y-104143447D01*
X203145642Y-103936659D01*
X203592583Y-103599155D01*
X203952954Y-103155422D01*
X204217331Y-102629948D01*
X204376287Y-102047220D01*
X204400442Y-101710162D01*
X203293997Y-101710162D01*
X203215381Y-102177870D01*
X203038650Y-102603768D01*
X202895696Y-102810569D01*
X202562128Y-103107833D01*
X202190364Y-103240606D01*
X201786122Y-103207934D01*
X201430258Y-103054617D01*
X201149496Y-102797967D01*
X200943633Y-102407909D01*
X200823241Y-101907675D01*
X200800758Y-101671231D01*
X200823519Y-101095995D01*
X200953386Y-100612356D01*
X201177789Y-100234151D01*
X201484163Y-99975218D01*
X201859939Y-99849398D01*
X202292549Y-99870527D01*
X202408797Y-99900598D01*
X202737852Y-100081876D01*
X202996426Y-100386503D01*
X203178993Y-100781448D01*
X203280025Y-101233678D01*
X203293997Y-101710162D01*
X204400442Y-101710162D01*
X204420397Y-101431725D01*
X204340236Y-100807952D01*
X204133546Y-100215430D01*
X203806284Y-99702555D01*
X203383316Y-99311132D01*
X202890474Y-99044708D01*
X202353589Y-98906828D01*
X201798494Y-98901036D01*
X201251021Y-99030877D01*
G37*
X201251021Y-99030877D02*
X200737000Y-99299897D01*
X200301510Y-99689522D01*
X200004822Y-100087872D01*
X199813669Y-100507554D01*
X199715626Y-100990642D01*
X199698267Y-101579208D01*
X199703446Y-101714598D01*
X199733863Y-102143345D01*
X199786070Y-102462016D01*
X199872768Y-102729625D01*
X199963776Y-102924005D01*
X200317961Y-103438659D01*
X200775686Y-103831426D01*
X201312212Y-104090955D01*
X201902802Y-104205897D01*
X202522716Y-104164899D01*
X202621559Y-104143447D01*
X203145642Y-103936659D01*
X203592583Y-103599155D01*
X203952954Y-103155422D01*
X204217331Y-102629948D01*
X204376287Y-102047220D01*
X204400442Y-101710162D01*
X203293997Y-101710162D01*
X203215381Y-102177870D01*
X203038650Y-102603768D01*
X202895696Y-102810569D01*
X202562128Y-103107833D01*
X202190364Y-103240606D01*
X201786122Y-103207934D01*
X201430258Y-103054617D01*
X201149496Y-102797967D01*
X200943633Y-102407909D01*
X200823241Y-101907675D01*
X200800758Y-101671231D01*
X200823519Y-101095995D01*
X200953386Y-100612356D01*
X201177789Y-100234151D01*
X201484163Y-99975218D01*
X201859939Y-99849398D01*
X202292549Y-99870527D01*
X202408797Y-99900598D01*
X202737852Y-100081876D01*
X202996426Y-100386503D01*
X203178993Y-100781448D01*
X203280025Y-101233678D01*
X203293997Y-101710162D01*
X204400442Y-101710162D01*
X204420397Y-101431725D01*
X204340236Y-100807952D01*
X204133546Y-100215430D01*
X203806284Y-99702555D01*
X203383316Y-99311132D01*
X202890474Y-99044708D01*
X202353589Y-98906828D01*
X201798494Y-98901036D01*
X201251021Y-99030877D01*
G36*
X212426529Y-97199815D02*
G01*
X211919498Y-97406356D01*
X211478933Y-97745299D01*
X211279880Y-97980759D01*
X211109412Y-98242047D01*
X210981287Y-98511077D01*
X210890514Y-98816146D01*
X210832099Y-99185549D01*
X210801049Y-99647583D01*
X210792372Y-100230543D01*
X210796824Y-100718414D01*
X210820000Y-102235000D01*
X211191337Y-102261597D01*
X211436681Y-102260529D01*
X211611385Y-102226224D01*
X211644733Y-102206134D01*
X211789394Y-102177097D01*
X212011511Y-102243037D01*
X212486097Y-102353004D01*
X212980552Y-102308294D01*
X213211455Y-102231771D01*
X213576674Y-102036720D01*
X213830780Y-101782314D01*
X214005099Y-101473000D01*
X214145637Y-100990233D01*
X214142493Y-100882214D01*
X213139486Y-100882214D01*
X213079881Y-101151579D01*
X213008212Y-101275833D01*
X212797908Y-101397641D01*
X212515929Y-101431415D01*
X212234798Y-101377897D01*
X212052390Y-101266056D01*
X211892222Y-100996509D01*
X211794104Y-100571247D01*
X211764839Y-100233552D01*
X211751334Y-99949000D01*
X212127471Y-99966648D01*
X212542139Y-100024601D01*
X212863956Y-100147131D01*
X213058007Y-100320507D01*
X213066903Y-100336046D01*
X213136806Y-100584014D01*
X213139486Y-100882214D01*
X214142493Y-100882214D01*
X214132088Y-100524806D01*
X213979679Y-100096385D01*
X213703641Y-99724633D01*
X213319203Y-99429216D01*
X212841593Y-99229798D01*
X212286041Y-99146043D01*
X212201918Y-99144667D01*
X211930595Y-99120993D01*
X211802625Y-99036615D01*
X211809436Y-98871499D01*
X211942451Y-98605612D01*
X211959275Y-98577767D01*
X212178676Y-98289548D01*
X212433025Y-98121995D01*
X212766392Y-98054984D01*
X213096012Y-98058680D01*
X213565936Y-98138088D01*
X213936709Y-98323422D01*
X214239100Y-98636546D01*
X214474529Y-99038130D01*
X214581794Y-99272120D01*
X214651238Y-99479650D01*
X214690986Y-99708878D01*
X214709164Y-100007962D01*
X214713898Y-100425062D01*
X214713934Y-100457000D01*
X214692312Y-101093723D01*
X214619252Y-101603567D01*
X214484149Y-102023986D01*
X214276396Y-102392439D01*
X214102711Y-102615588D01*
X213857074Y-102856229D01*
X213580338Y-103061676D01*
X213449392Y-103133641D01*
X213109549Y-103237193D01*
X212714765Y-103282885D01*
X212330301Y-103269283D01*
X212021422Y-103194950D01*
X211963000Y-103166334D01*
X211685477Y-103052797D01*
X211470957Y-103084971D01*
X211285274Y-103272533D01*
X211220845Y-103376556D01*
X211029024Y-103712475D01*
X211474845Y-103940690D01*
X211777046Y-104073136D01*
X212085024Y-104150399D01*
X212470313Y-104188637D01*
X212598000Y-104194410D01*
X212948627Y-104198073D01*
X213257234Y-104184471D01*
X213465412Y-104156497D01*
X213487000Y-104150393D01*
X214117934Y-103858796D01*
X214652255Y-103438827D01*
X215083101Y-102905710D01*
X215403609Y-102274667D01*
X215606916Y-101560919D01*
X215686158Y-100779689D01*
X215634472Y-99946198D01*
X215563747Y-99544260D01*
X215333543Y-98814314D01*
X214973764Y-98191491D01*
X214560034Y-97738901D01*
X214066778Y-97395218D01*
X213528133Y-97192184D01*
X212972062Y-97127737D01*
X212426529Y-97199815D01*
G37*
X212426529Y-97199815D02*
X211919498Y-97406356D01*
X211478933Y-97745299D01*
X211279880Y-97980759D01*
X211109412Y-98242047D01*
X210981287Y-98511077D01*
X210890514Y-98816146D01*
X210832099Y-99185549D01*
X210801049Y-99647583D01*
X210792372Y-100230543D01*
X210796824Y-100718414D01*
X210820000Y-102235000D01*
X211191337Y-102261597D01*
X211436681Y-102260529D01*
X211611385Y-102226224D01*
X211644733Y-102206134D01*
X211789394Y-102177097D01*
X212011511Y-102243037D01*
X212486097Y-102353004D01*
X212980552Y-102308294D01*
X213211455Y-102231771D01*
X213576674Y-102036720D01*
X213830780Y-101782314D01*
X214005099Y-101473000D01*
X214145637Y-100990233D01*
X214142493Y-100882214D01*
X213139486Y-100882214D01*
X213079881Y-101151579D01*
X213008212Y-101275833D01*
X212797908Y-101397641D01*
X212515929Y-101431415D01*
X212234798Y-101377897D01*
X212052390Y-101266056D01*
X211892222Y-100996509D01*
X211794104Y-100571247D01*
X211764839Y-100233552D01*
X211751334Y-99949000D01*
X212127471Y-99966648D01*
X212542139Y-100024601D01*
X212863956Y-100147131D01*
X213058007Y-100320507D01*
X213066903Y-100336046D01*
X213136806Y-100584014D01*
X213139486Y-100882214D01*
X214142493Y-100882214D01*
X214132088Y-100524806D01*
X213979679Y-100096385D01*
X213703641Y-99724633D01*
X213319203Y-99429216D01*
X212841593Y-99229798D01*
X212286041Y-99146043D01*
X212201918Y-99144667D01*
X211930595Y-99120993D01*
X211802625Y-99036615D01*
X211809436Y-98871499D01*
X211942451Y-98605612D01*
X211959275Y-98577767D01*
X212178676Y-98289548D01*
X212433025Y-98121995D01*
X212766392Y-98054984D01*
X213096012Y-98058680D01*
X213565936Y-98138088D01*
X213936709Y-98323422D01*
X214239100Y-98636546D01*
X214474529Y-99038130D01*
X214581794Y-99272120D01*
X214651238Y-99479650D01*
X214690986Y-99708878D01*
X214709164Y-100007962D01*
X214713898Y-100425062D01*
X214713934Y-100457000D01*
X214692312Y-101093723D01*
X214619252Y-101603567D01*
X214484149Y-102023986D01*
X214276396Y-102392439D01*
X214102711Y-102615588D01*
X213857074Y-102856229D01*
X213580338Y-103061676D01*
X213449392Y-103133641D01*
X213109549Y-103237193D01*
X212714765Y-103282885D01*
X212330301Y-103269283D01*
X212021422Y-103194950D01*
X211963000Y-103166334D01*
X211685477Y-103052797D01*
X211470957Y-103084971D01*
X211285274Y-103272533D01*
X211220845Y-103376556D01*
X211029024Y-103712475D01*
X211474845Y-103940690D01*
X211777046Y-104073136D01*
X212085024Y-104150399D01*
X212470313Y-104188637D01*
X212598000Y-104194410D01*
X212948627Y-104198073D01*
X213257234Y-104184471D01*
X213465412Y-104156497D01*
X213487000Y-104150393D01*
X214117934Y-103858796D01*
X214652255Y-103438827D01*
X215083101Y-102905710D01*
X215403609Y-102274667D01*
X215606916Y-101560919D01*
X215686158Y-100779689D01*
X215634472Y-99946198D01*
X215563747Y-99544260D01*
X215333543Y-98814314D01*
X214973764Y-98191491D01*
X214560034Y-97738901D01*
X214066778Y-97395218D01*
X213528133Y-97192184D01*
X212972062Y-97127737D01*
X212426529Y-97199815D01*
G36*
X175789521Y-106239220D02*
G01*
X175772250Y-106253140D01*
X175653686Y-106417067D01*
X175679736Y-106563200D01*
X175774925Y-106628608D01*
X175912035Y-106672825D01*
X175993312Y-106635298D01*
X176067860Y-106548751D01*
X176130409Y-106422941D01*
X176057709Y-106298820D01*
X176040143Y-106280857D01*
X175911006Y-106191931D01*
X175789521Y-106239220D01*
G37*
X175789521Y-106239220D02*
X175772250Y-106253140D01*
X175653686Y-106417067D01*
X175679736Y-106563200D01*
X175774925Y-106628608D01*
X175912035Y-106672825D01*
X175993312Y-106635298D01*
X176067860Y-106548751D01*
X176130409Y-106422941D01*
X176057709Y-106298820D01*
X176040143Y-106280857D01*
X175911006Y-106191931D01*
X175789521Y-106239220D01*
G36*
X172063807Y-106499765D02*
G01*
X172066940Y-106680000D01*
X172076929Y-106856457D01*
X172003331Y-106923854D01*
X171840610Y-106934000D01*
X171634808Y-106969090D01*
X171577000Y-107061000D01*
X171641260Y-107154932D01*
X171846345Y-107187771D01*
X171873334Y-107188000D01*
X172169667Y-107188000D01*
X172169667Y-107679067D01*
X172149374Y-108034659D01*
X172081012Y-108241587D01*
X171953359Y-108316460D01*
X171764130Y-108279338D01*
X171561582Y-108243870D01*
X171441247Y-108294706D01*
X171434342Y-108401660D01*
X171529683Y-108506033D01*
X171767528Y-108603945D01*
X172049410Y-108618589D01*
X172296540Y-108551060D01*
X172375286Y-108494286D01*
X172456504Y-108344975D01*
X172498807Y-108082200D01*
X172508334Y-107774619D01*
X172512994Y-107465075D01*
X172533974Y-107288390D01*
X172581775Y-107208191D01*
X172666895Y-107188103D01*
X172677667Y-107188000D01*
X172815571Y-107135061D01*
X172847000Y-107061000D01*
X172776414Y-106957572D01*
X172677667Y-106934000D01*
X172542840Y-106881966D01*
X172508334Y-106731392D01*
X172437809Y-106533403D01*
X172239067Y-106434395D01*
X172135073Y-106426000D01*
X172063807Y-106499765D01*
G37*
X172063807Y-106499765D02*
X172066940Y-106680000D01*
X172076929Y-106856457D01*
X172003331Y-106923854D01*
X171840610Y-106934000D01*
X171634808Y-106969090D01*
X171577000Y-107061000D01*
X171641260Y-107154932D01*
X171846345Y-107187771D01*
X171873334Y-107188000D01*
X172169667Y-107188000D01*
X172169667Y-107679067D01*
X172149374Y-108034659D01*
X172081012Y-108241587D01*
X171953359Y-108316460D01*
X171764130Y-108279338D01*
X171561582Y-108243870D01*
X171441247Y-108294706D01*
X171434342Y-108401660D01*
X171529683Y-108506033D01*
X171767528Y-108603945D01*
X172049410Y-108618589D01*
X172296540Y-108551060D01*
X172375286Y-108494286D01*
X172456504Y-108344975D01*
X172498807Y-108082200D01*
X172508334Y-107774619D01*
X172512994Y-107465075D01*
X172533974Y-107288390D01*
X172581775Y-107208191D01*
X172666895Y-107188103D01*
X172677667Y-107188000D01*
X172815571Y-107135061D01*
X172847000Y-107061000D01*
X172776414Y-106957572D01*
X172677667Y-106934000D01*
X172542840Y-106881966D01*
X172508334Y-106731392D01*
X172437809Y-106533403D01*
X172239067Y-106434395D01*
X172135073Y-106426000D01*
X172063807Y-106499765D01*
G36*
X173622076Y-106938719D02*
G01*
X173432172Y-107070031D01*
X173366057Y-107215612D01*
X173429811Y-107298655D01*
X173590249Y-107302310D01*
X173763242Y-107238138D01*
X173987969Y-107160465D01*
X174168488Y-107160902D01*
X174270872Y-107224250D01*
X174261194Y-107335313D01*
X174180027Y-107424826D01*
X174019159Y-107512186D01*
X173849727Y-107569272D01*
X173587519Y-107686855D01*
X173379160Y-107871258D01*
X173274498Y-108075158D01*
X173270334Y-108119334D01*
X173347450Y-108344086D01*
X173551368Y-108518275D01*
X173840940Y-108612954D01*
X173984799Y-108621967D01*
X174254776Y-108600405D01*
X174479919Y-108554115D01*
X174510503Y-108543233D01*
X174705295Y-108428130D01*
X174739689Y-108291520D01*
X174659303Y-108152973D01*
X174550786Y-108052576D01*
X174487342Y-108095467D01*
X174483802Y-108103638D01*
X174356293Y-108230535D01*
X174139992Y-108318871D01*
X173915136Y-108340231D01*
X173851818Y-108327451D01*
X173710261Y-108236679D01*
X173725605Y-108112699D01*
X173891271Y-107966443D01*
X174150977Y-107830288D01*
X174487170Y-107642283D01*
X174660057Y-107443627D01*
X174675658Y-107225318D01*
X174630395Y-107113413D01*
X174463776Y-106962931D01*
X174200879Y-106882231D01*
X173900661Y-106873449D01*
X173622076Y-106938719D01*
G37*
X173622076Y-106938719D02*
X173432172Y-107070031D01*
X173366057Y-107215612D01*
X173429811Y-107298655D01*
X173590249Y-107302310D01*
X173763242Y-107238138D01*
X173987969Y-107160465D01*
X174168488Y-107160902D01*
X174270872Y-107224250D01*
X174261194Y-107335313D01*
X174180027Y-107424826D01*
X174019159Y-107512186D01*
X173849727Y-107569272D01*
X173587519Y-107686855D01*
X173379160Y-107871258D01*
X173274498Y-108075158D01*
X173270334Y-108119334D01*
X173347450Y-108344086D01*
X173551368Y-108518275D01*
X173840940Y-108612954D01*
X173984799Y-108621967D01*
X174254776Y-108600405D01*
X174479919Y-108554115D01*
X174510503Y-108543233D01*
X174705295Y-108428130D01*
X174739689Y-108291520D01*
X174659303Y-108152973D01*
X174550786Y-108052576D01*
X174487342Y-108095467D01*
X174483802Y-108103638D01*
X174356293Y-108230535D01*
X174139992Y-108318871D01*
X173915136Y-108340231D01*
X173851818Y-108327451D01*
X173710261Y-108236679D01*
X173725605Y-108112699D01*
X173891271Y-107966443D01*
X174150977Y-107830288D01*
X174487170Y-107642283D01*
X174660057Y-107443627D01*
X174675658Y-107225318D01*
X174630395Y-107113413D01*
X174463776Y-106962931D01*
X174200879Y-106882231D01*
X173900661Y-106873449D01*
X173622076Y-106938719D01*
G36*
X175725667Y-107611334D02*
G01*
X175723412Y-107947263D01*
X175709447Y-108148411D01*
X175672977Y-108249326D01*
X175603205Y-108284557D01*
X175514000Y-108288667D01*
X175348019Y-108328354D01*
X175302334Y-108458000D01*
X175318323Y-108546990D01*
X175390430Y-108597971D01*
X175554862Y-108621288D01*
X175847824Y-108627286D01*
X175895000Y-108627334D01*
X176206465Y-108622765D01*
X176384899Y-108602163D01*
X176466509Y-108555183D01*
X176487502Y-108471479D01*
X176487667Y-108458000D01*
X176438058Y-108325215D01*
X176276000Y-108288667D01*
X176162218Y-108279017D01*
X176098842Y-108224562D01*
X176071159Y-108087048D01*
X176064456Y-107828216D01*
X176064334Y-107738334D01*
X176068045Y-107442498D01*
X176088989Y-107277721D01*
X176141880Y-107205746D01*
X176241430Y-107188318D01*
X176276000Y-107188000D01*
X176446239Y-107143840D01*
X176487667Y-107061000D01*
X176437805Y-106977293D01*
X176268264Y-106939164D01*
X176106667Y-106934000D01*
X175725667Y-106934000D01*
X175725667Y-107611334D01*
G37*
X175725667Y-107611334D02*
X175723412Y-107947263D01*
X175709447Y-108148411D01*
X175672977Y-108249326D01*
X175603205Y-108284557D01*
X175514000Y-108288667D01*
X175348019Y-108328354D01*
X175302334Y-108458000D01*
X175318323Y-108546990D01*
X175390430Y-108597971D01*
X175554862Y-108621288D01*
X175847824Y-108627286D01*
X175895000Y-108627334D01*
X176206465Y-108622765D01*
X176384899Y-108602163D01*
X176466509Y-108555183D01*
X176487502Y-108471479D01*
X176487667Y-108458000D01*
X176438058Y-108325215D01*
X176276000Y-108288667D01*
X176162218Y-108279017D01*
X176098842Y-108224562D01*
X176071159Y-108087048D01*
X176064456Y-107828216D01*
X176064334Y-107738334D01*
X176068045Y-107442498D01*
X176088989Y-107277721D01*
X176141880Y-107205746D01*
X176241430Y-107188318D01*
X176276000Y-107188000D01*
X176446239Y-107143840D01*
X176487667Y-107061000D01*
X176437805Y-106977293D01*
X176268264Y-106939164D01*
X176106667Y-106934000D01*
X175725667Y-106934000D01*
X175725667Y-107611334D01*
G36*
X177588334Y-108277419D02*
G01*
X177355500Y-108304210D01*
X177176589Y-108366130D01*
X177122667Y-108458000D01*
X177180083Y-108545515D01*
X177368504Y-108596116D01*
X177524834Y-108610806D01*
X177927000Y-108636611D01*
X177927000Y-106426000D01*
X178181000Y-106426000D01*
X178382653Y-106388136D01*
X178435000Y-106299000D01*
X178389681Y-106219135D01*
X178232773Y-106180127D01*
X178011667Y-106172000D01*
X177588334Y-106172000D01*
X177588334Y-108277419D01*
G37*
X177588334Y-108277419D02*
X177355500Y-108304210D01*
X177176589Y-108366130D01*
X177122667Y-108458000D01*
X177180083Y-108545515D01*
X177368504Y-108596116D01*
X177524834Y-108610806D01*
X177927000Y-108636611D01*
X177927000Y-106426000D01*
X178181000Y-106426000D01*
X178382653Y-106388136D01*
X178435000Y-106299000D01*
X178389681Y-106219135D01*
X178232773Y-106180127D01*
X178011667Y-106172000D01*
X177588334Y-106172000D01*
X177588334Y-108277419D01*
G36*
X179139483Y-107026375D02*
G01*
X178938920Y-107282560D01*
X178858679Y-107631354D01*
X178858334Y-107657651D01*
X178868487Y-107769320D01*
X178924431Y-107831522D01*
X179064394Y-107858683D01*
X179326600Y-107865227D01*
X179408667Y-107865334D01*
X179755570Y-107886828D01*
X179939654Y-107950946D01*
X179960457Y-108057138D01*
X179817522Y-108204856D01*
X179739028Y-108259561D01*
X179552382Y-108351458D01*
X179404411Y-108329338D01*
X179359177Y-108303846D01*
X179148892Y-108215055D01*
X178996244Y-108228118D01*
X178943000Y-108328021D01*
X179020746Y-108477265D01*
X179230950Y-108582287D01*
X179539059Y-108626824D01*
X179578947Y-108627334D01*
X179861335Y-108577570D01*
X180109168Y-108404980D01*
X180134847Y-108379846D01*
X180326556Y-108088227D01*
X180392836Y-107756816D01*
X180343598Y-107427592D01*
X180318304Y-107381025D01*
X179931960Y-107381025D01*
X179924895Y-107475128D01*
X179755403Y-107521429D01*
X179620334Y-107526667D01*
X179382644Y-107504763D01*
X179286389Y-107433472D01*
X179281667Y-107402646D01*
X179349974Y-107245767D01*
X179514476Y-107172793D01*
X179714543Y-107203751D01*
X179776577Y-107239161D01*
X179931960Y-107381025D01*
X180318304Y-107381025D01*
X180188758Y-107142534D01*
X179938229Y-106943622D01*
X179783043Y-106890212D01*
X179430736Y-106887394D01*
X179139483Y-107026375D01*
G37*
X179139483Y-107026375D02*
X178938920Y-107282560D01*
X178858679Y-107631354D01*
X178858334Y-107657651D01*
X178868487Y-107769320D01*
X178924431Y-107831522D01*
X179064394Y-107858683D01*
X179326600Y-107865227D01*
X179408667Y-107865334D01*
X179755570Y-107886828D01*
X179939654Y-107950946D01*
X179960457Y-108057138D01*
X179817522Y-108204856D01*
X179739028Y-108259561D01*
X179552382Y-108351458D01*
X179404411Y-108329338D01*
X179359177Y-108303846D01*
X179148892Y-108215055D01*
X178996244Y-108228118D01*
X178943000Y-108328021D01*
X179020746Y-108477265D01*
X179230950Y-108582287D01*
X179539059Y-108626824D01*
X179578947Y-108627334D01*
X179861335Y-108577570D01*
X180109168Y-108404980D01*
X180134847Y-108379846D01*
X180326556Y-108088227D01*
X180392836Y-107756816D01*
X180343598Y-107427592D01*
X180318304Y-107381025D01*
X179931960Y-107381025D01*
X179924895Y-107475128D01*
X179755403Y-107521429D01*
X179620334Y-107526667D01*
X179382644Y-107504763D01*
X179286389Y-107433472D01*
X179281667Y-107402646D01*
X179349974Y-107245767D01*
X179514476Y-107172793D01*
X179714543Y-107203751D01*
X179776577Y-107239161D01*
X179931960Y-107381025D01*
X180318304Y-107381025D01*
X180188758Y-107142534D01*
X179938229Y-106943622D01*
X179783043Y-106890212D01*
X179430736Y-106887394D01*
X179139483Y-107026375D01*
G36*
X182844686Y-106937218D02*
G01*
X182803879Y-106962949D01*
X182698993Y-107041490D01*
X182634085Y-107135456D01*
X182599598Y-107284085D01*
X182585979Y-107526614D01*
X182583667Y-107867285D01*
X182586510Y-108228769D01*
X182599832Y-108453219D01*
X182630823Y-108572905D01*
X182686670Y-108620094D01*
X182753000Y-108627334D01*
X182842407Y-108611166D01*
X182893411Y-108538400D01*
X182916537Y-108372635D01*
X182922306Y-108077475D01*
X182922334Y-108041592D01*
X182931471Y-107643532D01*
X182964324Y-107387107D01*
X183029058Y-107245331D01*
X183133836Y-107191222D01*
X183180591Y-107188000D01*
X183379302Y-107266122D01*
X183517482Y-107492829D01*
X183589827Y-107856630D01*
X183599667Y-108095839D01*
X183605318Y-108387455D01*
X183630339Y-108547881D01*
X183686833Y-108615103D01*
X183769000Y-108627334D01*
X183845705Y-108615828D01*
X183894963Y-108560992D01*
X183922799Y-108432348D01*
X183935239Y-108199415D01*
X183938309Y-107831715D01*
X183938334Y-107770797D01*
X183938334Y-106914260D01*
X183718953Y-106956197D01*
X183473212Y-106957072D01*
X183261832Y-106908397D01*
X183044217Y-106864094D01*
X182844686Y-106937218D01*
G37*
X182844686Y-106937218D02*
X182803879Y-106962949D01*
X182698993Y-107041490D01*
X182634085Y-107135456D01*
X182599598Y-107284085D01*
X182585979Y-107526614D01*
X182583667Y-107867285D01*
X182586510Y-108228769D01*
X182599832Y-108453219D01*
X182630823Y-108572905D01*
X182686670Y-108620094D01*
X182753000Y-108627334D01*
X182842407Y-108611166D01*
X182893411Y-108538400D01*
X182916537Y-108372635D01*
X182922306Y-108077475D01*
X182922334Y-108041592D01*
X182931471Y-107643532D01*
X182964324Y-107387107D01*
X183029058Y-107245331D01*
X183133836Y-107191222D01*
X183180591Y-107188000D01*
X183379302Y-107266122D01*
X183517482Y-107492829D01*
X183589827Y-107856630D01*
X183599667Y-108095839D01*
X183605318Y-108387455D01*
X183630339Y-108547881D01*
X183686833Y-108615103D01*
X183769000Y-108627334D01*
X183845705Y-108615828D01*
X183894963Y-108560992D01*
X183922799Y-108432348D01*
X183935239Y-108199415D01*
X183938309Y-107831715D01*
X183938334Y-107770797D01*
X183938334Y-106914260D01*
X183718953Y-106956197D01*
X183473212Y-106957072D01*
X183261832Y-106908397D01*
X183044217Y-106864094D01*
X182844686Y-106937218D01*
G36*
X184910768Y-106914899D02*
G01*
X184639826Y-107025664D01*
X184461102Y-107201184D01*
X184441083Y-107244144D01*
X184400065Y-107435842D01*
X184371380Y-107730004D01*
X184361667Y-108032308D01*
X184361667Y-108611592D01*
X184984870Y-108617998D01*
X185333233Y-108612710D01*
X185555438Y-108582651D01*
X185693842Y-108519651D01*
X185746870Y-108471036D01*
X185876149Y-108232418D01*
X185870526Y-108174072D01*
X185496359Y-108174072D01*
X185427452Y-108295468D01*
X185276261Y-108359903D01*
X185086034Y-108345729D01*
X184940014Y-108267500D01*
X184798847Y-108103089D01*
X184753086Y-107942314D01*
X184817109Y-107838912D01*
X184824514Y-107835798D01*
X185045355Y-107823029D01*
X185288795Y-107901712D01*
X185439732Y-108017362D01*
X185496359Y-108174072D01*
X185870526Y-108174072D01*
X185853528Y-107997729D01*
X185695319Y-107790368D01*
X185417833Y-107633734D01*
X185111371Y-107559377D01*
X184871935Y-107520234D01*
X184768330Y-107472693D01*
X184767589Y-107394903D01*
X184790649Y-107346780D01*
X184938830Y-107227818D01*
X185167527Y-107189192D01*
X185403937Y-107239353D01*
X185459494Y-107269120D01*
X185610864Y-107300760D01*
X185723483Y-107232871D01*
X185743499Y-107111158D01*
X185711528Y-107055209D01*
X185503156Y-106921263D01*
X185217391Y-106877296D01*
X184910768Y-106914899D01*
G37*
X184910768Y-106914899D02*
X184639826Y-107025664D01*
X184461102Y-107201184D01*
X184441083Y-107244144D01*
X184400065Y-107435842D01*
X184371380Y-107730004D01*
X184361667Y-108032308D01*
X184361667Y-108611592D01*
X184984870Y-108617998D01*
X185333233Y-108612710D01*
X185555438Y-108582651D01*
X185693842Y-108519651D01*
X185746870Y-108471036D01*
X185876149Y-108232418D01*
X185870526Y-108174072D01*
X185496359Y-108174072D01*
X185427452Y-108295468D01*
X185276261Y-108359903D01*
X185086034Y-108345729D01*
X184940014Y-108267500D01*
X184798847Y-108103089D01*
X184753086Y-107942314D01*
X184817109Y-107838912D01*
X184824514Y-107835798D01*
X185045355Y-107823029D01*
X185288795Y-107901712D01*
X185439732Y-108017362D01*
X185496359Y-108174072D01*
X185870526Y-108174072D01*
X185853528Y-107997729D01*
X185695319Y-107790368D01*
X185417833Y-107633734D01*
X185111371Y-107559377D01*
X184871935Y-107520234D01*
X184768330Y-107472693D01*
X184767589Y-107394903D01*
X184790649Y-107346780D01*
X184938830Y-107227818D01*
X185167527Y-107189192D01*
X185403937Y-107239353D01*
X185459494Y-107269120D01*
X185610864Y-107300760D01*
X185723483Y-107232871D01*
X185743499Y-107111158D01*
X185711528Y-107055209D01*
X185503156Y-106921263D01*
X185217391Y-106877296D01*
X184910768Y-106914899D01*
G36*
X186278439Y-106958026D02*
G01*
X186237437Y-107044751D01*
X186262643Y-107216141D01*
X186357382Y-107494164D01*
X186524979Y-107900789D01*
X186530714Y-107914150D01*
X186711271Y-108307878D01*
X186858164Y-108544966D01*
X186987078Y-108624212D01*
X187113702Y-108544419D01*
X187253721Y-108304384D01*
X187422822Y-107902910D01*
X187445682Y-107844167D01*
X187574405Y-107504960D01*
X187675934Y-107224716D01*
X187736948Y-107040929D01*
X187748588Y-106991612D01*
X187677990Y-106947718D01*
X187560134Y-106949278D01*
X187419260Y-107019284D01*
X187296384Y-107205069D01*
X187215876Y-107399667D01*
X187114852Y-107652347D01*
X187025984Y-107838702D01*
X186988601Y-107895576D01*
X186926605Y-107860910D01*
X186832848Y-107700091D01*
X186728847Y-107451076D01*
X186602066Y-107145586D01*
X186491007Y-106981507D01*
X186382323Y-106934000D01*
X186278439Y-106958026D01*
G37*
X186278439Y-106958026D02*
X186237437Y-107044751D01*
X186262643Y-107216141D01*
X186357382Y-107494164D01*
X186524979Y-107900789D01*
X186530714Y-107914150D01*
X186711271Y-108307878D01*
X186858164Y-108544966D01*
X186987078Y-108624212D01*
X187113702Y-108544419D01*
X187253721Y-108304384D01*
X187422822Y-107902910D01*
X187445682Y-107844167D01*
X187574405Y-107504960D01*
X187675934Y-107224716D01*
X187736948Y-107040929D01*
X187748588Y-106991612D01*
X187677990Y-106947718D01*
X187560134Y-106949278D01*
X187419260Y-107019284D01*
X187296384Y-107205069D01*
X187215876Y-107399667D01*
X187114852Y-107652347D01*
X187025984Y-107838702D01*
X186988601Y-107895576D01*
X186926605Y-107860910D01*
X186832848Y-107700091D01*
X186728847Y-107451076D01*
X186602066Y-107145586D01*
X186491007Y-106981507D01*
X186382323Y-106934000D01*
X186278439Y-106958026D01*
G36*
X188368150Y-107026375D02*
G01*
X188167586Y-107282560D01*
X188087346Y-107631354D01*
X188087000Y-107657651D01*
X188097154Y-107769320D01*
X188153098Y-107831522D01*
X188293060Y-107858683D01*
X188555267Y-107865227D01*
X188637334Y-107865334D01*
X188984237Y-107886828D01*
X189168320Y-107950946D01*
X189189124Y-108057138D01*
X189046188Y-108204856D01*
X188967695Y-108259561D01*
X188781048Y-108351458D01*
X188633077Y-108329338D01*
X188587844Y-108303846D01*
X188377559Y-108215055D01*
X188224910Y-108228118D01*
X188171667Y-108328021D01*
X188249413Y-108477265D01*
X188459616Y-108582287D01*
X188767726Y-108626824D01*
X188807614Y-108627334D01*
X189090001Y-108577570D01*
X189337834Y-108404980D01*
X189363513Y-108379846D01*
X189555223Y-108088227D01*
X189621502Y-107756816D01*
X189572265Y-107427592D01*
X189546971Y-107381025D01*
X189160627Y-107381025D01*
X189153562Y-107475128D01*
X188984070Y-107521429D01*
X188849000Y-107526667D01*
X188611310Y-107504763D01*
X188515056Y-107433472D01*
X188510334Y-107402646D01*
X188578641Y-107245767D01*
X188743142Y-107172793D01*
X188943210Y-107203751D01*
X189005244Y-107239161D01*
X189160627Y-107381025D01*
X189546971Y-107381025D01*
X189417424Y-107142534D01*
X189166896Y-106943622D01*
X189011710Y-106890212D01*
X188659403Y-106887394D01*
X188368150Y-107026375D01*
G37*
X188368150Y-107026375D02*
X188167586Y-107282560D01*
X188087346Y-107631354D01*
X188087000Y-107657651D01*
X188097154Y-107769320D01*
X188153098Y-107831522D01*
X188293060Y-107858683D01*
X188555267Y-107865227D01*
X188637334Y-107865334D01*
X188984237Y-107886828D01*
X189168320Y-107950946D01*
X189189124Y-108057138D01*
X189046188Y-108204856D01*
X188967695Y-108259561D01*
X188781048Y-108351458D01*
X188633077Y-108329338D01*
X188587844Y-108303846D01*
X188377559Y-108215055D01*
X188224910Y-108228118D01*
X188171667Y-108328021D01*
X188249413Y-108477265D01*
X188459616Y-108582287D01*
X188767726Y-108626824D01*
X188807614Y-108627334D01*
X189090001Y-108577570D01*
X189337834Y-108404980D01*
X189363513Y-108379846D01*
X189555223Y-108088227D01*
X189621502Y-107756816D01*
X189572265Y-107427592D01*
X189546971Y-107381025D01*
X189160627Y-107381025D01*
X189153562Y-107475128D01*
X188984070Y-107521429D01*
X188849000Y-107526667D01*
X188611310Y-107504763D01*
X188515056Y-107433472D01*
X188510334Y-107402646D01*
X188578641Y-107245767D01*
X188743142Y-107172793D01*
X188943210Y-107203751D01*
X189005244Y-107239161D01*
X189160627Y-107381025D01*
X189546971Y-107381025D01*
X189417424Y-107142534D01*
X189166896Y-106943622D01*
X189011710Y-106890212D01*
X188659403Y-106887394D01*
X188368150Y-107026375D01*
G36*
X191985158Y-106921639D02*
G01*
X191805170Y-106991548D01*
X191728982Y-107077557D01*
X191728964Y-107080071D01*
X191770738Y-107201871D01*
X191808124Y-107268754D01*
X191887653Y-107345528D01*
X192008879Y-107322653D01*
X192102338Y-107276054D01*
X192276281Y-107206494D01*
X192406740Y-107246522D01*
X192488845Y-107314256D01*
X192598687Y-107464113D01*
X192649931Y-107688540D01*
X192659000Y-107920789D01*
X192651615Y-108184554D01*
X192618805Y-108320244D01*
X192544593Y-108368857D01*
X192482612Y-108373334D01*
X192353510Y-108413831D01*
X192341100Y-108479167D01*
X192442503Y-108547690D01*
X192667747Y-108597007D01*
X192813822Y-108610591D01*
X193078540Y-108615883D01*
X193212335Y-108585891D01*
X193251528Y-108511836D01*
X193251667Y-108504758D01*
X193207295Y-108389275D01*
X193167000Y-108373334D01*
X193123569Y-108295024D01*
X193093557Y-108085138D01*
X193082334Y-107781242D01*
X193082334Y-107780667D01*
X193093521Y-107476643D01*
X193123505Y-107266566D01*
X193166918Y-107188000D01*
X193167000Y-107188000D01*
X193241069Y-107118988D01*
X193251667Y-107054526D01*
X193207004Y-106965035D01*
X193049413Y-106936126D01*
X192934167Y-106939347D01*
X192658060Y-106935813D01*
X192416010Y-106902499D01*
X192401696Y-106898792D01*
X192205237Y-106884998D01*
X191985158Y-106921639D01*
G37*
X191985158Y-106921639D02*
X191805170Y-106991548D01*
X191728982Y-107077557D01*
X191728964Y-107080071D01*
X191770738Y-107201871D01*
X191808124Y-107268754D01*
X191887653Y-107345528D01*
X192008879Y-107322653D01*
X192102338Y-107276054D01*
X192276281Y-107206494D01*
X192406740Y-107246522D01*
X192488845Y-107314256D01*
X192598687Y-107464113D01*
X192649931Y-107688540D01*
X192659000Y-107920789D01*
X192651615Y-108184554D01*
X192618805Y-108320244D01*
X192544593Y-108368857D01*
X192482612Y-108373334D01*
X192353510Y-108413831D01*
X192341100Y-108479167D01*
X192442503Y-108547690D01*
X192667747Y-108597007D01*
X192813822Y-108610591D01*
X193078540Y-108615883D01*
X193212335Y-108585891D01*
X193251528Y-108511836D01*
X193251667Y-108504758D01*
X193207295Y-108389275D01*
X193167000Y-108373334D01*
X193123569Y-108295024D01*
X193093557Y-108085138D01*
X193082334Y-107781242D01*
X193082334Y-107780667D01*
X193093521Y-107476643D01*
X193123505Y-107266566D01*
X193166918Y-107188000D01*
X193167000Y-107188000D01*
X193241069Y-107118988D01*
X193251667Y-107054526D01*
X193207004Y-106965035D01*
X193049413Y-106936126D01*
X192934167Y-106939347D01*
X192658060Y-106935813D01*
X192416010Y-106902499D01*
X192401696Y-106898792D01*
X192205237Y-106884998D01*
X191985158Y-106921639D01*
G36*
X193956150Y-107026375D02*
G01*
X193755586Y-107282560D01*
X193675346Y-107631354D01*
X193675000Y-107657651D01*
X193685154Y-107769320D01*
X193741098Y-107831522D01*
X193881060Y-107858683D01*
X194143267Y-107865227D01*
X194225334Y-107865334D01*
X194572237Y-107886828D01*
X194756320Y-107950946D01*
X194777124Y-108057138D01*
X194634188Y-108204856D01*
X194555695Y-108259561D01*
X194369048Y-108351458D01*
X194221077Y-108329338D01*
X194175844Y-108303846D01*
X193965559Y-108215055D01*
X193812910Y-108228118D01*
X193759667Y-108328021D01*
X193837413Y-108477265D01*
X194047616Y-108582287D01*
X194355726Y-108626824D01*
X194395614Y-108627334D01*
X194678001Y-108577570D01*
X194925834Y-108404980D01*
X194951513Y-108379846D01*
X195143223Y-108088227D01*
X195209502Y-107756816D01*
X195160265Y-107427592D01*
X195134971Y-107381025D01*
X194748627Y-107381025D01*
X194741562Y-107475128D01*
X194572070Y-107521429D01*
X194437000Y-107526667D01*
X194199310Y-107504763D01*
X194103056Y-107433472D01*
X194098334Y-107402646D01*
X194166641Y-107245767D01*
X194331142Y-107172793D01*
X194531210Y-107203751D01*
X194593244Y-107239161D01*
X194748627Y-107381025D01*
X195134971Y-107381025D01*
X195005424Y-107142534D01*
X194754896Y-106943622D01*
X194599710Y-106890212D01*
X194247403Y-106887394D01*
X193956150Y-107026375D01*
G37*
X193956150Y-107026375D02*
X193755586Y-107282560D01*
X193675346Y-107631354D01*
X193675000Y-107657651D01*
X193685154Y-107769320D01*
X193741098Y-107831522D01*
X193881060Y-107858683D01*
X194143267Y-107865227D01*
X194225334Y-107865334D01*
X194572237Y-107886828D01*
X194756320Y-107950946D01*
X194777124Y-108057138D01*
X194634188Y-108204856D01*
X194555695Y-108259561D01*
X194369048Y-108351458D01*
X194221077Y-108329338D01*
X194175844Y-108303846D01*
X193965559Y-108215055D01*
X193812910Y-108228118D01*
X193759667Y-108328021D01*
X193837413Y-108477265D01*
X194047616Y-108582287D01*
X194355726Y-108626824D01*
X194395614Y-108627334D01*
X194678001Y-108577570D01*
X194925834Y-108404980D01*
X194951513Y-108379846D01*
X195143223Y-108088227D01*
X195209502Y-107756816D01*
X195160265Y-107427592D01*
X195134971Y-107381025D01*
X194748627Y-107381025D01*
X194741562Y-107475128D01*
X194572070Y-107521429D01*
X194437000Y-107526667D01*
X194199310Y-107504763D01*
X194103056Y-107433472D01*
X194098334Y-107402646D01*
X194166641Y-107245767D01*
X194331142Y-107172793D01*
X194531210Y-107203751D01*
X194593244Y-107239161D01*
X194748627Y-107381025D01*
X195134971Y-107381025D01*
X195005424Y-107142534D01*
X194754896Y-106943622D01*
X194599710Y-106890212D01*
X194247403Y-106887394D01*
X193956150Y-107026375D01*
G36*
X197790003Y-106985602D02*
G01*
X197537967Y-107192558D01*
X197380124Y-107498228D01*
X197363078Y-107571710D01*
X197362965Y-107881755D01*
X197453895Y-108194299D01*
X197611241Y-108443968D01*
X197726267Y-108535852D01*
X198056226Y-108626866D01*
X198403128Y-108586474D01*
X198696659Y-108423062D01*
X198700304Y-108419710D01*
X198837262Y-108263535D01*
X198904332Y-108083111D01*
X198924063Y-107811747D01*
X198924334Y-107757135D01*
X198923753Y-107745754D01*
X198585667Y-107745754D01*
X198539203Y-107919023D01*
X198427154Y-108121807D01*
X198290532Y-108293319D01*
X198170351Y-108372773D01*
X198162236Y-108373334D01*
X198050322Y-108319552D01*
X197956842Y-108240413D01*
X197809413Y-108004108D01*
X197766305Y-107732811D01*
X197819023Y-107475687D01*
X197959075Y-107281902D01*
X198135821Y-107204349D01*
X198321066Y-107253379D01*
X198482257Y-107418942D01*
X198576404Y-107649300D01*
X198585667Y-107745754D01*
X198923753Y-107745754D01*
X198909319Y-107463127D01*
X198849794Y-107270849D01*
X198724036Y-107114236D01*
X198707894Y-107098850D01*
X198415304Y-106924564D01*
X198095895Y-106891543D01*
X197790003Y-106985602D01*
G37*
X197790003Y-106985602D02*
X197537967Y-107192558D01*
X197380124Y-107498228D01*
X197363078Y-107571710D01*
X197362965Y-107881755D01*
X197453895Y-108194299D01*
X197611241Y-108443968D01*
X197726267Y-108535852D01*
X198056226Y-108626866D01*
X198403128Y-108586474D01*
X198696659Y-108423062D01*
X198700304Y-108419710D01*
X198837262Y-108263535D01*
X198904332Y-108083111D01*
X198924063Y-107811747D01*
X198924334Y-107757135D01*
X198923753Y-107745754D01*
X198585667Y-107745754D01*
X198539203Y-107919023D01*
X198427154Y-108121807D01*
X198290532Y-108293319D01*
X198170351Y-108372773D01*
X198162236Y-108373334D01*
X198050322Y-108319552D01*
X197956842Y-108240413D01*
X197809413Y-108004108D01*
X197766305Y-107732811D01*
X197819023Y-107475687D01*
X197959075Y-107281902D01*
X198135821Y-107204349D01*
X198321066Y-107253379D01*
X198482257Y-107418942D01*
X198576404Y-107649300D01*
X198585667Y-107745754D01*
X198923753Y-107745754D01*
X198909319Y-107463127D01*
X198849794Y-107270849D01*
X198724036Y-107114236D01*
X198707894Y-107098850D01*
X198415304Y-106924564D01*
X198095895Y-106891543D01*
X197790003Y-106985602D01*
G36*
X199855667Y-108277419D02*
G01*
X199622834Y-108304210D01*
X199443922Y-108366130D01*
X199390000Y-108458000D01*
X199447417Y-108545515D01*
X199635837Y-108596116D01*
X199792167Y-108610806D01*
X200194334Y-108636611D01*
X200194334Y-106426000D01*
X200448334Y-106426000D01*
X200649986Y-106388136D01*
X200702334Y-106299000D01*
X200657014Y-106219135D01*
X200500107Y-106180127D01*
X200279000Y-106172000D01*
X199855667Y-106172000D01*
X199855667Y-108277419D01*
G37*
X199855667Y-108277419D02*
X199622834Y-108304210D01*
X199443922Y-108366130D01*
X199390000Y-108458000D01*
X199447417Y-108545515D01*
X199635837Y-108596116D01*
X199792167Y-108610806D01*
X200194334Y-108636611D01*
X200194334Y-106426000D01*
X200448334Y-106426000D01*
X200649986Y-106388136D01*
X200702334Y-106299000D01*
X200657014Y-106219135D01*
X200500107Y-106180127D01*
X200279000Y-106172000D01*
X199855667Y-106172000D01*
X199855667Y-108277419D01*
G36*
X201406817Y-107026375D02*
G01*
X201206253Y-107282560D01*
X201126013Y-107631354D01*
X201125667Y-107657651D01*
X201135820Y-107769320D01*
X201191765Y-107831522D01*
X201331727Y-107858683D01*
X201593933Y-107865227D01*
X201676000Y-107865334D01*
X202022904Y-107886828D01*
X202206987Y-107950946D01*
X202227791Y-108057138D01*
X202084855Y-108204856D01*
X202006362Y-108259561D01*
X201819715Y-108351458D01*
X201671744Y-108329338D01*
X201626511Y-108303846D01*
X201416225Y-108215055D01*
X201263577Y-108228118D01*
X201210334Y-108328021D01*
X201288080Y-108477265D01*
X201498283Y-108582287D01*
X201806392Y-108626824D01*
X201846281Y-108627334D01*
X202128668Y-108577570D01*
X202376501Y-108404980D01*
X202402180Y-108379846D01*
X202593890Y-108088227D01*
X202660169Y-107756816D01*
X202610931Y-107427592D01*
X202585637Y-107381025D01*
X202199294Y-107381025D01*
X202192228Y-107475128D01*
X202022737Y-107521429D01*
X201887667Y-107526667D01*
X201649977Y-107504763D01*
X201553722Y-107433472D01*
X201549000Y-107402646D01*
X201617307Y-107245767D01*
X201781809Y-107172793D01*
X201981876Y-107203751D01*
X202043911Y-107239161D01*
X202199294Y-107381025D01*
X202585637Y-107381025D01*
X202456091Y-107142534D01*
X202205563Y-106943622D01*
X202050377Y-106890212D01*
X201698070Y-106887394D01*
X201406817Y-107026375D01*
G37*
X201406817Y-107026375D02*
X201206253Y-107282560D01*
X201126013Y-107631354D01*
X201125667Y-107657651D01*
X201135820Y-107769320D01*
X201191765Y-107831522D01*
X201331727Y-107858683D01*
X201593933Y-107865227D01*
X201676000Y-107865334D01*
X202022904Y-107886828D01*
X202206987Y-107950946D01*
X202227791Y-108057138D01*
X202084855Y-108204856D01*
X202006362Y-108259561D01*
X201819715Y-108351458D01*
X201671744Y-108329338D01*
X201626511Y-108303846D01*
X201416225Y-108215055D01*
X201263577Y-108228118D01*
X201210334Y-108328021D01*
X201288080Y-108477265D01*
X201498283Y-108582287D01*
X201806392Y-108626824D01*
X201846281Y-108627334D01*
X202128668Y-108577570D01*
X202376501Y-108404980D01*
X202402180Y-108379846D01*
X202593890Y-108088227D01*
X202660169Y-107756816D01*
X202610931Y-107427592D01*
X202585637Y-107381025D01*
X202199294Y-107381025D01*
X202192228Y-107475128D01*
X202022737Y-107521429D01*
X201887667Y-107526667D01*
X201649977Y-107504763D01*
X201553722Y-107433472D01*
X201549000Y-107402646D01*
X201617307Y-107245767D01*
X201781809Y-107172793D01*
X201981876Y-107203751D01*
X202043911Y-107239161D01*
X202199294Y-107381025D01*
X202585637Y-107381025D01*
X202456091Y-107142534D01*
X202205563Y-106943622D01*
X202050377Y-106890212D01*
X201698070Y-106887394D01*
X201406817Y-107026375D01*
G36*
X203042439Y-106958026D02*
G01*
X203001437Y-107044751D01*
X203026643Y-107216141D01*
X203121382Y-107494164D01*
X203288979Y-107900789D01*
X203294714Y-107914150D01*
X203475271Y-108307878D01*
X203622164Y-108544966D01*
X203751078Y-108624212D01*
X203877702Y-108544419D01*
X204017721Y-108304384D01*
X204186822Y-107902910D01*
X204209682Y-107844167D01*
X204338405Y-107504960D01*
X204439934Y-107224716D01*
X204500948Y-107040929D01*
X204512588Y-106991612D01*
X204441990Y-106947718D01*
X204324134Y-106949278D01*
X204183260Y-107019284D01*
X204060384Y-107205069D01*
X203979876Y-107399667D01*
X203878852Y-107652347D01*
X203789984Y-107838702D01*
X203752601Y-107895576D01*
X203690605Y-107860910D01*
X203596848Y-107700091D01*
X203492847Y-107451076D01*
X203366066Y-107145586D01*
X203255007Y-106981507D01*
X203146323Y-106934000D01*
X203042439Y-106958026D01*
G37*
X203042439Y-106958026D02*
X203001437Y-107044751D01*
X203026643Y-107216141D01*
X203121382Y-107494164D01*
X203288979Y-107900789D01*
X203294714Y-107914150D01*
X203475271Y-108307878D01*
X203622164Y-108544966D01*
X203751078Y-108624212D01*
X203877702Y-108544419D01*
X204017721Y-108304384D01*
X204186822Y-107902910D01*
X204209682Y-107844167D01*
X204338405Y-107504960D01*
X204439934Y-107224716D01*
X204500948Y-107040929D01*
X204512588Y-106991612D01*
X204441990Y-106947718D01*
X204324134Y-106949278D01*
X204183260Y-107019284D01*
X204060384Y-107205069D01*
X203979876Y-107399667D01*
X203878852Y-107652347D01*
X203789984Y-107838702D01*
X203752601Y-107895576D01*
X203690605Y-107860910D01*
X203596848Y-107700091D01*
X203492847Y-107451076D01*
X203366066Y-107145586D01*
X203255007Y-106981507D01*
X203146323Y-106934000D01*
X203042439Y-106958026D01*
G36*
X205132150Y-107026375D02*
G01*
X204931586Y-107282560D01*
X204851346Y-107631354D01*
X204851000Y-107657651D01*
X204861154Y-107769320D01*
X204917098Y-107831522D01*
X205057060Y-107858683D01*
X205319267Y-107865227D01*
X205401334Y-107865334D01*
X205748237Y-107886828D01*
X205932320Y-107950946D01*
X205953124Y-108057138D01*
X205810188Y-108204856D01*
X205731695Y-108259561D01*
X205545048Y-108351458D01*
X205397077Y-108329338D01*
X205351844Y-108303846D01*
X205141559Y-108215055D01*
X204988910Y-108228118D01*
X204935667Y-108328021D01*
X205013413Y-108477265D01*
X205223616Y-108582287D01*
X205531726Y-108626824D01*
X205571614Y-108627334D01*
X205854001Y-108577570D01*
X206101834Y-108404980D01*
X206127513Y-108379846D01*
X206319223Y-108088227D01*
X206385502Y-107756816D01*
X206336265Y-107427592D01*
X206310971Y-107381025D01*
X205924627Y-107381025D01*
X205917562Y-107475128D01*
X205748070Y-107521429D01*
X205613000Y-107526667D01*
X205375310Y-107504763D01*
X205279056Y-107433472D01*
X205274334Y-107402646D01*
X205342641Y-107245767D01*
X205507142Y-107172793D01*
X205707210Y-107203751D01*
X205769244Y-107239161D01*
X205924627Y-107381025D01*
X206310971Y-107381025D01*
X206181424Y-107142534D01*
X205930896Y-106943622D01*
X205775710Y-106890212D01*
X205423403Y-106887394D01*
X205132150Y-107026375D01*
G37*
X205132150Y-107026375D02*
X204931586Y-107282560D01*
X204851346Y-107631354D01*
X204851000Y-107657651D01*
X204861154Y-107769320D01*
X204917098Y-107831522D01*
X205057060Y-107858683D01*
X205319267Y-107865227D01*
X205401334Y-107865334D01*
X205748237Y-107886828D01*
X205932320Y-107950946D01*
X205953124Y-108057138D01*
X205810188Y-108204856D01*
X205731695Y-108259561D01*
X205545048Y-108351458D01*
X205397077Y-108329338D01*
X205351844Y-108303846D01*
X205141559Y-108215055D01*
X204988910Y-108228118D01*
X204935667Y-108328021D01*
X205013413Y-108477265D01*
X205223616Y-108582287D01*
X205531726Y-108626824D01*
X205571614Y-108627334D01*
X205854001Y-108577570D01*
X206101834Y-108404980D01*
X206127513Y-108379846D01*
X206319223Y-108088227D01*
X206385502Y-107756816D01*
X206336265Y-107427592D01*
X206310971Y-107381025D01*
X205924627Y-107381025D01*
X205917562Y-107475128D01*
X205748070Y-107521429D01*
X205613000Y-107526667D01*
X205375310Y-107504763D01*
X205279056Y-107433472D01*
X205274334Y-107402646D01*
X205342641Y-107245767D01*
X205507142Y-107172793D01*
X205707210Y-107203751D01*
X205769244Y-107239161D01*
X205924627Y-107381025D01*
X206310971Y-107381025D01*
X206181424Y-107142534D01*
X205930896Y-106943622D01*
X205775710Y-106890212D01*
X205423403Y-106887394D01*
X205132150Y-107026375D01*
G36*
X206713667Y-108602351D02*
G01*
X207270821Y-108611845D01*
X207583537Y-108609680D01*
X207781994Y-108579854D01*
X207920801Y-108507205D01*
X208032821Y-108400307D01*
X208184280Y-108127004D01*
X208242302Y-107773858D01*
X208234178Y-107701963D01*
X207879716Y-107701963D01*
X207849909Y-107958952D01*
X207754672Y-108165498D01*
X207616049Y-108296183D01*
X207456085Y-108325588D01*
X207296825Y-108228292D01*
X207219315Y-108114939D01*
X207144007Y-107831488D01*
X207165627Y-107514355D01*
X207224646Y-107351767D01*
X207378206Y-107207476D01*
X207573104Y-107192162D01*
X207749533Y-107299000D01*
X207822046Y-107419952D01*
X207879716Y-107701963D01*
X208234178Y-107701963D01*
X208200745Y-107406121D01*
X208142018Y-107240040D01*
X207962072Y-107027262D01*
X207689712Y-106895001D01*
X207394555Y-106874592D01*
X207350311Y-106883689D01*
X207219596Y-106905097D01*
X207157351Y-106856259D01*
X207138268Y-106698134D01*
X207137000Y-106554613D01*
X207128313Y-106318878D01*
X207085549Y-106206947D01*
X206983654Y-106173532D01*
X206925334Y-106172000D01*
X206713667Y-106172000D01*
X206713667Y-108602351D01*
G37*
X206713667Y-108602351D02*
X207270821Y-108611845D01*
X207583537Y-108609680D01*
X207781994Y-108579854D01*
X207920801Y-108507205D01*
X208032821Y-108400307D01*
X208184280Y-108127004D01*
X208242302Y-107773858D01*
X208234178Y-107701963D01*
X207879716Y-107701963D01*
X207849909Y-107958952D01*
X207754672Y-108165498D01*
X207616049Y-108296183D01*
X207456085Y-108325588D01*
X207296825Y-108228292D01*
X207219315Y-108114939D01*
X207144007Y-107831488D01*
X207165627Y-107514355D01*
X207224646Y-107351767D01*
X207378206Y-107207476D01*
X207573104Y-107192162D01*
X207749533Y-107299000D01*
X207822046Y-107419952D01*
X207879716Y-107701963D01*
X208234178Y-107701963D01*
X208200745Y-107406121D01*
X208142018Y-107240040D01*
X207962072Y-107027262D01*
X207689712Y-106895001D01*
X207394555Y-106874592D01*
X207350311Y-106883689D01*
X207219596Y-106905097D01*
X207157351Y-106856259D01*
X207138268Y-106698134D01*
X207137000Y-106554613D01*
X207128313Y-106318878D01*
X207085549Y-106206947D01*
X206983654Y-106173532D01*
X206925334Y-106172000D01*
X206713667Y-106172000D01*
X206713667Y-108602351D01*
G36*
X210439000Y-108602351D02*
G01*
X210996154Y-108611845D01*
X211308871Y-108609680D01*
X211507327Y-108579854D01*
X211646134Y-108507205D01*
X211758154Y-108400307D01*
X211909614Y-108127004D01*
X211967635Y-107773858D01*
X211959511Y-107701963D01*
X211605049Y-107701963D01*
X211575242Y-107958952D01*
X211480005Y-108165498D01*
X211341382Y-108296183D01*
X211181418Y-108325588D01*
X211022159Y-108228292D01*
X210944648Y-108114939D01*
X210869341Y-107831488D01*
X210890960Y-107514355D01*
X210949979Y-107351767D01*
X211103539Y-107207476D01*
X211298438Y-107192162D01*
X211474866Y-107299000D01*
X211547380Y-107419952D01*
X211605049Y-107701963D01*
X211959511Y-107701963D01*
X211926078Y-107406121D01*
X211867351Y-107240040D01*
X211687405Y-107027262D01*
X211415045Y-106895001D01*
X211119889Y-106874592D01*
X211075644Y-106883689D01*
X210944929Y-106905097D01*
X210882684Y-106856259D01*
X210863601Y-106698134D01*
X210862334Y-106554613D01*
X210853647Y-106318878D01*
X210810883Y-106206947D01*
X210708988Y-106173532D01*
X210650667Y-106172000D01*
X210439000Y-106172000D01*
X210439000Y-108602351D01*
G37*
X210439000Y-108602351D02*
X210996154Y-108611845D01*
X211308871Y-108609680D01*
X211507327Y-108579854D01*
X211646134Y-108507205D01*
X211758154Y-108400307D01*
X211909614Y-108127004D01*
X211967635Y-107773858D01*
X211959511Y-107701963D01*
X211605049Y-107701963D01*
X211575242Y-107958952D01*
X211480005Y-108165498D01*
X211341382Y-108296183D01*
X211181418Y-108325588D01*
X211022159Y-108228292D01*
X210944648Y-108114939D01*
X210869341Y-107831488D01*
X210890960Y-107514355D01*
X210949979Y-107351767D01*
X211103539Y-107207476D01*
X211298438Y-107192162D01*
X211474866Y-107299000D01*
X211547380Y-107419952D01*
X211605049Y-107701963D01*
X211959511Y-107701963D01*
X211926078Y-107406121D01*
X211867351Y-107240040D01*
X211687405Y-107027262D01*
X211415045Y-106895001D01*
X211119889Y-106874592D01*
X211075644Y-106883689D01*
X210944929Y-106905097D01*
X210882684Y-106856259D01*
X210863601Y-106698134D01*
X210862334Y-106554613D01*
X210853647Y-106318878D01*
X210810883Y-106206947D01*
X210708988Y-106173532D01*
X210650667Y-106172000D01*
X210439000Y-106172000D01*
X210439000Y-108602351D01*
G36*
X213488706Y-106185598D02*
G01*
X213425995Y-106255169D01*
X213404435Y-106423879D01*
X213402334Y-106598312D01*
X213397451Y-106846647D01*
X213371211Y-106958915D01*
X213306228Y-106968336D01*
X213228035Y-106931343D01*
X212968023Y-106876621D01*
X212684695Y-106936845D01*
X212457500Y-107092380D01*
X212428772Y-107128876D01*
X212348315Y-107335876D01*
X212305278Y-107640298D01*
X212301667Y-107761021D01*
X212318788Y-108061312D01*
X212384290Y-108261676D01*
X212509485Y-108419515D01*
X212739935Y-108566421D01*
X213014094Y-108628838D01*
X213265577Y-108598716D01*
X213385400Y-108525734D01*
X213469295Y-108466829D01*
X213487000Y-108525734D01*
X213550612Y-108612008D01*
X213683191Y-108619274D01*
X213769223Y-108570889D01*
X213789725Y-108469971D01*
X213806901Y-108232192D01*
X213819259Y-107890015D01*
X213819607Y-107866153D01*
X213390336Y-107866153D01*
X213307584Y-108108305D01*
X213231060Y-108205941D01*
X213035159Y-108312914D01*
X212848065Y-108267511D01*
X212706582Y-108084357D01*
X212673056Y-107984182D01*
X212655848Y-107729522D01*
X212708994Y-107474062D01*
X212813226Y-107277648D01*
X212924802Y-107202327D01*
X213133328Y-107232975D01*
X213289538Y-107383692D01*
X213379764Y-107609683D01*
X213390336Y-107866153D01*
X213819607Y-107866153D01*
X213825307Y-107475902D01*
X213825667Y-107343222D01*
X213825667Y-106172000D01*
X213614000Y-106172000D01*
X213488706Y-106185598D01*
G37*
X213488706Y-106185598D02*
X213425995Y-106255169D01*
X213404435Y-106423879D01*
X213402334Y-106598312D01*
X213397451Y-106846647D01*
X213371211Y-106958915D01*
X213306228Y-106968336D01*
X213228035Y-106931343D01*
X212968023Y-106876621D01*
X212684695Y-106936845D01*
X212457500Y-107092380D01*
X212428772Y-107128876D01*
X212348315Y-107335876D01*
X212305278Y-107640298D01*
X212301667Y-107761021D01*
X212318788Y-108061312D01*
X212384290Y-108261676D01*
X212509485Y-108419515D01*
X212739935Y-108566421D01*
X213014094Y-108628838D01*
X213265577Y-108598716D01*
X213385400Y-108525734D01*
X213469295Y-108466829D01*
X213487000Y-108525734D01*
X213550612Y-108612008D01*
X213683191Y-108619274D01*
X213769223Y-108570889D01*
X213789725Y-108469971D01*
X213806901Y-108232192D01*
X213819259Y-107890015D01*
X213819607Y-107866153D01*
X213390336Y-107866153D01*
X213307584Y-108108305D01*
X213231060Y-108205941D01*
X213035159Y-108312914D01*
X212848065Y-108267511D01*
X212706582Y-108084357D01*
X212673056Y-107984182D01*
X212655848Y-107729522D01*
X212708994Y-107474062D01*
X212813226Y-107277648D01*
X212924802Y-107202327D01*
X213133328Y-107232975D01*
X213289538Y-107383692D01*
X213379764Y-107609683D01*
X213390336Y-107866153D01*
X213819607Y-107866153D01*
X213825307Y-107475902D01*
X213825667Y-107343222D01*
X213825667Y-106172000D01*
X213614000Y-106172000D01*
X213488706Y-106185598D01*
G36*
X215387635Y-106355461D02*
G01*
X215334903Y-106426041D01*
X215324040Y-106594962D01*
X215332518Y-106785781D01*
X215357702Y-107230334D01*
X214965062Y-106785834D01*
X214684171Y-106502105D01*
X214466162Y-106361207D01*
X214368378Y-106341334D01*
X214204988Y-106367342D01*
X214184519Y-106453479D01*
X214307532Y-106611913D01*
X214384278Y-106686408D01*
X214592743Y-106904251D01*
X214768658Y-107121150D01*
X214933093Y-107350633D01*
X214506380Y-107937310D01*
X214313110Y-108208673D01*
X214165481Y-108426690D01*
X214086713Y-108556625D01*
X214079667Y-108575661D01*
X214152195Y-108614753D01*
X214288179Y-108627334D01*
X214430077Y-108590282D01*
X214582918Y-108461742D01*
X214775072Y-108215633D01*
X214843125Y-108117187D01*
X215021073Y-107876244D01*
X215170777Y-107711475D01*
X215263150Y-107654298D01*
X215269613Y-107656517D01*
X215314119Y-107762304D01*
X215343185Y-107981558D01*
X215349667Y-108166664D01*
X215357178Y-108434009D01*
X215389587Y-108572623D01*
X215461708Y-108622807D01*
X215519000Y-108627334D01*
X215587043Y-108618279D01*
X215633924Y-108573456D01*
X215663569Y-108466371D01*
X215679903Y-108270535D01*
X215686849Y-107959457D01*
X215688333Y-107506644D01*
X215688334Y-107484334D01*
X215687416Y-107025709D01*
X215681707Y-106709815D01*
X215666773Y-106510047D01*
X215638181Y-106399804D01*
X215591496Y-106352481D01*
X215522286Y-106341477D01*
X215497834Y-106341281D01*
X215387635Y-106355461D01*
G37*
X215387635Y-106355461D02*
X215334903Y-106426041D01*
X215324040Y-106594962D01*
X215332518Y-106785781D01*
X215357702Y-107230334D01*
X214965062Y-106785834D01*
X214684171Y-106502105D01*
X214466162Y-106361207D01*
X214368378Y-106341334D01*
X214204988Y-106367342D01*
X214184519Y-106453479D01*
X214307532Y-106611913D01*
X214384278Y-106686408D01*
X214592743Y-106904251D01*
X214768658Y-107121150D01*
X214933093Y-107350633D01*
X214506380Y-107937310D01*
X214313110Y-108208673D01*
X214165481Y-108426690D01*
X214086713Y-108556625D01*
X214079667Y-108575661D01*
X214152195Y-108614753D01*
X214288179Y-108627334D01*
X214430077Y-108590282D01*
X214582918Y-108461742D01*
X214775072Y-108215633D01*
X214843125Y-108117187D01*
X215021073Y-107876244D01*
X215170777Y-107711475D01*
X215263150Y-107654298D01*
X215269613Y-107656517D01*
X215314119Y-107762304D01*
X215343185Y-107981558D01*
X215349667Y-108166664D01*
X215357178Y-108434009D01*
X215389587Y-108572623D01*
X215461708Y-108622807D01*
X215519000Y-108627334D01*
X215587043Y-108618279D01*
X215633924Y-108573456D01*
X215663569Y-108466371D01*
X215679903Y-108270535D01*
X215686849Y-107959457D01*
X215688333Y-107506644D01*
X215688334Y-107484334D01*
X215687416Y-107025709D01*
X215681707Y-106709815D01*
X215666773Y-106510047D01*
X215638181Y-106399804D01*
X215591496Y-106352481D01*
X215522286Y-106341477D01*
X215497834Y-106341281D01*
X215387635Y-106355461D01*
G36*
X190107705Y-106210174D02*
G01*
X190079339Y-106333967D01*
X190124317Y-106557283D01*
X190246025Y-106894027D01*
X190447850Y-107358105D01*
X190547169Y-107572686D01*
X190775894Y-108048342D01*
X190951844Y-108383112D01*
X191084928Y-108593415D01*
X191185058Y-108695666D01*
X191234975Y-108712000D01*
X191363717Y-108657842D01*
X191389000Y-108592374D01*
X191353779Y-108462160D01*
X191258494Y-108223108D01*
X191118711Y-107907069D01*
X190949999Y-107545893D01*
X190767925Y-107171433D01*
X190588056Y-106815538D01*
X190425960Y-106510060D01*
X190297204Y-106286850D01*
X190217356Y-106177759D01*
X190206027Y-106172000D01*
X190107705Y-106210174D01*
G37*
X190107705Y-106210174D02*
X190079339Y-106333967D01*
X190124317Y-106557283D01*
X190246025Y-106894027D01*
X190447850Y-107358105D01*
X190547169Y-107572686D01*
X190775894Y-108048342D01*
X190951844Y-108383112D01*
X191084928Y-108593415D01*
X191185058Y-108695666D01*
X191234975Y-108712000D01*
X191363717Y-108657842D01*
X191389000Y-108592374D01*
X191353779Y-108462160D01*
X191258494Y-108223108D01*
X191118711Y-107907069D01*
X190949999Y-107545893D01*
X190767925Y-107171433D01*
X190588056Y-106815538D01*
X190425960Y-106510060D01*
X190297204Y-106286850D01*
X190217356Y-106177759D01*
X190206027Y-106172000D01*
X190107705Y-106210174D01*
G36*
X180883665Y-106878511D02*
G01*
X180665874Y-106911623D01*
X180556496Y-106968873D01*
X180551667Y-106986421D01*
X180621963Y-107094173D01*
X180721000Y-107145667D01*
X180848671Y-107243327D01*
X180890089Y-107451802D01*
X180890334Y-107476917D01*
X180960029Y-107773158D01*
X181156772Y-107965019D01*
X181462053Y-108034644D01*
X181468501Y-108034667D01*
X181676033Y-108053313D01*
X181732241Y-108099129D01*
X181649752Y-108156934D01*
X181441192Y-108211544D01*
X181304703Y-108231613D01*
X181031825Y-108279619D01*
X180819682Y-108344698D01*
X180754370Y-108380773D01*
X180656709Y-108554680D01*
X180646372Y-108783132D01*
X180701130Y-108932159D01*
X180907561Y-109102282D01*
X181217502Y-109194782D01*
X181580088Y-109201623D01*
X181918704Y-109124526D01*
X182125715Y-108972595D01*
X182202171Y-108747101D01*
X182178463Y-108665460D01*
X181821667Y-108665460D01*
X181750292Y-108828960D01*
X181573286Y-108926465D01*
X181346326Y-108943490D01*
X181125090Y-108865548D01*
X181105248Y-108851844D01*
X180997701Y-108722525D01*
X181045286Y-108620115D01*
X181234430Y-108556942D01*
X181445664Y-108542667D01*
X181698042Y-108560824D01*
X181810135Y-108620892D01*
X181821667Y-108665460D01*
X182178463Y-108665460D01*
X182131060Y-108502232D01*
X182066782Y-108288646D01*
X182045421Y-107930192D01*
X182050648Y-107720015D01*
X182056397Y-107529839D01*
X181720234Y-107529839D01*
X181635400Y-107679067D01*
X181541385Y-107764715D01*
X181458907Y-107765149D01*
X181362925Y-107729275D01*
X181255520Y-107611186D01*
X181236952Y-107422874D01*
X181308175Y-107238860D01*
X181356000Y-107188000D01*
X181509946Y-107134307D01*
X181639390Y-107204005D01*
X181718198Y-107351161D01*
X181720234Y-107529839D01*
X182056397Y-107529839D01*
X182060391Y-107397770D01*
X182046753Y-107200158D01*
X181999848Y-107083020D01*
X181909788Y-107002192D01*
X181886534Y-106987010D01*
X181711305Y-106923785D01*
X181454003Y-106884613D01*
X181162249Y-106869514D01*
X180883665Y-106878511D01*
G37*
X180883665Y-106878511D02*
X180665874Y-106911623D01*
X180556496Y-106968873D01*
X180551667Y-106986421D01*
X180621963Y-107094173D01*
X180721000Y-107145667D01*
X180848671Y-107243327D01*
X180890089Y-107451802D01*
X180890334Y-107476917D01*
X180960029Y-107773158D01*
X181156772Y-107965019D01*
X181462053Y-108034644D01*
X181468501Y-108034667D01*
X181676033Y-108053313D01*
X181732241Y-108099129D01*
X181649752Y-108156934D01*
X181441192Y-108211544D01*
X181304703Y-108231613D01*
X181031825Y-108279619D01*
X180819682Y-108344698D01*
X180754370Y-108380773D01*
X180656709Y-108554680D01*
X180646372Y-108783132D01*
X180701130Y-108932159D01*
X180907561Y-109102282D01*
X181217502Y-109194782D01*
X181580088Y-109201623D01*
X181918704Y-109124526D01*
X182125715Y-108972595D01*
X182202171Y-108747101D01*
X182178463Y-108665460D01*
X181821667Y-108665460D01*
X181750292Y-108828960D01*
X181573286Y-108926465D01*
X181346326Y-108943490D01*
X181125090Y-108865548D01*
X181105248Y-108851844D01*
X180997701Y-108722525D01*
X181045286Y-108620115D01*
X181234430Y-108556942D01*
X181445664Y-108542667D01*
X181698042Y-108560824D01*
X181810135Y-108620892D01*
X181821667Y-108665460D01*
X182178463Y-108665460D01*
X182131060Y-108502232D01*
X182066782Y-108288646D01*
X182045421Y-107930192D01*
X182050648Y-107720015D01*
X182056397Y-107529839D01*
X181720234Y-107529839D01*
X181635400Y-107679067D01*
X181541385Y-107764715D01*
X181458907Y-107765149D01*
X181362925Y-107729275D01*
X181255520Y-107611186D01*
X181236952Y-107422874D01*
X181308175Y-107238860D01*
X181356000Y-107188000D01*
X181509946Y-107134307D01*
X181639390Y-107204005D01*
X181718198Y-107351161D01*
X181720234Y-107529839D01*
X182056397Y-107529839D01*
X182060391Y-107397770D01*
X182046753Y-107200158D01*
X181999848Y-107083020D01*
X181909788Y-107002192D01*
X181886534Y-106987010D01*
X181711305Y-106923785D01*
X181454003Y-106884613D01*
X181162249Y-106869514D01*
X180883665Y-106878511D01*
G36*
X195819935Y-107008413D02*
G01*
X195624169Y-107229122D01*
X195503814Y-107516506D01*
X195473039Y-107837421D01*
X195546012Y-108158725D01*
X195724814Y-108434643D01*
X195892494Y-108571242D01*
X196091481Y-108618198D01*
X196278500Y-108612392D01*
X196638334Y-108583780D01*
X196638334Y-108901890D01*
X196656183Y-109117786D01*
X196723260Y-109208429D01*
X196793556Y-109220000D01*
X196954543Y-109192358D01*
X197005223Y-109163556D01*
X197026402Y-109062082D01*
X197043957Y-108825042D01*
X197056232Y-108486189D01*
X197061568Y-108079278D01*
X197061667Y-108014175D01*
X197061667Y-107692403D01*
X196638127Y-107692403D01*
X196613369Y-107956285D01*
X196484700Y-108187770D01*
X196470921Y-108202080D01*
X196270215Y-108317241D01*
X196082143Y-108267591D01*
X195958648Y-108114939D01*
X195880878Y-107857570D01*
X195889724Y-107588092D01*
X195971578Y-107356308D01*
X196112831Y-107212021D01*
X196211932Y-107188000D01*
X196425108Y-107260099D01*
X196571273Y-107444287D01*
X196638127Y-107692403D01*
X197061667Y-107692403D01*
X197061667Y-106921238D01*
X196828834Y-106940242D01*
X196563521Y-106932316D01*
X196381029Y-106899594D01*
X196076945Y-106887523D01*
X195819935Y-107008413D01*
G37*
X195819935Y-107008413D02*
X195624169Y-107229122D01*
X195503814Y-107516506D01*
X195473039Y-107837421D01*
X195546012Y-108158725D01*
X195724814Y-108434643D01*
X195892494Y-108571242D01*
X196091481Y-108618198D01*
X196278500Y-108612392D01*
X196638334Y-108583780D01*
X196638334Y-108901890D01*
X196656183Y-109117786D01*
X196723260Y-109208429D01*
X196793556Y-109220000D01*
X196954543Y-109192358D01*
X197005223Y-109163556D01*
X197026402Y-109062082D01*
X197043957Y-108825042D01*
X197056232Y-108486189D01*
X197061568Y-108079278D01*
X197061667Y-108014175D01*
X197061667Y-107692403D01*
X196638127Y-107692403D01*
X196613369Y-107956285D01*
X196484700Y-108187770D01*
X196470921Y-108202080D01*
X196270215Y-108317241D01*
X196082143Y-108267591D01*
X195958648Y-108114939D01*
X195880878Y-107857570D01*
X195889724Y-107588092D01*
X195971578Y-107356308D01*
X196112831Y-107212021D01*
X196211932Y-107188000D01*
X196425108Y-107260099D01*
X196571273Y-107444287D01*
X196638127Y-107692403D01*
X197061667Y-107692403D01*
X197061667Y-106921238D01*
X196828834Y-106940242D01*
X196563521Y-106932316D01*
X196381029Y-106899594D01*
X196076945Y-106887523D01*
X195819935Y-107008413D01*
G36*
X137442865Y-93101708D02*
G01*
X136586838Y-93247892D01*
X135700960Y-93476579D01*
X134835938Y-93775532D01*
X134345337Y-93984786D01*
X133414261Y-94472557D01*
X132637439Y-95008486D01*
X132003832Y-95603975D01*
X131502396Y-96270424D01*
X131122093Y-97019234D01*
X130956200Y-97484329D01*
X130866876Y-97917813D01*
X130820598Y-98470070D01*
X130816214Y-99096408D01*
X130852572Y-99752137D01*
X130928521Y-100392564D01*
X131042908Y-100973000D01*
X131046466Y-100987209D01*
X131276917Y-101808882D01*
X131558088Y-102634206D01*
X131899624Y-103484150D01*
X132311170Y-104379684D01*
X132802373Y-105341776D01*
X133382876Y-106391396D01*
X134062327Y-107549511D01*
X134074033Y-107569000D01*
X134788923Y-108788160D01*
X135401829Y-109899052D01*
X135921929Y-110921149D01*
X136358396Y-111873923D01*
X136720408Y-112776846D01*
X137017141Y-113649391D01*
X137146118Y-114088334D01*
X137423026Y-115263515D01*
X137575278Y-116347195D01*
X137604275Y-117335365D01*
X137511418Y-118224020D01*
X137298107Y-119009151D01*
X136965742Y-119686751D01*
X136515725Y-120252813D01*
X135949455Y-120703329D01*
X135268334Y-121034293D01*
X134658233Y-121206873D01*
X133923282Y-121276213D01*
X133167603Y-121192019D01*
X132412895Y-120964689D01*
X131680857Y-120604623D01*
X130993187Y-120122219D01*
X130371584Y-119527875D01*
X129900880Y-118927038D01*
X129598358Y-118431234D01*
X129309203Y-117865450D01*
X129048071Y-117267736D01*
X128829618Y-116676141D01*
X128668499Y-116128715D01*
X128579372Y-115663508D01*
X128566334Y-115462332D01*
X128537663Y-115285283D01*
X128457294Y-115261925D01*
X128333693Y-115387661D01*
X128175323Y-115657898D01*
X128163779Y-115680852D01*
X127944776Y-116247701D01*
X127782042Y-116933870D01*
X127678906Y-117697834D01*
X127638696Y-118498067D01*
X127664739Y-119293046D01*
X127760363Y-120041245D01*
X127799032Y-120232066D01*
X128131619Y-121384988D01*
X128595771Y-122431325D01*
X129191419Y-123371012D01*
X129918494Y-124203981D01*
X130776926Y-124930167D01*
X131766644Y-125549501D01*
X132887581Y-126061919D01*
X134139666Y-126467352D01*
X134366000Y-126525741D01*
X134825664Y-126622624D01*
X135388848Y-126714029D01*
X136017981Y-126796469D01*
X136675493Y-126866458D01*
X137323812Y-126920508D01*
X137925367Y-126955132D01*
X138442588Y-126966843D01*
X138837902Y-126952155D01*
X138895667Y-126946147D01*
X139587894Y-126852396D01*
X140275275Y-126739098D01*
X140907925Y-126615432D01*
X141435961Y-126490578D01*
X141562667Y-126455382D01*
X142732657Y-126064562D01*
X143886266Y-125582136D01*
X144974896Y-125030769D01*
X145949947Y-124433127D01*
X146057619Y-124358954D01*
X146659135Y-123938975D01*
X147201235Y-124292092D01*
X147599741Y-124531657D01*
X148099500Y-124802307D01*
X148654935Y-125082100D01*
X149220470Y-125349095D01*
X149750528Y-125581348D01*
X150199533Y-125756919D01*
X150347238Y-125806678D01*
X151350951Y-126080779D01*
X152264447Y-126239302D01*
X153118167Y-126285477D01*
X153942554Y-126222532D01*
X154075893Y-126202205D01*
X155245586Y-125928251D01*
X156347292Y-125500274D01*
X157373090Y-124922368D01*
X158315056Y-124198627D01*
X158747350Y-123788204D01*
X158990061Y-123553774D01*
X159197528Y-123375487D01*
X159335476Y-123282028D01*
X159360987Y-123274667D01*
X159484573Y-123321229D01*
X159691443Y-123441569D01*
X159871638Y-123563669D01*
X160349998Y-123867437D01*
X160937184Y-124179181D01*
X161576275Y-124472196D01*
X162210355Y-124719777D01*
X162611169Y-124849000D01*
X163295549Y-125000533D01*
X164019841Y-125081285D01*
X164732506Y-125089883D01*
X165382002Y-125024957D01*
X165777334Y-124933228D01*
X166722366Y-124560627D01*
X167614061Y-124038683D01*
X168462928Y-123360555D01*
X168985963Y-122844211D01*
X169511734Y-122254055D01*
X169939835Y-121694129D01*
X170313931Y-121101402D01*
X170677690Y-120412842D01*
X170695639Y-120376300D01*
X170863486Y-120034211D01*
X171008093Y-119740566D01*
X171110266Y-119534284D01*
X171145251Y-119464667D01*
X171227506Y-119263009D01*
X171337099Y-118936725D01*
X171462520Y-118526007D01*
X171592260Y-118071045D01*
X171714809Y-117612031D01*
X171818657Y-117189156D01*
X171884757Y-116882334D01*
X171957857Y-116373609D01*
X172007230Y-115754123D01*
X172032905Y-115068731D01*
X172034910Y-114362288D01*
X172013275Y-113679651D01*
X171968026Y-113065676D01*
X171899194Y-112565218D01*
X171881946Y-112479667D01*
X171578343Y-111313055D01*
X171199996Y-110285934D01*
X170739003Y-109382211D01*
X170187459Y-108585793D01*
X169702468Y-108041981D01*
X169005976Y-107436360D01*
X168270768Y-106992478D01*
X167483616Y-106704670D01*
X166631294Y-106567270D01*
X166226067Y-106553000D01*
X165788776Y-106559843D01*
X165497610Y-106588964D01*
X165329622Y-106653250D01*
X165261864Y-106765589D01*
X165271388Y-106938869D01*
X165303017Y-107071397D01*
X165373884Y-107424613D01*
X165436331Y-107905464D01*
X165487583Y-108472346D01*
X165524862Y-109083656D01*
X165545391Y-109697790D01*
X165546394Y-110273143D01*
X165536840Y-110574667D01*
X165384471Y-112140725D01*
X165078115Y-113638556D01*
X164615507Y-115075125D01*
X163994387Y-116457395D01*
X163212489Y-117792330D01*
X163170434Y-117856000D01*
X162905076Y-118242333D01*
X162625257Y-118627130D01*
X162347965Y-118989707D01*
X162090187Y-119309381D01*
X161868913Y-119565470D01*
X161701129Y-119737289D01*
X161603824Y-119804157D01*
X161586334Y-119784658D01*
X161617988Y-119689091D01*
X161700059Y-119487214D01*
X161789733Y-119279816D01*
X162286435Y-117978924D01*
X162677988Y-116575691D01*
X162959547Y-115104205D01*
X163126265Y-113598557D01*
X163173296Y-112092834D01*
X163095794Y-110621126D01*
X163063371Y-110320667D01*
X162865235Y-108967444D01*
X162600198Y-107734538D01*
X162257263Y-106582426D01*
X161825436Y-105471586D01*
X161544007Y-104859667D01*
X160880502Y-103642194D01*
X160130972Y-102545554D01*
X159303319Y-101576915D01*
X158405447Y-100743439D01*
X157445260Y-100052293D01*
X156430661Y-99510641D01*
X155369554Y-99125648D01*
X155156714Y-99069143D01*
X154442176Y-98941473D01*
X153655330Y-98886603D01*
X152860787Y-98904598D01*
X152123155Y-98995525D01*
X151805975Y-99065698D01*
X151488052Y-99151516D01*
X151235230Y-99224502D01*
X151090903Y-99271978D01*
X151075797Y-99279003D01*
X151083436Y-99366199D01*
X151155560Y-99568006D01*
X151278524Y-99848805D01*
X151355597Y-100009297D01*
X152082823Y-101665248D01*
X152669792Y-103394975D01*
X153109764Y-105171740D01*
X153396001Y-106968801D01*
X153516722Y-108585000D01*
X153509824Y-110127446D01*
X153379397Y-111569408D01*
X153121414Y-112930372D01*
X152731851Y-114229821D01*
X152206680Y-115487242D01*
X152008385Y-115885748D01*
X151789603Y-116291103D01*
X151553966Y-116698184D01*
X151321015Y-117076236D01*
X151110291Y-117394505D01*
X150941336Y-117622234D01*
X150839520Y-117725383D01*
X150802909Y-117693889D01*
X150832363Y-117526809D01*
X150840569Y-117497800D01*
X151128493Y-116277382D01*
X151319250Y-114941514D01*
X151413405Y-113513028D01*
X151411522Y-112014758D01*
X151314165Y-110469537D01*
X151121898Y-108900198D01*
X150835285Y-107329576D01*
X150560714Y-106172000D01*
X150468697Y-105817668D01*
X150383610Y-105485420D01*
X150323058Y-105244033D01*
X150320606Y-105234010D01*
X150129893Y-104566251D01*
X149863231Y-103794979D01*
X149537208Y-102958492D01*
X149168415Y-102095089D01*
X148773443Y-101243066D01*
X148368881Y-100440721D01*
X147971320Y-99726352D01*
X147842303Y-99512914D01*
X147000673Y-98274626D01*
X146079723Y-97143487D01*
X145091926Y-96130428D01*
X144049755Y-95246380D01*
X142965683Y-94502272D01*
X141852182Y-93909036D01*
X141097000Y-93601813D01*
X140448631Y-93401117D01*
X139747329Y-93235456D01*
X139053673Y-93116437D01*
X138428245Y-93055667D01*
X138218334Y-93050261D01*
X137442865Y-93101708D01*
G37*
X137442865Y-93101708D02*
X136586838Y-93247892D01*
X135700960Y-93476579D01*
X134835938Y-93775532D01*
X134345337Y-93984786D01*
X133414261Y-94472557D01*
X132637439Y-95008486D01*
X132003832Y-95603975D01*
X131502396Y-96270424D01*
X131122093Y-97019234D01*
X130956200Y-97484329D01*
X130866876Y-97917813D01*
X130820598Y-98470070D01*
X130816214Y-99096408D01*
X130852572Y-99752137D01*
X130928521Y-100392564D01*
X131042908Y-100973000D01*
X131046466Y-100987209D01*
X131276917Y-101808882D01*
X131558088Y-102634206D01*
X131899624Y-103484150D01*
X132311170Y-104379684D01*
X132802373Y-105341776D01*
X133382876Y-106391396D01*
X134062327Y-107549511D01*
X134074033Y-107569000D01*
X134788923Y-108788160D01*
X135401829Y-109899052D01*
X135921929Y-110921149D01*
X136358396Y-111873923D01*
X136720408Y-112776846D01*
X137017141Y-113649391D01*
X137146118Y-114088334D01*
X137423026Y-115263515D01*
X137575278Y-116347195D01*
X137604275Y-117335365D01*
X137511418Y-118224020D01*
X137298107Y-119009151D01*
X136965742Y-119686751D01*
X136515725Y-120252813D01*
X135949455Y-120703329D01*
X135268334Y-121034293D01*
X134658233Y-121206873D01*
X133923282Y-121276213D01*
X133167603Y-121192019D01*
X132412895Y-120964689D01*
X131680857Y-120604623D01*
X130993187Y-120122219D01*
X130371584Y-119527875D01*
X129900880Y-118927038D01*
X129598358Y-118431234D01*
X129309203Y-117865450D01*
X129048071Y-117267736D01*
X128829618Y-116676141D01*
X128668499Y-116128715D01*
X128579372Y-115663508D01*
X128566334Y-115462332D01*
X128537663Y-115285283D01*
X128457294Y-115261925D01*
X128333693Y-115387661D01*
X128175323Y-115657898D01*
X128163779Y-115680852D01*
X127944776Y-116247701D01*
X127782042Y-116933870D01*
X127678906Y-117697834D01*
X127638696Y-118498067D01*
X127664739Y-119293046D01*
X127760363Y-120041245D01*
X127799032Y-120232066D01*
X128131619Y-121384988D01*
X128595771Y-122431325D01*
X129191419Y-123371012D01*
X129918494Y-124203981D01*
X130776926Y-124930167D01*
X131766644Y-125549501D01*
X132887581Y-126061919D01*
X134139666Y-126467352D01*
X134366000Y-126525741D01*
X134825664Y-126622624D01*
X135388848Y-126714029D01*
X136017981Y-126796469D01*
X136675493Y-126866458D01*
X137323812Y-126920508D01*
X137925367Y-126955132D01*
X138442588Y-126966843D01*
X138837902Y-126952155D01*
X138895667Y-126946147D01*
X139587894Y-126852396D01*
X140275275Y-126739098D01*
X140907925Y-126615432D01*
X141435961Y-126490578D01*
X141562667Y-126455382D01*
X142732657Y-126064562D01*
X143886266Y-125582136D01*
X144974896Y-125030769D01*
X145949947Y-124433127D01*
X146057619Y-124358954D01*
X146659135Y-123938975D01*
X147201235Y-124292092D01*
X147599741Y-124531657D01*
X148099500Y-124802307D01*
X148654935Y-125082100D01*
X149220470Y-125349095D01*
X149750528Y-125581348D01*
X150199533Y-125756919D01*
X150347238Y-125806678D01*
X151350951Y-126080779D01*
X152264447Y-126239302D01*
X153118167Y-126285477D01*
X153942554Y-126222532D01*
X154075893Y-126202205D01*
X155245586Y-125928251D01*
X156347292Y-125500274D01*
X157373090Y-124922368D01*
X158315056Y-124198627D01*
X158747350Y-123788204D01*
X158990061Y-123553774D01*
X159197528Y-123375487D01*
X159335476Y-123282028D01*
X159360987Y-123274667D01*
X159484573Y-123321229D01*
X159691443Y-123441569D01*
X159871638Y-123563669D01*
X160349998Y-123867437D01*
X160937184Y-124179181D01*
X161576275Y-124472196D01*
X162210355Y-124719777D01*
X162611169Y-124849000D01*
X163295549Y-125000533D01*
X164019841Y-125081285D01*
X164732506Y-125089883D01*
X165382002Y-125024957D01*
X165777334Y-124933228D01*
X166722366Y-124560627D01*
X167614061Y-124038683D01*
X168462928Y-123360555D01*
X168985963Y-122844211D01*
X169511734Y-122254055D01*
X169939835Y-121694129D01*
X170313931Y-121101402D01*
X170677690Y-120412842D01*
X170695639Y-120376300D01*
X170863486Y-120034211D01*
X171008093Y-119740566D01*
X171110266Y-119534284D01*
X171145251Y-119464667D01*
X171227506Y-119263009D01*
X171337099Y-118936725D01*
X171462520Y-118526007D01*
X171592260Y-118071045D01*
X171714809Y-117612031D01*
X171818657Y-117189156D01*
X171884757Y-116882334D01*
X171957857Y-116373609D01*
X172007230Y-115754123D01*
X172032905Y-115068731D01*
X172034910Y-114362288D01*
X172013275Y-113679651D01*
X171968026Y-113065676D01*
X171899194Y-112565218D01*
X171881946Y-112479667D01*
X171578343Y-111313055D01*
X171199996Y-110285934D01*
X170739003Y-109382211D01*
X170187459Y-108585793D01*
X169702468Y-108041981D01*
X169005976Y-107436360D01*
X168270768Y-106992478D01*
X167483616Y-106704670D01*
X166631294Y-106567270D01*
X166226067Y-106553000D01*
X165788776Y-106559843D01*
X165497610Y-106588964D01*
X165329622Y-106653250D01*
X165261864Y-106765589D01*
X165271388Y-106938869D01*
X165303017Y-107071397D01*
X165373884Y-107424613D01*
X165436331Y-107905464D01*
X165487583Y-108472346D01*
X165524862Y-109083656D01*
X165545391Y-109697790D01*
X165546394Y-110273143D01*
X165536840Y-110574667D01*
X165384471Y-112140725D01*
X165078115Y-113638556D01*
X164615507Y-115075125D01*
X163994387Y-116457395D01*
X163212489Y-117792330D01*
X163170434Y-117856000D01*
X162905076Y-118242333D01*
X162625257Y-118627130D01*
X162347965Y-118989707D01*
X162090187Y-119309381D01*
X161868913Y-119565470D01*
X161701129Y-119737289D01*
X161603824Y-119804157D01*
X161586334Y-119784658D01*
X161617988Y-119689091D01*
X161700059Y-119487214D01*
X161789733Y-119279816D01*
X162286435Y-117978924D01*
X162677988Y-116575691D01*
X162959547Y-115104205D01*
X163126265Y-113598557D01*
X163173296Y-112092834D01*
X163095794Y-110621126D01*
X163063371Y-110320667D01*
X162865235Y-108967444D01*
X162600198Y-107734538D01*
X162257263Y-106582426D01*
X161825436Y-105471586D01*
X161544007Y-104859667D01*
X160880502Y-103642194D01*
X160130972Y-102545554D01*
X159303319Y-101576915D01*
X158405447Y-100743439D01*
X157445260Y-100052293D01*
X156430661Y-99510641D01*
X155369554Y-99125648D01*
X155156714Y-99069143D01*
X154442176Y-98941473D01*
X153655330Y-98886603D01*
X152860787Y-98904598D01*
X152123155Y-98995525D01*
X151805975Y-99065698D01*
X151488052Y-99151516D01*
X151235230Y-99224502D01*
X151090903Y-99271978D01*
X151075797Y-99279003D01*
X151083436Y-99366199D01*
X151155560Y-99568006D01*
X151278524Y-99848805D01*
X151355597Y-100009297D01*
X152082823Y-101665248D01*
X152669792Y-103394975D01*
X153109764Y-105171740D01*
X153396001Y-106968801D01*
X153516722Y-108585000D01*
X153509824Y-110127446D01*
X153379397Y-111569408D01*
X153121414Y-112930372D01*
X152731851Y-114229821D01*
X152206680Y-115487242D01*
X152008385Y-115885748D01*
X151789603Y-116291103D01*
X151553966Y-116698184D01*
X151321015Y-117076236D01*
X151110291Y-117394505D01*
X150941336Y-117622234D01*
X150839520Y-117725383D01*
X150802909Y-117693889D01*
X150832363Y-117526809D01*
X150840569Y-117497800D01*
X151128493Y-116277382D01*
X151319250Y-114941514D01*
X151413405Y-113513028D01*
X151411522Y-112014758D01*
X151314165Y-110469537D01*
X151121898Y-108900198D01*
X150835285Y-107329576D01*
X150560714Y-106172000D01*
X150468697Y-105817668D01*
X150383610Y-105485420D01*
X150323058Y-105244033D01*
X150320606Y-105234010D01*
X150129893Y-104566251D01*
X149863231Y-103794979D01*
X149537208Y-102958492D01*
X149168415Y-102095089D01*
X148773443Y-101243066D01*
X148368881Y-100440721D01*
X147971320Y-99726352D01*
X147842303Y-99512914D01*
X147000673Y-98274626D01*
X146079723Y-97143487D01*
X145091926Y-96130428D01*
X144049755Y-95246380D01*
X142965683Y-94502272D01*
X141852182Y-93909036D01*
X141097000Y-93601813D01*
X140448631Y-93401117D01*
X139747329Y-93235456D01*
X139053673Y-93116437D01*
X138428245Y-93055667D01*
X138218334Y-93050261D01*
X137442865Y-93101708D01*
D11*
X143606250Y-119418750D02*
X143606250Y-119668750D01*
X143606250Y-119668750D02*
X137606250Y-119668750D01*
X137606250Y-119668750D02*
X137606250Y-119418750D01*
X137606250Y-116418750D02*
X137606250Y-116168750D01*
X137606250Y-116168750D02*
X143606250Y-116168750D01*
X143606250Y-116168750D02*
X143606250Y-116418750D01*
X142185630Y-118371130D02*
X142518964Y-117894940D01*
X142757059Y-118371130D02*
X142757059Y-117371130D01*
X142376107Y-117371130D01*
X142280869Y-117418750D01*
X142233250Y-117466369D01*
X142185630Y-117561607D01*
X142185630Y-117704464D01*
X142233250Y-117799702D01*
X142280869Y-117847321D01*
X142376107Y-117894940D01*
X142757059Y-117894940D01*
X141757059Y-117847321D02*
X141423726Y-117847321D01*
X141280869Y-118371130D02*
X141757059Y-118371130D01*
X141757059Y-117371130D01*
X141280869Y-117371130D01*
X140899916Y-118323511D02*
X140757059Y-118371130D01*
X140518964Y-118371130D01*
X140423726Y-118323511D01*
X140376107Y-118275892D01*
X140328488Y-118180654D01*
X140328488Y-118085416D01*
X140376107Y-117990178D01*
X140423726Y-117942559D01*
X140518964Y-117894940D01*
X140709440Y-117847321D01*
X140804678Y-117799702D01*
X140852297Y-117752083D01*
X140899916Y-117656845D01*
X140899916Y-117561607D01*
X140852297Y-117466369D01*
X140804678Y-117418750D01*
X140709440Y-117371130D01*
X140471345Y-117371130D01*
X140328488Y-117418750D01*
X139899916Y-117847321D02*
X139566583Y-117847321D01*
X139423726Y-118371130D02*
X139899916Y-118371130D01*
X139899916Y-117371130D01*
X139423726Y-117371130D01*
X139138011Y-117371130D02*
X138566583Y-117371130D01*
X138852297Y-118371130D02*
X138852297Y-117371130D01*
%LPC*%
D12*
X183356250Y-92868750D03*
D13*
X178276250Y-92868750D03*
X188436250Y-92868750D03*
D14*
X185896250Y-87788750D03*
X179546250Y-90328750D03*
X160496250Y-90328750D03*
X166846250Y-87788750D03*
D13*
X169386250Y-92868750D03*
X159226250Y-92868750D03*
D12*
X164306250Y-92868750D03*
X164306250Y-111918750D03*
D13*
X159226250Y-111918750D03*
X169386250Y-111918750D03*
D14*
X166846250Y-106838750D03*
X160496250Y-109378750D03*
X179546250Y-109378750D03*
X185896250Y-106838750D03*
D13*
X188436250Y-111918750D03*
X178276250Y-111918750D03*
D12*
X183356250Y-111918750D03*
D14*
X198596250Y-90328750D03*
X204946250Y-87788750D03*
D13*
X207486250Y-92868750D03*
X197326250Y-92868750D03*
D12*
X202406250Y-92868750D03*
X202406250Y-111918750D03*
D13*
X197326250Y-111918750D03*
X207486250Y-111918750D03*
D14*
X204946250Y-106838750D03*
X198596250Y-109378750D03*
D15*
X148017650Y-80540750D03*
X148017650Y-83080750D03*
X148017650Y-85620750D03*
X148017650Y-88160750D03*
X148017650Y-90700750D03*
X148017650Y-93240750D03*
X148017650Y-95780750D03*
X148017650Y-98320750D03*
X148017650Y-100860750D03*
X148017650Y-103400750D03*
X148017650Y-105940750D03*
X148017650Y-108480750D03*
X132797650Y-108480750D03*
X132797650Y-105940750D03*
X132797650Y-103400750D03*
X132797650Y-100860750D03*
X132797650Y-98320750D03*
X132797650Y-95780750D03*
X132797650Y-93240750D03*
X132797650Y-90700750D03*
X132797650Y-88160750D03*
X132797650Y-85620750D03*
X132797650Y-83080750D03*
X132797650Y-80540750D03*
D16*
X143856250Y-117918750D03*
X137356250Y-117918750D03*
M02*
