G04 #@! TF.GenerationSoftware,KiCad,Pcbnew,(5.1.10)-1*
G04 #@! TF.CreationDate,2021-05-16T22:15:22-07:00*
G04 #@! TF.ProjectId,mkbd-guide,6d6b6264-2d67-4756-9964-652e6b696361,rev?*
G04 #@! TF.SameCoordinates,Original*
G04 #@! TF.FileFunction,Soldermask,Top*
G04 #@! TF.FilePolarity,Negative*
%FSLAX46Y46*%
G04 Gerber Fmt 4.6, Leading zero omitted, Abs format (unit mm)*
G04 Created by KiCad (PCBNEW (5.1.10)-1) date 2021-05-16 22:15:22*
%MOMM*%
%LPD*%
G01*
G04 APERTURE LIST*
%ADD10C,0.200000*%
%ADD11C,4.000000*%
%ADD12C,1.900000*%
%ADD13C,2.000000*%
G04 APERTURE END LIST*
D10*
X177111666Y-124531380D02*
X177111666Y-123531380D01*
X177445000Y-124245666D01*
X177778333Y-123531380D01*
X177778333Y-124531380D01*
X178159285Y-123864714D02*
X178397380Y-124531380D01*
X178635476Y-123864714D02*
X178397380Y-124531380D01*
X178302142Y-124769476D01*
X178254523Y-124817095D01*
X178159285Y-124864714D01*
X180206904Y-124531380D02*
X180206904Y-124007571D01*
X180159285Y-123912333D01*
X180064047Y-123864714D01*
X179873571Y-123864714D01*
X179778333Y-123912333D01*
X180206904Y-124483761D02*
X180111666Y-124531380D01*
X179873571Y-124531380D01*
X179778333Y-124483761D01*
X179730714Y-124388523D01*
X179730714Y-124293285D01*
X179778333Y-124198047D01*
X179873571Y-124150428D01*
X180111666Y-124150428D01*
X180206904Y-124102809D01*
X180540238Y-123864714D02*
X180921190Y-123864714D01*
X180683095Y-123531380D02*
X180683095Y-124388523D01*
X180730714Y-124483761D01*
X180825952Y-124531380D01*
X180921190Y-124531380D01*
X181111666Y-123864714D02*
X181492619Y-123864714D01*
X181254523Y-123531380D02*
X181254523Y-124388523D01*
X181302142Y-124483761D01*
X181397380Y-124531380D01*
X181492619Y-124531380D01*
X182206904Y-124483761D02*
X182111666Y-124531380D01*
X181921190Y-124531380D01*
X181825952Y-124483761D01*
X181778333Y-124388523D01*
X181778333Y-124007571D01*
X181825952Y-123912333D01*
X181921190Y-123864714D01*
X182111666Y-123864714D01*
X182206904Y-123912333D01*
X182254523Y-124007571D01*
X182254523Y-124102809D01*
X181778333Y-124198047D01*
X182683095Y-124531380D02*
X182683095Y-123864714D01*
X182683095Y-123959952D02*
X182730714Y-123912333D01*
X182825952Y-123864714D01*
X182968809Y-123864714D01*
X183064047Y-123912333D01*
X183111666Y-124007571D01*
X183111666Y-124531380D01*
X183111666Y-124007571D02*
X183159285Y-123912333D01*
X183254523Y-123864714D01*
X183397380Y-123864714D01*
X183492619Y-123912333D01*
X183540238Y-124007571D01*
X183540238Y-124531380D01*
X184016428Y-123864714D02*
X184016428Y-124864714D01*
X184016428Y-123912333D02*
X184111666Y-123864714D01*
X184302142Y-123864714D01*
X184397380Y-123912333D01*
X184445000Y-123959952D01*
X184492619Y-124055190D01*
X184492619Y-124340904D01*
X184445000Y-124436142D01*
X184397380Y-124483761D01*
X184302142Y-124531380D01*
X184111666Y-124531380D01*
X184016428Y-124483761D01*
X184778333Y-123864714D02*
X185159285Y-123864714D01*
X184921190Y-123531380D02*
X184921190Y-124388523D01*
X184968809Y-124483761D01*
X185064047Y-124531380D01*
X185159285Y-124531380D01*
X186683095Y-124531380D02*
X186683095Y-124007571D01*
X186635476Y-123912333D01*
X186540238Y-123864714D01*
X186349761Y-123864714D01*
X186254523Y-123912333D01*
X186683095Y-124483761D02*
X186587857Y-124531380D01*
X186349761Y-124531380D01*
X186254523Y-124483761D01*
X186206904Y-124388523D01*
X186206904Y-124293285D01*
X186254523Y-124198047D01*
X186349761Y-124150428D01*
X186587857Y-124150428D01*
X186683095Y-124102809D01*
X187016428Y-123864714D02*
X187397380Y-123864714D01*
X187159285Y-123531380D02*
X187159285Y-124388523D01*
X187206904Y-124483761D01*
X187302142Y-124531380D01*
X187397380Y-124531380D01*
X188492619Y-124531380D02*
X188492619Y-123864714D01*
X188492619Y-123959952D02*
X188540238Y-123912333D01*
X188635476Y-123864714D01*
X188778333Y-123864714D01*
X188873571Y-123912333D01*
X188921190Y-124007571D01*
X188921190Y-124531380D01*
X188921190Y-124007571D02*
X188968809Y-123912333D01*
X189064047Y-123864714D01*
X189206904Y-123864714D01*
X189302142Y-123912333D01*
X189349761Y-124007571D01*
X189349761Y-124531380D01*
X189825952Y-124531380D02*
X189825952Y-123531380D01*
X189921190Y-124150428D02*
X190206904Y-124531380D01*
X190206904Y-123864714D02*
X189825952Y-124245666D01*
X190635476Y-124531380D02*
X190635476Y-123531380D01*
X190635476Y-123912333D02*
X190730714Y-123864714D01*
X190921190Y-123864714D01*
X191016428Y-123912333D01*
X191064047Y-123959952D01*
X191111666Y-124055190D01*
X191111666Y-124340904D01*
X191064047Y-124436142D01*
X191016428Y-124483761D01*
X190921190Y-124531380D01*
X190730714Y-124531380D01*
X190635476Y-124483761D01*
X191968809Y-124531380D02*
X191968809Y-123531380D01*
X191968809Y-124483761D02*
X191873571Y-124531380D01*
X191683095Y-124531380D01*
X191587857Y-124483761D01*
X191540238Y-124436142D01*
X191492619Y-124340904D01*
X191492619Y-124055190D01*
X191540238Y-123959952D01*
X191587857Y-123912333D01*
X191683095Y-123864714D01*
X191873571Y-123864714D01*
X191968809Y-123912333D01*
X192445000Y-124150428D02*
X193206904Y-124150428D01*
X194111666Y-123864714D02*
X194111666Y-124674238D01*
X194064047Y-124769476D01*
X194016428Y-124817095D01*
X193921190Y-124864714D01*
X193778333Y-124864714D01*
X193683095Y-124817095D01*
X194111666Y-124483761D02*
X194016428Y-124531380D01*
X193825952Y-124531380D01*
X193730714Y-124483761D01*
X193683095Y-124436142D01*
X193635476Y-124340904D01*
X193635476Y-124055190D01*
X193683095Y-123959952D01*
X193730714Y-123912333D01*
X193825952Y-123864714D01*
X194016428Y-123864714D01*
X194111666Y-123912333D01*
X195016428Y-123864714D02*
X195016428Y-124531380D01*
X194587857Y-123864714D02*
X194587857Y-124388523D01*
X194635476Y-124483761D01*
X194730714Y-124531380D01*
X194873571Y-124531380D01*
X194968809Y-124483761D01*
X195016428Y-124436142D01*
X195492619Y-124531380D02*
X195492619Y-123864714D01*
X195492619Y-123531380D02*
X195445000Y-123579000D01*
X195492619Y-123626619D01*
X195540238Y-123579000D01*
X195492619Y-123531380D01*
X195492619Y-123626619D01*
X196397380Y-124531380D02*
X196397380Y-123531380D01*
X196397380Y-124483761D02*
X196302142Y-124531380D01*
X196111666Y-124531380D01*
X196016428Y-124483761D01*
X195968809Y-124436142D01*
X195921190Y-124340904D01*
X195921190Y-124055190D01*
X195968809Y-123959952D01*
X196016428Y-123912333D01*
X196111666Y-123864714D01*
X196302142Y-123864714D01*
X196397380Y-123912333D01*
X197254523Y-124483761D02*
X197159285Y-124531380D01*
X196968809Y-124531380D01*
X196873571Y-124483761D01*
X196825952Y-124388523D01*
X196825952Y-124007571D01*
X196873571Y-123912333D01*
X196968809Y-123864714D01*
X197159285Y-123864714D01*
X197254523Y-123912333D01*
X197302142Y-124007571D01*
X197302142Y-124102809D01*
X196825952Y-124198047D01*
X198492619Y-124150428D02*
X199254523Y-124150428D01*
X200921190Y-123864714D02*
X200921190Y-124531380D01*
X200492619Y-123864714D02*
X200492619Y-124388523D01*
X200540238Y-124483761D01*
X200635476Y-124531380D01*
X200778333Y-124531380D01*
X200873571Y-124483761D01*
X200921190Y-124436142D01*
X202111666Y-123483761D02*
X201254523Y-124769476D01*
X202302142Y-123864714D02*
X202683095Y-123864714D01*
X202445000Y-123531380D02*
X202445000Y-124388523D01*
X202492619Y-124483761D01*
X202587857Y-124531380D01*
X202683095Y-124531380D01*
X203016428Y-124531380D02*
X203016428Y-123531380D01*
X203445000Y-124531380D02*
X203445000Y-124007571D01*
X203397380Y-123912333D01*
X203302142Y-123864714D01*
X203159285Y-123864714D01*
X203064047Y-123912333D01*
X203016428Y-123959952D01*
X204064047Y-124531380D02*
X203968809Y-124483761D01*
X203921190Y-124436142D01*
X203873571Y-124340904D01*
X203873571Y-124055190D01*
X203921190Y-123959952D01*
X203968809Y-123912333D01*
X204064047Y-123864714D01*
X204206904Y-123864714D01*
X204302142Y-123912333D01*
X204349761Y-123959952D01*
X204397380Y-124055190D01*
X204397380Y-124340904D01*
X204349761Y-124436142D01*
X204302142Y-124483761D01*
X204206904Y-124531380D01*
X204064047Y-124531380D01*
X204825952Y-124531380D02*
X204825952Y-123864714D01*
X204825952Y-123959952D02*
X204873571Y-123912333D01*
X204968809Y-123864714D01*
X205111666Y-123864714D01*
X205206904Y-123912333D01*
X205254523Y-124007571D01*
X205254523Y-124531380D01*
X205254523Y-124007571D02*
X205302142Y-123912333D01*
X205397380Y-123864714D01*
X205540238Y-123864714D01*
X205635476Y-123912333D01*
X205683095Y-124007571D01*
X205683095Y-124531380D01*
X206587857Y-124531380D02*
X206587857Y-124007571D01*
X206540238Y-123912333D01*
X206445000Y-123864714D01*
X206254523Y-123864714D01*
X206159285Y-123912333D01*
X206587857Y-124483761D02*
X206492619Y-124531380D01*
X206254523Y-124531380D01*
X206159285Y-124483761D01*
X206111666Y-124388523D01*
X206111666Y-124293285D01*
X206159285Y-124198047D01*
X206254523Y-124150428D01*
X206492619Y-124150428D01*
X206587857Y-124102809D01*
X207016428Y-124483761D02*
X207111666Y-124531380D01*
X207302142Y-124531380D01*
X207397380Y-124483761D01*
X207445000Y-124388523D01*
X207445000Y-124340904D01*
X207397380Y-124245666D01*
X207302142Y-124198047D01*
X207159285Y-124198047D01*
X207064047Y-124150428D01*
X207016428Y-124055190D01*
X207016428Y-124007571D01*
X207064047Y-123912333D01*
X207159285Y-123864714D01*
X207302142Y-123864714D01*
X207397380Y-123912333D01*
X207730714Y-123864714D02*
X208111666Y-123864714D01*
X207873571Y-123531380D02*
X207873571Y-124388523D01*
X207921190Y-124483761D01*
X208016428Y-124531380D01*
X208111666Y-124531380D01*
X208445000Y-124531380D02*
X208445000Y-123864714D01*
X208445000Y-124055190D02*
X208492619Y-123959952D01*
X208540238Y-123912333D01*
X208635476Y-123864714D01*
X208730714Y-123864714D01*
X209492619Y-124531380D02*
X209492619Y-124007571D01*
X209445000Y-123912333D01*
X209349761Y-123864714D01*
X209159285Y-123864714D01*
X209064047Y-123912333D01*
X209492619Y-124483761D02*
X209397380Y-124531380D01*
X209159285Y-124531380D01*
X209064047Y-124483761D01*
X209016428Y-124388523D01*
X209016428Y-124293285D01*
X209064047Y-124198047D01*
X209159285Y-124150428D01*
X209397380Y-124150428D01*
X209492619Y-124102809D01*
X209968809Y-124531380D02*
X209968809Y-123864714D01*
X209968809Y-123531380D02*
X209921190Y-123579000D01*
X209968809Y-123626619D01*
X210016428Y-123579000D01*
X209968809Y-123531380D01*
X209968809Y-123626619D01*
X210445000Y-123864714D02*
X210445000Y-124531380D01*
X210445000Y-123959952D02*
X210492619Y-123912333D01*
X210587857Y-123864714D01*
X210730714Y-123864714D01*
X210825952Y-123912333D01*
X210873571Y-124007571D01*
X210873571Y-124531380D01*
X211540238Y-123531380D02*
X211635476Y-123531380D01*
X211730714Y-123579000D01*
X211778333Y-123626619D01*
X211825952Y-123721857D01*
X211873571Y-123912333D01*
X211873571Y-124150428D01*
X211825952Y-124340904D01*
X211778333Y-124436142D01*
X211730714Y-124483761D01*
X211635476Y-124531380D01*
X211540238Y-124531380D01*
X211445000Y-124483761D01*
X211397380Y-124436142D01*
X211349761Y-124340904D01*
X211302142Y-124150428D01*
X211302142Y-123912333D01*
X211349761Y-123721857D01*
X211397380Y-123626619D01*
X211445000Y-123579000D01*
X211540238Y-123531380D01*
X212492619Y-123531380D02*
X212587857Y-123531380D01*
X212683095Y-123579000D01*
X212730714Y-123626619D01*
X212778333Y-123721857D01*
X212825952Y-123912333D01*
X212825952Y-124150428D01*
X212778333Y-124340904D01*
X212730714Y-124436142D01*
X212683095Y-124483761D01*
X212587857Y-124531380D01*
X212492619Y-124531380D01*
X212397380Y-124483761D01*
X212349761Y-124436142D01*
X212302142Y-124340904D01*
X212254523Y-124150428D01*
X212254523Y-123912333D01*
X212302142Y-123721857D01*
X212349761Y-123626619D01*
X212397380Y-123579000D01*
X212492619Y-123531380D01*
D11*
X183356250Y-92868750D03*
D12*
X178276250Y-92868750D03*
X188436250Y-92868750D03*
X169386250Y-92868750D03*
X159226250Y-92868750D03*
D11*
X164306250Y-92868750D03*
X164306250Y-111918750D03*
D12*
X159226250Y-111918750D03*
X169386250Y-111918750D03*
X188436250Y-111918750D03*
X178276250Y-111918750D03*
D11*
X183356250Y-111918750D03*
D12*
X207486250Y-92868750D03*
X197326250Y-92868750D03*
D11*
X202406250Y-92868750D03*
X202406250Y-111918750D03*
D12*
X197326250Y-111918750D03*
X207486250Y-111918750D03*
D13*
X143856250Y-117918750D03*
X137356250Y-117918750D03*
M02*
