G04 #@! TF.GenerationSoftware,KiCad,Pcbnew,(5.1.10)-1*
G04 #@! TF.CreationDate,2021-05-16T22:15:22-07:00*
G04 #@! TF.ProjectId,mkbd-guide,6d6b6264-2d67-4756-9964-652e6b696361,rev?*
G04 #@! TF.SameCoordinates,Original*
G04 #@! TF.FileFunction,Soldermask,Bot*
G04 #@! TF.FilePolarity,Negative*
%FSLAX46Y46*%
G04 Gerber Fmt 4.6, Leading zero omitted, Abs format (unit mm)*
G04 Created by KiCad (PCBNEW (5.1.10)-1) date 2021-05-16 22:15:22*
%MOMM*%
%LPD*%
G01*
G04 APERTURE LIST*
%ADD10C,4.000000*%
%ADD11C,1.900000*%
%ADD12O,2.500000X2.000000*%
%ADD13C,1.524000*%
%ADD14C,2.000000*%
G04 APERTURE END LIST*
D10*
X183356250Y-92868750D03*
D11*
X178276250Y-92868750D03*
X188436250Y-92868750D03*
D12*
X185896250Y-87788750D03*
X179546250Y-90328750D03*
X160496250Y-90328750D03*
X166846250Y-87788750D03*
D11*
X169386250Y-92868750D03*
X159226250Y-92868750D03*
D10*
X164306250Y-92868750D03*
X164306250Y-111918750D03*
D11*
X159226250Y-111918750D03*
X169386250Y-111918750D03*
D12*
X166846250Y-106838750D03*
X160496250Y-109378750D03*
X179546250Y-109378750D03*
X185896250Y-106838750D03*
D11*
X188436250Y-111918750D03*
X178276250Y-111918750D03*
D10*
X183356250Y-111918750D03*
D12*
X198596250Y-90328750D03*
X204946250Y-87788750D03*
D11*
X207486250Y-92868750D03*
X197326250Y-92868750D03*
D10*
X202406250Y-92868750D03*
X202406250Y-111918750D03*
D11*
X197326250Y-111918750D03*
X207486250Y-111918750D03*
D12*
X204946250Y-106838750D03*
X198596250Y-109378750D03*
D13*
X148017650Y-80540750D03*
X148017650Y-83080750D03*
X148017650Y-85620750D03*
X148017650Y-88160750D03*
X148017650Y-90700750D03*
X148017650Y-93240750D03*
X148017650Y-95780750D03*
X148017650Y-98320750D03*
X148017650Y-100860750D03*
X148017650Y-103400750D03*
X148017650Y-105940750D03*
X148017650Y-108480750D03*
X132797650Y-108480750D03*
X132797650Y-105940750D03*
X132797650Y-103400750D03*
X132797650Y-100860750D03*
X132797650Y-98320750D03*
X132797650Y-95780750D03*
X132797650Y-93240750D03*
X132797650Y-90700750D03*
X132797650Y-88160750D03*
X132797650Y-85620750D03*
X132797650Y-83080750D03*
X132797650Y-80540750D03*
D14*
X143856250Y-117918750D03*
X137356250Y-117918750D03*
M02*
