G04 #@! TF.GenerationSoftware,KiCad,Pcbnew,(5.1.10)-1*
G04 #@! TF.CreationDate,2021-05-18T23:44:27-07:00*
G04 #@! TF.ProjectId,mkbd-guide,6d6b6264-2d67-4756-9964-652e6b696361,rev?*
G04 #@! TF.SameCoordinates,Original*
G04 #@! TF.FileFunction,Copper,L1,Top*
G04 #@! TF.FilePolarity,Positive*
%FSLAX46Y46*%
G04 Gerber Fmt 4.6, Leading zero omitted, Abs format (unit mm)*
G04 Created by KiCad (PCBNEW (5.1.10)-1) date 2021-05-18 23:44:27*
%MOMM*%
%LPD*%
G01*
G04 APERTURE LIST*
G04 #@! TA.AperFunction,ComponentPad*
%ADD10O,2.500000X2.000000*%
G04 #@! TD*
G04 #@! TA.AperFunction,ComponentPad*
%ADD11C,1.524000*%
G04 #@! TD*
G04 #@! TA.AperFunction,ComponentPad*
%ADD12C,2.000000*%
G04 #@! TD*
G04 #@! TA.AperFunction,Conductor*
%ADD13C,0.250000*%
G04 #@! TD*
G04 #@! TA.AperFunction,Conductor*
%ADD14C,0.254000*%
G04 #@! TD*
G04 #@! TA.AperFunction,Conductor*
%ADD15C,0.100000*%
G04 #@! TD*
G04 APERTURE END LIST*
D10*
X185896250Y-87788750D03*
X179546250Y-90328750D03*
X160496250Y-90328750D03*
X166846250Y-87788750D03*
X166846250Y-106838750D03*
X160496250Y-109378750D03*
X179546250Y-109378750D03*
X185896250Y-106838750D03*
X198596250Y-90328750D03*
X204946250Y-87788750D03*
X204946250Y-106838750D03*
X198596250Y-109378750D03*
D11*
X148017650Y-80540750D03*
X148017650Y-83080750D03*
X148017650Y-85620750D03*
X148017650Y-88160750D03*
X148017650Y-90700750D03*
X148017650Y-93240750D03*
X148017650Y-95780750D03*
X148017650Y-98320750D03*
X148017650Y-100860750D03*
X148017650Y-103400750D03*
X148017650Y-105940750D03*
X148017650Y-108480750D03*
X132797650Y-108480750D03*
X132797650Y-105940750D03*
X132797650Y-103400750D03*
X132797650Y-100860750D03*
X132797650Y-98320750D03*
X132797650Y-95780750D03*
X132797650Y-93240750D03*
X132797650Y-90700750D03*
X132797650Y-88160750D03*
X132797650Y-85620750D03*
X132797650Y-83080750D03*
X132797650Y-80540750D03*
D12*
X143856250Y-117918750D03*
X137356250Y-117918750D03*
D13*
X137356250Y-90179350D02*
X132797650Y-85620750D01*
X137356250Y-117918750D02*
X137356250Y-90179350D01*
X150306250Y-100618750D02*
X150306250Y-98069350D01*
X151706250Y-102018750D02*
X150306250Y-100618750D01*
X160096252Y-102018750D02*
X151706250Y-102018750D01*
X160501251Y-101613751D02*
X160096252Y-102018750D01*
X160501251Y-90333751D02*
X160501251Y-101613751D01*
X150306250Y-98069350D02*
X148017650Y-95780750D01*
X160496250Y-90328750D02*
X160501251Y-90333751D01*
X149706250Y-99518750D02*
X148508250Y-98320750D01*
X148508250Y-98320750D02*
X148017650Y-98320750D01*
X149706250Y-100818750D02*
X149706250Y-99518750D01*
X178756240Y-102468760D02*
X151356260Y-102468760D01*
X179551251Y-101673749D02*
X178756240Y-102468760D01*
X179551251Y-92256749D02*
X179551251Y-101673749D01*
X179546250Y-92251748D02*
X179551251Y-92256749D01*
X151356260Y-102468760D02*
X149706250Y-100818750D01*
X179546250Y-90328750D02*
X179546250Y-92251748D01*
X148948250Y-100860750D02*
X148017650Y-100860750D01*
X151006270Y-102918770D02*
X148948250Y-100860750D01*
X197906230Y-102918770D02*
X151006270Y-102918770D01*
X198601251Y-102223749D02*
X197906230Y-102918770D01*
X198601251Y-90333751D02*
X198601251Y-102223749D01*
X198596250Y-90328750D02*
X198601251Y-90333751D01*
X149506250Y-106618750D02*
X148017650Y-108107350D01*
X149506250Y-105218750D02*
X149506250Y-106618750D01*
X148017650Y-108107350D02*
X148017650Y-108480750D01*
X150106250Y-104618750D02*
X149506250Y-105218750D01*
X159806250Y-104618750D02*
X150106250Y-104618750D01*
X160496250Y-105308750D02*
X159806250Y-104618750D01*
X160496250Y-109378750D02*
X160496250Y-105308750D01*
X149939650Y-104018750D02*
X148017650Y-105940750D01*
X179006250Y-104018750D02*
X149939650Y-104018750D01*
X179546250Y-104558750D02*
X179006250Y-104018750D01*
X179546250Y-109378750D02*
X179546250Y-104558750D01*
X197888250Y-103400750D02*
X148017650Y-103400750D01*
X198596250Y-104108750D02*
X197888250Y-103400750D01*
X198596250Y-109378750D02*
X198596250Y-104108750D01*
D14*
X214660143Y-74526420D02*
X215096748Y-74658239D01*
X215499435Y-74872350D01*
X215852862Y-75160598D01*
X216143577Y-75512011D01*
X216360492Y-75913189D01*
X216495356Y-76348863D01*
X216546250Y-76833094D01*
X216546251Y-125786461D01*
X216498580Y-126272644D01*
X216366762Y-126709247D01*
X216152649Y-127111936D01*
X215864400Y-127465363D01*
X215512989Y-127756077D01*
X215111814Y-127972990D01*
X214676136Y-128107856D01*
X214191914Y-128158750D01*
X129238529Y-128158750D01*
X128752356Y-128111080D01*
X128315753Y-127979262D01*
X127913064Y-127765149D01*
X127559637Y-127476900D01*
X127268923Y-127125489D01*
X127052010Y-126724314D01*
X126917144Y-126288636D01*
X126866250Y-125804414D01*
X126866250Y-85483158D01*
X131400650Y-85483158D01*
X131400650Y-85758342D01*
X131454336Y-86028240D01*
X131559645Y-86282477D01*
X131712530Y-86511285D01*
X131907115Y-86705870D01*
X132135923Y-86858755D01*
X132213165Y-86890750D01*
X132135923Y-86922745D01*
X131907115Y-87075630D01*
X131712530Y-87270215D01*
X131559645Y-87499023D01*
X131454336Y-87753260D01*
X131400650Y-88023158D01*
X131400650Y-88298342D01*
X131454336Y-88568240D01*
X131559645Y-88822477D01*
X131712530Y-89051285D01*
X131907115Y-89245870D01*
X132135923Y-89398755D01*
X132213165Y-89430750D01*
X132135923Y-89462745D01*
X131907115Y-89615630D01*
X131712530Y-89810215D01*
X131559645Y-90039023D01*
X131454336Y-90293260D01*
X131400650Y-90563158D01*
X131400650Y-90838342D01*
X131454336Y-91108240D01*
X131559645Y-91362477D01*
X131712530Y-91591285D01*
X131907115Y-91785870D01*
X132135923Y-91938755D01*
X132213165Y-91970750D01*
X132135923Y-92002745D01*
X131907115Y-92155630D01*
X131712530Y-92350215D01*
X131559645Y-92579023D01*
X131454336Y-92833260D01*
X131400650Y-93103158D01*
X131400650Y-93378342D01*
X131454336Y-93648240D01*
X131559645Y-93902477D01*
X131712530Y-94131285D01*
X131907115Y-94325870D01*
X132135923Y-94478755D01*
X132213165Y-94510750D01*
X132135923Y-94542745D01*
X131907115Y-94695630D01*
X131712530Y-94890215D01*
X131559645Y-95119023D01*
X131454336Y-95373260D01*
X131400650Y-95643158D01*
X131400650Y-95918342D01*
X131454336Y-96188240D01*
X131559645Y-96442477D01*
X131712530Y-96671285D01*
X131907115Y-96865870D01*
X132135923Y-97018755D01*
X132213165Y-97050750D01*
X132135923Y-97082745D01*
X131907115Y-97235630D01*
X131712530Y-97430215D01*
X131559645Y-97659023D01*
X131454336Y-97913260D01*
X131400650Y-98183158D01*
X131400650Y-98458342D01*
X131454336Y-98728240D01*
X131559645Y-98982477D01*
X131712530Y-99211285D01*
X131907115Y-99405870D01*
X132135923Y-99558755D01*
X132213165Y-99590750D01*
X132135923Y-99622745D01*
X131907115Y-99775630D01*
X131712530Y-99970215D01*
X131559645Y-100199023D01*
X131454336Y-100453260D01*
X131400650Y-100723158D01*
X131400650Y-100998342D01*
X131454336Y-101268240D01*
X131559645Y-101522477D01*
X131712530Y-101751285D01*
X131907115Y-101945870D01*
X132135923Y-102098755D01*
X132213165Y-102130750D01*
X132135923Y-102162745D01*
X131907115Y-102315630D01*
X131712530Y-102510215D01*
X131559645Y-102739023D01*
X131454336Y-102993260D01*
X131400650Y-103263158D01*
X131400650Y-103538342D01*
X131454336Y-103808240D01*
X131559645Y-104062477D01*
X131712530Y-104291285D01*
X131907115Y-104485870D01*
X132135923Y-104638755D01*
X132213165Y-104670750D01*
X132135923Y-104702745D01*
X131907115Y-104855630D01*
X131712530Y-105050215D01*
X131559645Y-105279023D01*
X131454336Y-105533260D01*
X131400650Y-105803158D01*
X131400650Y-106078342D01*
X131454336Y-106348240D01*
X131559645Y-106602477D01*
X131712530Y-106831285D01*
X131907115Y-107025870D01*
X132135923Y-107178755D01*
X132213165Y-107210750D01*
X132135923Y-107242745D01*
X131907115Y-107395630D01*
X131712530Y-107590215D01*
X131559645Y-107819023D01*
X131454336Y-108073260D01*
X131400650Y-108343158D01*
X131400650Y-108618342D01*
X131454336Y-108888240D01*
X131559645Y-109142477D01*
X131712530Y-109371285D01*
X131907115Y-109565870D01*
X132135923Y-109718755D01*
X132390160Y-109824064D01*
X132660058Y-109877750D01*
X132935242Y-109877750D01*
X133205140Y-109824064D01*
X133459377Y-109718755D01*
X133688185Y-109565870D01*
X133882770Y-109371285D01*
X134035655Y-109142477D01*
X134140964Y-108888240D01*
X134194650Y-108618342D01*
X134194650Y-108343158D01*
X134140964Y-108073260D01*
X134035655Y-107819023D01*
X133882770Y-107590215D01*
X133688185Y-107395630D01*
X133459377Y-107242745D01*
X133382135Y-107210750D01*
X133459377Y-107178755D01*
X133688185Y-107025870D01*
X133882770Y-106831285D01*
X134035655Y-106602477D01*
X134140964Y-106348240D01*
X134194650Y-106078342D01*
X134194650Y-105803158D01*
X134140964Y-105533260D01*
X134035655Y-105279023D01*
X133882770Y-105050215D01*
X133688185Y-104855630D01*
X133459377Y-104702745D01*
X133382135Y-104670750D01*
X133459377Y-104638755D01*
X133688185Y-104485870D01*
X133882770Y-104291285D01*
X134035655Y-104062477D01*
X134140964Y-103808240D01*
X134194650Y-103538342D01*
X134194650Y-103263158D01*
X134140964Y-102993260D01*
X134035655Y-102739023D01*
X133882770Y-102510215D01*
X133688185Y-102315630D01*
X133459377Y-102162745D01*
X133382135Y-102130750D01*
X133459377Y-102098755D01*
X133688185Y-101945870D01*
X133882770Y-101751285D01*
X134035655Y-101522477D01*
X134140964Y-101268240D01*
X134194650Y-100998342D01*
X134194650Y-100723158D01*
X134140964Y-100453260D01*
X134035655Y-100199023D01*
X133882770Y-99970215D01*
X133688185Y-99775630D01*
X133459377Y-99622745D01*
X133382135Y-99590750D01*
X133459377Y-99558755D01*
X133688185Y-99405870D01*
X133882770Y-99211285D01*
X134035655Y-98982477D01*
X134140964Y-98728240D01*
X134194650Y-98458342D01*
X134194650Y-98183158D01*
X134140964Y-97913260D01*
X134035655Y-97659023D01*
X133882770Y-97430215D01*
X133688185Y-97235630D01*
X133459377Y-97082745D01*
X133382135Y-97050750D01*
X133459377Y-97018755D01*
X133688185Y-96865870D01*
X133882770Y-96671285D01*
X134035655Y-96442477D01*
X134140964Y-96188240D01*
X134194650Y-95918342D01*
X134194650Y-95643158D01*
X134140964Y-95373260D01*
X134035655Y-95119023D01*
X133882770Y-94890215D01*
X133688185Y-94695630D01*
X133459377Y-94542745D01*
X133382135Y-94510750D01*
X133459377Y-94478755D01*
X133688185Y-94325870D01*
X133882770Y-94131285D01*
X134035655Y-93902477D01*
X134140964Y-93648240D01*
X134194650Y-93378342D01*
X134194650Y-93103158D01*
X134140964Y-92833260D01*
X134035655Y-92579023D01*
X133882770Y-92350215D01*
X133688185Y-92155630D01*
X133459377Y-92002745D01*
X133382135Y-91970750D01*
X133459377Y-91938755D01*
X133688185Y-91785870D01*
X133882770Y-91591285D01*
X134035655Y-91362477D01*
X134140964Y-91108240D01*
X134194650Y-90838342D01*
X134194650Y-90563158D01*
X134140964Y-90293260D01*
X134035655Y-90039023D01*
X133882770Y-89810215D01*
X133688185Y-89615630D01*
X133459377Y-89462745D01*
X133382135Y-89430750D01*
X133459377Y-89398755D01*
X133688185Y-89245870D01*
X133882770Y-89051285D01*
X134035655Y-88822477D01*
X134140964Y-88568240D01*
X134194650Y-88298342D01*
X134194650Y-88092551D01*
X136596251Y-90494153D01*
X136596250Y-116463841D01*
X136581787Y-116469832D01*
X136313998Y-116648763D01*
X136086263Y-116876498D01*
X135907332Y-117144287D01*
X135784082Y-117441838D01*
X135721250Y-117757717D01*
X135721250Y-118079783D01*
X135784082Y-118395662D01*
X135907332Y-118693213D01*
X136086263Y-118961002D01*
X136313998Y-119188737D01*
X136581787Y-119367668D01*
X136879338Y-119490918D01*
X137195217Y-119553750D01*
X137517283Y-119553750D01*
X137833162Y-119490918D01*
X138130713Y-119367668D01*
X138398502Y-119188737D01*
X138533076Y-119054163D01*
X142900442Y-119054163D01*
X142996206Y-119318564D01*
X143285821Y-119459454D01*
X143597358Y-119541134D01*
X143918845Y-119560468D01*
X144237925Y-119516711D01*
X144542338Y-119411545D01*
X144716294Y-119318564D01*
X144812058Y-119054163D01*
X143856250Y-118098355D01*
X142900442Y-119054163D01*
X138533076Y-119054163D01*
X138626237Y-118961002D01*
X138805168Y-118693213D01*
X138928418Y-118395662D01*
X138991250Y-118079783D01*
X138991250Y-117981345D01*
X142214532Y-117981345D01*
X142258289Y-118300425D01*
X142363455Y-118604838D01*
X142456436Y-118778794D01*
X142720837Y-118874558D01*
X143676645Y-117918750D01*
X144035855Y-117918750D01*
X144991663Y-118874558D01*
X145256064Y-118778794D01*
X145396954Y-118489179D01*
X145478634Y-118177642D01*
X145497968Y-117856155D01*
X145454211Y-117537075D01*
X145349045Y-117232662D01*
X145256064Y-117058706D01*
X144991663Y-116962942D01*
X144035855Y-117918750D01*
X143676645Y-117918750D01*
X142720837Y-116962942D01*
X142456436Y-117058706D01*
X142315546Y-117348321D01*
X142233866Y-117659858D01*
X142214532Y-117981345D01*
X138991250Y-117981345D01*
X138991250Y-117757717D01*
X138928418Y-117441838D01*
X138805168Y-117144287D01*
X138626237Y-116876498D01*
X138533076Y-116783337D01*
X142900442Y-116783337D01*
X143856250Y-117739145D01*
X144812058Y-116783337D01*
X144716294Y-116518936D01*
X144426679Y-116378046D01*
X144115142Y-116296366D01*
X143793655Y-116277032D01*
X143474575Y-116320789D01*
X143170162Y-116425955D01*
X142996206Y-116518936D01*
X142900442Y-116783337D01*
X138533076Y-116783337D01*
X138398502Y-116648763D01*
X138130713Y-116469832D01*
X138116250Y-116463841D01*
X138116250Y-90563158D01*
X146620650Y-90563158D01*
X146620650Y-90838342D01*
X146674336Y-91108240D01*
X146779645Y-91362477D01*
X146932530Y-91591285D01*
X147127115Y-91785870D01*
X147355923Y-91938755D01*
X147433165Y-91970750D01*
X147355923Y-92002745D01*
X147127115Y-92155630D01*
X146932530Y-92350215D01*
X146779645Y-92579023D01*
X146674336Y-92833260D01*
X146620650Y-93103158D01*
X146620650Y-93378342D01*
X146674336Y-93648240D01*
X146779645Y-93902477D01*
X146932530Y-94131285D01*
X147127115Y-94325870D01*
X147355923Y-94478755D01*
X147433165Y-94510750D01*
X147355923Y-94542745D01*
X147127115Y-94695630D01*
X146932530Y-94890215D01*
X146779645Y-95119023D01*
X146674336Y-95373260D01*
X146620650Y-95643158D01*
X146620650Y-95918342D01*
X146674336Y-96188240D01*
X146779645Y-96442477D01*
X146932530Y-96671285D01*
X147127115Y-96865870D01*
X147355923Y-97018755D01*
X147433165Y-97050750D01*
X147355923Y-97082745D01*
X147127115Y-97235630D01*
X146932530Y-97430215D01*
X146779645Y-97659023D01*
X146674336Y-97913260D01*
X146620650Y-98183158D01*
X146620650Y-98458342D01*
X146674336Y-98728240D01*
X146779645Y-98982477D01*
X146932530Y-99211285D01*
X147127115Y-99405870D01*
X147355923Y-99558755D01*
X147433165Y-99590750D01*
X147355923Y-99622745D01*
X147127115Y-99775630D01*
X146932530Y-99970215D01*
X146779645Y-100199023D01*
X146674336Y-100453260D01*
X146620650Y-100723158D01*
X146620650Y-100998342D01*
X146674336Y-101268240D01*
X146779645Y-101522477D01*
X146932530Y-101751285D01*
X147127115Y-101945870D01*
X147355923Y-102098755D01*
X147433165Y-102130750D01*
X147355923Y-102162745D01*
X147127115Y-102315630D01*
X146932530Y-102510215D01*
X146779645Y-102739023D01*
X146674336Y-102993260D01*
X146620650Y-103263158D01*
X146620650Y-103538342D01*
X146674336Y-103808240D01*
X146779645Y-104062477D01*
X146932530Y-104291285D01*
X147127115Y-104485870D01*
X147355923Y-104638755D01*
X147433165Y-104670750D01*
X147355923Y-104702745D01*
X147127115Y-104855630D01*
X146932530Y-105050215D01*
X146779645Y-105279023D01*
X146674336Y-105533260D01*
X146620650Y-105803158D01*
X146620650Y-106078342D01*
X146674336Y-106348240D01*
X146779645Y-106602477D01*
X146932530Y-106831285D01*
X147127115Y-107025870D01*
X147355923Y-107178755D01*
X147433165Y-107210750D01*
X147355923Y-107242745D01*
X147127115Y-107395630D01*
X146932530Y-107590215D01*
X146779645Y-107819023D01*
X146674336Y-108073260D01*
X146620650Y-108343158D01*
X146620650Y-108618342D01*
X146674336Y-108888240D01*
X146779645Y-109142477D01*
X146932530Y-109371285D01*
X147127115Y-109565870D01*
X147355923Y-109718755D01*
X147610160Y-109824064D01*
X147880058Y-109877750D01*
X148155242Y-109877750D01*
X148425140Y-109824064D01*
X148679377Y-109718755D01*
X148908185Y-109565870D01*
X149102770Y-109371285D01*
X149255655Y-109142477D01*
X149360964Y-108888240D01*
X149414650Y-108618342D01*
X149414650Y-108343158D01*
X149360964Y-108073260D01*
X149292303Y-107907499D01*
X150017253Y-107182549D01*
X150046251Y-107158751D01*
X150141224Y-107043026D01*
X150211796Y-106910997D01*
X150255253Y-106767736D01*
X150266250Y-106656083D01*
X150266250Y-106656074D01*
X150269926Y-106618751D01*
X150266250Y-106581428D01*
X150266250Y-105533551D01*
X150421052Y-105378750D01*
X159491449Y-105378750D01*
X159736251Y-105623553D01*
X159736250Y-107824886D01*
X159617535Y-107860898D01*
X159333498Y-108012719D01*
X159084536Y-108217036D01*
X158880219Y-108465998D01*
X158728398Y-108750035D01*
X158634907Y-109058234D01*
X158603339Y-109378750D01*
X158634907Y-109699266D01*
X158728398Y-110007465D01*
X158880219Y-110291502D01*
X158936678Y-110360298D01*
X158763923Y-110394661D01*
X158475471Y-110514141D01*
X158215871Y-110687600D01*
X157995100Y-110908371D01*
X157821641Y-111167971D01*
X157702161Y-111456423D01*
X157641250Y-111762641D01*
X157641250Y-112074859D01*
X157702161Y-112381077D01*
X157821641Y-112669529D01*
X157995100Y-112929129D01*
X158215871Y-113149900D01*
X158475471Y-113323359D01*
X158763923Y-113442839D01*
X159070141Y-113503750D01*
X159382359Y-113503750D01*
X159688577Y-113442839D01*
X159977029Y-113323359D01*
X160236629Y-113149900D01*
X160457400Y-112929129D01*
X160630859Y-112669529D01*
X160750339Y-112381077D01*
X160811250Y-112074859D01*
X160811250Y-111762641D01*
X160790680Y-111659225D01*
X161671250Y-111659225D01*
X161671250Y-112178275D01*
X161772511Y-112687351D01*
X161971143Y-113166891D01*
X162259512Y-113598465D01*
X162626535Y-113965488D01*
X163058109Y-114253857D01*
X163537649Y-114452489D01*
X164046725Y-114553750D01*
X164565775Y-114553750D01*
X165074851Y-114452489D01*
X165554391Y-114253857D01*
X165985965Y-113965488D01*
X166352988Y-113598465D01*
X166641357Y-113166891D01*
X166839989Y-112687351D01*
X166941250Y-112178275D01*
X166941250Y-111762641D01*
X167801250Y-111762641D01*
X167801250Y-112074859D01*
X167862161Y-112381077D01*
X167981641Y-112669529D01*
X168155100Y-112929129D01*
X168375871Y-113149900D01*
X168635471Y-113323359D01*
X168923923Y-113442839D01*
X169230141Y-113503750D01*
X169542359Y-113503750D01*
X169848577Y-113442839D01*
X170137029Y-113323359D01*
X170396629Y-113149900D01*
X170617400Y-112929129D01*
X170790859Y-112669529D01*
X170910339Y-112381077D01*
X170971250Y-112074859D01*
X170971250Y-111762641D01*
X170910339Y-111456423D01*
X170790859Y-111167971D01*
X170617400Y-110908371D01*
X170396629Y-110687600D01*
X170137029Y-110514141D01*
X169848577Y-110394661D01*
X169542359Y-110333750D01*
X169230141Y-110333750D01*
X168923923Y-110394661D01*
X168635471Y-110514141D01*
X168375871Y-110687600D01*
X168155100Y-110908371D01*
X167981641Y-111167971D01*
X167862161Y-111456423D01*
X167801250Y-111762641D01*
X166941250Y-111762641D01*
X166941250Y-111659225D01*
X166839989Y-111150149D01*
X166641357Y-110670609D01*
X166352988Y-110239035D01*
X165985965Y-109872012D01*
X165554391Y-109583643D01*
X165074851Y-109385011D01*
X164565775Y-109283750D01*
X164046725Y-109283750D01*
X163537649Y-109385011D01*
X163058109Y-109583643D01*
X162626535Y-109872012D01*
X162259512Y-110239035D01*
X161971143Y-110670609D01*
X161772511Y-111150149D01*
X161671250Y-111659225D01*
X160790680Y-111659225D01*
X160750339Y-111456423D01*
X160630859Y-111167971D01*
X160527812Y-111013750D01*
X160826572Y-111013750D01*
X161066766Y-110990093D01*
X161374965Y-110896602D01*
X161659002Y-110744781D01*
X161907964Y-110540464D01*
X162112281Y-110291502D01*
X162264102Y-110007465D01*
X162357593Y-109699266D01*
X162389161Y-109378750D01*
X162357593Y-109058234D01*
X162264102Y-108750035D01*
X162112281Y-108465998D01*
X161907964Y-108217036D01*
X161659002Y-108012719D01*
X161374965Y-107860898D01*
X161256250Y-107824886D01*
X161256250Y-107219184D01*
X165006126Y-107219184D01*
X165030506Y-107341148D01*
X165158604Y-107636956D01*
X165341950Y-107902090D01*
X165573498Y-108126360D01*
X165844350Y-108301148D01*
X166144097Y-108419737D01*
X166461220Y-108477569D01*
X166719250Y-108319766D01*
X166719250Y-106965750D01*
X166973250Y-106965750D01*
X166973250Y-108319766D01*
X167231280Y-108477569D01*
X167548403Y-108419737D01*
X167848150Y-108301148D01*
X168119002Y-108126360D01*
X168350550Y-107902090D01*
X168533896Y-107636956D01*
X168661994Y-107341148D01*
X168686374Y-107219184D01*
X168567027Y-106965750D01*
X166973250Y-106965750D01*
X166719250Y-106965750D01*
X165125473Y-106965750D01*
X165006126Y-107219184D01*
X161256250Y-107219184D01*
X161256250Y-106458316D01*
X165006126Y-106458316D01*
X165125473Y-106711750D01*
X166719250Y-106711750D01*
X166719250Y-105357734D01*
X166973250Y-105357734D01*
X166973250Y-106711750D01*
X168567027Y-106711750D01*
X168686374Y-106458316D01*
X168661994Y-106336352D01*
X168533896Y-106040544D01*
X168350550Y-105775410D01*
X168119002Y-105551140D01*
X167848150Y-105376352D01*
X167548403Y-105257763D01*
X167231280Y-105199931D01*
X166973250Y-105357734D01*
X166719250Y-105357734D01*
X166461220Y-105199931D01*
X166144097Y-105257763D01*
X165844350Y-105376352D01*
X165573498Y-105551140D01*
X165341950Y-105775410D01*
X165158604Y-106040544D01*
X165030506Y-106336352D01*
X165006126Y-106458316D01*
X161256250Y-106458316D01*
X161256250Y-105346072D01*
X161259926Y-105308749D01*
X161256250Y-105271426D01*
X161256250Y-105271417D01*
X161245253Y-105159764D01*
X161201796Y-105016503D01*
X161131224Y-104884474D01*
X161044459Y-104778750D01*
X178691449Y-104778750D01*
X178786251Y-104873553D01*
X178786250Y-107824886D01*
X178667535Y-107860898D01*
X178383498Y-108012719D01*
X178134536Y-108217036D01*
X177930219Y-108465998D01*
X177778398Y-108750035D01*
X177684907Y-109058234D01*
X177653339Y-109378750D01*
X177684907Y-109699266D01*
X177778398Y-110007465D01*
X177930219Y-110291502D01*
X177986678Y-110360298D01*
X177813923Y-110394661D01*
X177525471Y-110514141D01*
X177265871Y-110687600D01*
X177045100Y-110908371D01*
X176871641Y-111167971D01*
X176752161Y-111456423D01*
X176691250Y-111762641D01*
X176691250Y-112074859D01*
X176752161Y-112381077D01*
X176871641Y-112669529D01*
X177045100Y-112929129D01*
X177265871Y-113149900D01*
X177525471Y-113323359D01*
X177813923Y-113442839D01*
X178120141Y-113503750D01*
X178432359Y-113503750D01*
X178738577Y-113442839D01*
X179027029Y-113323359D01*
X179286629Y-113149900D01*
X179507400Y-112929129D01*
X179680859Y-112669529D01*
X179800339Y-112381077D01*
X179861250Y-112074859D01*
X179861250Y-111762641D01*
X179840680Y-111659225D01*
X180721250Y-111659225D01*
X180721250Y-112178275D01*
X180822511Y-112687351D01*
X181021143Y-113166891D01*
X181309512Y-113598465D01*
X181676535Y-113965488D01*
X182108109Y-114253857D01*
X182587649Y-114452489D01*
X183096725Y-114553750D01*
X183615775Y-114553750D01*
X184124851Y-114452489D01*
X184604391Y-114253857D01*
X185035965Y-113965488D01*
X185402988Y-113598465D01*
X185691357Y-113166891D01*
X185889989Y-112687351D01*
X185991250Y-112178275D01*
X185991250Y-111762641D01*
X186851250Y-111762641D01*
X186851250Y-112074859D01*
X186912161Y-112381077D01*
X187031641Y-112669529D01*
X187205100Y-112929129D01*
X187425871Y-113149900D01*
X187685471Y-113323359D01*
X187973923Y-113442839D01*
X188280141Y-113503750D01*
X188592359Y-113503750D01*
X188898577Y-113442839D01*
X189187029Y-113323359D01*
X189446629Y-113149900D01*
X189667400Y-112929129D01*
X189840859Y-112669529D01*
X189960339Y-112381077D01*
X190021250Y-112074859D01*
X190021250Y-111762641D01*
X189960339Y-111456423D01*
X189840859Y-111167971D01*
X189667400Y-110908371D01*
X189446629Y-110687600D01*
X189187029Y-110514141D01*
X188898577Y-110394661D01*
X188592359Y-110333750D01*
X188280141Y-110333750D01*
X187973923Y-110394661D01*
X187685471Y-110514141D01*
X187425871Y-110687600D01*
X187205100Y-110908371D01*
X187031641Y-111167971D01*
X186912161Y-111456423D01*
X186851250Y-111762641D01*
X185991250Y-111762641D01*
X185991250Y-111659225D01*
X185889989Y-111150149D01*
X185691357Y-110670609D01*
X185402988Y-110239035D01*
X185035965Y-109872012D01*
X184604391Y-109583643D01*
X184124851Y-109385011D01*
X183615775Y-109283750D01*
X183096725Y-109283750D01*
X182587649Y-109385011D01*
X182108109Y-109583643D01*
X181676535Y-109872012D01*
X181309512Y-110239035D01*
X181021143Y-110670609D01*
X180822511Y-111150149D01*
X180721250Y-111659225D01*
X179840680Y-111659225D01*
X179800339Y-111456423D01*
X179680859Y-111167971D01*
X179577812Y-111013750D01*
X179876572Y-111013750D01*
X180116766Y-110990093D01*
X180424965Y-110896602D01*
X180709002Y-110744781D01*
X180957964Y-110540464D01*
X181162281Y-110291502D01*
X181314102Y-110007465D01*
X181407593Y-109699266D01*
X181439161Y-109378750D01*
X181407593Y-109058234D01*
X181314102Y-108750035D01*
X181162281Y-108465998D01*
X180957964Y-108217036D01*
X180709002Y-108012719D01*
X180424965Y-107860898D01*
X180306250Y-107824886D01*
X180306250Y-107219184D01*
X184056126Y-107219184D01*
X184080506Y-107341148D01*
X184208604Y-107636956D01*
X184391950Y-107902090D01*
X184623498Y-108126360D01*
X184894350Y-108301148D01*
X185194097Y-108419737D01*
X185511220Y-108477569D01*
X185769250Y-108319766D01*
X185769250Y-106965750D01*
X186023250Y-106965750D01*
X186023250Y-108319766D01*
X186281280Y-108477569D01*
X186598403Y-108419737D01*
X186898150Y-108301148D01*
X187169002Y-108126360D01*
X187400550Y-107902090D01*
X187583896Y-107636956D01*
X187711994Y-107341148D01*
X187736374Y-107219184D01*
X187617027Y-106965750D01*
X186023250Y-106965750D01*
X185769250Y-106965750D01*
X184175473Y-106965750D01*
X184056126Y-107219184D01*
X180306250Y-107219184D01*
X180306250Y-106458316D01*
X184056126Y-106458316D01*
X184175473Y-106711750D01*
X185769250Y-106711750D01*
X185769250Y-105357734D01*
X186023250Y-105357734D01*
X186023250Y-106711750D01*
X187617027Y-106711750D01*
X187736374Y-106458316D01*
X187711994Y-106336352D01*
X187583896Y-106040544D01*
X187400550Y-105775410D01*
X187169002Y-105551140D01*
X186898150Y-105376352D01*
X186598403Y-105257763D01*
X186281280Y-105199931D01*
X186023250Y-105357734D01*
X185769250Y-105357734D01*
X185511220Y-105199931D01*
X185194097Y-105257763D01*
X184894350Y-105376352D01*
X184623498Y-105551140D01*
X184391950Y-105775410D01*
X184208604Y-106040544D01*
X184080506Y-106336352D01*
X184056126Y-106458316D01*
X180306250Y-106458316D01*
X180306250Y-104596072D01*
X180309926Y-104558749D01*
X180306250Y-104521426D01*
X180306250Y-104521417D01*
X180295253Y-104409764D01*
X180251796Y-104266503D01*
X180195269Y-104160750D01*
X197573449Y-104160750D01*
X197836251Y-104423553D01*
X197836250Y-107824886D01*
X197717535Y-107860898D01*
X197433498Y-108012719D01*
X197184536Y-108217036D01*
X196980219Y-108465998D01*
X196828398Y-108750035D01*
X196734907Y-109058234D01*
X196703339Y-109378750D01*
X196734907Y-109699266D01*
X196828398Y-110007465D01*
X196980219Y-110291502D01*
X197036678Y-110360298D01*
X196863923Y-110394661D01*
X196575471Y-110514141D01*
X196315871Y-110687600D01*
X196095100Y-110908371D01*
X195921641Y-111167971D01*
X195802161Y-111456423D01*
X195741250Y-111762641D01*
X195741250Y-112074859D01*
X195802161Y-112381077D01*
X195921641Y-112669529D01*
X196095100Y-112929129D01*
X196315871Y-113149900D01*
X196575471Y-113323359D01*
X196863923Y-113442839D01*
X197170141Y-113503750D01*
X197482359Y-113503750D01*
X197788577Y-113442839D01*
X198077029Y-113323359D01*
X198336629Y-113149900D01*
X198557400Y-112929129D01*
X198730859Y-112669529D01*
X198850339Y-112381077D01*
X198911250Y-112074859D01*
X198911250Y-111762641D01*
X198890680Y-111659225D01*
X199771250Y-111659225D01*
X199771250Y-112178275D01*
X199872511Y-112687351D01*
X200071143Y-113166891D01*
X200359512Y-113598465D01*
X200726535Y-113965488D01*
X201158109Y-114253857D01*
X201637649Y-114452489D01*
X202146725Y-114553750D01*
X202665775Y-114553750D01*
X203174851Y-114452489D01*
X203654391Y-114253857D01*
X204085965Y-113965488D01*
X204452988Y-113598465D01*
X204741357Y-113166891D01*
X204939989Y-112687351D01*
X205041250Y-112178275D01*
X205041250Y-111762641D01*
X205901250Y-111762641D01*
X205901250Y-112074859D01*
X205962161Y-112381077D01*
X206081641Y-112669529D01*
X206255100Y-112929129D01*
X206475871Y-113149900D01*
X206735471Y-113323359D01*
X207023923Y-113442839D01*
X207330141Y-113503750D01*
X207642359Y-113503750D01*
X207948577Y-113442839D01*
X208237029Y-113323359D01*
X208496629Y-113149900D01*
X208717400Y-112929129D01*
X208890859Y-112669529D01*
X209010339Y-112381077D01*
X209071250Y-112074859D01*
X209071250Y-111762641D01*
X209010339Y-111456423D01*
X208890859Y-111167971D01*
X208717400Y-110908371D01*
X208496629Y-110687600D01*
X208237029Y-110514141D01*
X207948577Y-110394661D01*
X207642359Y-110333750D01*
X207330141Y-110333750D01*
X207023923Y-110394661D01*
X206735471Y-110514141D01*
X206475871Y-110687600D01*
X206255100Y-110908371D01*
X206081641Y-111167971D01*
X205962161Y-111456423D01*
X205901250Y-111762641D01*
X205041250Y-111762641D01*
X205041250Y-111659225D01*
X204939989Y-111150149D01*
X204741357Y-110670609D01*
X204452988Y-110239035D01*
X204085965Y-109872012D01*
X203654391Y-109583643D01*
X203174851Y-109385011D01*
X202665775Y-109283750D01*
X202146725Y-109283750D01*
X201637649Y-109385011D01*
X201158109Y-109583643D01*
X200726535Y-109872012D01*
X200359512Y-110239035D01*
X200071143Y-110670609D01*
X199872511Y-111150149D01*
X199771250Y-111659225D01*
X198890680Y-111659225D01*
X198850339Y-111456423D01*
X198730859Y-111167971D01*
X198627812Y-111013750D01*
X198926572Y-111013750D01*
X199166766Y-110990093D01*
X199474965Y-110896602D01*
X199759002Y-110744781D01*
X200007964Y-110540464D01*
X200212281Y-110291502D01*
X200364102Y-110007465D01*
X200457593Y-109699266D01*
X200489161Y-109378750D01*
X200457593Y-109058234D01*
X200364102Y-108750035D01*
X200212281Y-108465998D01*
X200007964Y-108217036D01*
X199759002Y-108012719D01*
X199474965Y-107860898D01*
X199356250Y-107824886D01*
X199356250Y-107219184D01*
X203106126Y-107219184D01*
X203130506Y-107341148D01*
X203258604Y-107636956D01*
X203441950Y-107902090D01*
X203673498Y-108126360D01*
X203944350Y-108301148D01*
X204244097Y-108419737D01*
X204561220Y-108477569D01*
X204819250Y-108319766D01*
X204819250Y-106965750D01*
X205073250Y-106965750D01*
X205073250Y-108319766D01*
X205331280Y-108477569D01*
X205648403Y-108419737D01*
X205948150Y-108301148D01*
X206219002Y-108126360D01*
X206450550Y-107902090D01*
X206633896Y-107636956D01*
X206761994Y-107341148D01*
X206786374Y-107219184D01*
X206667027Y-106965750D01*
X205073250Y-106965750D01*
X204819250Y-106965750D01*
X203225473Y-106965750D01*
X203106126Y-107219184D01*
X199356250Y-107219184D01*
X199356250Y-106458316D01*
X203106126Y-106458316D01*
X203225473Y-106711750D01*
X204819250Y-106711750D01*
X204819250Y-105357734D01*
X205073250Y-105357734D01*
X205073250Y-106711750D01*
X206667027Y-106711750D01*
X206786374Y-106458316D01*
X206761994Y-106336352D01*
X206633896Y-106040544D01*
X206450550Y-105775410D01*
X206219002Y-105551140D01*
X205948150Y-105376352D01*
X205648403Y-105257763D01*
X205331280Y-105199931D01*
X205073250Y-105357734D01*
X204819250Y-105357734D01*
X204561220Y-105199931D01*
X204244097Y-105257763D01*
X203944350Y-105376352D01*
X203673498Y-105551140D01*
X203441950Y-105775410D01*
X203258604Y-106040544D01*
X203130506Y-106336352D01*
X203106126Y-106458316D01*
X199356250Y-106458316D01*
X199356250Y-104146072D01*
X199359926Y-104108749D01*
X199356250Y-104071426D01*
X199356250Y-104071417D01*
X199345253Y-103959764D01*
X199301796Y-103816503D01*
X199231224Y-103684474D01*
X199136251Y-103568749D01*
X199107252Y-103544951D01*
X198731051Y-103168750D01*
X199112253Y-102787548D01*
X199141252Y-102763750D01*
X199173631Y-102724296D01*
X199236225Y-102648026D01*
X199306797Y-102515996D01*
X199313319Y-102494494D01*
X199350254Y-102372735D01*
X199361251Y-102261082D01*
X199361251Y-102261073D01*
X199364927Y-102223750D01*
X199361251Y-102186427D01*
X199361251Y-92609225D01*
X199771250Y-92609225D01*
X199771250Y-93128275D01*
X199872511Y-93637351D01*
X200071143Y-94116891D01*
X200359512Y-94548465D01*
X200726535Y-94915488D01*
X201158109Y-95203857D01*
X201637649Y-95402489D01*
X202146725Y-95503750D01*
X202665775Y-95503750D01*
X203174851Y-95402489D01*
X203654391Y-95203857D01*
X204085965Y-94915488D01*
X204452988Y-94548465D01*
X204741357Y-94116891D01*
X204939989Y-93637351D01*
X205041250Y-93128275D01*
X205041250Y-92712641D01*
X205901250Y-92712641D01*
X205901250Y-93024859D01*
X205962161Y-93331077D01*
X206081641Y-93619529D01*
X206255100Y-93879129D01*
X206475871Y-94099900D01*
X206735471Y-94273359D01*
X207023923Y-94392839D01*
X207330141Y-94453750D01*
X207642359Y-94453750D01*
X207948577Y-94392839D01*
X208237029Y-94273359D01*
X208496629Y-94099900D01*
X208717400Y-93879129D01*
X208890859Y-93619529D01*
X209010339Y-93331077D01*
X209071250Y-93024859D01*
X209071250Y-92712641D01*
X209010339Y-92406423D01*
X208890859Y-92117971D01*
X208717400Y-91858371D01*
X208496629Y-91637600D01*
X208237029Y-91464141D01*
X207948577Y-91344661D01*
X207642359Y-91283750D01*
X207330141Y-91283750D01*
X207023923Y-91344661D01*
X206735471Y-91464141D01*
X206475871Y-91637600D01*
X206255100Y-91858371D01*
X206081641Y-92117971D01*
X205962161Y-92406423D01*
X205901250Y-92712641D01*
X205041250Y-92712641D01*
X205041250Y-92609225D01*
X204939989Y-92100149D01*
X204741357Y-91620609D01*
X204452988Y-91189035D01*
X204085965Y-90822012D01*
X203654391Y-90533643D01*
X203174851Y-90335011D01*
X202665775Y-90233750D01*
X202146725Y-90233750D01*
X201637649Y-90335011D01*
X201158109Y-90533643D01*
X200726535Y-90822012D01*
X200359512Y-91189035D01*
X200071143Y-91620609D01*
X199872511Y-92100149D01*
X199771250Y-92609225D01*
X199361251Y-92609225D01*
X199361251Y-91881097D01*
X199474965Y-91846602D01*
X199759002Y-91694781D01*
X200007964Y-91490464D01*
X200212281Y-91241502D01*
X200364102Y-90957465D01*
X200457593Y-90649266D01*
X200489161Y-90328750D01*
X200457593Y-90008234D01*
X200364102Y-89700035D01*
X200212281Y-89415998D01*
X200007964Y-89167036D01*
X199759002Y-88962719D01*
X199474965Y-88810898D01*
X199166766Y-88717407D01*
X198926572Y-88693750D01*
X198265928Y-88693750D01*
X198025734Y-88717407D01*
X197717535Y-88810898D01*
X197433498Y-88962719D01*
X197184536Y-89167036D01*
X196980219Y-89415998D01*
X196828398Y-89700035D01*
X196734907Y-90008234D01*
X196703339Y-90328750D01*
X196734907Y-90649266D01*
X196828398Y-90957465D01*
X196980219Y-91241502D01*
X197036678Y-91310298D01*
X196863923Y-91344661D01*
X196575471Y-91464141D01*
X196315871Y-91637600D01*
X196095100Y-91858371D01*
X195921641Y-92117971D01*
X195802161Y-92406423D01*
X195741250Y-92712641D01*
X195741250Y-93024859D01*
X195802161Y-93331077D01*
X195921641Y-93619529D01*
X196095100Y-93879129D01*
X196315871Y-94099900D01*
X196575471Y-94273359D01*
X196863923Y-94392839D01*
X197170141Y-94453750D01*
X197482359Y-94453750D01*
X197788577Y-94392839D01*
X197841251Y-94371021D01*
X197841252Y-101908946D01*
X197591429Y-102158770D01*
X180136373Y-102158770D01*
X180186225Y-102098025D01*
X180256797Y-101965996D01*
X180300254Y-101822735D01*
X180311251Y-101711082D01*
X180311251Y-101711073D01*
X180314927Y-101673750D01*
X180311251Y-101636427D01*
X180311251Y-92609225D01*
X180721250Y-92609225D01*
X180721250Y-93128275D01*
X180822511Y-93637351D01*
X181021143Y-94116891D01*
X181309512Y-94548465D01*
X181676535Y-94915488D01*
X182108109Y-95203857D01*
X182587649Y-95402489D01*
X183096725Y-95503750D01*
X183615775Y-95503750D01*
X184124851Y-95402489D01*
X184604391Y-95203857D01*
X185035965Y-94915488D01*
X185402988Y-94548465D01*
X185691357Y-94116891D01*
X185889989Y-93637351D01*
X185991250Y-93128275D01*
X185991250Y-92712641D01*
X186851250Y-92712641D01*
X186851250Y-93024859D01*
X186912161Y-93331077D01*
X187031641Y-93619529D01*
X187205100Y-93879129D01*
X187425871Y-94099900D01*
X187685471Y-94273359D01*
X187973923Y-94392839D01*
X188280141Y-94453750D01*
X188592359Y-94453750D01*
X188898577Y-94392839D01*
X189187029Y-94273359D01*
X189446629Y-94099900D01*
X189667400Y-93879129D01*
X189840859Y-93619529D01*
X189960339Y-93331077D01*
X190021250Y-93024859D01*
X190021250Y-92712641D01*
X189960339Y-92406423D01*
X189840859Y-92117971D01*
X189667400Y-91858371D01*
X189446629Y-91637600D01*
X189187029Y-91464141D01*
X188898577Y-91344661D01*
X188592359Y-91283750D01*
X188280141Y-91283750D01*
X187973923Y-91344661D01*
X187685471Y-91464141D01*
X187425871Y-91637600D01*
X187205100Y-91858371D01*
X187031641Y-92117971D01*
X186912161Y-92406423D01*
X186851250Y-92712641D01*
X185991250Y-92712641D01*
X185991250Y-92609225D01*
X185889989Y-92100149D01*
X185691357Y-91620609D01*
X185402988Y-91189035D01*
X185035965Y-90822012D01*
X184604391Y-90533643D01*
X184124851Y-90335011D01*
X183615775Y-90233750D01*
X183096725Y-90233750D01*
X182587649Y-90335011D01*
X182108109Y-90533643D01*
X181676535Y-90822012D01*
X181309512Y-91189035D01*
X181021143Y-91620609D01*
X180822511Y-92100149D01*
X180721250Y-92609225D01*
X180311251Y-92609225D01*
X180311251Y-92294071D01*
X180314927Y-92256748D01*
X180311251Y-92219426D01*
X180311251Y-92219416D01*
X180306250Y-92168641D01*
X180306250Y-91882614D01*
X180424965Y-91846602D01*
X180709002Y-91694781D01*
X180957964Y-91490464D01*
X181162281Y-91241502D01*
X181314102Y-90957465D01*
X181407593Y-90649266D01*
X181439161Y-90328750D01*
X181407593Y-90008234D01*
X181314102Y-89700035D01*
X181162281Y-89415998D01*
X180957964Y-89167036D01*
X180709002Y-88962719D01*
X180424965Y-88810898D01*
X180116766Y-88717407D01*
X179876572Y-88693750D01*
X179215928Y-88693750D01*
X178975734Y-88717407D01*
X178667535Y-88810898D01*
X178383498Y-88962719D01*
X178134536Y-89167036D01*
X177930219Y-89415998D01*
X177778398Y-89700035D01*
X177684907Y-90008234D01*
X177653339Y-90328750D01*
X177684907Y-90649266D01*
X177778398Y-90957465D01*
X177930219Y-91241502D01*
X177986678Y-91310298D01*
X177813923Y-91344661D01*
X177525471Y-91464141D01*
X177265871Y-91637600D01*
X177045100Y-91858371D01*
X176871641Y-92117971D01*
X176752161Y-92406423D01*
X176691250Y-92712641D01*
X176691250Y-93024859D01*
X176752161Y-93331077D01*
X176871641Y-93619529D01*
X177045100Y-93879129D01*
X177265871Y-94099900D01*
X177525471Y-94273359D01*
X177813923Y-94392839D01*
X178120141Y-94453750D01*
X178432359Y-94453750D01*
X178738577Y-94392839D01*
X178791251Y-94371021D01*
X178791252Y-101358946D01*
X178441439Y-101708760D01*
X161255570Y-101708760D01*
X161261251Y-101651084D01*
X161261251Y-101651075D01*
X161264927Y-101613752D01*
X161261251Y-101576429D01*
X161261251Y-92609225D01*
X161671250Y-92609225D01*
X161671250Y-93128275D01*
X161772511Y-93637351D01*
X161971143Y-94116891D01*
X162259512Y-94548465D01*
X162626535Y-94915488D01*
X163058109Y-95203857D01*
X163537649Y-95402489D01*
X164046725Y-95503750D01*
X164565775Y-95503750D01*
X165074851Y-95402489D01*
X165554391Y-95203857D01*
X165985965Y-94915488D01*
X166352988Y-94548465D01*
X166641357Y-94116891D01*
X166839989Y-93637351D01*
X166941250Y-93128275D01*
X166941250Y-92712641D01*
X167801250Y-92712641D01*
X167801250Y-93024859D01*
X167862161Y-93331077D01*
X167981641Y-93619529D01*
X168155100Y-93879129D01*
X168375871Y-94099900D01*
X168635471Y-94273359D01*
X168923923Y-94392839D01*
X169230141Y-94453750D01*
X169542359Y-94453750D01*
X169848577Y-94392839D01*
X170137029Y-94273359D01*
X170396629Y-94099900D01*
X170617400Y-93879129D01*
X170790859Y-93619529D01*
X170910339Y-93331077D01*
X170971250Y-93024859D01*
X170971250Y-92712641D01*
X170910339Y-92406423D01*
X170790859Y-92117971D01*
X170617400Y-91858371D01*
X170396629Y-91637600D01*
X170137029Y-91464141D01*
X169848577Y-91344661D01*
X169542359Y-91283750D01*
X169230141Y-91283750D01*
X168923923Y-91344661D01*
X168635471Y-91464141D01*
X168375871Y-91637600D01*
X168155100Y-91858371D01*
X167981641Y-92117971D01*
X167862161Y-92406423D01*
X167801250Y-92712641D01*
X166941250Y-92712641D01*
X166941250Y-92609225D01*
X166839989Y-92100149D01*
X166641357Y-91620609D01*
X166352988Y-91189035D01*
X165985965Y-90822012D01*
X165554391Y-90533643D01*
X165074851Y-90335011D01*
X164565775Y-90233750D01*
X164046725Y-90233750D01*
X163537649Y-90335011D01*
X163058109Y-90533643D01*
X162626535Y-90822012D01*
X162259512Y-91189035D01*
X161971143Y-91620609D01*
X161772511Y-92100149D01*
X161671250Y-92609225D01*
X161261251Y-92609225D01*
X161261251Y-91881097D01*
X161374965Y-91846602D01*
X161659002Y-91694781D01*
X161907964Y-91490464D01*
X162112281Y-91241502D01*
X162264102Y-90957465D01*
X162357593Y-90649266D01*
X162389161Y-90328750D01*
X162357593Y-90008234D01*
X162264102Y-89700035D01*
X162112281Y-89415998D01*
X161907964Y-89167036D01*
X161659002Y-88962719D01*
X161374965Y-88810898D01*
X161066766Y-88717407D01*
X160826572Y-88693750D01*
X160165928Y-88693750D01*
X159925734Y-88717407D01*
X159617535Y-88810898D01*
X159333498Y-88962719D01*
X159084536Y-89167036D01*
X158880219Y-89415998D01*
X158728398Y-89700035D01*
X158634907Y-90008234D01*
X158603339Y-90328750D01*
X158634907Y-90649266D01*
X158728398Y-90957465D01*
X158880219Y-91241502D01*
X158936678Y-91310298D01*
X158763923Y-91344661D01*
X158475471Y-91464141D01*
X158215871Y-91637600D01*
X157995100Y-91858371D01*
X157821641Y-92117971D01*
X157702161Y-92406423D01*
X157641250Y-92712641D01*
X157641250Y-93024859D01*
X157702161Y-93331077D01*
X157821641Y-93619529D01*
X157995100Y-93879129D01*
X158215871Y-94099900D01*
X158475471Y-94273359D01*
X158763923Y-94392839D01*
X159070141Y-94453750D01*
X159382359Y-94453750D01*
X159688577Y-94392839D01*
X159741251Y-94371021D01*
X159741252Y-101258750D01*
X152021052Y-101258750D01*
X151066250Y-100303949D01*
X151066250Y-98106672D01*
X151069926Y-98069349D01*
X151066250Y-98032026D01*
X151066250Y-98032017D01*
X151055253Y-97920364D01*
X151011796Y-97777103D01*
X150941224Y-97645074D01*
X150846251Y-97529349D01*
X150817253Y-97505551D01*
X149384022Y-96072320D01*
X149414650Y-95918342D01*
X149414650Y-95643158D01*
X149360964Y-95373260D01*
X149255655Y-95119023D01*
X149102770Y-94890215D01*
X148908185Y-94695630D01*
X148679377Y-94542745D01*
X148602135Y-94510750D01*
X148679377Y-94478755D01*
X148908185Y-94325870D01*
X149102770Y-94131285D01*
X149255655Y-93902477D01*
X149360964Y-93648240D01*
X149414650Y-93378342D01*
X149414650Y-93103158D01*
X149360964Y-92833260D01*
X149255655Y-92579023D01*
X149102770Y-92350215D01*
X148908185Y-92155630D01*
X148679377Y-92002745D01*
X148602135Y-91970750D01*
X148679377Y-91938755D01*
X148908185Y-91785870D01*
X149102770Y-91591285D01*
X149255655Y-91362477D01*
X149360964Y-91108240D01*
X149414650Y-90838342D01*
X149414650Y-90563158D01*
X149360964Y-90293260D01*
X149255655Y-90039023D01*
X149102770Y-89810215D01*
X148908185Y-89615630D01*
X148679377Y-89462745D01*
X148607707Y-89433058D01*
X148620673Y-89428386D01*
X148736630Y-89366406D01*
X148803610Y-89126315D01*
X148017650Y-88340355D01*
X147231690Y-89126315D01*
X147298670Y-89366406D01*
X147434410Y-89430235D01*
X147355923Y-89462745D01*
X147127115Y-89615630D01*
X146932530Y-89810215D01*
X146779645Y-90039023D01*
X146674336Y-90293260D01*
X146620650Y-90563158D01*
X138116250Y-90563158D01*
X138116250Y-90216673D01*
X138119926Y-90179350D01*
X138116250Y-90142027D01*
X138116250Y-90142017D01*
X138105253Y-90030364D01*
X138061796Y-89887103D01*
X138009224Y-89788749D01*
X137991224Y-89755073D01*
X137920049Y-89668347D01*
X137896251Y-89639349D01*
X137867253Y-89615551D01*
X136484469Y-88232767D01*
X146615740Y-88232767D01*
X146656728Y-88504883D01*
X146750014Y-88763773D01*
X146811994Y-88879730D01*
X147052085Y-88946710D01*
X147838045Y-88160750D01*
X148197255Y-88160750D01*
X148983215Y-88946710D01*
X149223306Y-88879730D01*
X149340406Y-88630702D01*
X149406673Y-88363615D01*
X149415788Y-88169184D01*
X165006126Y-88169184D01*
X165030506Y-88291148D01*
X165158604Y-88586956D01*
X165341950Y-88852090D01*
X165573498Y-89076360D01*
X165844350Y-89251148D01*
X166144097Y-89369737D01*
X166461220Y-89427569D01*
X166719250Y-89269766D01*
X166719250Y-87915750D01*
X166973250Y-87915750D01*
X166973250Y-89269766D01*
X167231280Y-89427569D01*
X167548403Y-89369737D01*
X167848150Y-89251148D01*
X168119002Y-89076360D01*
X168350550Y-88852090D01*
X168533896Y-88586956D01*
X168661994Y-88291148D01*
X168686374Y-88169184D01*
X184056126Y-88169184D01*
X184080506Y-88291148D01*
X184208604Y-88586956D01*
X184391950Y-88852090D01*
X184623498Y-89076360D01*
X184894350Y-89251148D01*
X185194097Y-89369737D01*
X185511220Y-89427569D01*
X185769250Y-89269766D01*
X185769250Y-87915750D01*
X186023250Y-87915750D01*
X186023250Y-89269766D01*
X186281280Y-89427569D01*
X186598403Y-89369737D01*
X186898150Y-89251148D01*
X187169002Y-89076360D01*
X187400550Y-88852090D01*
X187583896Y-88586956D01*
X187711994Y-88291148D01*
X187736374Y-88169184D01*
X203106126Y-88169184D01*
X203130506Y-88291148D01*
X203258604Y-88586956D01*
X203441950Y-88852090D01*
X203673498Y-89076360D01*
X203944350Y-89251148D01*
X204244097Y-89369737D01*
X204561220Y-89427569D01*
X204819250Y-89269766D01*
X204819250Y-87915750D01*
X205073250Y-87915750D01*
X205073250Y-89269766D01*
X205331280Y-89427569D01*
X205648403Y-89369737D01*
X205948150Y-89251148D01*
X206219002Y-89076360D01*
X206450550Y-88852090D01*
X206633896Y-88586956D01*
X206761994Y-88291148D01*
X206786374Y-88169184D01*
X206667027Y-87915750D01*
X205073250Y-87915750D01*
X204819250Y-87915750D01*
X203225473Y-87915750D01*
X203106126Y-88169184D01*
X187736374Y-88169184D01*
X187617027Y-87915750D01*
X186023250Y-87915750D01*
X185769250Y-87915750D01*
X184175473Y-87915750D01*
X184056126Y-88169184D01*
X168686374Y-88169184D01*
X168567027Y-87915750D01*
X166973250Y-87915750D01*
X166719250Y-87915750D01*
X165125473Y-87915750D01*
X165006126Y-88169184D01*
X149415788Y-88169184D01*
X149419560Y-88088733D01*
X149378572Y-87816617D01*
X149285286Y-87557727D01*
X149223306Y-87441770D01*
X149103390Y-87408316D01*
X165006126Y-87408316D01*
X165125473Y-87661750D01*
X166719250Y-87661750D01*
X166719250Y-86307734D01*
X166973250Y-86307734D01*
X166973250Y-87661750D01*
X168567027Y-87661750D01*
X168686374Y-87408316D01*
X184056126Y-87408316D01*
X184175473Y-87661750D01*
X185769250Y-87661750D01*
X185769250Y-86307734D01*
X186023250Y-86307734D01*
X186023250Y-87661750D01*
X187617027Y-87661750D01*
X187736374Y-87408316D01*
X203106126Y-87408316D01*
X203225473Y-87661750D01*
X204819250Y-87661750D01*
X204819250Y-86307734D01*
X205073250Y-86307734D01*
X205073250Y-87661750D01*
X206667027Y-87661750D01*
X206786374Y-87408316D01*
X206761994Y-87286352D01*
X206633896Y-86990544D01*
X206450550Y-86725410D01*
X206219002Y-86501140D01*
X205948150Y-86326352D01*
X205648403Y-86207763D01*
X205331280Y-86149931D01*
X205073250Y-86307734D01*
X204819250Y-86307734D01*
X204561220Y-86149931D01*
X204244097Y-86207763D01*
X203944350Y-86326352D01*
X203673498Y-86501140D01*
X203441950Y-86725410D01*
X203258604Y-86990544D01*
X203130506Y-87286352D01*
X203106126Y-87408316D01*
X187736374Y-87408316D01*
X187711994Y-87286352D01*
X187583896Y-86990544D01*
X187400550Y-86725410D01*
X187169002Y-86501140D01*
X186898150Y-86326352D01*
X186598403Y-86207763D01*
X186281280Y-86149931D01*
X186023250Y-86307734D01*
X185769250Y-86307734D01*
X185511220Y-86149931D01*
X185194097Y-86207763D01*
X184894350Y-86326352D01*
X184623498Y-86501140D01*
X184391950Y-86725410D01*
X184208604Y-86990544D01*
X184080506Y-87286352D01*
X184056126Y-87408316D01*
X168686374Y-87408316D01*
X168661994Y-87286352D01*
X168533896Y-86990544D01*
X168350550Y-86725410D01*
X168119002Y-86501140D01*
X167848150Y-86326352D01*
X167548403Y-86207763D01*
X167231280Y-86149931D01*
X166973250Y-86307734D01*
X166719250Y-86307734D01*
X166461220Y-86149931D01*
X166144097Y-86207763D01*
X165844350Y-86326352D01*
X165573498Y-86501140D01*
X165341950Y-86725410D01*
X165158604Y-86990544D01*
X165030506Y-87286352D01*
X165006126Y-87408316D01*
X149103390Y-87408316D01*
X148983215Y-87374790D01*
X148197255Y-88160750D01*
X147838045Y-88160750D01*
X147052085Y-87374790D01*
X146811994Y-87441770D01*
X146694894Y-87690798D01*
X146628627Y-87957885D01*
X146615740Y-88232767D01*
X136484469Y-88232767D01*
X134838017Y-86586315D01*
X147231690Y-86586315D01*
X147298670Y-86826406D01*
X147429294Y-86887829D01*
X147414627Y-86893114D01*
X147298670Y-86955094D01*
X147231690Y-87195185D01*
X148017650Y-87981145D01*
X148803610Y-87195185D01*
X148736630Y-86955094D01*
X148606006Y-86893671D01*
X148620673Y-86888386D01*
X148736630Y-86826406D01*
X148803610Y-86586315D01*
X148017650Y-85800355D01*
X147231690Y-86586315D01*
X134838017Y-86586315D01*
X134164022Y-85912321D01*
X134194650Y-85758342D01*
X134194650Y-85692767D01*
X146615740Y-85692767D01*
X146656728Y-85964883D01*
X146750014Y-86223773D01*
X146811994Y-86339730D01*
X147052085Y-86406710D01*
X147838045Y-85620750D01*
X148197255Y-85620750D01*
X148983215Y-86406710D01*
X149223306Y-86339730D01*
X149340406Y-86090702D01*
X149406673Y-85823615D01*
X149419560Y-85548733D01*
X149378572Y-85276617D01*
X149285286Y-85017727D01*
X149223306Y-84901770D01*
X148983215Y-84834790D01*
X148197255Y-85620750D01*
X147838045Y-85620750D01*
X147052085Y-84834790D01*
X146811994Y-84901770D01*
X146694894Y-85150798D01*
X146628627Y-85417885D01*
X146615740Y-85692767D01*
X134194650Y-85692767D01*
X134194650Y-85483158D01*
X134140964Y-85213260D01*
X134035655Y-84959023D01*
X133882770Y-84730215D01*
X133688185Y-84535630D01*
X133459377Y-84382745D01*
X133387707Y-84353058D01*
X133400673Y-84348386D01*
X133516630Y-84286406D01*
X133583610Y-84046315D01*
X132797650Y-83260355D01*
X132011690Y-84046315D01*
X132078670Y-84286406D01*
X132214410Y-84350235D01*
X132135923Y-84382745D01*
X131907115Y-84535630D01*
X131712530Y-84730215D01*
X131559645Y-84959023D01*
X131454336Y-85213260D01*
X131400650Y-85483158D01*
X126866250Y-85483158D01*
X126866250Y-83152767D01*
X131395740Y-83152767D01*
X131436728Y-83424883D01*
X131530014Y-83683773D01*
X131591994Y-83799730D01*
X131832085Y-83866710D01*
X132618045Y-83080750D01*
X132977255Y-83080750D01*
X133763215Y-83866710D01*
X134003306Y-83799730D01*
X134120406Y-83550702D01*
X134186673Y-83283615D01*
X134199560Y-83008733D01*
X134158572Y-82736617D01*
X134065286Y-82477727D01*
X134003306Y-82361770D01*
X133763215Y-82294790D01*
X132977255Y-83080750D01*
X132618045Y-83080750D01*
X131832085Y-82294790D01*
X131591994Y-82361770D01*
X131474894Y-82610798D01*
X131408627Y-82877885D01*
X131395740Y-83152767D01*
X126866250Y-83152767D01*
X126866250Y-80403158D01*
X131400650Y-80403158D01*
X131400650Y-80678342D01*
X131454336Y-80948240D01*
X131559645Y-81202477D01*
X131712530Y-81431285D01*
X131907115Y-81625870D01*
X132135923Y-81778755D01*
X132207593Y-81808442D01*
X132194627Y-81813114D01*
X132078670Y-81875094D01*
X132011690Y-82115185D01*
X132797650Y-82901145D01*
X133583610Y-82115185D01*
X133516630Y-81875094D01*
X133380890Y-81811265D01*
X133459377Y-81778755D01*
X133688185Y-81625870D01*
X133882770Y-81431285D01*
X134035655Y-81202477D01*
X134140964Y-80948240D01*
X134194650Y-80678342D01*
X134194650Y-80403158D01*
X146620650Y-80403158D01*
X146620650Y-80678342D01*
X146674336Y-80948240D01*
X146779645Y-81202477D01*
X146932530Y-81431285D01*
X147127115Y-81625870D01*
X147355923Y-81778755D01*
X147433165Y-81810750D01*
X147355923Y-81842745D01*
X147127115Y-81995630D01*
X146932530Y-82190215D01*
X146779645Y-82419023D01*
X146674336Y-82673260D01*
X146620650Y-82943158D01*
X146620650Y-83218342D01*
X146674336Y-83488240D01*
X146779645Y-83742477D01*
X146932530Y-83971285D01*
X147127115Y-84165870D01*
X147355923Y-84318755D01*
X147427593Y-84348442D01*
X147414627Y-84353114D01*
X147298670Y-84415094D01*
X147231690Y-84655185D01*
X148017650Y-85441145D01*
X148803610Y-84655185D01*
X148736630Y-84415094D01*
X148600890Y-84351265D01*
X148679377Y-84318755D01*
X148908185Y-84165870D01*
X149102770Y-83971285D01*
X149255655Y-83742477D01*
X149360964Y-83488240D01*
X149414650Y-83218342D01*
X149414650Y-82943158D01*
X149360964Y-82673260D01*
X149255655Y-82419023D01*
X149102770Y-82190215D01*
X148908185Y-81995630D01*
X148679377Y-81842745D01*
X148602135Y-81810750D01*
X148679377Y-81778755D01*
X148908185Y-81625870D01*
X149102770Y-81431285D01*
X149255655Y-81202477D01*
X149360964Y-80948240D01*
X149414650Y-80678342D01*
X149414650Y-80403158D01*
X149360964Y-80133260D01*
X149255655Y-79879023D01*
X149102770Y-79650215D01*
X148908185Y-79455630D01*
X148679377Y-79302745D01*
X148425140Y-79197436D01*
X148155242Y-79143750D01*
X147880058Y-79143750D01*
X147610160Y-79197436D01*
X147355923Y-79302745D01*
X147127115Y-79455630D01*
X146932530Y-79650215D01*
X146779645Y-79879023D01*
X146674336Y-80133260D01*
X146620650Y-80403158D01*
X134194650Y-80403158D01*
X134140964Y-80133260D01*
X134035655Y-79879023D01*
X133882770Y-79650215D01*
X133688185Y-79455630D01*
X133459377Y-79302745D01*
X133205140Y-79197436D01*
X132935242Y-79143750D01*
X132660058Y-79143750D01*
X132390160Y-79197436D01*
X132135923Y-79302745D01*
X131907115Y-79455630D01*
X131712530Y-79650215D01*
X131559645Y-79879023D01*
X131454336Y-80133260D01*
X131400650Y-80403158D01*
X126866250Y-80403158D01*
X126866250Y-76851029D01*
X126913920Y-76364857D01*
X127045739Y-75928252D01*
X127259850Y-75525565D01*
X127548098Y-75172138D01*
X127899511Y-74881423D01*
X128300689Y-74664508D01*
X128736363Y-74529644D01*
X129220594Y-74478750D01*
X214173971Y-74478750D01*
X214660143Y-74526420D01*
G04 #@! TA.AperFunction,Conductor*
D15*
G36*
X214660143Y-74526420D02*
G01*
X215096748Y-74658239D01*
X215499435Y-74872350D01*
X215852862Y-75160598D01*
X216143577Y-75512011D01*
X216360492Y-75913189D01*
X216495356Y-76348863D01*
X216546250Y-76833094D01*
X216546251Y-125786461D01*
X216498580Y-126272644D01*
X216366762Y-126709247D01*
X216152649Y-127111936D01*
X215864400Y-127465363D01*
X215512989Y-127756077D01*
X215111814Y-127972990D01*
X214676136Y-128107856D01*
X214191914Y-128158750D01*
X129238529Y-128158750D01*
X128752356Y-128111080D01*
X128315753Y-127979262D01*
X127913064Y-127765149D01*
X127559637Y-127476900D01*
X127268923Y-127125489D01*
X127052010Y-126724314D01*
X126917144Y-126288636D01*
X126866250Y-125804414D01*
X126866250Y-85483158D01*
X131400650Y-85483158D01*
X131400650Y-85758342D01*
X131454336Y-86028240D01*
X131559645Y-86282477D01*
X131712530Y-86511285D01*
X131907115Y-86705870D01*
X132135923Y-86858755D01*
X132213165Y-86890750D01*
X132135923Y-86922745D01*
X131907115Y-87075630D01*
X131712530Y-87270215D01*
X131559645Y-87499023D01*
X131454336Y-87753260D01*
X131400650Y-88023158D01*
X131400650Y-88298342D01*
X131454336Y-88568240D01*
X131559645Y-88822477D01*
X131712530Y-89051285D01*
X131907115Y-89245870D01*
X132135923Y-89398755D01*
X132213165Y-89430750D01*
X132135923Y-89462745D01*
X131907115Y-89615630D01*
X131712530Y-89810215D01*
X131559645Y-90039023D01*
X131454336Y-90293260D01*
X131400650Y-90563158D01*
X131400650Y-90838342D01*
X131454336Y-91108240D01*
X131559645Y-91362477D01*
X131712530Y-91591285D01*
X131907115Y-91785870D01*
X132135923Y-91938755D01*
X132213165Y-91970750D01*
X132135923Y-92002745D01*
X131907115Y-92155630D01*
X131712530Y-92350215D01*
X131559645Y-92579023D01*
X131454336Y-92833260D01*
X131400650Y-93103158D01*
X131400650Y-93378342D01*
X131454336Y-93648240D01*
X131559645Y-93902477D01*
X131712530Y-94131285D01*
X131907115Y-94325870D01*
X132135923Y-94478755D01*
X132213165Y-94510750D01*
X132135923Y-94542745D01*
X131907115Y-94695630D01*
X131712530Y-94890215D01*
X131559645Y-95119023D01*
X131454336Y-95373260D01*
X131400650Y-95643158D01*
X131400650Y-95918342D01*
X131454336Y-96188240D01*
X131559645Y-96442477D01*
X131712530Y-96671285D01*
X131907115Y-96865870D01*
X132135923Y-97018755D01*
X132213165Y-97050750D01*
X132135923Y-97082745D01*
X131907115Y-97235630D01*
X131712530Y-97430215D01*
X131559645Y-97659023D01*
X131454336Y-97913260D01*
X131400650Y-98183158D01*
X131400650Y-98458342D01*
X131454336Y-98728240D01*
X131559645Y-98982477D01*
X131712530Y-99211285D01*
X131907115Y-99405870D01*
X132135923Y-99558755D01*
X132213165Y-99590750D01*
X132135923Y-99622745D01*
X131907115Y-99775630D01*
X131712530Y-99970215D01*
X131559645Y-100199023D01*
X131454336Y-100453260D01*
X131400650Y-100723158D01*
X131400650Y-100998342D01*
X131454336Y-101268240D01*
X131559645Y-101522477D01*
X131712530Y-101751285D01*
X131907115Y-101945870D01*
X132135923Y-102098755D01*
X132213165Y-102130750D01*
X132135923Y-102162745D01*
X131907115Y-102315630D01*
X131712530Y-102510215D01*
X131559645Y-102739023D01*
X131454336Y-102993260D01*
X131400650Y-103263158D01*
X131400650Y-103538342D01*
X131454336Y-103808240D01*
X131559645Y-104062477D01*
X131712530Y-104291285D01*
X131907115Y-104485870D01*
X132135923Y-104638755D01*
X132213165Y-104670750D01*
X132135923Y-104702745D01*
X131907115Y-104855630D01*
X131712530Y-105050215D01*
X131559645Y-105279023D01*
X131454336Y-105533260D01*
X131400650Y-105803158D01*
X131400650Y-106078342D01*
X131454336Y-106348240D01*
X131559645Y-106602477D01*
X131712530Y-106831285D01*
X131907115Y-107025870D01*
X132135923Y-107178755D01*
X132213165Y-107210750D01*
X132135923Y-107242745D01*
X131907115Y-107395630D01*
X131712530Y-107590215D01*
X131559645Y-107819023D01*
X131454336Y-108073260D01*
X131400650Y-108343158D01*
X131400650Y-108618342D01*
X131454336Y-108888240D01*
X131559645Y-109142477D01*
X131712530Y-109371285D01*
X131907115Y-109565870D01*
X132135923Y-109718755D01*
X132390160Y-109824064D01*
X132660058Y-109877750D01*
X132935242Y-109877750D01*
X133205140Y-109824064D01*
X133459377Y-109718755D01*
X133688185Y-109565870D01*
X133882770Y-109371285D01*
X134035655Y-109142477D01*
X134140964Y-108888240D01*
X134194650Y-108618342D01*
X134194650Y-108343158D01*
X134140964Y-108073260D01*
X134035655Y-107819023D01*
X133882770Y-107590215D01*
X133688185Y-107395630D01*
X133459377Y-107242745D01*
X133382135Y-107210750D01*
X133459377Y-107178755D01*
X133688185Y-107025870D01*
X133882770Y-106831285D01*
X134035655Y-106602477D01*
X134140964Y-106348240D01*
X134194650Y-106078342D01*
X134194650Y-105803158D01*
X134140964Y-105533260D01*
X134035655Y-105279023D01*
X133882770Y-105050215D01*
X133688185Y-104855630D01*
X133459377Y-104702745D01*
X133382135Y-104670750D01*
X133459377Y-104638755D01*
X133688185Y-104485870D01*
X133882770Y-104291285D01*
X134035655Y-104062477D01*
X134140964Y-103808240D01*
X134194650Y-103538342D01*
X134194650Y-103263158D01*
X134140964Y-102993260D01*
X134035655Y-102739023D01*
X133882770Y-102510215D01*
X133688185Y-102315630D01*
X133459377Y-102162745D01*
X133382135Y-102130750D01*
X133459377Y-102098755D01*
X133688185Y-101945870D01*
X133882770Y-101751285D01*
X134035655Y-101522477D01*
X134140964Y-101268240D01*
X134194650Y-100998342D01*
X134194650Y-100723158D01*
X134140964Y-100453260D01*
X134035655Y-100199023D01*
X133882770Y-99970215D01*
X133688185Y-99775630D01*
X133459377Y-99622745D01*
X133382135Y-99590750D01*
X133459377Y-99558755D01*
X133688185Y-99405870D01*
X133882770Y-99211285D01*
X134035655Y-98982477D01*
X134140964Y-98728240D01*
X134194650Y-98458342D01*
X134194650Y-98183158D01*
X134140964Y-97913260D01*
X134035655Y-97659023D01*
X133882770Y-97430215D01*
X133688185Y-97235630D01*
X133459377Y-97082745D01*
X133382135Y-97050750D01*
X133459377Y-97018755D01*
X133688185Y-96865870D01*
X133882770Y-96671285D01*
X134035655Y-96442477D01*
X134140964Y-96188240D01*
X134194650Y-95918342D01*
X134194650Y-95643158D01*
X134140964Y-95373260D01*
X134035655Y-95119023D01*
X133882770Y-94890215D01*
X133688185Y-94695630D01*
X133459377Y-94542745D01*
X133382135Y-94510750D01*
X133459377Y-94478755D01*
X133688185Y-94325870D01*
X133882770Y-94131285D01*
X134035655Y-93902477D01*
X134140964Y-93648240D01*
X134194650Y-93378342D01*
X134194650Y-93103158D01*
X134140964Y-92833260D01*
X134035655Y-92579023D01*
X133882770Y-92350215D01*
X133688185Y-92155630D01*
X133459377Y-92002745D01*
X133382135Y-91970750D01*
X133459377Y-91938755D01*
X133688185Y-91785870D01*
X133882770Y-91591285D01*
X134035655Y-91362477D01*
X134140964Y-91108240D01*
X134194650Y-90838342D01*
X134194650Y-90563158D01*
X134140964Y-90293260D01*
X134035655Y-90039023D01*
X133882770Y-89810215D01*
X133688185Y-89615630D01*
X133459377Y-89462745D01*
X133382135Y-89430750D01*
X133459377Y-89398755D01*
X133688185Y-89245870D01*
X133882770Y-89051285D01*
X134035655Y-88822477D01*
X134140964Y-88568240D01*
X134194650Y-88298342D01*
X134194650Y-88092551D01*
X136596251Y-90494153D01*
X136596250Y-116463841D01*
X136581787Y-116469832D01*
X136313998Y-116648763D01*
X136086263Y-116876498D01*
X135907332Y-117144287D01*
X135784082Y-117441838D01*
X135721250Y-117757717D01*
X135721250Y-118079783D01*
X135784082Y-118395662D01*
X135907332Y-118693213D01*
X136086263Y-118961002D01*
X136313998Y-119188737D01*
X136581787Y-119367668D01*
X136879338Y-119490918D01*
X137195217Y-119553750D01*
X137517283Y-119553750D01*
X137833162Y-119490918D01*
X138130713Y-119367668D01*
X138398502Y-119188737D01*
X138533076Y-119054163D01*
X142900442Y-119054163D01*
X142996206Y-119318564D01*
X143285821Y-119459454D01*
X143597358Y-119541134D01*
X143918845Y-119560468D01*
X144237925Y-119516711D01*
X144542338Y-119411545D01*
X144716294Y-119318564D01*
X144812058Y-119054163D01*
X143856250Y-118098355D01*
X142900442Y-119054163D01*
X138533076Y-119054163D01*
X138626237Y-118961002D01*
X138805168Y-118693213D01*
X138928418Y-118395662D01*
X138991250Y-118079783D01*
X138991250Y-117981345D01*
X142214532Y-117981345D01*
X142258289Y-118300425D01*
X142363455Y-118604838D01*
X142456436Y-118778794D01*
X142720837Y-118874558D01*
X143676645Y-117918750D01*
X144035855Y-117918750D01*
X144991663Y-118874558D01*
X145256064Y-118778794D01*
X145396954Y-118489179D01*
X145478634Y-118177642D01*
X145497968Y-117856155D01*
X145454211Y-117537075D01*
X145349045Y-117232662D01*
X145256064Y-117058706D01*
X144991663Y-116962942D01*
X144035855Y-117918750D01*
X143676645Y-117918750D01*
X142720837Y-116962942D01*
X142456436Y-117058706D01*
X142315546Y-117348321D01*
X142233866Y-117659858D01*
X142214532Y-117981345D01*
X138991250Y-117981345D01*
X138991250Y-117757717D01*
X138928418Y-117441838D01*
X138805168Y-117144287D01*
X138626237Y-116876498D01*
X138533076Y-116783337D01*
X142900442Y-116783337D01*
X143856250Y-117739145D01*
X144812058Y-116783337D01*
X144716294Y-116518936D01*
X144426679Y-116378046D01*
X144115142Y-116296366D01*
X143793655Y-116277032D01*
X143474575Y-116320789D01*
X143170162Y-116425955D01*
X142996206Y-116518936D01*
X142900442Y-116783337D01*
X138533076Y-116783337D01*
X138398502Y-116648763D01*
X138130713Y-116469832D01*
X138116250Y-116463841D01*
X138116250Y-90563158D01*
X146620650Y-90563158D01*
X146620650Y-90838342D01*
X146674336Y-91108240D01*
X146779645Y-91362477D01*
X146932530Y-91591285D01*
X147127115Y-91785870D01*
X147355923Y-91938755D01*
X147433165Y-91970750D01*
X147355923Y-92002745D01*
X147127115Y-92155630D01*
X146932530Y-92350215D01*
X146779645Y-92579023D01*
X146674336Y-92833260D01*
X146620650Y-93103158D01*
X146620650Y-93378342D01*
X146674336Y-93648240D01*
X146779645Y-93902477D01*
X146932530Y-94131285D01*
X147127115Y-94325870D01*
X147355923Y-94478755D01*
X147433165Y-94510750D01*
X147355923Y-94542745D01*
X147127115Y-94695630D01*
X146932530Y-94890215D01*
X146779645Y-95119023D01*
X146674336Y-95373260D01*
X146620650Y-95643158D01*
X146620650Y-95918342D01*
X146674336Y-96188240D01*
X146779645Y-96442477D01*
X146932530Y-96671285D01*
X147127115Y-96865870D01*
X147355923Y-97018755D01*
X147433165Y-97050750D01*
X147355923Y-97082745D01*
X147127115Y-97235630D01*
X146932530Y-97430215D01*
X146779645Y-97659023D01*
X146674336Y-97913260D01*
X146620650Y-98183158D01*
X146620650Y-98458342D01*
X146674336Y-98728240D01*
X146779645Y-98982477D01*
X146932530Y-99211285D01*
X147127115Y-99405870D01*
X147355923Y-99558755D01*
X147433165Y-99590750D01*
X147355923Y-99622745D01*
X147127115Y-99775630D01*
X146932530Y-99970215D01*
X146779645Y-100199023D01*
X146674336Y-100453260D01*
X146620650Y-100723158D01*
X146620650Y-100998342D01*
X146674336Y-101268240D01*
X146779645Y-101522477D01*
X146932530Y-101751285D01*
X147127115Y-101945870D01*
X147355923Y-102098755D01*
X147433165Y-102130750D01*
X147355923Y-102162745D01*
X147127115Y-102315630D01*
X146932530Y-102510215D01*
X146779645Y-102739023D01*
X146674336Y-102993260D01*
X146620650Y-103263158D01*
X146620650Y-103538342D01*
X146674336Y-103808240D01*
X146779645Y-104062477D01*
X146932530Y-104291285D01*
X147127115Y-104485870D01*
X147355923Y-104638755D01*
X147433165Y-104670750D01*
X147355923Y-104702745D01*
X147127115Y-104855630D01*
X146932530Y-105050215D01*
X146779645Y-105279023D01*
X146674336Y-105533260D01*
X146620650Y-105803158D01*
X146620650Y-106078342D01*
X146674336Y-106348240D01*
X146779645Y-106602477D01*
X146932530Y-106831285D01*
X147127115Y-107025870D01*
X147355923Y-107178755D01*
X147433165Y-107210750D01*
X147355923Y-107242745D01*
X147127115Y-107395630D01*
X146932530Y-107590215D01*
X146779645Y-107819023D01*
X146674336Y-108073260D01*
X146620650Y-108343158D01*
X146620650Y-108618342D01*
X146674336Y-108888240D01*
X146779645Y-109142477D01*
X146932530Y-109371285D01*
X147127115Y-109565870D01*
X147355923Y-109718755D01*
X147610160Y-109824064D01*
X147880058Y-109877750D01*
X148155242Y-109877750D01*
X148425140Y-109824064D01*
X148679377Y-109718755D01*
X148908185Y-109565870D01*
X149102770Y-109371285D01*
X149255655Y-109142477D01*
X149360964Y-108888240D01*
X149414650Y-108618342D01*
X149414650Y-108343158D01*
X149360964Y-108073260D01*
X149292303Y-107907499D01*
X150017253Y-107182549D01*
X150046251Y-107158751D01*
X150141224Y-107043026D01*
X150211796Y-106910997D01*
X150255253Y-106767736D01*
X150266250Y-106656083D01*
X150266250Y-106656074D01*
X150269926Y-106618751D01*
X150266250Y-106581428D01*
X150266250Y-105533551D01*
X150421052Y-105378750D01*
X159491449Y-105378750D01*
X159736251Y-105623553D01*
X159736250Y-107824886D01*
X159617535Y-107860898D01*
X159333498Y-108012719D01*
X159084536Y-108217036D01*
X158880219Y-108465998D01*
X158728398Y-108750035D01*
X158634907Y-109058234D01*
X158603339Y-109378750D01*
X158634907Y-109699266D01*
X158728398Y-110007465D01*
X158880219Y-110291502D01*
X158936678Y-110360298D01*
X158763923Y-110394661D01*
X158475471Y-110514141D01*
X158215871Y-110687600D01*
X157995100Y-110908371D01*
X157821641Y-111167971D01*
X157702161Y-111456423D01*
X157641250Y-111762641D01*
X157641250Y-112074859D01*
X157702161Y-112381077D01*
X157821641Y-112669529D01*
X157995100Y-112929129D01*
X158215871Y-113149900D01*
X158475471Y-113323359D01*
X158763923Y-113442839D01*
X159070141Y-113503750D01*
X159382359Y-113503750D01*
X159688577Y-113442839D01*
X159977029Y-113323359D01*
X160236629Y-113149900D01*
X160457400Y-112929129D01*
X160630859Y-112669529D01*
X160750339Y-112381077D01*
X160811250Y-112074859D01*
X160811250Y-111762641D01*
X160790680Y-111659225D01*
X161671250Y-111659225D01*
X161671250Y-112178275D01*
X161772511Y-112687351D01*
X161971143Y-113166891D01*
X162259512Y-113598465D01*
X162626535Y-113965488D01*
X163058109Y-114253857D01*
X163537649Y-114452489D01*
X164046725Y-114553750D01*
X164565775Y-114553750D01*
X165074851Y-114452489D01*
X165554391Y-114253857D01*
X165985965Y-113965488D01*
X166352988Y-113598465D01*
X166641357Y-113166891D01*
X166839989Y-112687351D01*
X166941250Y-112178275D01*
X166941250Y-111762641D01*
X167801250Y-111762641D01*
X167801250Y-112074859D01*
X167862161Y-112381077D01*
X167981641Y-112669529D01*
X168155100Y-112929129D01*
X168375871Y-113149900D01*
X168635471Y-113323359D01*
X168923923Y-113442839D01*
X169230141Y-113503750D01*
X169542359Y-113503750D01*
X169848577Y-113442839D01*
X170137029Y-113323359D01*
X170396629Y-113149900D01*
X170617400Y-112929129D01*
X170790859Y-112669529D01*
X170910339Y-112381077D01*
X170971250Y-112074859D01*
X170971250Y-111762641D01*
X170910339Y-111456423D01*
X170790859Y-111167971D01*
X170617400Y-110908371D01*
X170396629Y-110687600D01*
X170137029Y-110514141D01*
X169848577Y-110394661D01*
X169542359Y-110333750D01*
X169230141Y-110333750D01*
X168923923Y-110394661D01*
X168635471Y-110514141D01*
X168375871Y-110687600D01*
X168155100Y-110908371D01*
X167981641Y-111167971D01*
X167862161Y-111456423D01*
X167801250Y-111762641D01*
X166941250Y-111762641D01*
X166941250Y-111659225D01*
X166839989Y-111150149D01*
X166641357Y-110670609D01*
X166352988Y-110239035D01*
X165985965Y-109872012D01*
X165554391Y-109583643D01*
X165074851Y-109385011D01*
X164565775Y-109283750D01*
X164046725Y-109283750D01*
X163537649Y-109385011D01*
X163058109Y-109583643D01*
X162626535Y-109872012D01*
X162259512Y-110239035D01*
X161971143Y-110670609D01*
X161772511Y-111150149D01*
X161671250Y-111659225D01*
X160790680Y-111659225D01*
X160750339Y-111456423D01*
X160630859Y-111167971D01*
X160527812Y-111013750D01*
X160826572Y-111013750D01*
X161066766Y-110990093D01*
X161374965Y-110896602D01*
X161659002Y-110744781D01*
X161907964Y-110540464D01*
X162112281Y-110291502D01*
X162264102Y-110007465D01*
X162357593Y-109699266D01*
X162389161Y-109378750D01*
X162357593Y-109058234D01*
X162264102Y-108750035D01*
X162112281Y-108465998D01*
X161907964Y-108217036D01*
X161659002Y-108012719D01*
X161374965Y-107860898D01*
X161256250Y-107824886D01*
X161256250Y-107219184D01*
X165006126Y-107219184D01*
X165030506Y-107341148D01*
X165158604Y-107636956D01*
X165341950Y-107902090D01*
X165573498Y-108126360D01*
X165844350Y-108301148D01*
X166144097Y-108419737D01*
X166461220Y-108477569D01*
X166719250Y-108319766D01*
X166719250Y-106965750D01*
X166973250Y-106965750D01*
X166973250Y-108319766D01*
X167231280Y-108477569D01*
X167548403Y-108419737D01*
X167848150Y-108301148D01*
X168119002Y-108126360D01*
X168350550Y-107902090D01*
X168533896Y-107636956D01*
X168661994Y-107341148D01*
X168686374Y-107219184D01*
X168567027Y-106965750D01*
X166973250Y-106965750D01*
X166719250Y-106965750D01*
X165125473Y-106965750D01*
X165006126Y-107219184D01*
X161256250Y-107219184D01*
X161256250Y-106458316D01*
X165006126Y-106458316D01*
X165125473Y-106711750D01*
X166719250Y-106711750D01*
X166719250Y-105357734D01*
X166973250Y-105357734D01*
X166973250Y-106711750D01*
X168567027Y-106711750D01*
X168686374Y-106458316D01*
X168661994Y-106336352D01*
X168533896Y-106040544D01*
X168350550Y-105775410D01*
X168119002Y-105551140D01*
X167848150Y-105376352D01*
X167548403Y-105257763D01*
X167231280Y-105199931D01*
X166973250Y-105357734D01*
X166719250Y-105357734D01*
X166461220Y-105199931D01*
X166144097Y-105257763D01*
X165844350Y-105376352D01*
X165573498Y-105551140D01*
X165341950Y-105775410D01*
X165158604Y-106040544D01*
X165030506Y-106336352D01*
X165006126Y-106458316D01*
X161256250Y-106458316D01*
X161256250Y-105346072D01*
X161259926Y-105308749D01*
X161256250Y-105271426D01*
X161256250Y-105271417D01*
X161245253Y-105159764D01*
X161201796Y-105016503D01*
X161131224Y-104884474D01*
X161044459Y-104778750D01*
X178691449Y-104778750D01*
X178786251Y-104873553D01*
X178786250Y-107824886D01*
X178667535Y-107860898D01*
X178383498Y-108012719D01*
X178134536Y-108217036D01*
X177930219Y-108465998D01*
X177778398Y-108750035D01*
X177684907Y-109058234D01*
X177653339Y-109378750D01*
X177684907Y-109699266D01*
X177778398Y-110007465D01*
X177930219Y-110291502D01*
X177986678Y-110360298D01*
X177813923Y-110394661D01*
X177525471Y-110514141D01*
X177265871Y-110687600D01*
X177045100Y-110908371D01*
X176871641Y-111167971D01*
X176752161Y-111456423D01*
X176691250Y-111762641D01*
X176691250Y-112074859D01*
X176752161Y-112381077D01*
X176871641Y-112669529D01*
X177045100Y-112929129D01*
X177265871Y-113149900D01*
X177525471Y-113323359D01*
X177813923Y-113442839D01*
X178120141Y-113503750D01*
X178432359Y-113503750D01*
X178738577Y-113442839D01*
X179027029Y-113323359D01*
X179286629Y-113149900D01*
X179507400Y-112929129D01*
X179680859Y-112669529D01*
X179800339Y-112381077D01*
X179861250Y-112074859D01*
X179861250Y-111762641D01*
X179840680Y-111659225D01*
X180721250Y-111659225D01*
X180721250Y-112178275D01*
X180822511Y-112687351D01*
X181021143Y-113166891D01*
X181309512Y-113598465D01*
X181676535Y-113965488D01*
X182108109Y-114253857D01*
X182587649Y-114452489D01*
X183096725Y-114553750D01*
X183615775Y-114553750D01*
X184124851Y-114452489D01*
X184604391Y-114253857D01*
X185035965Y-113965488D01*
X185402988Y-113598465D01*
X185691357Y-113166891D01*
X185889989Y-112687351D01*
X185991250Y-112178275D01*
X185991250Y-111762641D01*
X186851250Y-111762641D01*
X186851250Y-112074859D01*
X186912161Y-112381077D01*
X187031641Y-112669529D01*
X187205100Y-112929129D01*
X187425871Y-113149900D01*
X187685471Y-113323359D01*
X187973923Y-113442839D01*
X188280141Y-113503750D01*
X188592359Y-113503750D01*
X188898577Y-113442839D01*
X189187029Y-113323359D01*
X189446629Y-113149900D01*
X189667400Y-112929129D01*
X189840859Y-112669529D01*
X189960339Y-112381077D01*
X190021250Y-112074859D01*
X190021250Y-111762641D01*
X189960339Y-111456423D01*
X189840859Y-111167971D01*
X189667400Y-110908371D01*
X189446629Y-110687600D01*
X189187029Y-110514141D01*
X188898577Y-110394661D01*
X188592359Y-110333750D01*
X188280141Y-110333750D01*
X187973923Y-110394661D01*
X187685471Y-110514141D01*
X187425871Y-110687600D01*
X187205100Y-110908371D01*
X187031641Y-111167971D01*
X186912161Y-111456423D01*
X186851250Y-111762641D01*
X185991250Y-111762641D01*
X185991250Y-111659225D01*
X185889989Y-111150149D01*
X185691357Y-110670609D01*
X185402988Y-110239035D01*
X185035965Y-109872012D01*
X184604391Y-109583643D01*
X184124851Y-109385011D01*
X183615775Y-109283750D01*
X183096725Y-109283750D01*
X182587649Y-109385011D01*
X182108109Y-109583643D01*
X181676535Y-109872012D01*
X181309512Y-110239035D01*
X181021143Y-110670609D01*
X180822511Y-111150149D01*
X180721250Y-111659225D01*
X179840680Y-111659225D01*
X179800339Y-111456423D01*
X179680859Y-111167971D01*
X179577812Y-111013750D01*
X179876572Y-111013750D01*
X180116766Y-110990093D01*
X180424965Y-110896602D01*
X180709002Y-110744781D01*
X180957964Y-110540464D01*
X181162281Y-110291502D01*
X181314102Y-110007465D01*
X181407593Y-109699266D01*
X181439161Y-109378750D01*
X181407593Y-109058234D01*
X181314102Y-108750035D01*
X181162281Y-108465998D01*
X180957964Y-108217036D01*
X180709002Y-108012719D01*
X180424965Y-107860898D01*
X180306250Y-107824886D01*
X180306250Y-107219184D01*
X184056126Y-107219184D01*
X184080506Y-107341148D01*
X184208604Y-107636956D01*
X184391950Y-107902090D01*
X184623498Y-108126360D01*
X184894350Y-108301148D01*
X185194097Y-108419737D01*
X185511220Y-108477569D01*
X185769250Y-108319766D01*
X185769250Y-106965750D01*
X186023250Y-106965750D01*
X186023250Y-108319766D01*
X186281280Y-108477569D01*
X186598403Y-108419737D01*
X186898150Y-108301148D01*
X187169002Y-108126360D01*
X187400550Y-107902090D01*
X187583896Y-107636956D01*
X187711994Y-107341148D01*
X187736374Y-107219184D01*
X187617027Y-106965750D01*
X186023250Y-106965750D01*
X185769250Y-106965750D01*
X184175473Y-106965750D01*
X184056126Y-107219184D01*
X180306250Y-107219184D01*
X180306250Y-106458316D01*
X184056126Y-106458316D01*
X184175473Y-106711750D01*
X185769250Y-106711750D01*
X185769250Y-105357734D01*
X186023250Y-105357734D01*
X186023250Y-106711750D01*
X187617027Y-106711750D01*
X187736374Y-106458316D01*
X187711994Y-106336352D01*
X187583896Y-106040544D01*
X187400550Y-105775410D01*
X187169002Y-105551140D01*
X186898150Y-105376352D01*
X186598403Y-105257763D01*
X186281280Y-105199931D01*
X186023250Y-105357734D01*
X185769250Y-105357734D01*
X185511220Y-105199931D01*
X185194097Y-105257763D01*
X184894350Y-105376352D01*
X184623498Y-105551140D01*
X184391950Y-105775410D01*
X184208604Y-106040544D01*
X184080506Y-106336352D01*
X184056126Y-106458316D01*
X180306250Y-106458316D01*
X180306250Y-104596072D01*
X180309926Y-104558749D01*
X180306250Y-104521426D01*
X180306250Y-104521417D01*
X180295253Y-104409764D01*
X180251796Y-104266503D01*
X180195269Y-104160750D01*
X197573449Y-104160750D01*
X197836251Y-104423553D01*
X197836250Y-107824886D01*
X197717535Y-107860898D01*
X197433498Y-108012719D01*
X197184536Y-108217036D01*
X196980219Y-108465998D01*
X196828398Y-108750035D01*
X196734907Y-109058234D01*
X196703339Y-109378750D01*
X196734907Y-109699266D01*
X196828398Y-110007465D01*
X196980219Y-110291502D01*
X197036678Y-110360298D01*
X196863923Y-110394661D01*
X196575471Y-110514141D01*
X196315871Y-110687600D01*
X196095100Y-110908371D01*
X195921641Y-111167971D01*
X195802161Y-111456423D01*
X195741250Y-111762641D01*
X195741250Y-112074859D01*
X195802161Y-112381077D01*
X195921641Y-112669529D01*
X196095100Y-112929129D01*
X196315871Y-113149900D01*
X196575471Y-113323359D01*
X196863923Y-113442839D01*
X197170141Y-113503750D01*
X197482359Y-113503750D01*
X197788577Y-113442839D01*
X198077029Y-113323359D01*
X198336629Y-113149900D01*
X198557400Y-112929129D01*
X198730859Y-112669529D01*
X198850339Y-112381077D01*
X198911250Y-112074859D01*
X198911250Y-111762641D01*
X198890680Y-111659225D01*
X199771250Y-111659225D01*
X199771250Y-112178275D01*
X199872511Y-112687351D01*
X200071143Y-113166891D01*
X200359512Y-113598465D01*
X200726535Y-113965488D01*
X201158109Y-114253857D01*
X201637649Y-114452489D01*
X202146725Y-114553750D01*
X202665775Y-114553750D01*
X203174851Y-114452489D01*
X203654391Y-114253857D01*
X204085965Y-113965488D01*
X204452988Y-113598465D01*
X204741357Y-113166891D01*
X204939989Y-112687351D01*
X205041250Y-112178275D01*
X205041250Y-111762641D01*
X205901250Y-111762641D01*
X205901250Y-112074859D01*
X205962161Y-112381077D01*
X206081641Y-112669529D01*
X206255100Y-112929129D01*
X206475871Y-113149900D01*
X206735471Y-113323359D01*
X207023923Y-113442839D01*
X207330141Y-113503750D01*
X207642359Y-113503750D01*
X207948577Y-113442839D01*
X208237029Y-113323359D01*
X208496629Y-113149900D01*
X208717400Y-112929129D01*
X208890859Y-112669529D01*
X209010339Y-112381077D01*
X209071250Y-112074859D01*
X209071250Y-111762641D01*
X209010339Y-111456423D01*
X208890859Y-111167971D01*
X208717400Y-110908371D01*
X208496629Y-110687600D01*
X208237029Y-110514141D01*
X207948577Y-110394661D01*
X207642359Y-110333750D01*
X207330141Y-110333750D01*
X207023923Y-110394661D01*
X206735471Y-110514141D01*
X206475871Y-110687600D01*
X206255100Y-110908371D01*
X206081641Y-111167971D01*
X205962161Y-111456423D01*
X205901250Y-111762641D01*
X205041250Y-111762641D01*
X205041250Y-111659225D01*
X204939989Y-111150149D01*
X204741357Y-110670609D01*
X204452988Y-110239035D01*
X204085965Y-109872012D01*
X203654391Y-109583643D01*
X203174851Y-109385011D01*
X202665775Y-109283750D01*
X202146725Y-109283750D01*
X201637649Y-109385011D01*
X201158109Y-109583643D01*
X200726535Y-109872012D01*
X200359512Y-110239035D01*
X200071143Y-110670609D01*
X199872511Y-111150149D01*
X199771250Y-111659225D01*
X198890680Y-111659225D01*
X198850339Y-111456423D01*
X198730859Y-111167971D01*
X198627812Y-111013750D01*
X198926572Y-111013750D01*
X199166766Y-110990093D01*
X199474965Y-110896602D01*
X199759002Y-110744781D01*
X200007964Y-110540464D01*
X200212281Y-110291502D01*
X200364102Y-110007465D01*
X200457593Y-109699266D01*
X200489161Y-109378750D01*
X200457593Y-109058234D01*
X200364102Y-108750035D01*
X200212281Y-108465998D01*
X200007964Y-108217036D01*
X199759002Y-108012719D01*
X199474965Y-107860898D01*
X199356250Y-107824886D01*
X199356250Y-107219184D01*
X203106126Y-107219184D01*
X203130506Y-107341148D01*
X203258604Y-107636956D01*
X203441950Y-107902090D01*
X203673498Y-108126360D01*
X203944350Y-108301148D01*
X204244097Y-108419737D01*
X204561220Y-108477569D01*
X204819250Y-108319766D01*
X204819250Y-106965750D01*
X205073250Y-106965750D01*
X205073250Y-108319766D01*
X205331280Y-108477569D01*
X205648403Y-108419737D01*
X205948150Y-108301148D01*
X206219002Y-108126360D01*
X206450550Y-107902090D01*
X206633896Y-107636956D01*
X206761994Y-107341148D01*
X206786374Y-107219184D01*
X206667027Y-106965750D01*
X205073250Y-106965750D01*
X204819250Y-106965750D01*
X203225473Y-106965750D01*
X203106126Y-107219184D01*
X199356250Y-107219184D01*
X199356250Y-106458316D01*
X203106126Y-106458316D01*
X203225473Y-106711750D01*
X204819250Y-106711750D01*
X204819250Y-105357734D01*
X205073250Y-105357734D01*
X205073250Y-106711750D01*
X206667027Y-106711750D01*
X206786374Y-106458316D01*
X206761994Y-106336352D01*
X206633896Y-106040544D01*
X206450550Y-105775410D01*
X206219002Y-105551140D01*
X205948150Y-105376352D01*
X205648403Y-105257763D01*
X205331280Y-105199931D01*
X205073250Y-105357734D01*
X204819250Y-105357734D01*
X204561220Y-105199931D01*
X204244097Y-105257763D01*
X203944350Y-105376352D01*
X203673498Y-105551140D01*
X203441950Y-105775410D01*
X203258604Y-106040544D01*
X203130506Y-106336352D01*
X203106126Y-106458316D01*
X199356250Y-106458316D01*
X199356250Y-104146072D01*
X199359926Y-104108749D01*
X199356250Y-104071426D01*
X199356250Y-104071417D01*
X199345253Y-103959764D01*
X199301796Y-103816503D01*
X199231224Y-103684474D01*
X199136251Y-103568749D01*
X199107252Y-103544951D01*
X198731051Y-103168750D01*
X199112253Y-102787548D01*
X199141252Y-102763750D01*
X199173631Y-102724296D01*
X199236225Y-102648026D01*
X199306797Y-102515996D01*
X199313319Y-102494494D01*
X199350254Y-102372735D01*
X199361251Y-102261082D01*
X199361251Y-102261073D01*
X199364927Y-102223750D01*
X199361251Y-102186427D01*
X199361251Y-92609225D01*
X199771250Y-92609225D01*
X199771250Y-93128275D01*
X199872511Y-93637351D01*
X200071143Y-94116891D01*
X200359512Y-94548465D01*
X200726535Y-94915488D01*
X201158109Y-95203857D01*
X201637649Y-95402489D01*
X202146725Y-95503750D01*
X202665775Y-95503750D01*
X203174851Y-95402489D01*
X203654391Y-95203857D01*
X204085965Y-94915488D01*
X204452988Y-94548465D01*
X204741357Y-94116891D01*
X204939989Y-93637351D01*
X205041250Y-93128275D01*
X205041250Y-92712641D01*
X205901250Y-92712641D01*
X205901250Y-93024859D01*
X205962161Y-93331077D01*
X206081641Y-93619529D01*
X206255100Y-93879129D01*
X206475871Y-94099900D01*
X206735471Y-94273359D01*
X207023923Y-94392839D01*
X207330141Y-94453750D01*
X207642359Y-94453750D01*
X207948577Y-94392839D01*
X208237029Y-94273359D01*
X208496629Y-94099900D01*
X208717400Y-93879129D01*
X208890859Y-93619529D01*
X209010339Y-93331077D01*
X209071250Y-93024859D01*
X209071250Y-92712641D01*
X209010339Y-92406423D01*
X208890859Y-92117971D01*
X208717400Y-91858371D01*
X208496629Y-91637600D01*
X208237029Y-91464141D01*
X207948577Y-91344661D01*
X207642359Y-91283750D01*
X207330141Y-91283750D01*
X207023923Y-91344661D01*
X206735471Y-91464141D01*
X206475871Y-91637600D01*
X206255100Y-91858371D01*
X206081641Y-92117971D01*
X205962161Y-92406423D01*
X205901250Y-92712641D01*
X205041250Y-92712641D01*
X205041250Y-92609225D01*
X204939989Y-92100149D01*
X204741357Y-91620609D01*
X204452988Y-91189035D01*
X204085965Y-90822012D01*
X203654391Y-90533643D01*
X203174851Y-90335011D01*
X202665775Y-90233750D01*
X202146725Y-90233750D01*
X201637649Y-90335011D01*
X201158109Y-90533643D01*
X200726535Y-90822012D01*
X200359512Y-91189035D01*
X200071143Y-91620609D01*
X199872511Y-92100149D01*
X199771250Y-92609225D01*
X199361251Y-92609225D01*
X199361251Y-91881097D01*
X199474965Y-91846602D01*
X199759002Y-91694781D01*
X200007964Y-91490464D01*
X200212281Y-91241502D01*
X200364102Y-90957465D01*
X200457593Y-90649266D01*
X200489161Y-90328750D01*
X200457593Y-90008234D01*
X200364102Y-89700035D01*
X200212281Y-89415998D01*
X200007964Y-89167036D01*
X199759002Y-88962719D01*
X199474965Y-88810898D01*
X199166766Y-88717407D01*
X198926572Y-88693750D01*
X198265928Y-88693750D01*
X198025734Y-88717407D01*
X197717535Y-88810898D01*
X197433498Y-88962719D01*
X197184536Y-89167036D01*
X196980219Y-89415998D01*
X196828398Y-89700035D01*
X196734907Y-90008234D01*
X196703339Y-90328750D01*
X196734907Y-90649266D01*
X196828398Y-90957465D01*
X196980219Y-91241502D01*
X197036678Y-91310298D01*
X196863923Y-91344661D01*
X196575471Y-91464141D01*
X196315871Y-91637600D01*
X196095100Y-91858371D01*
X195921641Y-92117971D01*
X195802161Y-92406423D01*
X195741250Y-92712641D01*
X195741250Y-93024859D01*
X195802161Y-93331077D01*
X195921641Y-93619529D01*
X196095100Y-93879129D01*
X196315871Y-94099900D01*
X196575471Y-94273359D01*
X196863923Y-94392839D01*
X197170141Y-94453750D01*
X197482359Y-94453750D01*
X197788577Y-94392839D01*
X197841251Y-94371021D01*
X197841252Y-101908946D01*
X197591429Y-102158770D01*
X180136373Y-102158770D01*
X180186225Y-102098025D01*
X180256797Y-101965996D01*
X180300254Y-101822735D01*
X180311251Y-101711082D01*
X180311251Y-101711073D01*
X180314927Y-101673750D01*
X180311251Y-101636427D01*
X180311251Y-92609225D01*
X180721250Y-92609225D01*
X180721250Y-93128275D01*
X180822511Y-93637351D01*
X181021143Y-94116891D01*
X181309512Y-94548465D01*
X181676535Y-94915488D01*
X182108109Y-95203857D01*
X182587649Y-95402489D01*
X183096725Y-95503750D01*
X183615775Y-95503750D01*
X184124851Y-95402489D01*
X184604391Y-95203857D01*
X185035965Y-94915488D01*
X185402988Y-94548465D01*
X185691357Y-94116891D01*
X185889989Y-93637351D01*
X185991250Y-93128275D01*
X185991250Y-92712641D01*
X186851250Y-92712641D01*
X186851250Y-93024859D01*
X186912161Y-93331077D01*
X187031641Y-93619529D01*
X187205100Y-93879129D01*
X187425871Y-94099900D01*
X187685471Y-94273359D01*
X187973923Y-94392839D01*
X188280141Y-94453750D01*
X188592359Y-94453750D01*
X188898577Y-94392839D01*
X189187029Y-94273359D01*
X189446629Y-94099900D01*
X189667400Y-93879129D01*
X189840859Y-93619529D01*
X189960339Y-93331077D01*
X190021250Y-93024859D01*
X190021250Y-92712641D01*
X189960339Y-92406423D01*
X189840859Y-92117971D01*
X189667400Y-91858371D01*
X189446629Y-91637600D01*
X189187029Y-91464141D01*
X188898577Y-91344661D01*
X188592359Y-91283750D01*
X188280141Y-91283750D01*
X187973923Y-91344661D01*
X187685471Y-91464141D01*
X187425871Y-91637600D01*
X187205100Y-91858371D01*
X187031641Y-92117971D01*
X186912161Y-92406423D01*
X186851250Y-92712641D01*
X185991250Y-92712641D01*
X185991250Y-92609225D01*
X185889989Y-92100149D01*
X185691357Y-91620609D01*
X185402988Y-91189035D01*
X185035965Y-90822012D01*
X184604391Y-90533643D01*
X184124851Y-90335011D01*
X183615775Y-90233750D01*
X183096725Y-90233750D01*
X182587649Y-90335011D01*
X182108109Y-90533643D01*
X181676535Y-90822012D01*
X181309512Y-91189035D01*
X181021143Y-91620609D01*
X180822511Y-92100149D01*
X180721250Y-92609225D01*
X180311251Y-92609225D01*
X180311251Y-92294071D01*
X180314927Y-92256748D01*
X180311251Y-92219426D01*
X180311251Y-92219416D01*
X180306250Y-92168641D01*
X180306250Y-91882614D01*
X180424965Y-91846602D01*
X180709002Y-91694781D01*
X180957964Y-91490464D01*
X181162281Y-91241502D01*
X181314102Y-90957465D01*
X181407593Y-90649266D01*
X181439161Y-90328750D01*
X181407593Y-90008234D01*
X181314102Y-89700035D01*
X181162281Y-89415998D01*
X180957964Y-89167036D01*
X180709002Y-88962719D01*
X180424965Y-88810898D01*
X180116766Y-88717407D01*
X179876572Y-88693750D01*
X179215928Y-88693750D01*
X178975734Y-88717407D01*
X178667535Y-88810898D01*
X178383498Y-88962719D01*
X178134536Y-89167036D01*
X177930219Y-89415998D01*
X177778398Y-89700035D01*
X177684907Y-90008234D01*
X177653339Y-90328750D01*
X177684907Y-90649266D01*
X177778398Y-90957465D01*
X177930219Y-91241502D01*
X177986678Y-91310298D01*
X177813923Y-91344661D01*
X177525471Y-91464141D01*
X177265871Y-91637600D01*
X177045100Y-91858371D01*
X176871641Y-92117971D01*
X176752161Y-92406423D01*
X176691250Y-92712641D01*
X176691250Y-93024859D01*
X176752161Y-93331077D01*
X176871641Y-93619529D01*
X177045100Y-93879129D01*
X177265871Y-94099900D01*
X177525471Y-94273359D01*
X177813923Y-94392839D01*
X178120141Y-94453750D01*
X178432359Y-94453750D01*
X178738577Y-94392839D01*
X178791251Y-94371021D01*
X178791252Y-101358946D01*
X178441439Y-101708760D01*
X161255570Y-101708760D01*
X161261251Y-101651084D01*
X161261251Y-101651075D01*
X161264927Y-101613752D01*
X161261251Y-101576429D01*
X161261251Y-92609225D01*
X161671250Y-92609225D01*
X161671250Y-93128275D01*
X161772511Y-93637351D01*
X161971143Y-94116891D01*
X162259512Y-94548465D01*
X162626535Y-94915488D01*
X163058109Y-95203857D01*
X163537649Y-95402489D01*
X164046725Y-95503750D01*
X164565775Y-95503750D01*
X165074851Y-95402489D01*
X165554391Y-95203857D01*
X165985965Y-94915488D01*
X166352988Y-94548465D01*
X166641357Y-94116891D01*
X166839989Y-93637351D01*
X166941250Y-93128275D01*
X166941250Y-92712641D01*
X167801250Y-92712641D01*
X167801250Y-93024859D01*
X167862161Y-93331077D01*
X167981641Y-93619529D01*
X168155100Y-93879129D01*
X168375871Y-94099900D01*
X168635471Y-94273359D01*
X168923923Y-94392839D01*
X169230141Y-94453750D01*
X169542359Y-94453750D01*
X169848577Y-94392839D01*
X170137029Y-94273359D01*
X170396629Y-94099900D01*
X170617400Y-93879129D01*
X170790859Y-93619529D01*
X170910339Y-93331077D01*
X170971250Y-93024859D01*
X170971250Y-92712641D01*
X170910339Y-92406423D01*
X170790859Y-92117971D01*
X170617400Y-91858371D01*
X170396629Y-91637600D01*
X170137029Y-91464141D01*
X169848577Y-91344661D01*
X169542359Y-91283750D01*
X169230141Y-91283750D01*
X168923923Y-91344661D01*
X168635471Y-91464141D01*
X168375871Y-91637600D01*
X168155100Y-91858371D01*
X167981641Y-92117971D01*
X167862161Y-92406423D01*
X167801250Y-92712641D01*
X166941250Y-92712641D01*
X166941250Y-92609225D01*
X166839989Y-92100149D01*
X166641357Y-91620609D01*
X166352988Y-91189035D01*
X165985965Y-90822012D01*
X165554391Y-90533643D01*
X165074851Y-90335011D01*
X164565775Y-90233750D01*
X164046725Y-90233750D01*
X163537649Y-90335011D01*
X163058109Y-90533643D01*
X162626535Y-90822012D01*
X162259512Y-91189035D01*
X161971143Y-91620609D01*
X161772511Y-92100149D01*
X161671250Y-92609225D01*
X161261251Y-92609225D01*
X161261251Y-91881097D01*
X161374965Y-91846602D01*
X161659002Y-91694781D01*
X161907964Y-91490464D01*
X162112281Y-91241502D01*
X162264102Y-90957465D01*
X162357593Y-90649266D01*
X162389161Y-90328750D01*
X162357593Y-90008234D01*
X162264102Y-89700035D01*
X162112281Y-89415998D01*
X161907964Y-89167036D01*
X161659002Y-88962719D01*
X161374965Y-88810898D01*
X161066766Y-88717407D01*
X160826572Y-88693750D01*
X160165928Y-88693750D01*
X159925734Y-88717407D01*
X159617535Y-88810898D01*
X159333498Y-88962719D01*
X159084536Y-89167036D01*
X158880219Y-89415998D01*
X158728398Y-89700035D01*
X158634907Y-90008234D01*
X158603339Y-90328750D01*
X158634907Y-90649266D01*
X158728398Y-90957465D01*
X158880219Y-91241502D01*
X158936678Y-91310298D01*
X158763923Y-91344661D01*
X158475471Y-91464141D01*
X158215871Y-91637600D01*
X157995100Y-91858371D01*
X157821641Y-92117971D01*
X157702161Y-92406423D01*
X157641250Y-92712641D01*
X157641250Y-93024859D01*
X157702161Y-93331077D01*
X157821641Y-93619529D01*
X157995100Y-93879129D01*
X158215871Y-94099900D01*
X158475471Y-94273359D01*
X158763923Y-94392839D01*
X159070141Y-94453750D01*
X159382359Y-94453750D01*
X159688577Y-94392839D01*
X159741251Y-94371021D01*
X159741252Y-101258750D01*
X152021052Y-101258750D01*
X151066250Y-100303949D01*
X151066250Y-98106672D01*
X151069926Y-98069349D01*
X151066250Y-98032026D01*
X151066250Y-98032017D01*
X151055253Y-97920364D01*
X151011796Y-97777103D01*
X150941224Y-97645074D01*
X150846251Y-97529349D01*
X150817253Y-97505551D01*
X149384022Y-96072320D01*
X149414650Y-95918342D01*
X149414650Y-95643158D01*
X149360964Y-95373260D01*
X149255655Y-95119023D01*
X149102770Y-94890215D01*
X148908185Y-94695630D01*
X148679377Y-94542745D01*
X148602135Y-94510750D01*
X148679377Y-94478755D01*
X148908185Y-94325870D01*
X149102770Y-94131285D01*
X149255655Y-93902477D01*
X149360964Y-93648240D01*
X149414650Y-93378342D01*
X149414650Y-93103158D01*
X149360964Y-92833260D01*
X149255655Y-92579023D01*
X149102770Y-92350215D01*
X148908185Y-92155630D01*
X148679377Y-92002745D01*
X148602135Y-91970750D01*
X148679377Y-91938755D01*
X148908185Y-91785870D01*
X149102770Y-91591285D01*
X149255655Y-91362477D01*
X149360964Y-91108240D01*
X149414650Y-90838342D01*
X149414650Y-90563158D01*
X149360964Y-90293260D01*
X149255655Y-90039023D01*
X149102770Y-89810215D01*
X148908185Y-89615630D01*
X148679377Y-89462745D01*
X148607707Y-89433058D01*
X148620673Y-89428386D01*
X148736630Y-89366406D01*
X148803610Y-89126315D01*
X148017650Y-88340355D01*
X147231690Y-89126315D01*
X147298670Y-89366406D01*
X147434410Y-89430235D01*
X147355923Y-89462745D01*
X147127115Y-89615630D01*
X146932530Y-89810215D01*
X146779645Y-90039023D01*
X146674336Y-90293260D01*
X146620650Y-90563158D01*
X138116250Y-90563158D01*
X138116250Y-90216673D01*
X138119926Y-90179350D01*
X138116250Y-90142027D01*
X138116250Y-90142017D01*
X138105253Y-90030364D01*
X138061796Y-89887103D01*
X138009224Y-89788749D01*
X137991224Y-89755073D01*
X137920049Y-89668347D01*
X137896251Y-89639349D01*
X137867253Y-89615551D01*
X136484469Y-88232767D01*
X146615740Y-88232767D01*
X146656728Y-88504883D01*
X146750014Y-88763773D01*
X146811994Y-88879730D01*
X147052085Y-88946710D01*
X147838045Y-88160750D01*
X148197255Y-88160750D01*
X148983215Y-88946710D01*
X149223306Y-88879730D01*
X149340406Y-88630702D01*
X149406673Y-88363615D01*
X149415788Y-88169184D01*
X165006126Y-88169184D01*
X165030506Y-88291148D01*
X165158604Y-88586956D01*
X165341950Y-88852090D01*
X165573498Y-89076360D01*
X165844350Y-89251148D01*
X166144097Y-89369737D01*
X166461220Y-89427569D01*
X166719250Y-89269766D01*
X166719250Y-87915750D01*
X166973250Y-87915750D01*
X166973250Y-89269766D01*
X167231280Y-89427569D01*
X167548403Y-89369737D01*
X167848150Y-89251148D01*
X168119002Y-89076360D01*
X168350550Y-88852090D01*
X168533896Y-88586956D01*
X168661994Y-88291148D01*
X168686374Y-88169184D01*
X184056126Y-88169184D01*
X184080506Y-88291148D01*
X184208604Y-88586956D01*
X184391950Y-88852090D01*
X184623498Y-89076360D01*
X184894350Y-89251148D01*
X185194097Y-89369737D01*
X185511220Y-89427569D01*
X185769250Y-89269766D01*
X185769250Y-87915750D01*
X186023250Y-87915750D01*
X186023250Y-89269766D01*
X186281280Y-89427569D01*
X186598403Y-89369737D01*
X186898150Y-89251148D01*
X187169002Y-89076360D01*
X187400550Y-88852090D01*
X187583896Y-88586956D01*
X187711994Y-88291148D01*
X187736374Y-88169184D01*
X203106126Y-88169184D01*
X203130506Y-88291148D01*
X203258604Y-88586956D01*
X203441950Y-88852090D01*
X203673498Y-89076360D01*
X203944350Y-89251148D01*
X204244097Y-89369737D01*
X204561220Y-89427569D01*
X204819250Y-89269766D01*
X204819250Y-87915750D01*
X205073250Y-87915750D01*
X205073250Y-89269766D01*
X205331280Y-89427569D01*
X205648403Y-89369737D01*
X205948150Y-89251148D01*
X206219002Y-89076360D01*
X206450550Y-88852090D01*
X206633896Y-88586956D01*
X206761994Y-88291148D01*
X206786374Y-88169184D01*
X206667027Y-87915750D01*
X205073250Y-87915750D01*
X204819250Y-87915750D01*
X203225473Y-87915750D01*
X203106126Y-88169184D01*
X187736374Y-88169184D01*
X187617027Y-87915750D01*
X186023250Y-87915750D01*
X185769250Y-87915750D01*
X184175473Y-87915750D01*
X184056126Y-88169184D01*
X168686374Y-88169184D01*
X168567027Y-87915750D01*
X166973250Y-87915750D01*
X166719250Y-87915750D01*
X165125473Y-87915750D01*
X165006126Y-88169184D01*
X149415788Y-88169184D01*
X149419560Y-88088733D01*
X149378572Y-87816617D01*
X149285286Y-87557727D01*
X149223306Y-87441770D01*
X149103390Y-87408316D01*
X165006126Y-87408316D01*
X165125473Y-87661750D01*
X166719250Y-87661750D01*
X166719250Y-86307734D01*
X166973250Y-86307734D01*
X166973250Y-87661750D01*
X168567027Y-87661750D01*
X168686374Y-87408316D01*
X184056126Y-87408316D01*
X184175473Y-87661750D01*
X185769250Y-87661750D01*
X185769250Y-86307734D01*
X186023250Y-86307734D01*
X186023250Y-87661750D01*
X187617027Y-87661750D01*
X187736374Y-87408316D01*
X203106126Y-87408316D01*
X203225473Y-87661750D01*
X204819250Y-87661750D01*
X204819250Y-86307734D01*
X205073250Y-86307734D01*
X205073250Y-87661750D01*
X206667027Y-87661750D01*
X206786374Y-87408316D01*
X206761994Y-87286352D01*
X206633896Y-86990544D01*
X206450550Y-86725410D01*
X206219002Y-86501140D01*
X205948150Y-86326352D01*
X205648403Y-86207763D01*
X205331280Y-86149931D01*
X205073250Y-86307734D01*
X204819250Y-86307734D01*
X204561220Y-86149931D01*
X204244097Y-86207763D01*
X203944350Y-86326352D01*
X203673498Y-86501140D01*
X203441950Y-86725410D01*
X203258604Y-86990544D01*
X203130506Y-87286352D01*
X203106126Y-87408316D01*
X187736374Y-87408316D01*
X187711994Y-87286352D01*
X187583896Y-86990544D01*
X187400550Y-86725410D01*
X187169002Y-86501140D01*
X186898150Y-86326352D01*
X186598403Y-86207763D01*
X186281280Y-86149931D01*
X186023250Y-86307734D01*
X185769250Y-86307734D01*
X185511220Y-86149931D01*
X185194097Y-86207763D01*
X184894350Y-86326352D01*
X184623498Y-86501140D01*
X184391950Y-86725410D01*
X184208604Y-86990544D01*
X184080506Y-87286352D01*
X184056126Y-87408316D01*
X168686374Y-87408316D01*
X168661994Y-87286352D01*
X168533896Y-86990544D01*
X168350550Y-86725410D01*
X168119002Y-86501140D01*
X167848150Y-86326352D01*
X167548403Y-86207763D01*
X167231280Y-86149931D01*
X166973250Y-86307734D01*
X166719250Y-86307734D01*
X166461220Y-86149931D01*
X166144097Y-86207763D01*
X165844350Y-86326352D01*
X165573498Y-86501140D01*
X165341950Y-86725410D01*
X165158604Y-86990544D01*
X165030506Y-87286352D01*
X165006126Y-87408316D01*
X149103390Y-87408316D01*
X148983215Y-87374790D01*
X148197255Y-88160750D01*
X147838045Y-88160750D01*
X147052085Y-87374790D01*
X146811994Y-87441770D01*
X146694894Y-87690798D01*
X146628627Y-87957885D01*
X146615740Y-88232767D01*
X136484469Y-88232767D01*
X134838017Y-86586315D01*
X147231690Y-86586315D01*
X147298670Y-86826406D01*
X147429294Y-86887829D01*
X147414627Y-86893114D01*
X147298670Y-86955094D01*
X147231690Y-87195185D01*
X148017650Y-87981145D01*
X148803610Y-87195185D01*
X148736630Y-86955094D01*
X148606006Y-86893671D01*
X148620673Y-86888386D01*
X148736630Y-86826406D01*
X148803610Y-86586315D01*
X148017650Y-85800355D01*
X147231690Y-86586315D01*
X134838017Y-86586315D01*
X134164022Y-85912321D01*
X134194650Y-85758342D01*
X134194650Y-85692767D01*
X146615740Y-85692767D01*
X146656728Y-85964883D01*
X146750014Y-86223773D01*
X146811994Y-86339730D01*
X147052085Y-86406710D01*
X147838045Y-85620750D01*
X148197255Y-85620750D01*
X148983215Y-86406710D01*
X149223306Y-86339730D01*
X149340406Y-86090702D01*
X149406673Y-85823615D01*
X149419560Y-85548733D01*
X149378572Y-85276617D01*
X149285286Y-85017727D01*
X149223306Y-84901770D01*
X148983215Y-84834790D01*
X148197255Y-85620750D01*
X147838045Y-85620750D01*
X147052085Y-84834790D01*
X146811994Y-84901770D01*
X146694894Y-85150798D01*
X146628627Y-85417885D01*
X146615740Y-85692767D01*
X134194650Y-85692767D01*
X134194650Y-85483158D01*
X134140964Y-85213260D01*
X134035655Y-84959023D01*
X133882770Y-84730215D01*
X133688185Y-84535630D01*
X133459377Y-84382745D01*
X133387707Y-84353058D01*
X133400673Y-84348386D01*
X133516630Y-84286406D01*
X133583610Y-84046315D01*
X132797650Y-83260355D01*
X132011690Y-84046315D01*
X132078670Y-84286406D01*
X132214410Y-84350235D01*
X132135923Y-84382745D01*
X131907115Y-84535630D01*
X131712530Y-84730215D01*
X131559645Y-84959023D01*
X131454336Y-85213260D01*
X131400650Y-85483158D01*
X126866250Y-85483158D01*
X126866250Y-83152767D01*
X131395740Y-83152767D01*
X131436728Y-83424883D01*
X131530014Y-83683773D01*
X131591994Y-83799730D01*
X131832085Y-83866710D01*
X132618045Y-83080750D01*
X132977255Y-83080750D01*
X133763215Y-83866710D01*
X134003306Y-83799730D01*
X134120406Y-83550702D01*
X134186673Y-83283615D01*
X134199560Y-83008733D01*
X134158572Y-82736617D01*
X134065286Y-82477727D01*
X134003306Y-82361770D01*
X133763215Y-82294790D01*
X132977255Y-83080750D01*
X132618045Y-83080750D01*
X131832085Y-82294790D01*
X131591994Y-82361770D01*
X131474894Y-82610798D01*
X131408627Y-82877885D01*
X131395740Y-83152767D01*
X126866250Y-83152767D01*
X126866250Y-80403158D01*
X131400650Y-80403158D01*
X131400650Y-80678342D01*
X131454336Y-80948240D01*
X131559645Y-81202477D01*
X131712530Y-81431285D01*
X131907115Y-81625870D01*
X132135923Y-81778755D01*
X132207593Y-81808442D01*
X132194627Y-81813114D01*
X132078670Y-81875094D01*
X132011690Y-82115185D01*
X132797650Y-82901145D01*
X133583610Y-82115185D01*
X133516630Y-81875094D01*
X133380890Y-81811265D01*
X133459377Y-81778755D01*
X133688185Y-81625870D01*
X133882770Y-81431285D01*
X134035655Y-81202477D01*
X134140964Y-80948240D01*
X134194650Y-80678342D01*
X134194650Y-80403158D01*
X146620650Y-80403158D01*
X146620650Y-80678342D01*
X146674336Y-80948240D01*
X146779645Y-81202477D01*
X146932530Y-81431285D01*
X147127115Y-81625870D01*
X147355923Y-81778755D01*
X147433165Y-81810750D01*
X147355923Y-81842745D01*
X147127115Y-81995630D01*
X146932530Y-82190215D01*
X146779645Y-82419023D01*
X146674336Y-82673260D01*
X146620650Y-82943158D01*
X146620650Y-83218342D01*
X146674336Y-83488240D01*
X146779645Y-83742477D01*
X146932530Y-83971285D01*
X147127115Y-84165870D01*
X147355923Y-84318755D01*
X147427593Y-84348442D01*
X147414627Y-84353114D01*
X147298670Y-84415094D01*
X147231690Y-84655185D01*
X148017650Y-85441145D01*
X148803610Y-84655185D01*
X148736630Y-84415094D01*
X148600890Y-84351265D01*
X148679377Y-84318755D01*
X148908185Y-84165870D01*
X149102770Y-83971285D01*
X149255655Y-83742477D01*
X149360964Y-83488240D01*
X149414650Y-83218342D01*
X149414650Y-82943158D01*
X149360964Y-82673260D01*
X149255655Y-82419023D01*
X149102770Y-82190215D01*
X148908185Y-81995630D01*
X148679377Y-81842745D01*
X148602135Y-81810750D01*
X148679377Y-81778755D01*
X148908185Y-81625870D01*
X149102770Y-81431285D01*
X149255655Y-81202477D01*
X149360964Y-80948240D01*
X149414650Y-80678342D01*
X149414650Y-80403158D01*
X149360964Y-80133260D01*
X149255655Y-79879023D01*
X149102770Y-79650215D01*
X148908185Y-79455630D01*
X148679377Y-79302745D01*
X148425140Y-79197436D01*
X148155242Y-79143750D01*
X147880058Y-79143750D01*
X147610160Y-79197436D01*
X147355923Y-79302745D01*
X147127115Y-79455630D01*
X146932530Y-79650215D01*
X146779645Y-79879023D01*
X146674336Y-80133260D01*
X146620650Y-80403158D01*
X134194650Y-80403158D01*
X134140964Y-80133260D01*
X134035655Y-79879023D01*
X133882770Y-79650215D01*
X133688185Y-79455630D01*
X133459377Y-79302745D01*
X133205140Y-79197436D01*
X132935242Y-79143750D01*
X132660058Y-79143750D01*
X132390160Y-79197436D01*
X132135923Y-79302745D01*
X131907115Y-79455630D01*
X131712530Y-79650215D01*
X131559645Y-79879023D01*
X131454336Y-80133260D01*
X131400650Y-80403158D01*
X126866250Y-80403158D01*
X126866250Y-76851029D01*
X126913920Y-76364857D01*
X127045739Y-75928252D01*
X127259850Y-75525565D01*
X127548098Y-75172138D01*
X127899511Y-74881423D01*
X128300689Y-74664508D01*
X128736363Y-74529644D01*
X129220594Y-74478750D01*
X214173971Y-74478750D01*
X214660143Y-74526420D01*
G37*
G04 #@! TD.AperFunction*
M02*
