M48
; DRILL file {KiCad (5.1.10)-1} date 05/16/21 22:15:33
; FORMAT={-:-/ absolute / metric / decimal}
; #@! TF.CreationDate,2021-05-16T22:15:33-07:00
; #@! TF.GenerationSoftware,Kicad,Pcbnew,(5.1.10)-1
; #@! TF.FileFunction,Plated,1,2,PTH
FMAT,2
METRIC
T1C0.800
T2C0.813
T3C1.300
%
G90
G05
T2
X132.798Y-80.541
X132.798Y-83.081
X132.798Y-85.621
X132.798Y-88.161
X132.798Y-90.701
X132.798Y-93.241
X132.798Y-95.781
X132.798Y-98.321
X132.798Y-100.861
X132.798Y-103.401
X132.798Y-105.941
X132.798Y-108.481
X148.018Y-80.541
X148.018Y-83.081
X148.018Y-85.621
X148.018Y-88.161
X148.018Y-90.701
X148.018Y-93.241
X148.018Y-95.781
X148.018Y-98.321
X148.018Y-100.861
X148.018Y-103.401
X148.018Y-105.941
X148.018Y-108.481
T3
X137.356Y-117.919
X143.856Y-117.919
T1
G00X160.296Y-90.329
M15
G01X160.696Y-90.329
M16
G05
G00X160.296Y-109.379
M15
G01X160.696Y-109.379
M16
G05
G00X166.646Y-87.789
M15
G01X167.046Y-87.789
M16
G05
G00X166.646Y-106.839
M15
G01X167.046Y-106.839
M16
G05
G00X179.346Y-90.329
M15
G01X179.746Y-90.329
M16
G05
G00X179.346Y-109.379
M15
G01X179.746Y-109.379
M16
G05
G00X185.696Y-87.789
M15
G01X186.096Y-87.789
M16
G05
G00X185.696Y-106.839
M15
G01X186.096Y-106.839
M16
G05
G00X198.396Y-90.329
M15
G01X198.796Y-90.329
M16
G05
G00X198.396Y-109.379
M15
G01X198.796Y-109.379
M16
G05
G00X204.746Y-87.789
M15
G01X205.146Y-87.789
M16
G05
G00X204.746Y-106.839
M15
G01X205.146Y-106.839
M16
G05
T0
M30
