G04 #@! TF.GenerationSoftware,KiCad,Pcbnew,(5.1.10)-1*
G04 #@! TF.CreationDate,2021-05-16T22:15:22-07:00*
G04 #@! TF.ProjectId,mkbd-guide,6d6b6264-2d67-4756-9964-652e6b696361,rev?*
G04 #@! TF.SameCoordinates,Original*
G04 #@! TF.FileFunction,Legend,Top*
G04 #@! TF.FilePolarity,Positive*
%FSLAX46Y46*%
G04 Gerber Fmt 4.6, Leading zero omitted, Abs format (unit mm)*
G04 Created by KiCad (PCBNEW (5.1.10)-1) date 2021-05-16 22:15:22*
%MOMM*%
%LPD*%
G01*
G04 APERTURE LIST*
%ADD10C,0.150000*%
%ADD11C,0.120000*%
%ADD12C,0.125000*%
%ADD13C,0.200000*%
%ADD14C,4.000000*%
%ADD15C,1.900000*%
%ADD16C,2.000000*%
G04 APERTURE END LIST*
D10*
X149156250Y-109618750D02*
X148296250Y-109618750D01*
X131656250Y-109618750D02*
X132506250Y-109618750D01*
X149156250Y-108768750D02*
X149156250Y-109618750D01*
X131656250Y-108718750D02*
X131656250Y-109618750D01*
X149156250Y-79418750D02*
X148356250Y-79418750D01*
X131656250Y-79418750D02*
X132506250Y-79418750D01*
X149156250Y-79418750D02*
X149156250Y-80268750D01*
X131656250Y-79418750D02*
X131656250Y-80268750D01*
X136656250Y-73818750D02*
X136656250Y-75118750D01*
X136656250Y-75118750D02*
X144156250Y-75118750D01*
X144156250Y-75118750D02*
X144156250Y-73818750D01*
X144156250Y-73818750D02*
X136656250Y-73818750D01*
X139906250Y-74168750D02*
X140906250Y-74168750D01*
X140906250Y-74168750D02*
X140406250Y-74818750D01*
X140406250Y-74818750D02*
X139906250Y-74168750D01*
X140056250Y-74318750D02*
X140756250Y-74318750D01*
X140156250Y-74468750D02*
X140656250Y-74468750D01*
X140256250Y-74618750D02*
X140556250Y-74618750D01*
X143606250Y-116168750D02*
X143606250Y-116418750D01*
X137606250Y-116168750D02*
X143606250Y-116168750D01*
X137606250Y-116168750D02*
X137606250Y-116418750D01*
X137606250Y-119668750D02*
X137606250Y-119418750D01*
X143606250Y-119668750D02*
X143606250Y-119418750D01*
X137606250Y-119668750D02*
X143606250Y-119668750D01*
D11*
X137909821Y-76408035D02*
X137909821Y-75658035D01*
X138159821Y-76193750D01*
X138409821Y-75658035D01*
X138409821Y-76408035D01*
X138766964Y-76408035D02*
X138766964Y-75908035D01*
X138766964Y-75658035D02*
X138731250Y-75693750D01*
X138766964Y-75729464D01*
X138802678Y-75693750D01*
X138766964Y-75658035D01*
X138766964Y-75729464D01*
X139445535Y-76372321D02*
X139374107Y-76408035D01*
X139231250Y-76408035D01*
X139159821Y-76372321D01*
X139124107Y-76336607D01*
X139088392Y-76265178D01*
X139088392Y-76050892D01*
X139124107Y-75979464D01*
X139159821Y-75943750D01*
X139231250Y-75908035D01*
X139374107Y-75908035D01*
X139445535Y-75943750D01*
X139766964Y-76408035D02*
X139766964Y-75908035D01*
X139766964Y-76050892D02*
X139802678Y-75979464D01*
X139838392Y-75943750D01*
X139909821Y-75908035D01*
X139981250Y-75908035D01*
X140338392Y-76408035D02*
X140266964Y-76372321D01*
X140231250Y-76336607D01*
X140195535Y-76265178D01*
X140195535Y-76050892D01*
X140231250Y-75979464D01*
X140266964Y-75943750D01*
X140338392Y-75908035D01*
X140445535Y-75908035D01*
X140516964Y-75943750D01*
X140552678Y-75979464D01*
X140588392Y-76050892D01*
X140588392Y-76265178D01*
X140552678Y-76336607D01*
X140516964Y-76372321D01*
X140445535Y-76408035D01*
X140338392Y-76408035D01*
X140909821Y-75658035D02*
X140909821Y-76265178D01*
X140945535Y-76336607D01*
X140981250Y-76372321D01*
X141052678Y-76408035D01*
X141195535Y-76408035D01*
X141266964Y-76372321D01*
X141302678Y-76336607D01*
X141338392Y-76265178D01*
X141338392Y-75658035D01*
X141659821Y-76372321D02*
X141766964Y-76408035D01*
X141945535Y-76408035D01*
X142016964Y-76372321D01*
X142052678Y-76336607D01*
X142088392Y-76265178D01*
X142088392Y-76193750D01*
X142052678Y-76122321D01*
X142016964Y-76086607D01*
X141945535Y-76050892D01*
X141802678Y-76015178D01*
X141731250Y-75979464D01*
X141695535Y-75943750D01*
X141659821Y-75872321D01*
X141659821Y-75800892D01*
X141695535Y-75729464D01*
X141731250Y-75693750D01*
X141802678Y-75658035D01*
X141981250Y-75658035D01*
X142088392Y-75693750D01*
X142659821Y-76015178D02*
X142766964Y-76050892D01*
X142802678Y-76086607D01*
X142838392Y-76158035D01*
X142838392Y-76265178D01*
X142802678Y-76336607D01*
X142766964Y-76372321D01*
X142695535Y-76408035D01*
X142409821Y-76408035D01*
X142409821Y-75658035D01*
X142659821Y-75658035D01*
X142731250Y-75693750D01*
X142766964Y-75729464D01*
X142802678Y-75800892D01*
X142802678Y-75872321D01*
X142766964Y-75943750D01*
X142731250Y-75979464D01*
X142659821Y-76015178D01*
X142409821Y-76015178D01*
X137909821Y-76408035D02*
X137909821Y-75658035D01*
X138159821Y-76193750D01*
X138409821Y-75658035D01*
X138409821Y-76408035D01*
X138766964Y-76408035D02*
X138766964Y-75908035D01*
X138766964Y-75658035D02*
X138731250Y-75693750D01*
X138766964Y-75729464D01*
X138802678Y-75693750D01*
X138766964Y-75658035D01*
X138766964Y-75729464D01*
X139445535Y-76372321D02*
X139374107Y-76408035D01*
X139231250Y-76408035D01*
X139159821Y-76372321D01*
X139124107Y-76336607D01*
X139088392Y-76265178D01*
X139088392Y-76050892D01*
X139124107Y-75979464D01*
X139159821Y-75943750D01*
X139231250Y-75908035D01*
X139374107Y-75908035D01*
X139445535Y-75943750D01*
X139766964Y-76408035D02*
X139766964Y-75908035D01*
X139766964Y-76050892D02*
X139802678Y-75979464D01*
X139838392Y-75943750D01*
X139909821Y-75908035D01*
X139981250Y-75908035D01*
X140338392Y-76408035D02*
X140266964Y-76372321D01*
X140231250Y-76336607D01*
X140195535Y-76265178D01*
X140195535Y-76050892D01*
X140231250Y-75979464D01*
X140266964Y-75943750D01*
X140338392Y-75908035D01*
X140445535Y-75908035D01*
X140516964Y-75943750D01*
X140552678Y-75979464D01*
X140588392Y-76050892D01*
X140588392Y-76265178D01*
X140552678Y-76336607D01*
X140516964Y-76372321D01*
X140445535Y-76408035D01*
X140338392Y-76408035D01*
X140909821Y-75658035D02*
X140909821Y-76265178D01*
X140945535Y-76336607D01*
X140981250Y-76372321D01*
X141052678Y-76408035D01*
X141195535Y-76408035D01*
X141266964Y-76372321D01*
X141302678Y-76336607D01*
X141338392Y-76265178D01*
X141338392Y-75658035D01*
X141659821Y-76372321D02*
X141766964Y-76408035D01*
X141945535Y-76408035D01*
X142016964Y-76372321D01*
X142052678Y-76336607D01*
X142088392Y-76265178D01*
X142088392Y-76193750D01*
X142052678Y-76122321D01*
X142016964Y-76086607D01*
X141945535Y-76050892D01*
X141802678Y-76015178D01*
X141731250Y-75979464D01*
X141695535Y-75943750D01*
X141659821Y-75872321D01*
X141659821Y-75800892D01*
X141695535Y-75729464D01*
X141731250Y-75693750D01*
X141802678Y-75658035D01*
X141981250Y-75658035D01*
X142088392Y-75693750D01*
X142659821Y-76015178D02*
X142766964Y-76050892D01*
X142802678Y-76086607D01*
X142838392Y-76158035D01*
X142838392Y-76265178D01*
X142802678Y-76336607D01*
X142766964Y-76372321D01*
X142695535Y-76408035D01*
X142409821Y-76408035D01*
X142409821Y-75658035D01*
X142659821Y-75658035D01*
X142731250Y-75693750D01*
X142766964Y-75729464D01*
X142802678Y-75800892D01*
X142802678Y-75872321D01*
X142766964Y-75943750D01*
X142731250Y-75979464D01*
X142659821Y-76015178D01*
X142409821Y-76015178D01*
D12*
X144170059Y-105765178D02*
X144265773Y-105800892D01*
X144297678Y-105836607D01*
X144329583Y-105908035D01*
X144329583Y-106015178D01*
X144297678Y-106086607D01*
X144265773Y-106122321D01*
X144201964Y-106158035D01*
X143946726Y-106158035D01*
X143946726Y-105408035D01*
X144170059Y-105408035D01*
X144233869Y-105443750D01*
X144265773Y-105479464D01*
X144297678Y-105550892D01*
X144297678Y-105622321D01*
X144265773Y-105693750D01*
X144233869Y-105729464D01*
X144170059Y-105765178D01*
X143946726Y-105765178D01*
X144903869Y-105658035D02*
X144903869Y-106158035D01*
X144744345Y-105372321D02*
X144584821Y-105908035D01*
X144999583Y-105908035D01*
X145733392Y-105372321D02*
X145159107Y-106336607D01*
X146052440Y-105729464D02*
X145988630Y-105693750D01*
X145956726Y-105658035D01*
X145924821Y-105586607D01*
X145924821Y-105550892D01*
X145956726Y-105479464D01*
X145988630Y-105443750D01*
X146052440Y-105408035D01*
X146180059Y-105408035D01*
X146243869Y-105443750D01*
X146275773Y-105479464D01*
X146307678Y-105550892D01*
X146307678Y-105586607D01*
X146275773Y-105658035D01*
X146243869Y-105693750D01*
X146180059Y-105729464D01*
X146052440Y-105729464D01*
X145988630Y-105765178D01*
X145956726Y-105800892D01*
X145924821Y-105872321D01*
X145924821Y-106015178D01*
X145956726Y-106086607D01*
X145988630Y-106122321D01*
X146052440Y-106158035D01*
X146180059Y-106158035D01*
X146243869Y-106122321D01*
X146275773Y-106086607D01*
X146307678Y-106015178D01*
X146307678Y-105872321D01*
X146275773Y-105800892D01*
X146243869Y-105765178D01*
X146180059Y-105729464D01*
X142742678Y-83458035D02*
X142742678Y-82708035D01*
X142902202Y-82708035D01*
X142997916Y-82743750D01*
X143061726Y-82815178D01*
X143093630Y-82886607D01*
X143125535Y-83029464D01*
X143125535Y-83136607D01*
X143093630Y-83279464D01*
X143061726Y-83350892D01*
X142997916Y-83422321D01*
X142902202Y-83458035D01*
X142742678Y-83458035D01*
X143380773Y-82779464D02*
X143412678Y-82743750D01*
X143476488Y-82708035D01*
X143636011Y-82708035D01*
X143699821Y-82743750D01*
X143731726Y-82779464D01*
X143763630Y-82850892D01*
X143763630Y-82922321D01*
X143731726Y-83029464D01*
X143348869Y-83458035D01*
X143763630Y-83458035D01*
X144529345Y-82672321D02*
X143955059Y-83636607D01*
X145135535Y-83458035D02*
X144912202Y-83100892D01*
X144752678Y-83458035D02*
X144752678Y-82708035D01*
X145007916Y-82708035D01*
X145071726Y-82743750D01*
X145103630Y-82779464D01*
X145135535Y-82850892D01*
X145135535Y-82958035D01*
X145103630Y-83029464D01*
X145071726Y-83065178D01*
X145007916Y-83100892D01*
X144752678Y-83100892D01*
X145358869Y-82708035D02*
X145805535Y-83458035D01*
X145805535Y-82708035D02*
X145358869Y-83458035D01*
X146411726Y-83458035D02*
X146028869Y-83458035D01*
X146220297Y-83458035D02*
X146220297Y-82708035D01*
X146156488Y-82815178D01*
X146092678Y-82886607D01*
X146028869Y-82922321D01*
X144170059Y-108265178D02*
X144265773Y-108300892D01*
X144297678Y-108336607D01*
X144329583Y-108408035D01*
X144329583Y-108515178D01*
X144297678Y-108586607D01*
X144265773Y-108622321D01*
X144201964Y-108658035D01*
X143946726Y-108658035D01*
X143946726Y-107908035D01*
X144170059Y-107908035D01*
X144233869Y-107943750D01*
X144265773Y-107979464D01*
X144297678Y-108050892D01*
X144297678Y-108122321D01*
X144265773Y-108193750D01*
X144233869Y-108229464D01*
X144170059Y-108265178D01*
X143946726Y-108265178D01*
X144935773Y-107908035D02*
X144616726Y-107908035D01*
X144584821Y-108265178D01*
X144616726Y-108229464D01*
X144680535Y-108193750D01*
X144840059Y-108193750D01*
X144903869Y-108229464D01*
X144935773Y-108265178D01*
X144967678Y-108336607D01*
X144967678Y-108515178D01*
X144935773Y-108586607D01*
X144903869Y-108622321D01*
X144840059Y-108658035D01*
X144680535Y-108658035D01*
X144616726Y-108622321D01*
X144584821Y-108586607D01*
X145733392Y-107872321D02*
X145159107Y-108836607D01*
X145988630Y-108658035D02*
X146116250Y-108658035D01*
X146180059Y-108622321D01*
X146211964Y-108586607D01*
X146275773Y-108479464D01*
X146307678Y-108336607D01*
X146307678Y-108050892D01*
X146275773Y-107979464D01*
X146243869Y-107943750D01*
X146180059Y-107908035D01*
X146052440Y-107908035D01*
X145988630Y-107943750D01*
X145956726Y-107979464D01*
X145924821Y-108050892D01*
X145924821Y-108229464D01*
X145956726Y-108300892D01*
X145988630Y-108336607D01*
X146052440Y-108372321D01*
X146180059Y-108372321D01*
X146243869Y-108336607D01*
X146275773Y-108300892D01*
X146307678Y-108229464D01*
X144329583Y-98436607D02*
X144297678Y-98472321D01*
X144201964Y-98508035D01*
X144138154Y-98508035D01*
X144042440Y-98472321D01*
X143978630Y-98400892D01*
X143946726Y-98329464D01*
X143914821Y-98186607D01*
X143914821Y-98079464D01*
X143946726Y-97936607D01*
X143978630Y-97865178D01*
X144042440Y-97793750D01*
X144138154Y-97758035D01*
X144201964Y-97758035D01*
X144297678Y-97793750D01*
X144329583Y-97829464D01*
X144903869Y-97758035D02*
X144776250Y-97758035D01*
X144712440Y-97793750D01*
X144680535Y-97829464D01*
X144616726Y-97936607D01*
X144584821Y-98079464D01*
X144584821Y-98365178D01*
X144616726Y-98436607D01*
X144648630Y-98472321D01*
X144712440Y-98508035D01*
X144840059Y-98508035D01*
X144903869Y-98472321D01*
X144935773Y-98436607D01*
X144967678Y-98365178D01*
X144967678Y-98186607D01*
X144935773Y-98115178D01*
X144903869Y-98079464D01*
X144840059Y-98043750D01*
X144712440Y-98043750D01*
X144648630Y-98079464D01*
X144616726Y-98115178D01*
X144584821Y-98186607D01*
X145733392Y-97722321D02*
X145159107Y-98686607D01*
X146275773Y-97758035D02*
X145956726Y-97758035D01*
X145924821Y-98115178D01*
X145956726Y-98079464D01*
X146020535Y-98043750D01*
X146180059Y-98043750D01*
X146243869Y-98079464D01*
X146275773Y-98115178D01*
X146307678Y-98186607D01*
X146307678Y-98365178D01*
X146275773Y-98436607D01*
X146243869Y-98472321D01*
X146180059Y-98508035D01*
X146020535Y-98508035D01*
X145956726Y-98472321D01*
X145924821Y-98436607D01*
X141388630Y-93422321D02*
X141484345Y-93458035D01*
X141643869Y-93458035D01*
X141707678Y-93422321D01*
X141739583Y-93386607D01*
X141771488Y-93315178D01*
X141771488Y-93243750D01*
X141739583Y-93172321D01*
X141707678Y-93136607D01*
X141643869Y-93100892D01*
X141516250Y-93065178D01*
X141452440Y-93029464D01*
X141420535Y-92993750D01*
X141388630Y-92922321D01*
X141388630Y-92850892D01*
X141420535Y-92779464D01*
X141452440Y-92743750D01*
X141516250Y-92708035D01*
X141675773Y-92708035D01*
X141771488Y-92743750D01*
X142441488Y-93386607D02*
X142409583Y-93422321D01*
X142313869Y-93458035D01*
X142250059Y-93458035D01*
X142154345Y-93422321D01*
X142090535Y-93350892D01*
X142058630Y-93279464D01*
X142026726Y-93136607D01*
X142026726Y-93029464D01*
X142058630Y-92886607D01*
X142090535Y-92815178D01*
X142154345Y-92743750D01*
X142250059Y-92708035D01*
X142313869Y-92708035D01*
X142409583Y-92743750D01*
X142441488Y-92779464D01*
X143047678Y-93458035D02*
X142728630Y-93458035D01*
X142728630Y-92708035D01*
X143749583Y-92672321D02*
X143175297Y-93636607D01*
X143972916Y-93458035D02*
X143972916Y-92708035D01*
X144132440Y-92708035D01*
X144228154Y-92743750D01*
X144291964Y-92815178D01*
X144323869Y-92886607D01*
X144355773Y-93029464D01*
X144355773Y-93136607D01*
X144323869Y-93279464D01*
X144291964Y-93350892D01*
X144228154Y-93422321D01*
X144132440Y-93458035D01*
X143972916Y-93458035D01*
X144770535Y-92708035D02*
X144834345Y-92708035D01*
X144898154Y-92743750D01*
X144930059Y-92779464D01*
X144961964Y-92850892D01*
X144993869Y-92993750D01*
X144993869Y-93172321D01*
X144961964Y-93315178D01*
X144930059Y-93386607D01*
X144898154Y-93422321D01*
X144834345Y-93458035D01*
X144770535Y-93458035D01*
X144706726Y-93422321D01*
X144674821Y-93386607D01*
X144642916Y-93315178D01*
X144611011Y-93172321D01*
X144611011Y-92993750D01*
X144642916Y-92850892D01*
X144674821Y-92779464D01*
X144706726Y-92743750D01*
X144770535Y-92708035D01*
X145759583Y-92672321D02*
X145185297Y-93636607D01*
X145919107Y-92708035D02*
X146333869Y-92708035D01*
X146110535Y-92993750D01*
X146206250Y-92993750D01*
X146270059Y-93029464D01*
X146301964Y-93065178D01*
X146333869Y-93136607D01*
X146333869Y-93315178D01*
X146301964Y-93386607D01*
X146270059Y-93422321D01*
X146206250Y-93458035D01*
X146014821Y-93458035D01*
X145951011Y-93422321D01*
X145919107Y-93386607D01*
X141372678Y-90922321D02*
X141468392Y-90958035D01*
X141627916Y-90958035D01*
X141691726Y-90922321D01*
X141723630Y-90886607D01*
X141755535Y-90815178D01*
X141755535Y-90743750D01*
X141723630Y-90672321D01*
X141691726Y-90636607D01*
X141627916Y-90600892D01*
X141500297Y-90565178D01*
X141436488Y-90529464D01*
X141404583Y-90493750D01*
X141372678Y-90422321D01*
X141372678Y-90350892D01*
X141404583Y-90279464D01*
X141436488Y-90243750D01*
X141500297Y-90208035D01*
X141659821Y-90208035D01*
X141755535Y-90243750D01*
X142042678Y-90958035D02*
X142042678Y-90208035D01*
X142202202Y-90208035D01*
X142297916Y-90243750D01*
X142361726Y-90315178D01*
X142393630Y-90386607D01*
X142425535Y-90529464D01*
X142425535Y-90636607D01*
X142393630Y-90779464D01*
X142361726Y-90850892D01*
X142297916Y-90922321D01*
X142202202Y-90958035D01*
X142042678Y-90958035D01*
X142680773Y-90743750D02*
X142999821Y-90743750D01*
X142616964Y-90958035D02*
X142840297Y-90208035D01*
X143063630Y-90958035D01*
X143765535Y-90172321D02*
X143191250Y-91136607D01*
X143988869Y-90958035D02*
X143988869Y-90208035D01*
X144148392Y-90208035D01*
X144244107Y-90243750D01*
X144307916Y-90315178D01*
X144339821Y-90386607D01*
X144371726Y-90529464D01*
X144371726Y-90636607D01*
X144339821Y-90779464D01*
X144307916Y-90850892D01*
X144244107Y-90922321D01*
X144148392Y-90958035D01*
X143988869Y-90958035D01*
X145009821Y-90958035D02*
X144626964Y-90958035D01*
X144818392Y-90958035D02*
X144818392Y-90208035D01*
X144754583Y-90315178D01*
X144690773Y-90386607D01*
X144626964Y-90422321D01*
X145775535Y-90172321D02*
X145201250Y-91136607D01*
X145966964Y-90279464D02*
X145998869Y-90243750D01*
X146062678Y-90208035D01*
X146222202Y-90208035D01*
X146286011Y-90243750D01*
X146317916Y-90279464D01*
X146349821Y-90350892D01*
X146349821Y-90422321D01*
X146317916Y-90529464D01*
X145935059Y-90958035D01*
X146349821Y-90958035D01*
X143946726Y-95958035D02*
X143946726Y-95208035D01*
X144106250Y-95208035D01*
X144201964Y-95243750D01*
X144265773Y-95315178D01*
X144297678Y-95386607D01*
X144329583Y-95529464D01*
X144329583Y-95636607D01*
X144297678Y-95779464D01*
X144265773Y-95850892D01*
X144201964Y-95922321D01*
X144106250Y-95958035D01*
X143946726Y-95958035D01*
X144903869Y-95458035D02*
X144903869Y-95958035D01*
X144744345Y-95172321D02*
X144584821Y-95708035D01*
X144999583Y-95708035D01*
X145733392Y-95172321D02*
X145159107Y-96136607D01*
X146243869Y-95458035D02*
X146243869Y-95958035D01*
X146084345Y-95172321D02*
X145924821Y-95708035D01*
X146339583Y-95708035D01*
X142822440Y-80908035D02*
X142822440Y-80158035D01*
X142981964Y-80158035D01*
X143077678Y-80193750D01*
X143141488Y-80265178D01*
X143173392Y-80336607D01*
X143205297Y-80479464D01*
X143205297Y-80586607D01*
X143173392Y-80729464D01*
X143141488Y-80800892D01*
X143077678Y-80872321D01*
X142981964Y-80908035D01*
X142822440Y-80908035D01*
X143428630Y-80158035D02*
X143843392Y-80158035D01*
X143620059Y-80443750D01*
X143715773Y-80443750D01*
X143779583Y-80479464D01*
X143811488Y-80515178D01*
X143843392Y-80586607D01*
X143843392Y-80765178D01*
X143811488Y-80836607D01*
X143779583Y-80872321D01*
X143715773Y-80908035D01*
X143524345Y-80908035D01*
X143460535Y-80872321D01*
X143428630Y-80836607D01*
X144609107Y-80122321D02*
X144034821Y-81086607D01*
X144736726Y-80158035D02*
X145119583Y-80158035D01*
X144928154Y-80908035D02*
X144928154Y-80158035D01*
X145279107Y-80158035D02*
X145725773Y-80908035D01*
X145725773Y-80158035D02*
X145279107Y-80908035D01*
X146108630Y-80158035D02*
X146172440Y-80158035D01*
X146236250Y-80193750D01*
X146268154Y-80229464D01*
X146300059Y-80300892D01*
X146331964Y-80443750D01*
X146331964Y-80622321D01*
X146300059Y-80765178D01*
X146268154Y-80836607D01*
X146236250Y-80872321D01*
X146172440Y-80908035D01*
X146108630Y-80908035D01*
X146044821Y-80872321D01*
X146012916Y-80836607D01*
X145981011Y-80765178D01*
X145949107Y-80622321D01*
X145949107Y-80443750D01*
X145981011Y-80300892D01*
X146012916Y-80229464D01*
X146044821Y-80193750D01*
X146108630Y-80158035D01*
X144850773Y-87743750D02*
X144786964Y-87708035D01*
X144691250Y-87708035D01*
X144595535Y-87743750D01*
X144531726Y-87815178D01*
X144499821Y-87886607D01*
X144467916Y-88029464D01*
X144467916Y-88136607D01*
X144499821Y-88279464D01*
X144531726Y-88350892D01*
X144595535Y-88422321D01*
X144691250Y-88458035D01*
X144755059Y-88458035D01*
X144850773Y-88422321D01*
X144882678Y-88386607D01*
X144882678Y-88136607D01*
X144755059Y-88136607D01*
X145169821Y-88458035D02*
X145169821Y-87708035D01*
X145552678Y-88458035D01*
X145552678Y-87708035D01*
X145871726Y-88458035D02*
X145871726Y-87708035D01*
X146031250Y-87708035D01*
X146126964Y-87743750D01*
X146190773Y-87815178D01*
X146222678Y-87886607D01*
X146254583Y-88029464D01*
X146254583Y-88136607D01*
X146222678Y-88279464D01*
X146190773Y-88350892D01*
X146126964Y-88422321D01*
X146031250Y-88458035D01*
X145871726Y-88458035D01*
X144850773Y-85293750D02*
X144786964Y-85258035D01*
X144691250Y-85258035D01*
X144595535Y-85293750D01*
X144531726Y-85365178D01*
X144499821Y-85436607D01*
X144467916Y-85579464D01*
X144467916Y-85686607D01*
X144499821Y-85829464D01*
X144531726Y-85900892D01*
X144595535Y-85972321D01*
X144691250Y-86008035D01*
X144755059Y-86008035D01*
X144850773Y-85972321D01*
X144882678Y-85936607D01*
X144882678Y-85686607D01*
X144755059Y-85686607D01*
X145169821Y-86008035D02*
X145169821Y-85258035D01*
X145552678Y-86008035D01*
X145552678Y-85258035D01*
X145871726Y-86008035D02*
X145871726Y-85258035D01*
X146031250Y-85258035D01*
X146126964Y-85293750D01*
X146190773Y-85365178D01*
X146222678Y-85436607D01*
X146254583Y-85579464D01*
X146254583Y-85686607D01*
X146222678Y-85829464D01*
X146190773Y-85900892D01*
X146126964Y-85972321D01*
X146031250Y-86008035D01*
X145871726Y-86008035D01*
X143946726Y-101058035D02*
X143946726Y-100308035D01*
X144106250Y-100308035D01*
X144201964Y-100343750D01*
X144265773Y-100415178D01*
X144297678Y-100486607D01*
X144329583Y-100629464D01*
X144329583Y-100736607D01*
X144297678Y-100879464D01*
X144265773Y-100950892D01*
X144201964Y-101022321D01*
X144106250Y-101058035D01*
X143946726Y-101058035D01*
X144552916Y-100308035D02*
X144999583Y-100308035D01*
X144712440Y-101058035D01*
X145733392Y-100272321D02*
X145159107Y-101236607D01*
X146243869Y-100308035D02*
X146116250Y-100308035D01*
X146052440Y-100343750D01*
X146020535Y-100379464D01*
X145956726Y-100486607D01*
X145924821Y-100629464D01*
X145924821Y-100915178D01*
X145956726Y-100986607D01*
X145988630Y-101022321D01*
X146052440Y-101058035D01*
X146180059Y-101058035D01*
X146243869Y-101022321D01*
X146275773Y-100986607D01*
X146307678Y-100915178D01*
X146307678Y-100736607D01*
X146275773Y-100665178D01*
X146243869Y-100629464D01*
X146180059Y-100593750D01*
X146052440Y-100593750D01*
X145988630Y-100629464D01*
X145956726Y-100665178D01*
X145924821Y-100736607D01*
X143978630Y-103215178D02*
X144201964Y-103215178D01*
X144297678Y-103608035D02*
X143978630Y-103608035D01*
X143978630Y-102858035D01*
X144297678Y-102858035D01*
X144871964Y-102858035D02*
X144744345Y-102858035D01*
X144680535Y-102893750D01*
X144648630Y-102929464D01*
X144584821Y-103036607D01*
X144552916Y-103179464D01*
X144552916Y-103465178D01*
X144584821Y-103536607D01*
X144616726Y-103572321D01*
X144680535Y-103608035D01*
X144808154Y-103608035D01*
X144871964Y-103572321D01*
X144903869Y-103536607D01*
X144935773Y-103465178D01*
X144935773Y-103286607D01*
X144903869Y-103215178D01*
X144871964Y-103179464D01*
X144808154Y-103143750D01*
X144680535Y-103143750D01*
X144616726Y-103179464D01*
X144584821Y-103215178D01*
X144552916Y-103286607D01*
X145701488Y-102822321D02*
X145127202Y-103786607D01*
X145861011Y-102858035D02*
X146307678Y-102858035D01*
X146020535Y-103608035D01*
X134878630Y-106308035D02*
X134495773Y-106308035D01*
X134687202Y-106308035D02*
X134687202Y-105558035D01*
X134623392Y-105665178D01*
X134559583Y-105736607D01*
X134495773Y-105772321D01*
X135452916Y-105558035D02*
X135325297Y-105558035D01*
X135261488Y-105593750D01*
X135229583Y-105629464D01*
X135165773Y-105736607D01*
X135133869Y-105879464D01*
X135133869Y-106165178D01*
X135165773Y-106236607D01*
X135197678Y-106272321D01*
X135261488Y-106308035D01*
X135389107Y-106308035D01*
X135452916Y-106272321D01*
X135484821Y-106236607D01*
X135516726Y-106165178D01*
X135516726Y-105986607D01*
X135484821Y-105915178D01*
X135452916Y-105879464D01*
X135389107Y-105843750D01*
X135261488Y-105843750D01*
X135197678Y-105879464D01*
X135165773Y-105915178D01*
X135133869Y-105986607D01*
X136282440Y-105522321D02*
X135708154Y-106486607D01*
X136729107Y-105915178D02*
X136824821Y-105950892D01*
X136856726Y-105986607D01*
X136888630Y-106058035D01*
X136888630Y-106165178D01*
X136856726Y-106236607D01*
X136824821Y-106272321D01*
X136761011Y-106308035D01*
X136505773Y-106308035D01*
X136505773Y-105558035D01*
X136729107Y-105558035D01*
X136792916Y-105593750D01*
X136824821Y-105629464D01*
X136856726Y-105700892D01*
X136856726Y-105772321D01*
X136824821Y-105843750D01*
X136792916Y-105879464D01*
X136729107Y-105915178D01*
X136505773Y-105915178D01*
X137143869Y-105629464D02*
X137175773Y-105593750D01*
X137239583Y-105558035D01*
X137399107Y-105558035D01*
X137462916Y-105593750D01*
X137494821Y-105629464D01*
X137526726Y-105700892D01*
X137526726Y-105772321D01*
X137494821Y-105879464D01*
X137111964Y-106308035D01*
X137526726Y-106308035D01*
X134878630Y-108808035D02*
X134495773Y-108808035D01*
X134687202Y-108808035D02*
X134687202Y-108058035D01*
X134623392Y-108165178D01*
X134559583Y-108236607D01*
X134495773Y-108272321D01*
X135293392Y-108058035D02*
X135357202Y-108058035D01*
X135421011Y-108093750D01*
X135452916Y-108129464D01*
X135484821Y-108200892D01*
X135516726Y-108343750D01*
X135516726Y-108522321D01*
X135484821Y-108665178D01*
X135452916Y-108736607D01*
X135421011Y-108772321D01*
X135357202Y-108808035D01*
X135293392Y-108808035D01*
X135229583Y-108772321D01*
X135197678Y-108736607D01*
X135165773Y-108665178D01*
X135133869Y-108522321D01*
X135133869Y-108343750D01*
X135165773Y-108200892D01*
X135197678Y-108129464D01*
X135229583Y-108093750D01*
X135293392Y-108058035D01*
X136282440Y-108022321D02*
X135708154Y-108986607D01*
X136729107Y-108415178D02*
X136824821Y-108450892D01*
X136856726Y-108486607D01*
X136888630Y-108558035D01*
X136888630Y-108665178D01*
X136856726Y-108736607D01*
X136824821Y-108772321D01*
X136761011Y-108808035D01*
X136505773Y-108808035D01*
X136505773Y-108058035D01*
X136729107Y-108058035D01*
X136792916Y-108093750D01*
X136824821Y-108129464D01*
X136856726Y-108200892D01*
X136856726Y-108272321D01*
X136824821Y-108343750D01*
X136792916Y-108379464D01*
X136729107Y-108415178D01*
X136505773Y-108415178D01*
X137462916Y-108058035D02*
X137335297Y-108058035D01*
X137271488Y-108093750D01*
X137239583Y-108129464D01*
X137175773Y-108236607D01*
X137143869Y-108379464D01*
X137143869Y-108665178D01*
X137175773Y-108736607D01*
X137207678Y-108772321D01*
X137271488Y-108808035D01*
X137399107Y-108808035D01*
X137462916Y-108772321D01*
X137494821Y-108736607D01*
X137526726Y-108665178D01*
X137526726Y-108486607D01*
X137494821Y-108415178D01*
X137462916Y-108379464D01*
X137399107Y-108343750D01*
X137271488Y-108343750D01*
X137207678Y-108379464D01*
X137175773Y-108415178D01*
X137143869Y-108486607D01*
X134878630Y-103758035D02*
X134495773Y-103758035D01*
X134687202Y-103758035D02*
X134687202Y-103008035D01*
X134623392Y-103115178D01*
X134559583Y-103186607D01*
X134495773Y-103222321D01*
X135452916Y-103258035D02*
X135452916Y-103758035D01*
X135293392Y-102972321D02*
X135133869Y-103508035D01*
X135548630Y-103508035D01*
X136282440Y-102972321D02*
X135708154Y-103936607D01*
X136729107Y-103365178D02*
X136824821Y-103400892D01*
X136856726Y-103436607D01*
X136888630Y-103508035D01*
X136888630Y-103615178D01*
X136856726Y-103686607D01*
X136824821Y-103722321D01*
X136761011Y-103758035D01*
X136505773Y-103758035D01*
X136505773Y-103008035D01*
X136729107Y-103008035D01*
X136792916Y-103043750D01*
X136824821Y-103079464D01*
X136856726Y-103150892D01*
X136856726Y-103222321D01*
X136824821Y-103293750D01*
X136792916Y-103329464D01*
X136729107Y-103365178D01*
X136505773Y-103365178D01*
X137111964Y-103008035D02*
X137526726Y-103008035D01*
X137303392Y-103293750D01*
X137399107Y-103293750D01*
X137462916Y-103329464D01*
X137494821Y-103365178D01*
X137526726Y-103436607D01*
X137526726Y-103615178D01*
X137494821Y-103686607D01*
X137462916Y-103722321D01*
X137399107Y-103758035D01*
X137207678Y-103758035D01*
X137143869Y-103722321D01*
X137111964Y-103686607D01*
X134878630Y-101208035D02*
X134495773Y-101208035D01*
X134687202Y-101208035D02*
X134687202Y-100458035D01*
X134623392Y-100565178D01*
X134559583Y-100636607D01*
X134495773Y-100672321D01*
X135484821Y-100458035D02*
X135165773Y-100458035D01*
X135133869Y-100815178D01*
X135165773Y-100779464D01*
X135229583Y-100743750D01*
X135389107Y-100743750D01*
X135452916Y-100779464D01*
X135484821Y-100815178D01*
X135516726Y-100886607D01*
X135516726Y-101065178D01*
X135484821Y-101136607D01*
X135452916Y-101172321D01*
X135389107Y-101208035D01*
X135229583Y-101208035D01*
X135165773Y-101172321D01*
X135133869Y-101136607D01*
X136282440Y-100422321D02*
X135708154Y-101386607D01*
X136729107Y-100815178D02*
X136824821Y-100850892D01*
X136856726Y-100886607D01*
X136888630Y-100958035D01*
X136888630Y-101065178D01*
X136856726Y-101136607D01*
X136824821Y-101172321D01*
X136761011Y-101208035D01*
X136505773Y-101208035D01*
X136505773Y-100458035D01*
X136729107Y-100458035D01*
X136792916Y-100493750D01*
X136824821Y-100529464D01*
X136856726Y-100600892D01*
X136856726Y-100672321D01*
X136824821Y-100743750D01*
X136792916Y-100779464D01*
X136729107Y-100815178D01*
X136505773Y-100815178D01*
X137526726Y-101208035D02*
X137143869Y-101208035D01*
X137335297Y-101208035D02*
X137335297Y-100458035D01*
X137271488Y-100565178D01*
X137207678Y-100636607D01*
X137143869Y-100672321D01*
X134575535Y-98443750D02*
X134894583Y-98443750D01*
X134511726Y-98658035D02*
X134735059Y-97908035D01*
X134958392Y-98658035D01*
X135309345Y-97908035D02*
X135373154Y-97908035D01*
X135436964Y-97943750D01*
X135468869Y-97979464D01*
X135500773Y-98050892D01*
X135532678Y-98193750D01*
X135532678Y-98372321D01*
X135500773Y-98515178D01*
X135468869Y-98586607D01*
X135436964Y-98622321D01*
X135373154Y-98658035D01*
X135309345Y-98658035D01*
X135245535Y-98622321D01*
X135213630Y-98586607D01*
X135181726Y-98515178D01*
X135149821Y-98372321D01*
X135149821Y-98193750D01*
X135181726Y-98050892D01*
X135213630Y-97979464D01*
X135245535Y-97943750D01*
X135309345Y-97908035D01*
X136298392Y-97872321D02*
X135724107Y-98836607D01*
X136745059Y-98265178D02*
X136521726Y-98265178D01*
X136521726Y-98658035D02*
X136521726Y-97908035D01*
X136840773Y-97908035D01*
X137032202Y-97908035D02*
X137478869Y-97908035D01*
X137191726Y-98658035D01*
X134575535Y-95893750D02*
X134894583Y-95893750D01*
X134511726Y-96108035D02*
X134735059Y-95358035D01*
X134958392Y-96108035D01*
X135532678Y-96108035D02*
X135149821Y-96108035D01*
X135341250Y-96108035D02*
X135341250Y-95358035D01*
X135277440Y-95465178D01*
X135213630Y-95536607D01*
X135149821Y-95572321D01*
X136298392Y-95322321D02*
X135724107Y-96286607D01*
X136745059Y-95715178D02*
X136521726Y-95715178D01*
X136521726Y-96108035D02*
X136521726Y-95358035D01*
X136840773Y-95358035D01*
X137383154Y-95358035D02*
X137255535Y-95358035D01*
X137191726Y-95393750D01*
X137159821Y-95429464D01*
X137096011Y-95536607D01*
X137064107Y-95679464D01*
X137064107Y-95965178D01*
X137096011Y-96036607D01*
X137127916Y-96072321D01*
X137191726Y-96108035D01*
X137319345Y-96108035D01*
X137383154Y-96072321D01*
X137415059Y-96036607D01*
X137446964Y-95965178D01*
X137446964Y-95786607D01*
X137415059Y-95715178D01*
X137383154Y-95679464D01*
X137319345Y-95643750D01*
X137191726Y-95643750D01*
X137127916Y-95679464D01*
X137096011Y-95715178D01*
X137064107Y-95786607D01*
X134575535Y-93393750D02*
X134894583Y-93393750D01*
X134511726Y-93608035D02*
X134735059Y-92858035D01*
X134958392Y-93608035D01*
X135149821Y-92929464D02*
X135181726Y-92893750D01*
X135245535Y-92858035D01*
X135405059Y-92858035D01*
X135468869Y-92893750D01*
X135500773Y-92929464D01*
X135532678Y-93000892D01*
X135532678Y-93072321D01*
X135500773Y-93179464D01*
X135117916Y-93608035D01*
X135532678Y-93608035D01*
X136298392Y-92822321D02*
X135724107Y-93786607D01*
X136745059Y-93215178D02*
X136521726Y-93215178D01*
X136521726Y-93608035D02*
X136521726Y-92858035D01*
X136840773Y-92858035D01*
X137415059Y-92858035D02*
X137096011Y-92858035D01*
X137064107Y-93215178D01*
X137096011Y-93179464D01*
X137159821Y-93143750D01*
X137319345Y-93143750D01*
X137383154Y-93179464D01*
X137415059Y-93215178D01*
X137446964Y-93286607D01*
X137446964Y-93465178D01*
X137415059Y-93536607D01*
X137383154Y-93572321D01*
X137319345Y-93608035D01*
X137159821Y-93608035D01*
X137096011Y-93572321D01*
X137064107Y-93536607D01*
X134575535Y-90893750D02*
X134894583Y-90893750D01*
X134511726Y-91108035D02*
X134735059Y-90358035D01*
X134958392Y-91108035D01*
X135117916Y-90358035D02*
X135532678Y-90358035D01*
X135309345Y-90643750D01*
X135405059Y-90643750D01*
X135468869Y-90679464D01*
X135500773Y-90715178D01*
X135532678Y-90786607D01*
X135532678Y-90965178D01*
X135500773Y-91036607D01*
X135468869Y-91072321D01*
X135405059Y-91108035D01*
X135213630Y-91108035D01*
X135149821Y-91072321D01*
X135117916Y-91036607D01*
X136298392Y-90322321D02*
X135724107Y-91286607D01*
X136745059Y-90715178D02*
X136521726Y-90715178D01*
X136521726Y-91108035D02*
X136521726Y-90358035D01*
X136840773Y-90358035D01*
X137383154Y-90608035D02*
X137383154Y-91108035D01*
X137223630Y-90322321D02*
X137064107Y-90858035D01*
X137478869Y-90858035D01*
X134517916Y-87658035D02*
X134741250Y-88408035D01*
X134964583Y-87658035D01*
X135570773Y-88336607D02*
X135538869Y-88372321D01*
X135443154Y-88408035D01*
X135379345Y-88408035D01*
X135283630Y-88372321D01*
X135219821Y-88300892D01*
X135187916Y-88229464D01*
X135156011Y-88086607D01*
X135156011Y-87979464D01*
X135187916Y-87836607D01*
X135219821Y-87765178D01*
X135283630Y-87693750D01*
X135379345Y-87658035D01*
X135443154Y-87658035D01*
X135538869Y-87693750D01*
X135570773Y-87729464D01*
X136240773Y-88336607D02*
X136208869Y-88372321D01*
X136113154Y-88408035D01*
X136049345Y-88408035D01*
X135953630Y-88372321D01*
X135889821Y-88300892D01*
X135857916Y-88229464D01*
X135826011Y-88086607D01*
X135826011Y-87979464D01*
X135857916Y-87836607D01*
X135889821Y-87765178D01*
X135953630Y-87693750D01*
X136049345Y-87658035D01*
X136113154Y-87658035D01*
X136208869Y-87693750D01*
X136240773Y-87729464D01*
X135044345Y-85958035D02*
X134821011Y-85600892D01*
X134661488Y-85958035D02*
X134661488Y-85208035D01*
X134916726Y-85208035D01*
X134980535Y-85243750D01*
X135012440Y-85279464D01*
X135044345Y-85350892D01*
X135044345Y-85458035D01*
X135012440Y-85529464D01*
X134980535Y-85565178D01*
X134916726Y-85600892D01*
X134661488Y-85600892D01*
X135299583Y-85922321D02*
X135395297Y-85958035D01*
X135554821Y-85958035D01*
X135618630Y-85922321D01*
X135650535Y-85886607D01*
X135682440Y-85815178D01*
X135682440Y-85743750D01*
X135650535Y-85672321D01*
X135618630Y-85636607D01*
X135554821Y-85600892D01*
X135427202Y-85565178D01*
X135363392Y-85529464D01*
X135331488Y-85493750D01*
X135299583Y-85422321D01*
X135299583Y-85350892D01*
X135331488Y-85279464D01*
X135363392Y-85243750D01*
X135427202Y-85208035D01*
X135586726Y-85208035D01*
X135682440Y-85243750D01*
X135873869Y-85208035D02*
X136256726Y-85208035D01*
X136065297Y-85958035D02*
X136065297Y-85208035D01*
X134900773Y-82693750D02*
X134836964Y-82658035D01*
X134741250Y-82658035D01*
X134645535Y-82693750D01*
X134581726Y-82765178D01*
X134549821Y-82836607D01*
X134517916Y-82979464D01*
X134517916Y-83086607D01*
X134549821Y-83229464D01*
X134581726Y-83300892D01*
X134645535Y-83372321D01*
X134741250Y-83408035D01*
X134805059Y-83408035D01*
X134900773Y-83372321D01*
X134932678Y-83336607D01*
X134932678Y-83086607D01*
X134805059Y-83086607D01*
X135219821Y-83408035D02*
X135219821Y-82658035D01*
X135602678Y-83408035D01*
X135602678Y-82658035D01*
X135921726Y-83408035D02*
X135921726Y-82658035D01*
X136081250Y-82658035D01*
X136176964Y-82693750D01*
X136240773Y-82765178D01*
X136272678Y-82836607D01*
X136304583Y-82979464D01*
X136304583Y-83086607D01*
X136272678Y-83229464D01*
X136240773Y-83300892D01*
X136176964Y-83372321D01*
X136081250Y-83408035D01*
X135921726Y-83408035D01*
X134948630Y-80858035D02*
X134725297Y-80500892D01*
X134565773Y-80858035D02*
X134565773Y-80108035D01*
X134821011Y-80108035D01*
X134884821Y-80143750D01*
X134916726Y-80179464D01*
X134948630Y-80250892D01*
X134948630Y-80358035D01*
X134916726Y-80429464D01*
X134884821Y-80465178D01*
X134821011Y-80500892D01*
X134565773Y-80500892D01*
X135203869Y-80643750D02*
X135522916Y-80643750D01*
X135140059Y-80858035D02*
X135363392Y-80108035D01*
X135586726Y-80858035D01*
X135746250Y-80108035D02*
X135905773Y-80858035D01*
X136033392Y-80322321D01*
X136161011Y-80858035D01*
X136320535Y-80108035D01*
D10*
X139153869Y-118371130D02*
X138820535Y-117894940D01*
X138582440Y-118371130D02*
X138582440Y-117371130D01*
X138963392Y-117371130D01*
X139058630Y-117418750D01*
X139106250Y-117466369D01*
X139153869Y-117561607D01*
X139153869Y-117704464D01*
X139106250Y-117799702D01*
X139058630Y-117847321D01*
X138963392Y-117894940D01*
X138582440Y-117894940D01*
X139582440Y-117847321D02*
X139915773Y-117847321D01*
X140058630Y-118371130D02*
X139582440Y-118371130D01*
X139582440Y-117371130D01*
X140058630Y-117371130D01*
X140439583Y-118323511D02*
X140582440Y-118371130D01*
X140820535Y-118371130D01*
X140915773Y-118323511D01*
X140963392Y-118275892D01*
X141011011Y-118180654D01*
X141011011Y-118085416D01*
X140963392Y-117990178D01*
X140915773Y-117942559D01*
X140820535Y-117894940D01*
X140630059Y-117847321D01*
X140534821Y-117799702D01*
X140487202Y-117752083D01*
X140439583Y-117656845D01*
X140439583Y-117561607D01*
X140487202Y-117466369D01*
X140534821Y-117418750D01*
X140630059Y-117371130D01*
X140868154Y-117371130D01*
X141011011Y-117418750D01*
X141439583Y-117847321D02*
X141772916Y-117847321D01*
X141915773Y-118371130D02*
X141439583Y-118371130D01*
X141439583Y-117371130D01*
X141915773Y-117371130D01*
X142201488Y-117371130D02*
X142772916Y-117371130D01*
X142487202Y-118371130D02*
X142487202Y-117371130D01*
%LPC*%
D13*
X177111666Y-124531380D02*
X177111666Y-123531380D01*
X177445000Y-124245666D01*
X177778333Y-123531380D01*
X177778333Y-124531380D01*
X178159285Y-123864714D02*
X178397380Y-124531380D01*
X178635476Y-123864714D02*
X178397380Y-124531380D01*
X178302142Y-124769476D01*
X178254523Y-124817095D01*
X178159285Y-124864714D01*
X180206904Y-124531380D02*
X180206904Y-124007571D01*
X180159285Y-123912333D01*
X180064047Y-123864714D01*
X179873571Y-123864714D01*
X179778333Y-123912333D01*
X180206904Y-124483761D02*
X180111666Y-124531380D01*
X179873571Y-124531380D01*
X179778333Y-124483761D01*
X179730714Y-124388523D01*
X179730714Y-124293285D01*
X179778333Y-124198047D01*
X179873571Y-124150428D01*
X180111666Y-124150428D01*
X180206904Y-124102809D01*
X180540238Y-123864714D02*
X180921190Y-123864714D01*
X180683095Y-123531380D02*
X180683095Y-124388523D01*
X180730714Y-124483761D01*
X180825952Y-124531380D01*
X180921190Y-124531380D01*
X181111666Y-123864714D02*
X181492619Y-123864714D01*
X181254523Y-123531380D02*
X181254523Y-124388523D01*
X181302142Y-124483761D01*
X181397380Y-124531380D01*
X181492619Y-124531380D01*
X182206904Y-124483761D02*
X182111666Y-124531380D01*
X181921190Y-124531380D01*
X181825952Y-124483761D01*
X181778333Y-124388523D01*
X181778333Y-124007571D01*
X181825952Y-123912333D01*
X181921190Y-123864714D01*
X182111666Y-123864714D01*
X182206904Y-123912333D01*
X182254523Y-124007571D01*
X182254523Y-124102809D01*
X181778333Y-124198047D01*
X182683095Y-124531380D02*
X182683095Y-123864714D01*
X182683095Y-123959952D02*
X182730714Y-123912333D01*
X182825952Y-123864714D01*
X182968809Y-123864714D01*
X183064047Y-123912333D01*
X183111666Y-124007571D01*
X183111666Y-124531380D01*
X183111666Y-124007571D02*
X183159285Y-123912333D01*
X183254523Y-123864714D01*
X183397380Y-123864714D01*
X183492619Y-123912333D01*
X183540238Y-124007571D01*
X183540238Y-124531380D01*
X184016428Y-123864714D02*
X184016428Y-124864714D01*
X184016428Y-123912333D02*
X184111666Y-123864714D01*
X184302142Y-123864714D01*
X184397380Y-123912333D01*
X184445000Y-123959952D01*
X184492619Y-124055190D01*
X184492619Y-124340904D01*
X184445000Y-124436142D01*
X184397380Y-124483761D01*
X184302142Y-124531380D01*
X184111666Y-124531380D01*
X184016428Y-124483761D01*
X184778333Y-123864714D02*
X185159285Y-123864714D01*
X184921190Y-123531380D02*
X184921190Y-124388523D01*
X184968809Y-124483761D01*
X185064047Y-124531380D01*
X185159285Y-124531380D01*
X186683095Y-124531380D02*
X186683095Y-124007571D01*
X186635476Y-123912333D01*
X186540238Y-123864714D01*
X186349761Y-123864714D01*
X186254523Y-123912333D01*
X186683095Y-124483761D02*
X186587857Y-124531380D01*
X186349761Y-124531380D01*
X186254523Y-124483761D01*
X186206904Y-124388523D01*
X186206904Y-124293285D01*
X186254523Y-124198047D01*
X186349761Y-124150428D01*
X186587857Y-124150428D01*
X186683095Y-124102809D01*
X187016428Y-123864714D02*
X187397380Y-123864714D01*
X187159285Y-123531380D02*
X187159285Y-124388523D01*
X187206904Y-124483761D01*
X187302142Y-124531380D01*
X187397380Y-124531380D01*
X188492619Y-124531380D02*
X188492619Y-123864714D01*
X188492619Y-123959952D02*
X188540238Y-123912333D01*
X188635476Y-123864714D01*
X188778333Y-123864714D01*
X188873571Y-123912333D01*
X188921190Y-124007571D01*
X188921190Y-124531380D01*
X188921190Y-124007571D02*
X188968809Y-123912333D01*
X189064047Y-123864714D01*
X189206904Y-123864714D01*
X189302142Y-123912333D01*
X189349761Y-124007571D01*
X189349761Y-124531380D01*
X189825952Y-124531380D02*
X189825952Y-123531380D01*
X189921190Y-124150428D02*
X190206904Y-124531380D01*
X190206904Y-123864714D02*
X189825952Y-124245666D01*
X190635476Y-124531380D02*
X190635476Y-123531380D01*
X190635476Y-123912333D02*
X190730714Y-123864714D01*
X190921190Y-123864714D01*
X191016428Y-123912333D01*
X191064047Y-123959952D01*
X191111666Y-124055190D01*
X191111666Y-124340904D01*
X191064047Y-124436142D01*
X191016428Y-124483761D01*
X190921190Y-124531380D01*
X190730714Y-124531380D01*
X190635476Y-124483761D01*
X191968809Y-124531380D02*
X191968809Y-123531380D01*
X191968809Y-124483761D02*
X191873571Y-124531380D01*
X191683095Y-124531380D01*
X191587857Y-124483761D01*
X191540238Y-124436142D01*
X191492619Y-124340904D01*
X191492619Y-124055190D01*
X191540238Y-123959952D01*
X191587857Y-123912333D01*
X191683095Y-123864714D01*
X191873571Y-123864714D01*
X191968809Y-123912333D01*
X192445000Y-124150428D02*
X193206904Y-124150428D01*
X194111666Y-123864714D02*
X194111666Y-124674238D01*
X194064047Y-124769476D01*
X194016428Y-124817095D01*
X193921190Y-124864714D01*
X193778333Y-124864714D01*
X193683095Y-124817095D01*
X194111666Y-124483761D02*
X194016428Y-124531380D01*
X193825952Y-124531380D01*
X193730714Y-124483761D01*
X193683095Y-124436142D01*
X193635476Y-124340904D01*
X193635476Y-124055190D01*
X193683095Y-123959952D01*
X193730714Y-123912333D01*
X193825952Y-123864714D01*
X194016428Y-123864714D01*
X194111666Y-123912333D01*
X195016428Y-123864714D02*
X195016428Y-124531380D01*
X194587857Y-123864714D02*
X194587857Y-124388523D01*
X194635476Y-124483761D01*
X194730714Y-124531380D01*
X194873571Y-124531380D01*
X194968809Y-124483761D01*
X195016428Y-124436142D01*
X195492619Y-124531380D02*
X195492619Y-123864714D01*
X195492619Y-123531380D02*
X195445000Y-123579000D01*
X195492619Y-123626619D01*
X195540238Y-123579000D01*
X195492619Y-123531380D01*
X195492619Y-123626619D01*
X196397380Y-124531380D02*
X196397380Y-123531380D01*
X196397380Y-124483761D02*
X196302142Y-124531380D01*
X196111666Y-124531380D01*
X196016428Y-124483761D01*
X195968809Y-124436142D01*
X195921190Y-124340904D01*
X195921190Y-124055190D01*
X195968809Y-123959952D01*
X196016428Y-123912333D01*
X196111666Y-123864714D01*
X196302142Y-123864714D01*
X196397380Y-123912333D01*
X197254523Y-124483761D02*
X197159285Y-124531380D01*
X196968809Y-124531380D01*
X196873571Y-124483761D01*
X196825952Y-124388523D01*
X196825952Y-124007571D01*
X196873571Y-123912333D01*
X196968809Y-123864714D01*
X197159285Y-123864714D01*
X197254523Y-123912333D01*
X197302142Y-124007571D01*
X197302142Y-124102809D01*
X196825952Y-124198047D01*
X198492619Y-124150428D02*
X199254523Y-124150428D01*
X200921190Y-123864714D02*
X200921190Y-124531380D01*
X200492619Y-123864714D02*
X200492619Y-124388523D01*
X200540238Y-124483761D01*
X200635476Y-124531380D01*
X200778333Y-124531380D01*
X200873571Y-124483761D01*
X200921190Y-124436142D01*
X202111666Y-123483761D02*
X201254523Y-124769476D01*
X202302142Y-123864714D02*
X202683095Y-123864714D01*
X202445000Y-123531380D02*
X202445000Y-124388523D01*
X202492619Y-124483761D01*
X202587857Y-124531380D01*
X202683095Y-124531380D01*
X203016428Y-124531380D02*
X203016428Y-123531380D01*
X203445000Y-124531380D02*
X203445000Y-124007571D01*
X203397380Y-123912333D01*
X203302142Y-123864714D01*
X203159285Y-123864714D01*
X203064047Y-123912333D01*
X203016428Y-123959952D01*
X204064047Y-124531380D02*
X203968809Y-124483761D01*
X203921190Y-124436142D01*
X203873571Y-124340904D01*
X203873571Y-124055190D01*
X203921190Y-123959952D01*
X203968809Y-123912333D01*
X204064047Y-123864714D01*
X204206904Y-123864714D01*
X204302142Y-123912333D01*
X204349761Y-123959952D01*
X204397380Y-124055190D01*
X204397380Y-124340904D01*
X204349761Y-124436142D01*
X204302142Y-124483761D01*
X204206904Y-124531380D01*
X204064047Y-124531380D01*
X204825952Y-124531380D02*
X204825952Y-123864714D01*
X204825952Y-123959952D02*
X204873571Y-123912333D01*
X204968809Y-123864714D01*
X205111666Y-123864714D01*
X205206904Y-123912333D01*
X205254523Y-124007571D01*
X205254523Y-124531380D01*
X205254523Y-124007571D02*
X205302142Y-123912333D01*
X205397380Y-123864714D01*
X205540238Y-123864714D01*
X205635476Y-123912333D01*
X205683095Y-124007571D01*
X205683095Y-124531380D01*
X206587857Y-124531380D02*
X206587857Y-124007571D01*
X206540238Y-123912333D01*
X206445000Y-123864714D01*
X206254523Y-123864714D01*
X206159285Y-123912333D01*
X206587857Y-124483761D02*
X206492619Y-124531380D01*
X206254523Y-124531380D01*
X206159285Y-124483761D01*
X206111666Y-124388523D01*
X206111666Y-124293285D01*
X206159285Y-124198047D01*
X206254523Y-124150428D01*
X206492619Y-124150428D01*
X206587857Y-124102809D01*
X207016428Y-124483761D02*
X207111666Y-124531380D01*
X207302142Y-124531380D01*
X207397380Y-124483761D01*
X207445000Y-124388523D01*
X207445000Y-124340904D01*
X207397380Y-124245666D01*
X207302142Y-124198047D01*
X207159285Y-124198047D01*
X207064047Y-124150428D01*
X207016428Y-124055190D01*
X207016428Y-124007571D01*
X207064047Y-123912333D01*
X207159285Y-123864714D01*
X207302142Y-123864714D01*
X207397380Y-123912333D01*
X207730714Y-123864714D02*
X208111666Y-123864714D01*
X207873571Y-123531380D02*
X207873571Y-124388523D01*
X207921190Y-124483761D01*
X208016428Y-124531380D01*
X208111666Y-124531380D01*
X208445000Y-124531380D02*
X208445000Y-123864714D01*
X208445000Y-124055190D02*
X208492619Y-123959952D01*
X208540238Y-123912333D01*
X208635476Y-123864714D01*
X208730714Y-123864714D01*
X209492619Y-124531380D02*
X209492619Y-124007571D01*
X209445000Y-123912333D01*
X209349761Y-123864714D01*
X209159285Y-123864714D01*
X209064047Y-123912333D01*
X209492619Y-124483761D02*
X209397380Y-124531380D01*
X209159285Y-124531380D01*
X209064047Y-124483761D01*
X209016428Y-124388523D01*
X209016428Y-124293285D01*
X209064047Y-124198047D01*
X209159285Y-124150428D01*
X209397380Y-124150428D01*
X209492619Y-124102809D01*
X209968809Y-124531380D02*
X209968809Y-123864714D01*
X209968809Y-123531380D02*
X209921190Y-123579000D01*
X209968809Y-123626619D01*
X210016428Y-123579000D01*
X209968809Y-123531380D01*
X209968809Y-123626619D01*
X210445000Y-123864714D02*
X210445000Y-124531380D01*
X210445000Y-123959952D02*
X210492619Y-123912333D01*
X210587857Y-123864714D01*
X210730714Y-123864714D01*
X210825952Y-123912333D01*
X210873571Y-124007571D01*
X210873571Y-124531380D01*
X211540238Y-123531380D02*
X211635476Y-123531380D01*
X211730714Y-123579000D01*
X211778333Y-123626619D01*
X211825952Y-123721857D01*
X211873571Y-123912333D01*
X211873571Y-124150428D01*
X211825952Y-124340904D01*
X211778333Y-124436142D01*
X211730714Y-124483761D01*
X211635476Y-124531380D01*
X211540238Y-124531380D01*
X211445000Y-124483761D01*
X211397380Y-124436142D01*
X211349761Y-124340904D01*
X211302142Y-124150428D01*
X211302142Y-123912333D01*
X211349761Y-123721857D01*
X211397380Y-123626619D01*
X211445000Y-123579000D01*
X211540238Y-123531380D01*
X212492619Y-123531380D02*
X212587857Y-123531380D01*
X212683095Y-123579000D01*
X212730714Y-123626619D01*
X212778333Y-123721857D01*
X212825952Y-123912333D01*
X212825952Y-124150428D01*
X212778333Y-124340904D01*
X212730714Y-124436142D01*
X212683095Y-124483761D01*
X212587857Y-124531380D01*
X212492619Y-124531380D01*
X212397380Y-124483761D01*
X212349761Y-124436142D01*
X212302142Y-124340904D01*
X212254523Y-124150428D01*
X212254523Y-123912333D01*
X212302142Y-123721857D01*
X212349761Y-123626619D01*
X212397380Y-123579000D01*
X212492619Y-123531380D01*
D14*
X183356250Y-92868750D03*
D15*
X178276250Y-92868750D03*
X188436250Y-92868750D03*
X169386250Y-92868750D03*
X159226250Y-92868750D03*
D14*
X164306250Y-92868750D03*
X164306250Y-111918750D03*
D15*
X159226250Y-111918750D03*
X169386250Y-111918750D03*
X188436250Y-111918750D03*
X178276250Y-111918750D03*
D14*
X183356250Y-111918750D03*
D15*
X207486250Y-92868750D03*
X197326250Y-92868750D03*
D14*
X202406250Y-92868750D03*
X202406250Y-111918750D03*
D15*
X197326250Y-111918750D03*
X207486250Y-111918750D03*
D16*
X143856250Y-117918750D03*
X137356250Y-117918750D03*
M02*
